999
The file was created in CADSoftTools software
999
CADEditorX 14; 
  0
SECTION
  2
HEADER
  9
$ACADVER
  1
AC1018
  9
$DWGCODEPAGE
  3
GB2312
  9
$CLAYER
  8
0
  9
$CELTYPE
  6
ByLayer
  9
$CELTSCALE
 40
1
  9
$CELWEIGHT
370
-1
  9
$DIMALT
 70
0
  9
$DIMALTF
 40
25.4
  9
$DIMPOST
  1

  9
$DIMAPOST
  1

  9
$DIMSCALE
 40
1
  9
$DIMASZ
 40
0.18
  9
$DIMCLRD
 70
0
  9
$DIMCLRE
 70
0
  9
$DIMCLRT
 70
0
  9
$DIMEXE
 40
0.18
  9
$DIMEXO
 40
0.0625
  9
$DIMGAP
 40
0.09
  9
$DIMLFAC
 40
1
  9
$DIMDEC
 70
4
  9
$DIMTAD
 70
0
  9
$DIMCEN
 40
0.09
  9
$DIMTIH
 70
1
  9
$DIMTIX
 70
0
  9
$DIMTOH
 70
1
  9
$DIMSE1
 70
0
  9
$DIMSE2
 70
0
  9
$DIMSD1
 70
0
  9
$DIMSD2
 70
0
  9
$DIMLWD
 70
-2
  9
$DIMLWE
 70
-2
  9
$DIMSAH
 70
0
  9
$DIMBLK
  1

  9
$DIMBLK1
  1

  9
$DIMBLK2
  1

  9
$DIMLDRBLK
  1

  9
$DIMSTYLE
  2
Standard
  9
$DIMTP
 40
0
  9
$DIMTM
 40
0
  9
$DIMTXT
 40
0.18
  9
$DIMLUNIT
 70
2
  9
$DIMDSEP
 70
46
  9
$DIMTXSTY
  7
Standard
  9
$TEXTSIZE
 40
0.2
  9
$TEXTSTYLE
  7
Standard
  9
$HANDSEED
  5
0000000000000CAA
  9
$FILLETRAD
 40
0
  9
$INSUNITS
 70
1
  9
$LIMMIN
 10
35.2386899522654
 20
35.2386899522714
  9
$LIMMAX
 10
564.761310047728
 20
564.761310047741
  9
$FILLMODE
 70
1
  9
$LTSCALE
 40
1
  9
$MEASUREMENT
 70
0
  9
$ATTMODE
 70
1
  9
$PDMODE
 70
0
  9
$PDSIZE
 40
0
  9
$TILEMODE
 70
1
  9
$UCSORG
 10
0
 20
0
 30
0
  9
$UCSXDIR
 10
1
 20
0
 30
0
  9
$UCSYDIR
 10
0
 20
1
 30
0
  9
$INSBASE
 10
0
 20
0
 30
0
  9
$XCLIPFRAME
290
0
  9
$DIMASSOC
280
2
  9
$TDCREATE
 40
2458734.57069757
  9
$TDINDWG
 40
0.120398125
  9
$TDUPDATE
 40
2460268.47070943
  0
ENDSEC
  0
SECTION
  2
CLASSES
  0
CLASS
  1
IMAGE
  2
AcDbRasterImage
  3
ISM
 90
2175
 91
1
280
0
281
1
  0
CLASS
  1
IMAGEDEF
  2
AcDbRasterImageDef
  3
ISM
 90
0
 91
1
280
0
281
0
  0
CLASS
  1
WIPEOUT
  2
AcDbWipeout
  3
"WipeOut"
 90
2175
 91
1
280
0
281
1
  0
CLASS
  1
WIPEOUTVARIABLES
  2
AcDbWipeoutVariables
  3
"WipeOut"
 90
0
 91
1
280
0
281
0
  0
CLASS
  1
MPOLYGON
  2
AcDbMPolygon
  3
"AcMPolygonObj15"
 90
3071
 91
1
280
0
281
1
  0
CLASS
  1
TABLESTYLE
  2
AcDbTableStyle
  3
ObjectDBX Classes
 90
2047
 91
1
280
0
281
0
  0
CLASS
  1
ACAD_TABLE
  2
AcDbTable
  3
ObjectDBX Classes
 90
1025
 91
1
280
0
281
1
  0
ENDSEC
  0
SECTION
  2
TABLES
  0
TABLE
  2
APPID
  5
C8F
100
AcDbSymbolTable
  0
APPID
  5
24
100
AcDbSymbolTableRecord
100
AcDbRegAppTableRecord
  2
ACAD
 70
0
  0
APPID
  5
35
100
AcDbSymbolTableRecord
100
AcDbRegAppTableRecord
  2
AcAecLayerStandard
 70
0
  0
APPID
  5
2C4
100
AcDbSymbolTableRecord
100
AcDbRegAppTableRecord
  2
CSTINVENTORY
 70
0
  0
APPID
  5
C90
100
AcDbSymbolTableRecord
100
AcDbRegAppTableRecord
  2
AcDbAttr
 70
0
  0
APPID
  5
C91
100
AcDbSymbolTableRecord
100
AcDbRegAppTableRecord
  2
PE_URL
 70
0
  0
ENDTAB
  0
TABLE
  2
BLOCK_RECORD
  5
C92
100
AcDbSymbolTable
  0
BLOCK_RECORD
  5
2
100
AcDbSymbolTableRecord
100
AcDbBlockTableRecord
  2
*MODEL_SPACE
  0
BLOCK_RECORD
  5
10
100
AcDbSymbolTableRecord
100
AcDbBlockTableRecord
  2
*PAPER_SPACE
  0
BLOCK_RECORD
  5
2CA
100
AcDbSymbolTableRecord
100
AcDbBlockTableRecord
  2
_CLOSEDFILLED
  0
BLOCK_RECORD
  5
2CC
100
AcDbSymbolTableRecord
100
AcDbBlockTableRecord
  2
ABViewer_RedLine
  0
ENDTAB
  0
TABLE
  2
STYLE
  5
17
100
AcDbSymbolTable
  0
STYLE
  5
18
100
AcDbSymbolTableRecord
100
AcDbTextStyleTableRecord
  2
Standard
 70
0
 40
0
 41
1
 50
0
 71
0
 42
0.200000002980232
  3
txt
  4
gbcbig.shx
1001
ACAD
1000

1071
0
  0
ENDTAB
  0
TABLE
  2
LTYPE
  5
1A
100
AcDbSymbolTable
  0
LTYPE
  5
C
100
AcDbSymbolTableRecord
100
AcDbLinetypeTableRecord
  2
CONTINUOUS
 70
0
  3

 72
65
 73
0
 40
0
  0
LTYPE
  5
1B
100
AcDbSymbolTableRecord
100
AcDbLinetypeTableRecord
  2
BYBLOCK
 70
0
  3

 72
65
 73
0
 40
0
  0
LTYPE
  5
1C
100
AcDbSymbolTableRecord
100
AcDbLinetypeTableRecord
  2
BYLAYER
 70
0
  3

 72
65
 73
0
 40
0
  0
LTYPE
  5
2CD
100
AcDbSymbolTableRecord
100
AcDbLinetypeTableRecord
  2
CENTER
 70
0
  3
_ _ 
 72
65
 73
4
 40
2
 49
1.25
 74
0
 49
-0.25
 74
0
 49
0.25
 74
0
 49
-0.25
 74
0
  0
LTYPE
  5
2CE
100
AcDbSymbolTableRecord
100
AcDbLinetypeTableRecord
  2
ISO dash
 70
0
  3
_ 
 72
65
 73
2
 40
1.5
 49
1.2
 74
0
 49
-0.3
 74
0
  0
LTYPE
  5
2CF
100
AcDbSymbolTableRecord
100
AcDbLinetypeTableRecord
  2
ISO dot
 70
0
  3
. 
 72
65
 73
2
 40
0.3
 49
0
 74
0
 49
-0.3
 74
0
  0
LTYPE
  5
2D0
100
AcDbSymbolTableRecord
100
AcDbLinetypeTableRecord
  2
ISO dash dot
 70
0
  3
_ . 
 72
65
 73
4
 40
1.8
 49
1.2
 74
0
 49
-0.3
 74
0
 49
0
 74
0
 49
-0.3
 74
0
  0
LTYPE
  5
2D1
100
AcDbSymbolTableRecord
100
AcDbLinetypeTableRecord
  2
ISO dash double-dot
 70
0
  3
_ . . 
 72
65
 73
6
 40
2.1
 49
1.2
 74
0
 49
-0.3
 74
0
 49
0
 74
0
 49
-0.3
 74
0
 49
0
 74
0
 49
-0.3
 74
0
  0
LTYPE
  5
2D2
100
AcDbSymbolTableRecord
100
AcDbLinetypeTableRecord
  2
ISO dash triple-dot
 70
0
  3
_ . . . 
 72
65
 73
8
 40
2.4
 49
1.2
 74
0
 49
-0.3
 74
0
 49
0
 74
0
 49
-0.3
 74
0
 49
0
 74
0
 49
-0.3
 74
0
 49
0
 74
0
 49
-0.3
 74
0
  0
LTYPE
  5
2D3
100
AcDbSymbolTableRecord
100
AcDbLinetypeTableRecord
  2
ISO dash long gaps
 70
0
  3
_ 
 72
65
 73
2
 40
3
 49
1.2
 74
0
 49
-1.8
 74
0
  0
ENDTAB
  0
TABLE
  2
LAYER
  5
14
100
AcDbSymbolTable
  0
LAYER
  5
6
100
AcDbSymbolTableRecord
100
AcDbLayerTableRecord
  2
0
 70
0
 62
7
  6
CONTINUOUS
290
1
370
-3
390
0
  0
LAYER
  5
34
100
AcDbSymbolTableRecord
100
AcDbLayerTableRecord
  2
\U+56FE\U+5C422
 70
0
 62
2
  6
CONTINUOUS
290
1
370
-3
390
0
  0
ENDTAB
  0
TABLE
  2
VPORT
  5
C93
100
AcDbSymbolTable
  0
VPORT
  5
C95
100
AcDbSymbolTableRecord
100
AcDbViewportTableRecord
  2
*ACTIVE
 70
0
 10
0
 20
0
 11
1
 21
1
 12
906.899453983112
 22
311.135221284252
 32
-2.60208521396521E-18
 13
0
 23
0
 14
1
 24
1
 15
1
 25
1
 16
0
 26
0
 36
1
 17
0
 27
0
 37
0
 40
2192.30791013325
 41
2.11522633744856
 42
50
 43
0
 44
0
 50
0
 51
0
 71
0
 72
100
 73
1
 74
1
 75
0
 76
0
 77
0
 78
0
  0
ENDTAB
  0
TABLE
  2
VIEW
  5
C96
100
AcDbSymbolTable
  0
ENDTAB
  0
TABLE
  2
UCS
  5
C97
100
AcDbSymbolTable
  0
ENDTAB
  0
TABLE
  2
DIMSTYLE
  5
25
100
AcDbSymbolTable
 70
1
100
AcDbDimStyleTable
 71
0
  0
DIMSTYLE
105
32
100
AcDbSymbolTableRecord
100
AcDbDimStyleTableRecord
  2
Standard
 70
0
  3

 40
1
 41
0.18
 42
0.0625
 44
0.18
 47
0
 48
0
 73
1
 74
1
 75
0
 76
0
 77
0
140
0.18
141
0.09
144
1
147
0.09
173
0
174
0
176
0
177
0
178
0
277
2
278
46
281
0
282
0
271
4
340
18
371
-2
372
-2
  0
ENDTAB
  0
ENDSEC
  0
SECTION
  2
BLOCKS
  0
BLOCK
  5
C98
100
AcDbEntity
  8
0
100
AcDbBlockBegin
  2
*MODEL_SPACE
 70
0
 10
0
 20
0
  0
ENDBLK
  5
C99
100
AcDbEntity
  8
0
100
AcDbBlockEnd
  0
BLOCK
  5
C9A
100
AcDbEntity
  8
0
100
AcDbBlockBegin
  2
*PAPER_SPACE
 70
0
 10
0
 20
0
  0
ENDBLK
  5
C9B
100
AcDbEntity
  8
0
100
AcDbBlockEnd
  0
BLOCK
  5
53
100
AcDbEntity
  8
0
100
AcDbBlockBegin
  2
_CLOSEDFILLED
 70
0
 10
0
 20
0
 30
0
  3
_CLOSEDFILLED
  1

  0
SOLID
  5
51
100
AcDbEntity
  8
0
100
AcDbTrace
370
-2
 62
0
 10
-1
 20
0.166666666666667
 30
0
 11
0
 21
0
 31
0
 12
-1
 22
0.166666666666667
 32
0
 13
-1
 23
-0.166666666666667
 33
0
  0
LINE
  5
52
100
AcDbEntity
  8
0
100
AcDbLine
370
-2
 62
0
 10
-1
 20
0
 30
0
 11
-2
 21
0
 31
0
  0
ENDBLK
  5
C9C
100
AcDbEntity
  8
0
100
AcDbBlockEnd
  0
BLOCK
  5
2CB
100
AcDbEntity
  8
0
100
AcDbBlockBegin
  2
ABViewer_RedLine
 70
0
 10
0
 20
0
 30
0
  3
ABViewer_RedLine
  1

  0
ENDBLK
  5
C9D
100
AcDbEntity
  8
0
100
AcDbBlockEnd
  0
ENDSEC
  0
SECTION
  2
ENTITIES
  0
CIRCLE
  5
40
100
AcDbEntity
  8
\U+56FE\U+5C422
100
AcDbCircle
370
-1
 62
0
  6
BYLAYER
 10
300
 20
300.000000000006
 30
0
 40
32.6438854823699
  0
ARC
  5
556
100
AcDbEntity
  8
\U+56FE\U+5C422
100
AcDbCircle
370
-1
 62
0
  6
BYLAYER
 10
434.628504383753
 20
458.544945511558
 30
0
 40
3.20813552186557
100
AcDbArc
 50
292.729969965124
 51
116.406799126993
  0
ARC
  5
557
100
AcDbEntity
  8
\U+56FE\U+5C422
100
AcDbCircle
370
-1
 62
0
  6
BYLAYER
 10
435.0257891272
 20
465.595298406067
 30
0
 40
10.0447101618538
100
AcDbArc
 50
274.810202756586
 51
8.95517082205827
  0
ARC
  5
558
100
AcDbEntity
  8
\U+56FE\U+5C422
100
AcDbCircle
370
-1
 62
0
  6
BYLAYER
 10
491.152190143209
 20
479.861472629856
 30
0
 40
47.9184491559019
100
AcDbArc
 50
167.705875743736
 51
195.372172391558
  0
ARC
  5
559
100
AcDbEntity
  8
\U+56FE\U+5C422
100
AcDbCircle
370
-1
 62
0
  6
BYLAYER
 10
468.387623124515
 20
481.825154881172
 30
0
 40
25.4270231042547
100
AcDbArc
 50
119.963105924778
 51
161.092029359012
  0
ARC
  5
55A
100
AcDbEntity
  8
\U+56FE\U+5C422
100
AcDbCircle
370
-1
 62
0
  6
BYLAYER
 10
465.316995553116
 20
486.099715042786
 30
0
 40
20.1970020623717
100
AcDbArc
 50
54.3261030129161
 51
118.47264732228
  0
ARC
  5
55B
100
AcDbEntity
  8
\U+56FE\U+5C422
100
AcDbCircle
370
-1
 62
0
  6
BYLAYER
 10
472.882206096039
 20
495.881425847085
 30
0
 40
7.85142851610153
100
AcDbArc
 50
249.340937756145
 51
57.5473214513163
  0
ARC
  5
55C
100
AcDbEntity
  8
\U+56FE\U+5C422
100
AcDbCircle
370
-1
 62
0
  6
BYLAYER
 10
468.585882347624
 20
470.264746870257
 30
0
 40
18.3337683905619
100
AcDbArc
 50
85.2245886107691
 51
139.473132232133
  0
ARC
  5
55D
100
AcDbEntity
  8
\U+56FE\U+5C422
100
AcDbCircle
370
-1
 62
0
  6
BYLAYER
 10
462.758626914268
 20
478.342488166014
 30
0
 40
8.96972700884093
100
AcDbArc
 50
154.683454991975
 51
200.882894444912
  0
ARC
  5
55E
100
AcDbEntity
  8
\U+56FE\U+5C422
100
AcDbCircle
370
-1
 62
0
  6
BYLAYER
 10
432.148866181891
 20
471.191105414069
 30
0
 40
22.5781721518127
100
AcDbArc
 50
287.188891088487
 51
10.0860348230363
  0
ARC
  5
55F
100
AcDbEntity
  8
\U+56FE\U+5C422
100
AcDbCircle
370
-1
 62
0
  6
BYLAYER
 10
436.922384985989
 20
460.508003651597
 30
0
 40
11.0509893893136
100
AcDbArc
 50
244.32951660368
 51
279.893999270145
  0
ARC
  5
560
100
AcDbEntity
  8
\U+56FE\U+5C422
100
AcDbCircle
370
-1
 62
0
  6
BYLAYER
 10
435.140961475946
 20
455.740452138018
 30
0
 40
5.99992532915583
100
AcDbArc
 50
108.857285969321
 51
239.935525063651
  0
ARC
  5
561
100
AcDbEntity
  8
\U+56FE\U+5C422
100
AcDbCircle
370
-1
 62
0
  6
BYLAYER
 10
458.54494551183
 20
434.628504383613
 30
0
 40
3.2081355218743
100
AcDbArc
 50
333.593200873316
 51
157.270030035189
  0
ARC
  5
562
100
AcDbEntity
  8
\U+56FE\U+5C422
100
AcDbCircle
370
-1
 62
0
  6
BYLAYER
 10
465.595298406328
 20
435.025789127094
 30
0
 40
10.044710161854
100
AcDbArc
 50
81.0448291782133
 51
175.189797243686
  0
ARC
  5
563
100
AcDbEntity
  8
\U+56FE\U+5C422
100
AcDbCircle
370
-1
 62
0
  6
BYLAYER
 10
479.861472629822
 20
491.152190143172
 30
0
 40
47.9184491558948
100
AcDbArc
 50
254.627827608747
 51
282.294124256569
  0
ARC
  5
564
100
AcDbEntity
  8
\U+56FE\U+5C422
100
AcDbCircle
370
-1
 62
0
  6
BYLAYER
 10
481.82515488126
 20
468.387623124503
 30
0
 40
25.4270231042608
100
AcDbArc
 50
288.907970641282
 51
330.036894075515
  0
ARC
  5
565
100
AcDbEntity
  8
\U+56FE\U+5C422
100
AcDbCircle
370
-1
 62
0
  6
BYLAYER
 10
486.099715042882
 20
465.316995553125
 30
0
 40
20.1970020623844
100
AcDbArc
 50
331.527352678028
 51
35.673896987392
  0
ARC
  5
566
100
AcDbEntity
  8
\U+56FE\U+5C422
100
AcDbCircle
370
-1
 62
0
  6
BYLAYER
 10
495.881425847151
 20
472.882206096102
 30
0
 40
7.85142851610447
100
AcDbArc
 50
32.4526785490241
 51
200.659062244195
  0
ARC
  5
567
100
AcDbEntity
  8
\U+56FE\U+5C422
100
AcDbCircle
370
-1
 62
0
  6
BYLAYER
 10
470.264746870352
 20
468.585882347537
 30
0
 40
18.3337683905545
100
AcDbArc
 50
310.526867768197
 51
4.77541138956154
  0
ARC
  5
568
100
AcDbEntity
  8
\U+56FE\U+5C422
100
AcDbCircle
370
-1
 62
0
  6
BYLAYER
 10
478.342488166125
 20
462.758626914238
 30
0
 40
8.96972700885135
100
AcDbArc
 50
249.117105555484
 51
295.316545008421
  0
ARC
  5
569
100
AcDbEntity
  8
\U+56FE\U+5C422
100
AcDbCircle
370
-1
 62
0
  6
BYLAYER
 10
471.191105414353
 20
432.148866181811
 30
0
 40
22.5781721518102
100
AcDbArc
 50
79.913965177269
 51
162.811108911818
  0
ARC
  5
56A
100
AcDbEntity
  8
\U+56FE\U+5C422
100
AcDbCircle
370
-1
 62
0
  6
BYLAYER
 10
460.508003651834
 20
436.92238498585
 30
0
 40
11.0509893892908
100
AcDbArc
 50
170.106000730134
 51
205.670483396599
  0
ARC
  5
56B
100
AcDbEntity
  8
\U+56FE\U+5C422
100
AcDbCircle
370
-1
 62
0
  6
BYLAYER
 10
455.740452138291
 20
435.140961475795
 30
0
 40
5.99992532916173
100
AcDbArc
 50
210.064474936601
 51
341.142714030929
  0
ARC
  5
56C
100
AcDbEntity
  8
\U+56FE\U+5C422
100
AcDbCircle
370
-1
 62
0
  6
BYLAYER
 10
141.455054488423
 20
434.628504383747
 30
0
 40
3.20813552187363
100
AcDbArc
 50
22.7299699651763
 51
206.406799127049
  0
ARC
  5
56D
100
AcDbEntity
  8
\U+56FE\U+5C422
100
AcDbCircle
370
-1
 62
0
  6
BYLAYER
 10
134.404701593917
 20
435.025789127185
 30
0
 40
10.0447101618586
100
AcDbArc
 50
4.81020275666669
 51
98.9551708221393
  0
ARC
  5
56E
100
AcDbEntity
  8
\U+56FE\U+5C422
100
AcDbCircle
370
-1
 62
0
  6
BYLAYER
 10
120.138527370131
 20
491.152190143175
 30
0
 40
47.9184491558759
100
AcDbArc
 50
257.705875743722
 51
285.372172391544
  0
ARC
  5
56F
100
AcDbEntity
  8
\U+56FE\U+5C422
100
AcDbCircle
370
-1
 62
0
  6
BYLAYER
 10
118.174845118807
 20
468.387623124517
 30
0
 40
25.4270231042615
100
AcDbArc
 50
209.963105924791
 51
251.092029359024
  0
ARC
  5
570
100
AcDbEntity
  8
\U+56FE\U+5C422
100
AcDbCircle
370
-1
 62
0
  6
BYLAYER
 10
113.900284957196
 20
465.316995553121
 30
0
 40
20.1970020623829
100
AcDbArc
 50
144.326103012934
 51
208.472647322298
  0
ARC
  5
571
100
AcDbEntity
  8
\U+56FE\U+5C422
100
AcDbCircle
370
-1
 62
0
  6
BYLAYER
 10
104.118574152886
 20
472.882206096039
 30
0
 40
7.85142851610699
100
AcDbArc
 50
339.340937756115
 51
147.547321451286
  0
ARC
  5
572
100
AcDbEntity
  8
\U+56FE\U+5C422
100
AcDbCircle
370
-1
 62
0
  6
BYLAYER
 10
129.735253129716
 20
468.585882347626
 30
0
 40
18.3337683905582
100
AcDbArc
 50
175.224588610796
 51
229.473132232161
  0
ARC
  5
573
100
AcDbEntity
  8
\U+56FE\U+5C422
100
AcDbCircle
370
-1
 62
0
  6
BYLAYER
 10
121.657511833979
 20
462.758626914254
 30
0
 40
8.9697270088338
100
AcDbArc
 50
244.683454991874
 51
290.882894444811
  0
ARC
  5
574
100
AcDbEntity
  8
\U+56FE\U+5C422
100
AcDbCircle
370
-1
 62
0
  6
BYLAYER
 10
128.808894585906
 20
432.148866181879
 30
0
 40
22.5781721518127
100
AcDbArc
 50
17.1888910884866
 51
100.086034823036
  0
ARC
  5
575
100
AcDbEntity
  8
\U+56FE\U+5C422
100
AcDbCircle
370
-1
 62
0
  6
BYLAYER
 10
139.491996348398
 20
436.922384985983
 30
0
 40
11.0509893892938
100
AcDbArc
 50
334.329516603664
 51
9.89399927012943
  0
ARC
  5
576
100
AcDbEntity
  8
\U+56FE\U+5C422
100
AcDbCircle
370
-1
 62
0
  6
BYLAYER
 10
144.259547861955
 20
435.14096147594
 30
0
 40
5.99992532915518
100
AcDbArc
 50
198.857285969386
 51
329.935525063715
  0
ARC
  5
577
100
AcDbEntity
  8
\U+56FE\U+5C422
100
AcDbCircle
370
-1
 62
0
  6
BYLAYER
 10
165.371495616366
 20
458.544945511823
 30
0
 40
3.20813552186764
100
AcDbArc
 50
63.5932008733227
 51
247.270030035195
  0
ARC
  5
578
100
AcDbEntity
  8
\U+56FE\U+5C422
100
AcDbCircle
370
-1
 62
0
  6
BYLAYER
 10
164.974210872887
 20
465.595298406328
 30
0
 40
10.0447101618541
100
AcDbArc
 50
171.044829178212
 51
265.189797243686
  0
ARC
  5
579
100
AcDbEntity
  8
\U+56FE\U+5C422
100
AcDbCircle
370
-1
 62
0
  6
BYLAYER
 10
108.847809856822
 20
479.861472629819
 30
0
 40
47.9184491558822
100
AcDbArc
 50
344.627827608746
 51
12.2941242565679
  0
ARC
  5
57A
100
AcDbEntity
  8
\U+56FE\U+5C422
100
AcDbCircle
370
-1
 62
0
  6
BYLAYER
 10
131.612376875471
 20
481.825154881257
 30
0
 40
25.4270231042675
100
AcDbArc
 50
18.9079706412694
 51
60.036894075503
  0
ARC
  5
57B
100
AcDbEntity
  8
\U+56FE\U+5C422
100
AcDbCircle
370
-1
 62
0
  6
BYLAYER
 10
134.683004446854
 20
486.099715042877
 30
0
 40
20.1970020623901
100
AcDbArc
 50
61.5273526780278
 51
125.673896987392
  0
ARC
  5
57C
100
AcDbEntity
  8
\U+56FE\U+5C422
100
AcDbCircle
370
-1
 62
0
  6
BYLAYER
 10
127.117793903874
 20
495.881425847151
 30
0
 40
7.85142851610433
100
AcDbArc
 50
122.452678549024
 51
290.659062244195
  0
ARC
  5
57D
100
AcDbEntity
  8
\U+56FE\U+5C422
100
AcDbCircle
370
-1
 62
0
  6
BYLAYER
 10
131.414117652435
 20
470.264746870343
 30
0
 40
18.3337683905634
100
AcDbArc
 50
40.5268677681858
 51
94.77541138955
  0
ARC
  5
57E
100
AcDbEntity
  8
\U+56FE\U+5C422
100
AcDbCircle
370
-1
 62
0
  6
BYLAYER
 10
137.241373085743
 20
478.342488166119
 30
0
 40
8.96972700885129
100
AcDbArc
 50
339.117105555484
 51
25.3165450084204
  0
ARC
  5
57F
100
AcDbEntity
  8
\U+56FE\U+5C422
100
AcDbCircle
370
-1
 62
0
  6
BYLAYER
 10
167.851133818171
 20
471.19110541434
 30
0
 40
22.5781721518118
100
AcDbArc
 50
169.913965177253
 51
252.811108911802
  0
ARC
  5
580
100
AcDbEntity
  8
\U+56FE\U+5C422
100
AcDbCircle
370
-1
 62
0
  6
BYLAYER
 10
163.077615014107
 20
460.508003651828
 30
0
 40
11.0509893892934
100
AcDbArc
 50
260.106000730235
 51
295.670483396701
  0
ARC
  5
581
100
AcDbEntity
  8
\U+56FE\U+5C422
100
AcDbCircle
370
-1
 62
0
  6
BYLAYER
 10
164.859038524183
 20
455.740452138285
 30
0
 40
5.99992532915523
100
AcDbArc
 50
300.064474936607
 51
71.1427140309366
  0
ARC
  5
582
100
AcDbEntity
  8
\U+56FE\U+5C422
100
AcDbCircle
370
-1
 62
0
  6
BYLAYER
 10
165.371495616231
 20
141.455054488414
 30
0
 40
3.20813552186967
100
AcDbArc
 50
112.72996996515
 51
296.406799127022
  0
ARC
  5
583
100
AcDbEntity
  8
\U+56FE\U+5C422
100
AcDbCircle
370
-1
 62
0
  6
BYLAYER
 10
164.974210872788
 20
134.404701593908
 30
0
 40
10.0447101618546
100
AcDbArc
 50
94.8102027566188
 51
188.955170822091
  0
ARC
  5
584
100
AcDbEntity
  8
\U+56FE\U+5C422
100
AcDbCircle
370
-1
 62
0
  6
BYLAYER
 10
108.847809856795
 20
120.138527370103
 30
0
 40
47.9184491558893
100
AcDbArc
 50
347.705875743753
 51
15.3721723915744
  0
ARC
  5
585
100
AcDbEntity
  8
\U+56FE\U+5C422
100
AcDbCircle
370
-1
 62
0
  6
BYLAYER
 10
131.612376875468
 20
118.174845118809
 30
0
 40
25.4270231042671
100
AcDbArc
 50
299.963105924776
 51
341.092029359009
  0
ARC
  5
586
100
AcDbEntity
  8
\U+56FE\U+5C422
100
AcDbCircle
370
-1
 62
0
  6
BYLAYER
 10
134.683004446865
 20
113.900284957193
 30
0
 40
20.1970020623832
100
AcDbArc
 50
234.326103012918
 51
298.472647322282
  0
ARC
  5
587
100
AcDbEntity
  8
\U+56FE\U+5C422
100
AcDbCircle
370
-1
 62
0
  6
BYLAYER
 10
127.117793903946
 20
104.118574152886
 30
0
 40
7.8514285161084
100
AcDbArc
 50
69.3409377560951
 51
237.547321451266
  0
ARC
  5
588
100
AcDbEntity
  8
\U+56FE\U+5C422
100
AcDbCircle
370
-1
 62
0
  6
BYLAYER
 10
131.414117652376
 20
129.735253129701
 30
0
 40
18.3337683905443
100
AcDbArc
 50
265.224588610746
 51
319.473132232111
  0
ARC
  5
589
100
AcDbEntity
  8
\U+56FE\U+5C422
100
AcDbCircle
370
-1
 62
0
  6
BYLAYER
 10
137.241373085713
 20
121.657511833966
 30
0
 40
8.96972700884929
100
AcDbArc
 50
334.683454991877
 51
20.8828944448139
  0
ARC
  5
58A
100
AcDbEntity
  8
\U+56FE\U+5C422
100
AcDbCircle
370
-1
 62
0
  6
BYLAYER
 10
167.851133818106
 20
128.808894585897
 30
0
 40
22.578172151815
100
AcDbArc
 50
107.188891088477
 51
190.086034823027
  0
ARC
  5
58B
100
AcDbEntity
  8
\U+56FE\U+5C422
100
AcDbCircle
370
-1
 62
0
  6
BYLAYER
 10
163.077615014002
 20
139.491996348401
 30
0
 40
11.0509893892839
100
AcDbArc
 50
64.3295166036566
 51
99.8939992701217
  0
ARC
  5
58C
100
AcDbEntity
  8
\U+56FE\U+5C422
100
AcDbCircle
370
-1
 62
0
  6
BYLAYER
 10
164.859038524038
 20
144.25954786195
 30
0
 40
5.9999253291555
100
AcDbArc
 50
288.857285969354
 51
59.9355250636827
  0
ARC
  5
58D
100
AcDbEntity
  8
\U+56FE\U+5C422
100
AcDbCircle
370
-1
 62
0
  6
BYLAYER
 10
141.455054488158
 20
165.371495616359
 30
0
 40
3.20813552186757
100
AcDbArc
 50
153.593200873322
 51
337.270030035194
  0
ARC
  5
58E
100
AcDbEntity
  8
\U+56FE\U+5C422
100
AcDbCircle
370
-1
 62
0
  6
BYLAYER
 10
134.404701593651
 20
164.974210872878
 30
0
 40
10.0447101618566
100
AcDbArc
 50
261.044829178231
 51
355.189797243704
  0
ARC
  5
58F
100
AcDbEntity
  8
\U+56FE\U+5C422
100
AcDbCircle
370
-1
 62
0
  6
BYLAYER
 10
120.138527370159
 20
108.847809856798
 30
0
 40
47.9184491558948
100
AcDbArc
 50
74.6278276087467
 51
102.294124256569
  0
ARC
  5
590
100
AcDbEntity
  8
\U+56FE\U+5C422
100
AcDbCircle
370
-1
 62
0
  6
BYLAYER
 10
118.174845118721
 20
131.612376875467
 30
0
 40
25.4270231042607
100
AcDbArc
 50
108.907970641282
 51
150.036894075515
  0
ARC
  5
591
100
AcDbEntity
  8
\U+56FE\U+5C422
100
AcDbCircle
370
-1
 62
0
  6
BYLAYER
 10
113.9002849571
 20
134.683004446845
 30
0
 40
20.1970020623842
100
AcDbArc
 50
151.527352678029
 51
215.673896987393
  0
ARC
  5
592
100
AcDbEntity
  8
\U+56FE\U+5C422
100
AcDbCircle
370
-1
 62
0
  6
BYLAYER
 10
104.118574152831
 20
127.117793903867
 30
0
 40
7.85142851610424
100
AcDbArc
 50
212.452678549024
 51
20.6590622441952
  0
ARC
  5
593
100
AcDbEntity
  8
\U+56FE\U+5C422
100
AcDbCircle
370
-1
 62
0
  6
BYLAYER
 10
129.735253129633
 20
131.414117652426
 30
0
 40
18.3337683905573
100
AcDbArc
 50
130.526867768177
 51
184.775411389542
  0
ARC
  5
594
100
AcDbEntity
  8
\U+56FE\U+5C422
100
AcDbCircle
370
-1
 62
0
  6
BYLAYER
 10
121.657511833863
 20
137.241373085731
 30
0
 40
8.96972700885115
100
AcDbArc
 50
69.1171055554837
 51
115.31654500842
  0
ARC
  5
595
100
AcDbEntity
  8
\U+56FE\U+5C422
100
AcDbCircle
370
-1
 62
0
  6
BYLAYER
 10
128.808894585638
 20
167.851133818161
 30
0
 40
22.5781721518141
100
AcDbArc
 50
259.913965177263
 51
342.811108911812
  0
ARC
  5
596
100
AcDbEntity
  8
\U+56FE\U+5C422
100
AcDbCircle
370
-1
 62
0
  6
BYLAYER
 10
139.491996348154
 20
163.0776150141
 30
0
 40
11.0509893892936
100
AcDbArc
 50
350.106000730236
 51
25.6704833967007
  0
ARC
  5
597
100
AcDbEntity
  8
\U+56FE\U+5C422
100
AcDbCircle
370
-1
 62
0
  6
BYLAYER
 10
144.259547861697
 20
164.859038524177
 30
0
 40
5.99992532915515
100
AcDbArc
 50
30.064474936608
 51
161.142714030937
  0
ARC
  5
598
100
AcDbEntity
  8
\U+56FE\U+5C422
100
AcDbCircle
370
-1
 62
0
  6
BYLAYER
 10
458.54494551157
 20
165.371495616225
 30
0
 40
3.20813552187241
100
AcDbArc
 50
202.729969965127
 51
26.4067991269976
  0
ARC
  5
599
100
AcDbEntity
  8
\U+56FE\U+5C422
100
AcDbCircle
370
-1
 62
0
  6
BYLAYER
 10
465.595298406074
 20
164.974210872782
 30
0
 40
10.0447101618547
100
AcDbArc
 50
184.810202756619
 51
278.955170822092
  0
ARC
  5
59A
100
AcDbEntity
  8
\U+56FE\U+5C422
100
AcDbCircle
370
-1
 62
0
  6
BYLAYER
 10
479.861472629866
 20
108.847809856786
 30
0
 40
47.9184491558888
100
AcDbArc
 50
77.7058757437371
 51
105.372172391559
  0
ARC
  5
59B
100
AcDbEntity
  8
\U+56FE\U+5C422
100
AcDbCircle
370
-1
 62
0
  6
BYLAYER
 10
481.825154881181
 20
131.612376875459
 30
0
 40
25.4270231042616
100
AcDbArc
 50
29.9631059247907
 51
71.0920293590242
  0
ARC
  5
59C
100
AcDbEntity
  8
\U+56FE\U+5C422
100
AcDbCircle
370
-1
 62
0
  6
BYLAYER
 10
486.099715042782
 20
134.683004446869
 30
0
 40
20.1970020623839
100
AcDbArc
 50
324.326103012885
 51
28.4726473222489
  0
ARC
  5
59D
100
AcDbEntity
  8
\U+56FE\U+5C422
100
AcDbCircle
370
-1
 62
0
  6
BYLAYER
 10
495.881425847092
 20
127.117793903936
 30
0
 40
7.85142851609876
100
AcDbArc
 50
159.340937756085
 51
327.547321451256
  0
ARC
  5
59E
100
AcDbEntity
  8
\U+56FE\U+5C422
100
AcDbCircle
370
-1
 62
0
  6
BYLAYER
 10
470.264746870275
 20
131.414117652355
 30
0
 40
18.3337683905557
100
AcDbArc
 50
355.224588610777
 51
49.4731322321417
  0
ARC
  5
59F
100
AcDbEntity
  8
\U+56FE\U+5C422
100
AcDbCircle
370
-1
 62
0
  6
BYLAYER
 10
478.342488166012
 20
137.241373085714
 30
0
 40
8.96972700884167
100
AcDbArc
 50
64.6834549918755
 51
110.882894444812
  0
ARC
  5
5A0
100
AcDbEntity
  8
\U+56FE\U+5C422
100
AcDbCircle
370
-1
 62
0
  6
BYLAYER
 10
471.191105414081
 20
167.851133818096
 30
0
 40
22.5781721518125
100
AcDbArc
 50
197.188891088487
 51
280.086034823036
  0
ARC
  5
5A1
100
AcDbEntity
  8
\U+56FE\U+5C422
100
AcDbCircle
370
-1
 62
0
  6
BYLAYER
 10
460.50800365159
 20
163.077615013993
 30
0
 40
11.0509893892938
100
AcDbArc
 50
154.329516603665
 51
189.89399927013
  0
ARC
  5
5A2
100
AcDbEntity
  8
\U+56FE\U+5C422
100
AcDbCircle
370
-1
 62
0
  6
BYLAYER
 10
455.740452138035
 20
164.859038524031
 30
0
 40
5.99992532915885
100
AcDbArc
 50
18.8572859693567
 51
149.935525063686
  0
ARC
  5
5A3
100
AcDbEntity
  8
\U+56FE\U+5C422
100
AcDbCircle
370
-1
 62
0
  6
BYLAYER
 10
434.628504383628
 20
141.455054488152
 30
0
 40
3.20813552187259
100
AcDbArc
 50
243.593200873122
 51
67.270030034994
  0
ARC
  5
5A4
100
AcDbEntity
  8
\U+56FE\U+5C422
100
AcDbCircle
370
-1
 62
0
  6
BYLAYER
 10
435.025789127107
 20
134.404701593659
 30
0
 40
10.0447101618438
100
AcDbArc
 50
351.044829178138
 51
85.1897972436112
  0
ARC
  5
5A5
100
AcDbEntity
  8
\U+56FE\U+5C422
100
AcDbCircle
370
-1
 62
0
  6
BYLAYER
 10
491.152190143166
 20
120.138527370181
 30
0
 40
47.9184491558814
100
AcDbArc
 50
164.627827608777
 51
192.294124256599
  0
ARC
  5
5A6
100
AcDbEntity
  8
\U+56FE\U+5C422
100
AcDbCircle
370
-1
 62
0
  6
BYLAYER
 10
468.387623124523
 20
118.174845118718
 30
0
 40
25.4270231042675
100
AcDbArc
 50
198.907970641269
 51
240.036894075502
  0
ARC
  5
5A7
100
AcDbEntity
  8
\U+56FE\U+5C422
100
AcDbCircle
370
-1
 62
0
  6
BYLAYER
 10
465.316995553137
 20
113.900284957094
 30
0
 40
20.1970020623845
100
AcDbArc
 50
241.527352678029
 51
305.673896987393
  0
ARC
  5
5A8
100
AcDbEntity
  8
\U+56FE\U+5C422
100
AcDbCircle
370
-1
 62
0
  6
BYLAYER
 10
472.882206096114
 20
104.118574152825
 30
0
 40
7.8514285161043
100
AcDbArc
 50
302.452678549025
 51
110.659062244195
  0
ARC
  5
5A9
100
AcDbEntity
  8
\U+56FE\U+5C422
100
AcDbCircle
370
-1
 62
0
  6
BYLAYER
 10
468.585882347555
 20
129.735253129626
 30
0
 40
18.3337683905571
100
AcDbArc
 50
220.526867768177
 51
274.775411389541
  0
ARC
  5
5AA
100
AcDbEntity
  8
\U+56FE\U+5C422
100
AcDbCircle
370
-1
 62
0
  6
BYLAYER
 10
462.75862691425
 20
121.657511833857
 30
0
 40
8.96972700885106
100
AcDbArc
 50
159.117105555484
 51
205.316545008421
  0
ARC
  5
5AB
100
AcDbEntity
  8
\U+56FE\U+5C422
100
AcDbCircle
370
-1
 62
0
  6
BYLAYER
 10
432.14886618182
 20
128.808894585632
 30
0
 40
22.5781721518141
100
AcDbArc
 50
349.913965177263
 51
72.8111089118123
  0
ARC
  5
5AC
100
AcDbEntity
  8
\U+56FE\U+5C422
100
AcDbCircle
370
-1
 62
0
  6
BYLAYER
 10
436.922384985878
 20
139.491996348138
 30
0
 40
11.0509893893033
100
AcDbArc
 50
80.106000730229
 51
115.670483396694
  0
ARC
  5
5AD
100
AcDbEntity
  8
\U+56FE\U+5C422
100
AcDbCircle
370
-1
 62
0
  6
BYLAYER
 10
435.140961475798
 20
144.259547861691
 30
0
 40
5.99992532915505
100
AcDbArc
 50
120.064474936606
 51
251.142714030936
  0
ARC
  5
5AE
100
AcDbEntity
  8
\U+56FE\U+5C422
100
AcDbCircle
370
-1
 62
0
  6
BYLAYER
 10
361.981515318859
 20
532.274243559022
 30
0
 40
23.3297312349416
100
AcDbArc
 50
171.914109049938
 51
235.45490882344
  0
ARC
  5
5AF
100
AcDbEntity
  8
\U+56FE\U+5C422
100
AcDbCircle
370
-1
 62
0
  6
BYLAYER
 10
361.254124786601
 20
509.100518833757
 30
0
 40
34.6455466457306
100
AcDbArc
 50
130.217691244349
 51
186.707466852868
  0
ARC
  5
5B0
100
AcDbEntity
  8
\U+56FE\U+5C422
100
AcDbCircle
370
-1
 62
0
  6
BYLAYER
 10
401.38533587741
 20
517.348554169886
 30
0
 40
75.5467653599288
100
AcDbArc
 50
189.366094838202
 51
225.433756488143
  0
ARC
  5
5B1
100
AcDbEntity
  8
\U+56FE\U+5C422
100
AcDbCircle
370
-1
 62
0
  6
BYLAYER
 10
348.97051864962
 20
488.791127010726
 30
0
 40
25.2721771915249
100
AcDbArc
 50
208.932268930277
 51
268.642137156453
  0
ARC
  5
5B2
100
AcDbEntity
  8
\U+56FE\U+5C422
100
AcDbCircle
370
-1
 62
0
  6
BYLAYER
 10
366.349137172271
 20
472.885902525391
 30
0
 40
39.667620718152
100
AcDbArc
 50
174.678173545527
 51
241.352376668358
  0
ARC
  5
5B3
100
AcDbEntity
  8
\U+56FE\U+5C422
100
AcDbCircle
370
-1
 62
0
  6
BYLAYER
 10
353.234061711208
 20
449.492548827814
 30
0
 40
12.8536906545014
100
AcDbArc
 50
242.664410945296
 51
291.994195932514
  0
ARC
  5
5B4
100
AcDbEntity
  8
\U+56FE\U+5C422
100
AcDbCircle
370
-1
 62
0
  6
BYLAYER
 10
354.359407133394
 20
448.023801277982
 30
0
 40
11.0813687273837
100
AcDbArc
 50
289.442349293501
 51
331.406273718281
  0
ARC
  5
5B5
100
AcDbEntity
  8
\U+56FE\U+5C422
100
AcDbCircle
370
-1
 62
0
  6
BYLAYER
 10
360.661789222459
 20
444.606539161954
 30
0
 40
3.9121991925761
100
AcDbArc
 50
331.174640842965
 51
117.563928923953
  0
ARC
  5
5B6
100
AcDbEntity
  8
\U+56FE\U+5C422
100
AcDbCircle
370
-1
 62
0
  6
BYLAYER
 10
372.60676866284
 20
443.199231462479
 30
0
 40
14.593779376159
100
AcDbArc
 50
23.0625489805177
 51
160.483550327443
  0
ARC
  5
5B7
100
AcDbEntity
  8
\U+56FE\U+5C422
100
AcDbCircle
370
-1
 62
0
  6
BYLAYER
 10
369.220614587652
 20
442.54302588876
 30
0
 40
17.9808938083376
100
AcDbArc
 50
275.696073406436
 51
20.7590023712501
  0
ARC
  5
5B8
100
AcDbEntity
  8
\U+56FE\U+5C422
100
AcDbCircle
370
-1
 62
0
  6
BYLAYER
 10
367.747383473371
 20
470.316925606223
 30
0
 40
45.7820728481225
100
AcDbArc
 50
226.429334648911
 51
274.080629672826
  0
ARC
  5
5B9
100
AcDbEntity
  8
\U+56FE\U+5C422
100
AcDbCircle
370
-1
 62
0
  6
BYLAYER
 10
387.868736388483
 20
486.097716701026
 30
0
 40
71.1805727159875
100
AcDbArc
 50
182.422852834411
 51
223.44849634879
  0
ARC
  5
5BA
100
AcDbEntity
  8
\U+56FE\U+5C422
100
AcDbCircle
370
-1
 62
0
  6
BYLAYER
 10
373.204900804545
 20
460.969032132795
 30
0
 40
60.6319153210285
100
AcDbArc
 50
158.603646150705
 51
197.03094915733
  0
ARC
  5
5BB
100
AcDbEntity
  8
\U+56FE\U+5C422
100
AcDbCircle
370
-1
 62
0
  6
BYLAYER
 10
353.201440511317
 20
453.941943641025
 30
0
 40
39.4568981758498
100
AcDbArc
 50
195.781818124187
 51
230.641539137065
  0
ARC
  5
5BC
100
AcDbEntity
  8
\U+56FE\U+5C422
100
AcDbCircle
370
-1
 62
0
  6
BYLAYER
 10
363.178717304354
 20
466.284528412412
 30
0
 40
55.3275111347557
100
AcDbArc
 50
230.758489193064
 51
257.569783590541
  0
ARC
  5
5BD
100
AcDbEntity
  8
\U+56FE\U+5C422
100
AcDbCircle
370
-1
 62
0
  6
BYLAYER
 10
363.701970694313
 20
464.0092200162
 30
0
 40
53.2275774949156
100
AcDbArc
 50
256.492483817718
 51
276.57155976833
  0
ARC
  5
5BE
100
AcDbEntity
  8
\U+56FE\U+5C422
100
AcDbCircle
370
-1
 62
0
  6
BYLAYER
 10
366.170253289728
 20
438.154480684288
 30
0
 40
27.2649430604572
100
AcDbArc
 50
277.63675086592
 51
306.507954382395
  0
ARC
  5
5BF
100
AcDbEntity
  8
\U+56FE\U+5C422
100
AcDbCircle
370
-1
 62
0
  6
BYLAYER
 10
367.960859648175
 20
432.251279207166
 30
0
 40
21.5547023152485
100
AcDbArc
 50
312.026240645894
 51
356.202298754297
  0
ARC
  5
5C0
100
AcDbEntity
  8
\U+56FE\U+5C422
100
AcDbCircle
370
-1
 62
0
  6
BYLAYER
 10
387.227009807971
 20
423.452105570272
 30
0
 40
7.70470064353666
100
AcDbArc
 50
356.436644393216
 51
73.0887504779088
  0
ARC
  5
5C1
100
AcDbEntity
  8
\U+56FE\U+5C422
100
AcDbCircle
370
-1
 62
0
  6
BYLAYER
 10
374.1103909525
 20
424.035277631922
 30
0
 40
20.8335113484817
100
AcDbArc
 50
269.210863646969
 51
357.07794927406
  0
ARC
  5
5C2
100
AcDbEntity
  8
\U+56FE\U+5C422
100
AcDbCircle
370
-1
 62
0
  6
BYLAYER
 10
360.399522829274
 20
399.929833273076
 30
0
 40
13.8174004719802
100
AcDbArc
 50
328.122611100797
 51
13.7060670876154
  0
ARC
  5
5C3
100
AcDbEntity
  8
\U+56FE\U+5C422
100
AcDbCircle
370
-1
 62
0
  6
BYLAYER
 10
360.683907303932
 20
400.51307103923
 30
0
 40
13.8989120459892
100
AcDbArc
 50
271.31356426235
 51
325.460867326852
  0
ARC
  5
5C4
100
AcDbEntity
  8
\U+56FE\U+5C422
100
AcDbCircle
370
-1
 62
0
  6
BYLAYER
 10
359.90044052046
 20
421.08066290742
 30
0
 40
34.4804686877847
100
AcDbArc
 50
244.5152675904
 51
271.831634366969
  0
ARC
  5
5C5
100
AcDbEntity
  8
\U+56FE\U+5C422
100
AcDbCircle
370
-1
 62
0
  6
BYLAYER
 10
349.25975557073
 20
387.268448588868
 30
0
 40
4.98180945384386
100
AcDbArc
 50
147.363912888443
 51
243.093638913435
  0
ARC
  5
5C6
100
AcDbEntity
  8
\U+56FE\U+5C422
100
AcDbCircle
370
-1
 62
0
  6
BYLAYER
 10
344.326343194396
 20
373.206025833847
 30
0
 40
9.98596684097658
100
AcDbArc
 50
349.67956162913
 51
74.4384122468118
  0
ARC
  5
5C7
100
AcDbEntity
  8
\U+56FE\U+5C422
100
AcDbCircle
370
-1
 62
0
  6
BYLAYER
 10
325.688067279368
 20
375.487291516998
 30
0
 40
28.7522426542267
100
AcDbArc
 50
316.741205207116
 51
351.861640008167
  0
ARC
  5
5C8
100
AcDbEntity
  8
\U+56FE\U+5C422
100
AcDbCircle
370
-1
 62
0
  6
BYLAYER
 10
315.018051747363
 20
382.593134133856
 30
0
 40
41.4475828295283
100
AcDbArc
 50
299.198107518777
 51
319.69686128026
  0
ARC
  5
5C9
100
AcDbEntity
  8
\U+56FE\U+5C422
100
AcDbCircle
370
-1
 62
0
  6
BYLAYER
 10
324.320480972817
 20
366.729769204486
 30
0
 40
23.0649943608396
100
AcDbArc
 50
256.785033878019
 51
298.249616192129
  0
ARC
  5
5CA
100
AcDbEntity
  8
\U+56FE\U+5C422
100
AcDbCircle
370
-1
 62
0
  6
BYLAYER
 10
322.537220120859
 20
358.947511630291
 30
0
 40
15.0812157434982
100
AcDbArc
 50
194.891623640092
 51
256.621573047252
  0
ARC
  5
5CB
100
AcDbEntity
  8
\U+56FE\U+5C422
100
AcDbCircle
370
-1
 62
0
  6
BYLAYER
 10
313.478393173985
 20
356.854024930838
 30
0
 40
5.79665592681577
100
AcDbArc
 50
44.9448733009148
 51
197.906410622778
  0
ARC
  5
5CC
100
AcDbEntity
  8
\U+56FE\U+5C422
100
AcDbCircle
370
-1
 62
0
  6
BYLAYER
 10
272.314823742921
 20
320.963260023291
 30
0
 40
60.3978311955085
100
AcDbArc
 50
34.0294475658407
 51
41.4555066595036
  0
ARC
  5
5CD
100
AcDbEntity
  8
\U+56FE\U+5C422
100
AcDbCircle
370
-1
 62
0
  6
BYLAYER
 10
327.835828628391
 20
359.137248619019
 30
0
 40
7.00101539986244
100
AcDbArc
 50
218.667353896936
 51
309.104666499368
  0
ARC
  5
5CE
100
AcDbEntity
  8
\U+56FE\U+5C422
100
AcDbCircle
370
-1
 62
0
  6
BYLAYER
 10
300.730550342295
 20
390.781825516759
 30
0
 40
48.6652610964159
100
AcDbArc
 50
310.369345935925
 51
324.665416981645
  0
ARC
  5
5CF
100
AcDbEntity
  8
\U+56FE\U+5C422
100
AcDbCircle
370
-1
 62
0
  6
BYLAYER
 10
327.893252244913
 20
369.854959711474
 30
0
 40
14.467467950597
100
AcDbArc
 50
330.068752566357
 51
13.1035650714677
  0
ARC
  5
5D0
100
AcDbEntity
  8
\U+56FE\U+5C422
100
AcDbCircle
370
-1
 62
0
  6
BYLAYER
 10
336.561329638653
 20
371.535607746844
 30
0
 40
5.65360653086641
100
AcDbArc
 50
16.4322419617145
 51
121.299101465088
  0
ARC
  5
5D1
100
AcDbEntity
  8
\U+56FE\U+5C422
100
AcDbCircle
370
-1
 62
0
  6
BYLAYER
 10
344.326123097117
 20
360.497796663139
 30
0
 40
19.140103698527
100
AcDbArc
 50
123.995898887731
 51
149.938138693317
  0
ARC
  5
5D2
100
AcDbEntity
  8
\U+56FE\U+5C422
100
AcDbCircle
370
-1
 62
0
  6
BYLAYER
 10
325.410659005341
 20
371.436056846714
 30
0
 40
2.71031573370933
100
AcDbArc
 50
167.410291796805
 51
330.11808970307
  0
ARC
  5
5D3
100
AcDbEntity
  8
\U+56FE\U+5C422
100
AcDbCircle
370
-1
 62
0
  6
BYLAYER
 10
355.831802698001
 20
364.174464485353
 30
0
 40
33.9858670837273
100
AcDbArc
 50
139.259889340539
 51
166.64124162446
  0
ARC
  5
5D4
100
AcDbEntity
  8
\U+56FE\U+5C422
100
AcDbCircle
370
-1
 62
0
  6
BYLAYER
 10
317.654838686648
 20
394.627237153573
 30
0
 40
14.9284051850384
100
AcDbArc
 50
326.347649945271
 51
11.1170081262445
  0
ARC
  5
5D5
100
AcDbEntity
  8
\U+56FE\U+5C422
100
AcDbCircle
370
-1
 62
0
  6
BYLAYER
 10
323.148441935277
 20
395.711373355379
 30
0
 40
9.32885209759359
100
AcDbArc
 50
11.089042220871
 51
67.4534292495679
  0
ARC
  5
5D6
100
AcDbEntity
  8
\U+56FE\U+5C422
100
AcDbCircle
370
-1
 62
0
  6
BYLAYER
 10
309.61153560392
 20
405.001163576141
 30
0
 40
17.1271730969423
100
AcDbArc
 50
298.393474645983
 51
357.744811983766
  0
ARC
  5
5D7
100
AcDbEntity
  8
\U+56FE\U+5C422
100
AcDbCircle
370
-1
 62
0
  6
BYLAYER
 10
315.922079133417
 20
393.267550769118
 30
0
 40
3.80437137193609
100
AcDbArc
 50
148.340148393513
 51
298.818371268867
  0
ARC
  5
5D8
100
AcDbEntity
  8
\U+56FE\U+5C422
100
AcDbCircle
370
-1
 62
0
  6
BYLAYER
 10
297.284607920606
 20
406.031100570785
 30
0
 40
18.7898899609338
100
AcDbArc
 50
325.03985462334
 51
22.3065789480539
  0
ARC
  5
5D9
100
AcDbEntity
  8
\U+56FE\U+5C422
100
AcDbCircle
370
-1
 62
0
  6
BYLAYER
 10
461.600655689002
 20
467.836079571515
 30
0
 40
156.774474725992
100
AcDbArc
 50
186.636598710286
 51
200.410077366648
  0
ARC
  5
5DA
100
AcDbEntity
  8
\U+56FE\U+5C422
100
AcDbCircle
370
-1
 62
0
  6
BYLAYER
 10
456.396408487477
 20
463.125645653899
 30
0
 40
151.115726089129
100
AcDbArc
 50
168.373306271177
 51
185.090455598152
  0
ARC
  5
5DB
100
AcDbEntity
  8
\U+56FE\U+5C422
100
AcDbCircle
370
-1
 62
0
  6
BYLAYER
 10
387.00425993
 20
478.53897859959
 30
0
 40
80.0488145539381
100
AcDbArc
 50
130.161561148412
 51
169.169384539567
  0
ARC
  5
5DC
100
AcDbEntity
  8
\U+56FE\U+5C422
100
AcDbCircle
370
-1
 62
0
  6
BYLAYER
 10
331.636363704724
 20
554.838481156231
 30
0
 40
15.5796517699635
100
AcDbArc
 50
155.287555818154
 51
283.892932135899
  0
ARC
  5
5DD
100
AcDbEntity
  8
\U+56FE\U+5C422
100
AcDbCircle
370
-1
 62
0
  6
BYLAYER
 10
336.849221932504
 20
576.644834595986
 30
0
 40
24.6760473559993
100
AcDbArc
 50
218.298104004349
 51
273.851108384978
  0
ARC
  5
5DE
100
AcDbEntity
  8
\U+56FE\U+5C422
100
AcDbCircle
370
-1
 62
0
  6
BYLAYER
 10
335.780765227218
 20
577.594310587939
 30
0
 40
25.7146812154912
100
AcDbArc
 50
276.084874920381
 51
303.513690297098
  0
ARC
  5
5DF
100
AcDbEntity
  8
\U+56FE\U+5C422
100
AcDbCircle
370
-1
 62
0
  6
BYLAYER
 10
382.45112722165
 20
505.737401711116
 30
0
 40
59.9695519763908
100
AcDbArc
 50
100.188454901758
 51
122.784493681404
  0
ARC
  5
5E0
100
AcDbEntity
  8
\U+56FE\U+5C422
100
AcDbCircle
370
-1
 62
0
  6
BYLAYER
 10
374.623514913046
 20
515.469869385977
 30
0
 40
49.3697839066276
100
AcDbArc
 50
39.7511511545857
 51
93.2282357461292
  0
ARC
  5
5E1
100
AcDbEntity
  8
\U+56FE\U+5C422
100
AcDbCircle
370
-1
 62
0
  6
BYLAYER
 10
356.916595990002
 20
502.466850330203
 30
0
 40
71.310538025479
100
AcDbArc
 50
11.7777705789276
 51
38.6859554340322
  0
ARC
  5
5E2
100
AcDbEntity
  8
\U+56FE\U+5C422
100
AcDbCircle
370
-1
 62
0
  6
BYLAYER
 10
374.658100055623
 20
509.568968811265
 30
0
 40
52.598491078792
100
AcDbArc
 50
316.340405097696
 51
8.14657713266958
  0
ARC
  5
5E3
100
AcDbEntity
  8
\U+56FE\U+5C422
100
AcDbCircle
370
-1
 62
0
  6
BYLAYER
 10
389.689197432037
 20
494.478955448013
 30
0
 40
31.3111068660056
100
AcDbArc
 50
257.411257196763
 51
317.328370417401
  0
ARC
  5
5E4
100
AcDbEntity
  8
\U+56FE\U+5C422
100
AcDbCircle
370
-1
 62
0
  6
BYLAYER
 10
389.44218496597
 20
490.116293204577
 30
0
 40
27.0088158432869
100
AcDbArc
 50
196.819227895909
 51
255.905387059192
  0
ARC
  5
5E5
100
AcDbEntity
  8
\U+56FE\U+5C422
100
AcDbCircle
370
-1
 62
0
  6
BYLAYER
 10
379.362354195579
 20
486.506074085077
 30
0
 40
16.3244534793499
100
AcDbArc
 50
152.530456137162
 51
194.926557376374
  0
ARC
  5
5E6
100
AcDbEntity
  8
\U+56FE\U+5C422
100
AcDbCircle
370
-1
 62
0
  6
BYLAYER
 10
377.0669492789
 20
488.816294134336
 30
0
 40
13.2592709192064
100
AcDbArc
 50
277.420220043505
 51
156.816485868869
  0
ARC
  5
5E7
100
AcDbEntity
  8
\U+56FE\U+5C422
100
AcDbCircle
370
-1
 62
0
  6
BYLAYER
 10
386.738798564854
 20
482.177929321057
 30
0
 40
10.282587307658
100
AcDbArc
 50
219.278935498712
 51
259.74644925784
  0
ARC
  5
5E8
100
AcDbEntity
  8
\U+56FE\U+5C422
100
AcDbCircle
370
-1
 62
0
  6
BYLAYER
 10
389.693015797996
 20
494.505148858678
 30
0
 40
22.9498712288989
100
AcDbArc
 50
257.966772127938
 51
318.37496199255
  0
ARC
  5
5E9
100
AcDbEntity
  8
\U+56FE\U+5C422
100
AcDbCircle
370
-1
 62
0
  6
BYLAYER
 10
381.006622259584
 20
505.726995189878
 30
0
 40
36.9899576769461
100
AcDbArc
 50
314.315696158078
 51
9.06849034310841
  0
ARC
  5
5EA
100
AcDbEntity
  8
\U+56FE\U+5C422
100
AcDbCircle
370
-1
 62
0
  6
BYLAYER
 10
365.301849863659
 20
504.047784548238
 30
0
 40
52.7694255197256
100
AcDbArc
 50
8.18128202192324
 51
27.1285029072436
  0
ARC
  5
5EB
100
AcDbEntity
  8
\U+56FE\U+5C422
100
AcDbCircle
370
-1
 62
0
  6
BYLAYER
 10
401.028530512858
 20
529.420499672892
 30
0
 40
11.3135309677097
100
AcDbArc
 50
268.712569060815
 51
353.348195560727
  0
ARC
  5
5EC
100
AcDbEntity
  8
\U+56FE\U+5C422
100
AcDbCircle
370
-1
 62
0
  6
BYLAYER
 10
401.386828349349
 20
521.633560818185
 30
0
 40
3.57657112519362
100
AcDbArc
 50
140.117180747535
 51
260.139452287265
  0
ARC
  5
5ED
100
AcDbEntity
  8
\U+56FE\U+5C422
100
AcDbCircle
370
-1
 62
0
  6
BYLAYER
 10
379.011988831216
 20
534.580704285032
 30
0
 40
22.3350137543064
100
AcDbArc
 50
331.510424406134
 51
41.939257320808
  0
ARC
  5
5EE
100
AcDbEntity
  8
\U+56FE\U+5C422
100
AcDbCircle
370
-1
 62
0
  6
BYLAYER
 10
377.59016054409
 20
533.778337285569
 30
0
 40
23.9315118432386
100
AcDbArc
 50
41.093073400268
 51
135.616576636355
  0
ARC
  5
5EF
100
AcDbEntity
  8
\U+56FE\U+5C422
100
AcDbCircle
370
-1
 62
0
  6
BYLAYER
 10
385.954499125223
 20
521.971646487155
 30
0
 40
38.2551678427134
100
AcDbArc
 50
131.738314647791
 51
193.474045334908
  0
ARC
  5
5F0
100
AcDbEntity
  8
\U+56FE\U+5C422
100
AcDbCircle
370
-1
 62
0
  6
BYLAYER
 10
238.01848468116
 20
532.274243559012
 30
0
 40
23.3297312349369
100
AcDbArc
 50
304.545091176586
 51
8.08589095008825
  0
ARC
  5
5F1
100
AcDbEntity
  8
\U+56FE\U+5C422
100
AcDbCircle
370
-1
 62
0
  6
BYLAYER
 10
238.745875213412
 20
509.100518833757
 30
0
 40
34.6455466457307
100
AcDbArc
 50
353.292533147132
 51
49.7823087556511
  0
ARC
  5
5F2
100
AcDbEntity
  8
\U+56FE\U+5C422
100
AcDbCircle
370
-1
 62
0
  6
BYLAYER
 10
198.614664122599
 20
517.348554169895
 30
0
 40
75.5467653599334
100
AcDbArc
 50
314.56624351185
 51
350.633905161792
  0
ARC
  5
5F3
100
AcDbEntity
  8
\U+56FE\U+5C422
100
AcDbCircle
370
-1
 62
0
  6
BYLAYER
 10
251.029481350393
 20
488.791127010736
 30
0
 40
25.2721771915354
100
AcDbArc
 50
271.357862843532
 51
331.067731069708
  0
ARC
  5
5F4
100
AcDbEntity
  8
\U+56FE\U+5C422
100
AcDbCircle
370
-1
 62
0
  6
BYLAYER
 10
233.650862827747
 20
472.885902525392
 30
0
 40
39.6676207181521
100
AcDbArc
 50
298.647623331642
 51
5.32182645447265
  0
ARC
  5
5F5
100
AcDbEntity
  8
\U+56FE\U+5C422
100
AcDbCircle
370
-1
 62
0
  6
BYLAYER
 10
246.765938288804
 20
449.492548827828
 30
0
 40
12.8536906545159
100
AcDbArc
 50
248.005804067483
 51
297.335589054701
  0
ARC
  5
5F6
100
AcDbEntity
  8
\U+56FE\U+5C422
100
AcDbCircle
370
-1
 62
0
  6
BYLAYER
 10
245.640592866612
 20
448.023801277982
 30
0
 40
11.0813687273836
100
AcDbArc
 50
208.593726281718
 51
250.557650706499
  0
ARC
  5
5F7
100
AcDbEntity
  8
\U+56FE\U+5C422
100
AcDbCircle
370
-1
 62
0
  6
BYLAYER
 10
239.338210777551
 20
444.606539161953
 30
0
 40
3.91219919257832
100
AcDbArc
 50
62.4360710760135
 51
208.825359157002
  0
ARC
  5
5F8
100
AcDbEntity
  8
\U+56FE\U+5C422
100
AcDbCircle
370
-1
 62
0
  6
BYLAYER
 10
227.393231337175
 20
443.19923146248
 30
0
 40
14.5937793761557
100
AcDbArc
 50
19.5164496725564
 51
156.937451019482
  0
ARC
  5
5F9
100
AcDbEntity
  8
\U+56FE\U+5C422
100
AcDbCircle
370
-1
 62
0
  6
BYLAYER
 10
230.779385412357
 20
442.543025888753
 30
0
 40
17.9808938083315
100
AcDbArc
 50
159.240997628719
 51
264.303926593533
  0
ARC
  5
5FA
100
AcDbEntity
  8
\U+56FE\U+5C422
100
AcDbCircle
370
-1
 62
0
  6
BYLAYER
 10
232.252616526632
 20
470.31692560623
 30
0
 40
45.7820728481296
100
AcDbArc
 50
265.91937032717
 51
313.570665351086
  0
ARC
  5
5FB
100
AcDbEntity
  8
\U+56FE\U+5C422
100
AcDbCircle
370
-1
 62
0
  6
BYLAYER
 10
212.13126361152
 20
486.097716701018
 30
0
 40
71.1805727159841
100
AcDbArc
 50
316.551503651217
 51
357.577147165596
  0
ARC
  5
5FC
100
AcDbEntity
  8
\U+56FE\U+5C422
100
AcDbCircle
370
-1
 62
0
  6
BYLAYER
 10
226.795099195458
 20
460.969032132786
 30
0
 40
60.6319153210289
100
AcDbArc
 50
342.969050842679
 51
21.3963538493033
  0
ARC
  5
5FD
100
AcDbEntity
  8
\U+56FE\U+5C422
100
AcDbCircle
370
-1
 62
0
  6
BYLAYER
 10
246.798559488689
 20
453.941943641025
 30
0
 40
39.4568981758498
100
AcDbArc
 50
309.358460862935
 51
344.218181875813
  0
ARC
  5
5FE
100
AcDbEntity
  8
\U+56FE\U+5C422
100
AcDbCircle
370
-1
 62
0
  6
BYLAYER
 10
236.821282695655
 20
466.284528412399
 30
0
 40
55.3275111347438
100
AcDbArc
 50
282.430216409465
 51
309.241510806942
  0
ARC
  5
5FF
100
AcDbEntity
  8
\U+56FE\U+5C422
100
AcDbCircle
370
-1
 62
0
  6
BYLAYER
 10
236.298029305702
 20
464.009220016183
 30
0
 40
53.2275774948981
100
AcDbArc
 50
263.428440231671
 51
283.507516182283
  0
ARC
  5
600
100
AcDbEntity
  8
\U+56FE\U+5C422
100
AcDbCircle
370
-1
 62
0
  6
BYLAYER
 10
233.829746710284
 20
438.154480684312
 30
0
 40
27.2649430604799
100
AcDbArc
 50
233.492045617624
 51
262.3632491341
  0
ARC
  5
601
100
AcDbEntity
  8
\U+56FE\U+5C422
100
AcDbCircle
370
-1
 62
0
  6
BYLAYER
 10
232.039140351831
 20
432.251279207166
 30
0
 40
21.5547023152484
100
AcDbArc
 50
183.797701245703
 51
227.973759354106
  0
ARC
  5
602
100
AcDbEntity
  8
\U+56FE\U+5C422
100
AcDbCircle
370
-1
 62
0
  6
BYLAYER
 10
212.772990192035
 20
423.452105570272
 30
0
 40
7.70470064353664
100
AcDbArc
 50
106.911249522091
 51
183.563355606784
  0
ARC
  5
603
100
AcDbEntity
  8
\U+56FE\U+5C422
100
AcDbCircle
370
-1
 62
0
  6
BYLAYER
 10
225.88960904751
 20
424.035277631925
 30
0
 40
20.8335113484849
100
AcDbArc
 50
182.922050725948
 51
270.789136353039
  0
ARC
  5
604
100
AcDbEntity
  8
\U+56FE\U+5C422
100
AcDbCircle
370
-1
 62
0
  6
BYLAYER
 10
239.600477170735
 20
399.929833273069
 30
0
 40
13.8174004719789
100
AcDbArc
 50
166.293932912352
 51
211.87738889917
  0
ARC
  5
605
100
AcDbEntity
  8
\U+56FE\U+5C422
100
AcDbCircle
370
-1
 62
0
  6
BYLAYER
 10
239.316092696077
 20
400.513071039236
 30
0
 40
13.8989120459951
100
AcDbArc
 50
214.539132673161
 51
268.686435737663
  0
ARC
  5
606
100
AcDbEntity
  8
\U+56FE\U+5C422
100
AcDbCircle
370
-1
 62
0
  6
BYLAYER
 10
240.099559479552
 20
421.08066290742
 30
0
 40
34.4804686877847
100
AcDbArc
 50
268.168365633031
 51
295.4847324096
  0
ARC
  5
607
100
AcDbEntity
  8
\U+56FE\U+5C422
100
AcDbCircle
370
-1
 62
0
  6
BYLAYER
 10
250.740244429279
 20
387.268448588871
 30
0
 40
4.98180945384491
100
AcDbArc
 50
296.90636108652
 51
32.6360871115123
  0
ARC
  5
608
100
AcDbEntity
  8
\U+56FE\U+5C422
100
AcDbCircle
370
-1
 62
0
  6
BYLAYER
 10
255.673656805613
 20
373.20602583385
 30
0
 40
9.98596684097422
100
AcDbArc
 50
105.56158775321
 51
190.320438370892
  0
ARC
  5
609
100
AcDbEntity
  8
\U+56FE\U+5C422
100
AcDbCircle
370
-1
 62
0
  6
BYLAYER
 10
274.311932720641
 20
375.487291516988
 30
0
 40
28.7522426542222
100
AcDbArc
 50
188.138359991815
 51
223.258794792866
  0
ARC
  5
60A
100
AcDbEntity
  8
\U+56FE\U+5C422
100
AcDbCircle
370
-1
 62
0
  6
BYLAYER
 10
284.981948252652
 20
382.593134133906
 30
0
 40
41.4475828295676
100
AcDbArc
 50
220.303138719785
 51
240.801892481268
  0
ARC
  5
60B
100
AcDbEntity
  8
\U+56FE\U+5C422
100
AcDbCircle
370
-1
 62
0
  6
BYLAYER
 10
275.679519027205
 20
366.729769204478
 30
0
 40
23.0649943608314
100
AcDbArc
 50
241.750383807868
 51
283.214966121978
  0
ARC
  5
60C
100
AcDbEntity
  8
\U+56FE\U+5C422
100
AcDbCircle
370
-1
 62
0
  6
BYLAYER
 10
277.462779879153
 20
358.947511630281
 30
0
 40
15.0812157434897
100
AcDbArc
 50
283.378426952779
 51
345.108376359939
  0
ARC
  5
60D
100
AcDbEntity
  8
\U+56FE\U+5C422
100
AcDbCircle
370
-1
 62
0
  6
BYLAYER
 10
286.52160682603
 20
356.85402493084
 30
0
 40
5.79665592680772
100
AcDbArc
 50
342.093589377174
 51
135.055126699038
  0
ARC
  5
60E
100
AcDbEntity
  8
\U+56FE\U+5C422
100
AcDbCircle
370
-1
 62
0
  6
BYLAYER
 10
327.685176257097
 20
320.963260023196
 30
0
 40
60.3978311955666
100
AcDbArc
 50
138.544493340425
 51
145.970552434088
  0
ARC
  5
60F
100
AcDbEntity
  8
\U+56FE\U+5C422
100
AcDbCircle
370
-1
 62
0
  6
BYLAYER
 10
272.164171371618
 20
359.137248619022
 30
0
 40
7.00101539986663
100
AcDbArc
 50
230.895333500628
 51
321.33264610306
  0
ARC
  5
610
100
AcDbEntity
  8
\U+56FE\U+5C422
100
AcDbCircle
370
-1
 62
0
  6
BYLAYER
 10
299.269449657711
 20
390.781825516758
 30
0
 40
48.6652610964156
100
AcDbArc
 50
215.334583018354
 51
229.630654064074
  0
ARC
  5
611
100
AcDbEntity
  8
\U+56FE\U+5C422
100
AcDbCircle
370
-1
 62
0
  6
BYLAYER
 10
272.106747755096
 20
369.854959711467
 30
0
 40
14.4674679505958
100
AcDbArc
 50
166.8964349285
 51
209.931247433611
  0
ARC
  5
612
100
AcDbEntity
  8
\U+56FE\U+5C422
100
AcDbCircle
370
-1
 62
0
  6
BYLAYER
 10
263.438670361363
 20
371.535607746842
 30
0
 40
5.65360653086996
100
AcDbArc
 50
58.7008985348974
 51
163.567758038272
  0
ARC
  5
613
100
AcDbEntity
  8
\U+56FE\U+5C422
100
AcDbCircle
370
-1
 62
0
  6
BYLAYER
 10
255.673876902896
 20
360.497796663166
 30
0
 40
19.1401036985083
100
AcDbArc
 50
30.0618613066229
 51
56.0041011122096
  0
ARC
  5
614
100
AcDbEntity
  8
\U+56FE\U+5C422
100
AcDbCircle
370
-1
 62
0
  6
BYLAYER
 10
274.589340994666
 20
371.436056846714
 30
0
 40
2.71031573370938
100
AcDbArc
 50
209.881910296929
 51
12.589708203195
  0
ARC
  5
615
100
AcDbEntity
  8
\U+56FE\U+5C422
100
AcDbCircle
370
-1
 62
0
  6
BYLAYER
 10
244.168197302011
 20
364.174464485378
 30
0
 40
33.9858670837156
100
AcDbArc
 50
13.3587583755015
 51
40.7401106594231
  0
ARC
  5
616
100
AcDbEntity
  8
\U+56FE\U+5C422
100
AcDbCircle
370
-1
 62
0
  6
BYLAYER
 10
282.345161313367
 20
394.627237153581
 30
0
 40
14.92840518504
100
AcDbArc
 50
168.882991873786
 51
213.65235005476
  0
ARC
  5
617
100
AcDbEntity
  8
\U+56FE\U+5C422
100
AcDbCircle
370
-1
 62
0
  6
BYLAYER
 10
276.851558064735
 20
395.711373355379
 30
0
 40
9.32885209759359
100
AcDbArc
 50
112.546570750432
 51
168.910957779129
  0
ARC
  5
618
100
AcDbEntity
  8
\U+56FE\U+5C422
100
AcDbCircle
370
-1
 62
0
  6
BYLAYER
 10
290.388464396092
 20
405.001163576141
 30
0
 40
17.1271730969421
100
AcDbArc
 50
182.255188016233
 51
241.606525354017
  0
ARC
  5
619
100
AcDbEntity
  8
\U+56FE\U+5C422
100
AcDbCircle
370
-1
 62
0
  6
BYLAYER
 10
284.077920866589
 20
393.267550769116
 30
0
 40
3.80437137193174
100
AcDbArc
 50
241.181628731202
 51
31.6598516065558
  0
ARC
  5
61A
100
AcDbEntity
  8
\U+56FE\U+5C422
100
AcDbCircle
370
-1
 62
0
  6
BYLAYER
 10
302.715392079398
 20
406.03110057078
 30
0
 40
18.7898899609331
100
AcDbArc
 50
157.693421051927
 51
214.960145376641
  0
ARC
  5
61B
100
AcDbEntity
  8
\U+56FE\U+5C422
100
AcDbCircle
370
-1
 62
0
  6
BYLAYER
 10
138.399344311008
 20
467.836079571541
 30
0
 40
156.774474725998
100
AcDbArc
 50
339.589922633343
 51
353.363401289705
  0
ARC
  5
61C
100
AcDbEntity
  8
\U+56FE\U+5C422
100
AcDbCircle
370
-1
 62
0
  6
BYLAYER
 10
143.603591512542
 20
463.12564565394
 30
0
 40
151.115726089126
100
AcDbArc
 50
354.909544401833
 51
11.6266937288074
  0
ARC
  5
61D
100
AcDbEntity
  8
\U+56FE\U+5C422
100
AcDbCircle
370
-1
 62
0
  6
BYLAYER
 10
212.995740070021
 20
478.538978599581
 30
0
 40
80.0488145539429
100
AcDbArc
 50
10.8306154604391
 51
49.838438851594
  0
ARC
  5
61E
100
AcDbEntity
  8
\U+56FE\U+5C422
100
AcDbCircle
370
-1
 62
0
  6
BYLAYER
 10
268.363636295291
 20
554.838481156229
 30
0
 40
15.5796517699615
100
AcDbArc
 50
256.10706786411
 51
24.7124441818547
  0
ARC
  5
61F
100
AcDbEntity
  8
\U+56FE\U+5C422
100
AcDbCircle
370
-1
 62
0
  6
BYLAYER
 10
263.150778067505
 20
576.644834595992
 30
0
 40
24.6760473560055
100
AcDbArc
 50
266.148891615015
 51
321.701895995645
  0
ARC
  5
620
100
AcDbEntity
  8
\U+56FE\U+5C422
100
AcDbCircle
370
-1
 62
0
  6
BYLAYER
 10
264.219234772791
 20
577.594310587926
 30
0
 40
25.7146812154789
100
AcDbArc
 50
236.486309702892
 51
263.915125079609
  0
ARC
  5
621
100
AcDbEntity
  8
\U+56FE\U+5C422
100
AcDbCircle
370
-1
 62
0
  6
BYLAYER
 10
217.548872778366
 20
505.737401711132
 30
0
 40
59.9695519763761
100
AcDbArc
 50
57.2155063185905
 51
79.8115450982363
  0
ARC
  5
622
100
AcDbEntity
  8
\U+56FE\U+5C422
100
AcDbCircle
370
-1
 62
0
  6
BYLAYER
 10
225.376485086966
 20
515.469869385965
 30
0
 40
49.3697839066401
100
AcDbArc
 50
86.7717642538645
 51
140.248848845408
  0
ARC
  5
623
100
AcDbEntity
  8
\U+56FE\U+5C422
100
AcDbCircle
370
-1
 62
0
  6
BYLAYER
 10
243.08340401001
 20
502.466850330229
 30
0
 40
71.3105380254679
100
AcDbArc
 50
141.314044565987
 51
168.222229421091
  0
ARC
  5
624
100
AcDbEntity
  8
\U+56FE\U+5C422
100
AcDbCircle
370
-1
 62
0
  6
BYLAYER
 10
225.341899944393
 20
509.568968811258
 30
0
 40
52.5984910787899
100
AcDbArc
 50
171.853422867323
 51
223.659594902297
  0
ARC
  5
625
100
AcDbEntity
  8
\U+56FE\U+5C422
100
AcDbCircle
370
-1
 62
0
  6
BYLAYER
 10
210.310802567975
 20
494.478955448013
 30
0
 40
31.3111068660057
100
AcDbArc
 50
222.671629582599
 51
282.588742803237
  0
ARC
  5
626
100
AcDbEntity
  8
\U+56FE\U+5C422
100
AcDbCircle
370
-1
 62
0
  6
BYLAYER
 10
210.557815034045
 20
490.116293204582
 30
0
 40
27.0088158432914
100
AcDbArc
 50
284.094612940799
 51
343.180772104082
  0
ARC
  5
627
100
AcDbEntity
  8
\U+56FE\U+5C422
100
AcDbCircle
370
-1
 62
0
  6
BYLAYER
 10
220.637645804442
 20
486.506074085085
 30
0
 40
16.324453479349
100
AcDbArc
 50
345.073442623596
 51
27.4695438628079
  0
ARC
  5
628
100
AcDbEntity
  8
\U+56FE\U+5C422
100
AcDbCircle
370
-1
 62
0
  6
BYLAYER
 10
222.933050721118
 20
488.81629413434
 30
0
 40
13.2592709192106
100
AcDbArc
 50
23.1835141311066
 51
262.579779956471
  0
ARC
  5
629
100
AcDbEntity
  8
\U+56FE\U+5C422
100
AcDbCircle
370
-1
 62
0
  6
BYLAYER
 10
213.261201435159
 20
482.177929321057
 30
0
 40
10.2825873076578
100
AcDbArc
 50
280.25355074216
 51
320.721064501289
  0
ARC
  5
62A
100
AcDbEntity
  8
\U+56FE\U+5C422
100
AcDbCircle
370
-1
 62
0
  6
BYLAYER
 10
210.306984202013
 20
494.505148858684
 30
0
 40
22.9498712289047
100
AcDbArc
 50
221.625038007455
 51
282.033227872067
  0
ARC
  5
62B
100
AcDbEntity
  8
\U+56FE\U+5C422
100
AcDbCircle
370
-1
 62
0
  6
BYLAYER
 10
218.993377740422
 20
505.726995189878
 30
0
 40
36.9899576769461
100
AcDbArc
 50
170.931509656892
 51
225.684303841922
  0
ARC
  5
62C
100
AcDbEntity
  8
\U+56FE\U+5C422
100
AcDbCircle
370
-1
 62
0
  6
BYLAYER
 10
234.698150136347
 20
504.047784548237
 30
0
 40
52.7694255197258
100
AcDbArc
 50
152.871497092756
 51
171.818717978076
  0
ARC
  5
62D
100
AcDbEntity
  8
\U+56FE\U+5C422
100
AcDbCircle
370
-1
 62
0
  6
BYLAYER
 10
198.971469487148
 20
529.420499672892
 30
0
 40
11.3135309677096
100
AcDbArc
 50
186.651804439272
 51
271.287430939185
  0
ARC
  5
62E
100
AcDbEntity
  8
\U+56FE\U+5C422
100
AcDbCircle
370
-1
 62
0
  6
BYLAYER
 10
198.613171650658
 20
521.633560818185
 30
0
 40
3.57657112519365
100
AcDbArc
 50
279.860547712735
 51
39.8828192524647
  0
ARC
  5
62F
100
AcDbEntity
  8
\U+56FE\U+5C422
100
AcDbCircle
370
-1
 62
0
  6
BYLAYER
 10
220.988011168797
 20
534.580704285023
 30
0
 40
22.3350137543076
100
AcDbArc
 50
138.060742679165
 51
208.489575593839
  0
ARC
  5
630
100
AcDbEntity
  8
\U+56FE\U+5C422
100
AcDbCircle
370
-1
 62
0
  6
BYLAYER
 10
222.409839455928
 20
533.778337285569
 30
0
 40
23.9315118432387
100
AcDbArc
 50
44.3834233636451
 51
138.906926599732
  0
ARC
  5
631
100
AcDbEntity
  8
\U+56FE\U+5C422
100
AcDbCircle
370
-1
 62
0
  6
BYLAYER
 10
214.045500874798
 20
521.97164648715
 30
0
 40
38.2551678427152
100
AcDbArc
 50
346.5259546651
 51
48.2616853522173
  0
ARC
  5
632
100
AcDbEntity
  8
\U+56FE\U+5C422
100
AcDbCircle
370
-1
 62
0
  6
BYLAYER
 10
67.7257564409829
 20
361.981515318862
 30
0
 40
23.3297312349391
100
AcDbArc
 50
261.914109049925
 51
325.454908823427
  0
ARC
  5
633
100
AcDbEntity
  8
\U+56FE\U+5C422
100
AcDbCircle
370
-1
 62
0
  6
BYLAYER
 10
90.8994811662426
 20
361.254124786607
 30
0
 40
34.6455466457307
100
AcDbArc
 50
220.217691244349
 51
276.707466852868
  0
ARC
  5
634
100
AcDbEntity
  8
\U+56FE\U+5C422
100
AcDbCircle
370
-1
 62
0
  6
BYLAYER
 10
82.651445830117
 20
401.385335877425
 30
0
 40
75.5467653599376
100
AcDbArc
 50
279.366094838198
 51
315.43375648814
  0
ARC
  5
635
100
AcDbEntity
  8
\U+56FE\U+5C422
100
AcDbCircle
370
-1
 62
0
  6
BYLAYER
 10
111.20887298928
 20
348.970518649626
 30
0
 40
25.2721771915249
100
AcDbArc
 50
298.932268930277
 51
358.642137156453
  0
ARC
  5
636
100
AcDbEntity
  8
\U+56FE\U+5C422
100
AcDbCircle
370
-1
 62
0
  6
BYLAYER
 10
127.114097474615
 20
366.349137172277
 30
0
 40
39.667620718152
100
AcDbArc
 50
264.678173545527
 51
331.352376668358
  0
ARC
  5
637
100
AcDbEntity
  8
\U+56FE\U+5C422
100
AcDbCircle
370
-1
 62
0
  6
BYLAYER
 10
150.507451172192
 20
353.234061711214
 30
0
 40
12.8536906545013
100
AcDbArc
 50
332.664410945296
 51
21.9941959325144
  0
ARC
  5
638
100
AcDbEntity
  8
\U+56FE\U+5C422
100
AcDbCircle
370
-1
 62
0
  6
BYLAYER
 10
151.976198722016
 20
354.359407133403
 30
0
 40
11.0813687273902
100
AcDbArc
 50
19.4423492934717
 51
61.4062737182526
  0
ARC
  5
639
100
AcDbEntity
  8
\U+56FE\U+5C422
100
AcDbCircle
370
-1
 62
0
  6
BYLAYER
 10
155.393460838051
 20
360.661789222464
 30
0
 40
3.91219919258288
100
AcDbArc
 50
61.1746408429996
 51
207.563928923988
  0
ARC
  5
63A
100
AcDbEntity
  8
\U+56FE\U+5C422
100
AcDbCircle
370
-1
 62
0
  6
BYLAYER
 10
156.800768537521
 20
372.60676866284
 30
0
 40
14.5937793761591
100
AcDbArc
 50
113.062548980518
 51
250.483550327443
  0
ARC
  5
63B
100
AcDbEntity
  8
\U+56FE\U+5C422
100
AcDbCircle
370
-1
 62
0
  6
BYLAYER
 10
157.456974111247
 20
369.220614587656
 30
0
 40
17.9808938083368
100
AcDbArc
 50
5.69607340646336
 51
110.759002371278
  0
ARC
  5
63C
100
AcDbEntity
  8
\U+56FE\U+5C422
100
AcDbCircle
370
-1
 62
0
  6
BYLAYER
 10
129.683074393776
 20
367.747383473381
 30
0
 40
45.7820728481296
100
AcDbArc
 50
316.429334648914
 51
4.08062967282987
  0
ARC
  5
63D
100
AcDbEntity
  8
\U+56FE\U+5C422
100
AcDbCircle
370
-1
 62
0
  6
BYLAYER
 10
113.902283298985
 20
387.868736388501
 30
0
 40
71.1805727159925
100
AcDbArc
 50
272.422852834401
 51
313.44849634878
  0
ARC
  5
63E
100
AcDbEntity
  8
\U+56FE\U+5C422
100
AcDbCircle
370
-1
 62
0
  6
BYLAYER
 10
139.030967867217
 20
373.204900804563
 30
0
 40
60.6319153210385
100
AcDbArc
 50
248.603646150697
 51
287.030949157322
  0
ARC
  5
63F
100
AcDbEntity
  8
\U+56FE\U+5C422
100
AcDbCircle
370
-1
 62
0
  6
BYLAYER
 10
146.058056358971
 20
353.201440511326
 30
0
 40
39.4568981758555
100
AcDbArc
 50
285.7818181242
 51
320.641539137077
  0
ARC
  5
640
100
AcDbEntity
  8
\U+56FE\U+5C422
100
AcDbCircle
370
-1
 62
0
  6
BYLAYER
 10
133.715471587611
 20
363.178717304376
 30
0
 40
55.3275111347493
100
AcDbArc
 50
320.758489193045
 51
347.569783590522
  0
ARC
  5
641
100
AcDbEntity
  8
\U+56FE\U+5C422
100
AcDbCircle
370
-1
 62
0
  6
BYLAYER
 10
135.990779983826
 20
363.701970694298
 30
0
 40
53.2275774948972
100
AcDbArc
 50
346.492483817736
 51
6.57155976834847
  0
ARC
  5
642
100
AcDbEntity
  8
\U+56FE\U+5C422
100
AcDbCircle
370
-1
 62
0
  6
BYLAYER
 10
161.845519315697
 20
366.170253289746
 30
0
 40
27.2649430604751
100
AcDbArc
 50
7.63675086587619
 51
36.5079543823521
  0
ARC
  5
643
100
AcDbEntity
  8
\U+56FE\U+5C422
100
AcDbCircle
370
-1
 62
0
  6
BYLAYER
 10
167.748720792843
 20
367.96085964818
 30
0
 40
21.5547023152557
100
AcDbArc
 50
42.026240645904
 51
86.202298754307
  0
ARC
  5
644
100
AcDbEntity
  8
\U+56FE\U+5C422
100
AcDbCircle
370
-1
 62
0
  6
BYLAYER
 10
176.547894429731
 20
387.227009807987
 30
0
 40
7.70470064353263
100
AcDbArc
 50
86.4366443932361
 51
163.088750477929
  0
ARC
  5
645
100
AcDbEntity
  8
\U+56FE\U+5C422
100
AcDbCircle
370
-1
 62
0
  6
BYLAYER
 10
175.964722368078
 20
374.110390952506
 30
0
 40
20.8335113484878
100
AcDbArc
 50
359.21086364697
 51
87.0779492740609
  0
ARC
  5
646
100
AcDbEntity
  8
\U+56FE\U+5C422
100
AcDbCircle
370
-1
 62
0
  6
BYLAYER
 10
200.07016672694
 20
360.399522829276
 30
0
 40
13.8174004719867
100
AcDbArc
 50
58.1226111008346
 51
103.706067087653
  0
ARC
  5
647
100
AcDbEntity
  8
\U+56FE\U+5C422
100
AcDbCircle
370
-1
 62
0
  6
BYLAYER
 10
199.48692896077
 20
360.683907303953
 30
0
 40
13.8989120459888
100
AcDbArc
 50
1.31356426228743
 51
55.4608673267897
  0
ARC
  5
648
100
AcDbEntity
  8
\U+56FE\U+5C422
100
AcDbCircle
370
-1
 62
0
  6
BYLAYER
 10
178.919337092574
 20
359.900440520438
 30
0
 40
34.4804686877918
100
AcDbArc
 50
334.515267590446
 51
1.83163436701563
  0
ARC
  5
649
100
AcDbEntity
  8
\U+56FE\U+5C422
100
AcDbCircle
370
-1
 62
0
  6
BYLAYER
 10
212.731551411132
 20
349.259755570731
 30
0
 40
4.98180945383801
100
AcDbArc
 50
237.363912888559
 51
333.093638913552
  0
ARC
  5
64A
100
AcDbEntity
  8
\U+56FE\U+5C422
100
AcDbCircle
370
-1
 62
0
  6
BYLAYER
 10
226.793974166149
 20
344.326343194405
 30
0
 40
9.98596684097433
100
AcDbArc
 50
79.6795616291082
 51
164.43841224679
  0
ARC
  5
64B
100
AcDbEntity
  8
\U+56FE\U+5C422
100
AcDbCircle
370
-1
 62
0
  6
BYLAYER
 10
224.512708483018
 20
325.688067279358
 30
0
 40
28.7522426542406
100
AcDbArc
 50
46.741205207152
 51
81.8616400082029
  0
ARC
  5
64C
100
AcDbEntity
  8
\U+56FE\U+5C422
100
AcDbCircle
370
-1
 62
0
  6
BYLAYER
 10
217.406865866122
 20
315.018051747369
 30
0
 40
41.4475828295546
100
AcDbArc
 50
29.1981075187466
 51
49.6968612802294
  0
ARC
  5
64D
100
AcDbEntity
  8
\U+56FE\U+5C422
100
AcDbCircle
370
-1
 62
0
  6
BYLAYER
 10
233.270230795528
 20
324.320480972836
 30
0
 40
23.0649943608289
100
AcDbArc
 50
346.78503387798
 51
28.2496161920895
  0
ARC
  5
64E
100
AcDbEntity
  8
\U+56FE\U+5C422
100
AcDbCircle
370
-1
 62
0
  6
BYLAYER
 10
241.052488369709
 20
322.537220120865
 30
0
 40
15.0812157434983
100
AcDbArc
 50
284.891623640092
 51
346.621573047252
  0
ARC
  5
64F
100
AcDbEntity
  8
\U+56FE\U+5C422
100
AcDbCircle
370
-1
 62
0
  6
BYLAYER
 10
243.145975069164
 20
313.478393173988
 30
0
 40
5.79665592681142
100
AcDbArc
 50
134.944873300904
 51
287.906410622767
  0
ARC
  5
650
100
AcDbEntity
  8
\U+56FE\U+5C422
100
AcDbCircle
370
-1
 62
0
  6
BYLAYER
 10
279.036739976767
 20
272.314823742878
 30
0
 40
60.3978311955754
100
AcDbArc
 50
124.02944756585
 51
131.455506659514
  0
ARC
  5
651
100
AcDbEntity
  8
\U+56FE\U+5C422
100
AcDbCircle
370
-1
 62
0
  6
BYLAYER
 10
240.86275138099
 20
327.8358286284
 30
0
 40
7.00101539986645
100
AcDbArc
 50
308.66735389694
 51
39.1046664993727
  0
ARC
  5
652
100
AcDbEntity
  8
\U+56FE\U+5C422
100
AcDbCircle
370
-1
 62
0
  6
BYLAYER
 10
209.218174483253
 20
300.730550342307
 30
0
 40
48.6652610964162
100
AcDbArc
 50
40.3693459359249
 51
54.6654169816451
  0
ARC
  5
653
100
AcDbEntity
  8
\U+56FE\U+5C422
100
AcDbCircle
370
-1
 62
0
  6
BYLAYER
 10
230.145040288539
 20
327.893252244906
 30
0
 40
14.4674679506123
100
AcDbArc
 50
60.068752566399
 51
103.103565071509
  0
ARC
  5
654
100
AcDbEntity
  8
\U+56FE\U+5C422
100
AcDbCircle
370
-1
 62
0
  6
BYLAYER
 10
228.464392253162
 20
336.561329638663
 30
0
 40
5.65360653086367
100
AcDbArc
 50
106.432241961787
 51
211.299101465162
  0
ARC
  5
655
100
AcDbEntity
  8
\U+56FE\U+5C422
100
AcDbCircle
370
-1
 62
0
  6
BYLAYER
 10
239.502203336867
 20
344.326123097096
 30
0
 40
19.1401036985071
100
AcDbArc
 50
213.995898887676
 51
239.938138693263
  0
ARC
  5
656
100
AcDbEntity
  8
\U+56FE\U+5C422
100
AcDbCircle
370
-1
 62
0
  6
BYLAYER
 10
228.563943153286
 20
325.41065900535
 30
0
 40
2.71031573370646
100
AcDbArc
 50
257.410291796781
 51
60.1180897030459
  0
ARC
  5
657
100
AcDbEntity
  8
\U+56FE\U+5C422
100
AcDbCircle
370
-1
 62
0
  6
BYLAYER
 10
235.825535514628
 20
355.831802697982
 30
0
 40
33.9858670836927
100
AcDbArc
 50
229.259889340558
 51
256.641241624479
  0
ARC
  5
658
100
AcDbEntity
  8
\U+56FE\U+5C422
100
AcDbCircle
370
-1
 62
0
  6
BYLAYER
 10
205.372762846442
 20
317.654838686655
 30
0
 40
14.9284051850307
100
AcDbArc
 50
56.3476499452642
 51
101.117008126238
  0
ARC
  5
659
100
AcDbEntity
  8
\U+56FE\U+5C422
100
AcDbCircle
370
-1
 62
0
  6
BYLAYER
 10
204.288626644631
 20
323.148441935275
 30
0
 40
9.32885209759438
100
AcDbArc
 50
101.089042220815
 51
157.453429249512
  0
ARC
  5
65A
100
AcDbEntity
  8
\U+56FE\U+5C422
100
AcDbCircle
370
-1
 62
0
  6
BYLAYER
 10
194.998836423862
 20
309.611535603929
 30
0
 40
17.1271730969403
100
AcDbArc
 50
28.3934746459545
 51
87.7448119837379
  0
ARC
  5
65B
100
AcDbEntity
  8
\U+56FE\U+5C422
100
AcDbCircle
370
-1
 62
0
  6
BYLAYER
 10
206.732449230893
 20
315.922079133422
 30
0
 40
3.80437137192944
100
AcDbArc
 50
238.340148393477
 51
28.8183712688312
  0
ARC
  5
65C
100
AcDbEntity
  8
\U+56FE\U+5C422
100
AcDbCircle
370
-1
 62
0
  6
BYLAYER
 10
193.968899429232
 20
297.284607920615
 30
0
 40
18.7898899609332
100
AcDbArc
 50
55.0398546233583
 51
112.306578948073
  0
ARC
  5
65D
100
AcDbEntity
  8
\U+56FE\U+5C422
100
AcDbCircle
370
-1
 62
0
  6
BYLAYER
 10
132.163920428515
 20
461.600655689061
 30
0
 40
156.774474726035
100
AcDbArc
 50
276.636598710273
 51
290.410077366635
  0
ARC
  5
65E
100
AcDbEntity
  8
\U+56FE\U+5C422
100
AcDbCircle
370
-1
 62
0
  6
BYLAYER
 10
136.874354346057
 20
456.396408487503
 30
0
 40
151.115726089147
100
AcDbArc
 50
258.373306271193
 51
275.090455598168
  0
ARC
  5
65F
100
AcDbEntity
  8
\U+56FE\U+5C422
100
AcDbCircle
370
-1
 62
0
  6
BYLAYER
 10
121.461021400416
 20
387.004259929994
 30
0
 40
80.0488145539348
100
AcDbArc
 50
220.161561148403
 51
259.169384539558
  0
ARC
  5
660
100
AcDbEntity
  8
\U+56FE\U+5C422
100
AcDbCircle
370
-1
 62
0
  6
BYLAYER
 10
45.161518843771
 20
331.636363704726
 30
0
 40
15.579651769963
100
AcDbArc
 50
245.287555818172
 51
13.8929321359168
  0
ARC
  5
661
100
AcDbEntity
  8
\U+56FE\U+5C422
100
AcDbCircle
370
-1
 62
0
  6
BYLAYER
 10
23.3551654040114
 20
336.849221932516
 30
0
 40
24.676047356014
100
AcDbArc
 50
308.298104004347
 51
3.85110838497638
  0
ARC
  5
662
100
AcDbEntity
  8
\U+56FE\U+5C422
100
AcDbCircle
370
-1
 62
0
  6
BYLAYER
 10
22.4056894120893
 20
335.780765227187
 30
0
 40
25.7146812154798
100
AcDbArc
 50
6.08487492048101
 51
33.5136902971989
  0
ARC
  5
663
100
AcDbEntity
  8
\U+56FE\U+5C422
100
AcDbCircle
370
-1
 62
0
  6
BYLAYER
 10
94.2625982888839
 20
382.451127221619
 30
0
 40
59.9695519763795
100
AcDbArc
 50
190.188454901731
 51
212.784493681376
  0
ARC
  5
664
100
AcDbEntity
  8
\U+56FE\U+5C422
100
AcDbCircle
370
-1
 62
0
  6
BYLAYER
 10
84.5301306140376
 20
374.623514913058
 30
0
 40
49.3697839066372
100
AcDbArc
 50
129.751151154599
 51
183.228235746143
  0
ARC
  5
665
100
AcDbEntity
  8
\U+56FE\U+5C422
100
AcDbCircle
370
-1
 62
0
  6
BYLAYER
 10
97.5331496697712
 20
356.916595990008
 30
0
 40
71.3105380254676
100
AcDbArc
 50
101.777770578909
 51
128.685955434013
  0
ARC
  5
666
100
AcDbEntity
  8
\U+56FE\U+5C422
100
AcDbCircle
370
-1
 62
0
  6
BYLAYER
 10
90.4310311887415
 20
374.658100055626
 30
0
 40
52.5984910787899
100
AcDbArc
 50
46.3404050977028
 51
98.1465771326769
  0
ARC
  5
667
100
AcDbEntity
  8
\U+56FE\U+5C422
100
AcDbCircle
370
-1
 62
0
  6
BYLAYER
 10
105.521044551996
 20
389.689197432041
 30
0
 40
31.3111068660016
100
AcDbArc
 50
347.411257196777
 51
47.3283704174149
  0
ARC
  5
668
100
AcDbEntity
  8
\U+56FE\U+5C422
100
AcDbCircle
370
-1
 62
0
  6
BYLAYER
 10
109.883706795422
 20
389.442184965971
 30
0
 40
27.0088158432915
100
AcDbArc
 50
286.819227895937
 51
345.90538705922
  0
ARC
  5
669
100
AcDbEntity
  8
\U+56FE\U+5C422
100
AcDbCircle
370
-1
 62
0
  6
BYLAYER
 10
113.493925914935
 20
379.362354195579
 30
0
 40
16.32445347935
100
AcDbArc
 50
242.530456137163
 51
284.926557376375
  0
ARC
  5
66A
100
AcDbEntity
  8
\U+56FE\U+5C422
100
AcDbCircle
370
-1
 62
0
  6
BYLAYER
 10
111.183705865673
 20
377.066949278899
 30
0
 40
13.2592709192036
100
AcDbArc
 50
7.42022004351436
 51
246.816485868878
  0
ARC
  5
66B
100
AcDbEntity
  8
\U+56FE\U+5C422
100
AcDbCircle
370
-1
 62
0
  6
BYLAYER
 10
117.822070678944
 20
386.738798564865
 30
0
 40
10.28258730767
100
AcDbArc
 50
309.278935498695
 51
349.746449257823
  0
ARC
  5
66C
100
AcDbEntity
  8
\U+56FE\U+5C422
100
AcDbCircle
370
-1
 62
0
  6
BYLAYER
 10
105.494851141329
 20
389.693015798005
 30
0
 40
22.9498712289045
100
AcDbArc
 50
347.966772127933
 51
48.3749619925447
  0
ARC
  5
66D
100
AcDbEntity
  8
\U+56FE\U+5C422
100
AcDbCircle
370
-1
 62
0
  6
BYLAYER
 10
94.2730048101341
 20
381.006622259596
 30
0
 40
36.9899576769462
100
AcDbArc
 50
44.3156961580785
 51
99.0684903431086
  0
ARC
  5
66E
100
AcDbEntity
  8
\U+56FE\U+5C422
100
AcDbCircle
370
-1
 62
0
  6
BYLAYER
 10
95.9522154517685
 20
365.301849863634
 30
0
 40
52.7694255197611
100
AcDbArc
 50
98.1812820219114
 51
117.128502907232
  0
ARC
  5
66F
100
AcDbEntity
  8
\U+56FE\U+5C422
100
AcDbCircle
370
-1
 62
0
  6
BYLAYER
 10
70.5795003271113
 20
401.028530512867
 30
0
 40
11.3135309677127
100
AcDbArc
 50
358.712569060833
 51
83.3481955607454
  0
ARC
  5
670
100
AcDbEntity
  8
\U+56FE\U+5C422
100
AcDbCircle
370
-1
 62
0
  6
BYLAYER
 10
78.366439181818
 20
401.386828349362
 30
0
 40
3.57657112519692
100
AcDbArc
 50
230.117180747516
 51
350.139452287246
  0
ARC
  5
671
100
AcDbEntity
  8
\U+56FE\U+5C422
100
AcDbCircle
370
-1
 62
0
  6
BYLAYER
 10
65.4192957149825
 20
379.01198883123
 30
0
 40
22.3350137542973
100
AcDbArc
 50
61.5104244061643
 51
131.939257320838
  0
ARC
  5
672
100
AcDbEntity
  8
\U+56FE\U+5C422
100
AcDbCircle
370
-1
 62
0
  6
BYLAYER
 10
66.2216627144429
 20
377.59016054409
 30
0
 40
23.9315118432385
100
AcDbArc
 50
131.093073400269
 51
225.616576636355
  0
ARC
  5
673
100
AcDbEntity
  8
\U+56FE\U+5C422
100
AcDbCircle
370
-1
 62
0
  6
BYLAYER
 10
78.0283535128509
 20
385.954499125213
 30
0
 40
38.2551678427018
100
AcDbArc
 50
221.738314647786
 51
283.474045334903
  0
ARC
  5
674
100
AcDbEntity
  8
\U+56FE\U+5C422
100
AcDbCircle
370
-1
 62
0
  6
BYLAYER
 10
67.7257564409829
 20
238.018484681163
 30
0
 40
23.3297312349391
100
AcDbArc
 50
34.5450911765729
 51
98.0858909500753
  0
ARC
  5
675
100
AcDbEntity
  8
\U+56FE\U+5C422
100
AcDbCircle
370
-1
 62
0
  6
BYLAYER
 10
90.8994811662427
 20
238.745875213418
 30
0
 40
34.6455466457307
100
AcDbArc
 50
83.2925331471324
 51
139.782308755651
  0
ARC
  5
676
100
AcDbEntity
  8
\U+56FE\U+5C422
100
AcDbCircle
370
-1
 62
0
  6
BYLAYER
 10
82.651445830117
 20
198.614664122599
 30
0
 40
75.5467653599375
100
AcDbArc
 50
44.5662435118599
 51
80.6339051618017
  0
ARC
  5
677
100
AcDbEntity
  8
\U+56FE\U+5C422
100
AcDbCircle
370
-1
 62
0
  6
BYLAYER
 10
111.20887298928
 20
251.029481350399
 30
0
 40
25.2721771915248
100
AcDbArc
 50
1.35786284354681
 51
61.067731069723
  0
ARC
  5
678
100
AcDbEntity
  8
\U+56FE\U+5C422
100
AcDbCircle
370
-1
 62
0
  6
BYLAYER
 10
127.114097474615
 20
233.650862827747
 30
0
 40
39.667620718152
100
AcDbArc
 50
28.6476233316419
 51
95.321826454473
  0
ARC
  5
679
100
AcDbEntity
  8
\U+56FE\U+5C422
100
AcDbCircle
370
-1
 62
0
  6
BYLAYER
 10
150.507451172192
 20
246.76593828881
 30
0
 40
12.8536906545014
100
AcDbArc
 50
338.005804067486
 51
27.335589054704
  0
ARC
  5
67A
100
AcDbEntity
  8
\U+56FE\U+5C422
100
AcDbCircle
370
-1
 62
0
  6
BYLAYER
 10
151.976198722016
 20
245.640592866621
 30
0
 40
11.08136872739
100
AcDbArc
 50
298.593726281747
 51
340.557650706527
  0
ARC
  5
67B
100
AcDbEntity
  8
\U+56FE\U+5C422
100
AcDbCircle
370
-1
 62
0
  6
BYLAYER
 10
155.393460838051
 20
239.338210777561
 30
0
 40
3.9121991925828
100
AcDbArc
 50
152.436071076012
 51
298.825359157002
  0
ARC
  5
67C
100
AcDbEntity
  8
\U+56FE\U+5C422
100
AcDbCircle
370
-1
 62
0
  6
BYLAYER
 10
156.800768537521
 20
227.393231337184
 30
0
 40
14.593779376159
100
AcDbArc
 50
109.516449672557
 51
246.937451019482
  0
ARC
  5
67D
100
AcDbEntity
  8
\U+56FE\U+5C422
100
AcDbCircle
370
-1
 62
0
  6
BYLAYER
 10
157.456974111247
 20
230.779385412368
 30
0
 40
17.9808938083368
100
AcDbArc
 50
249.240997628722
 51
354.303926593537
  0
ARC
  5
67E
100
AcDbEntity
  8
\U+56FE\U+5C422
100
AcDbCircle
370
-1
 62
0
  6
BYLAYER
 10
129.683074393776
 20
232.252616526644
 30
0
 40
45.7820728481296
100
AcDbArc
 50
355.91937032717
 51
43.570665351086
  0
ARC
  5
67F
100
AcDbEntity
  8
\U+56FE\U+5C422
100
AcDbCircle
370
-1
 62
0
  6
BYLAYER
 10
113.902283298985
 20
212.131263611524
 30
0
 40
71.1805727159925
100
AcDbArc
 50
46.5515036512196
 51
87.5771471655987
  0
ARC
  5
680
100
AcDbEntity
  8
\U+56FE\U+5C422
100
AcDbCircle
370
-1
 62
0
  6
BYLAYER
 10
139.030967867217
 20
226.795099195461
 30
0
 40
60.6319153210385
100
AcDbArc
 50
72.9690508426782
 51
111.396353849303
  0
ARC
  5
681
100
AcDbEntity
  8
\U+56FE\U+5C422
100
AcDbCircle
370
-1
 62
0
  6
BYLAYER
 10
146.058056358971
 20
246.798559488698
 30
0
 40
39.4568981758553
100
AcDbArc
 50
39.3584608629231
 51
74.2181818758007
  0
ARC
  5
682
100
AcDbEntity
  8
\U+56FE\U+5C422
100
AcDbCircle
370
-1
 62
0
  6
BYLAYER
 10
133.71547158761
 20
236.821282695648
 30
0
 40
55.3275111347495
100
AcDbArc
 50
12.4302164094774
 51
39.2415108069546
  0
ARC
  5
683
100
AcDbEntity
  8
\U+56FE\U+5C422
100
AcDbCircle
370
-1
 62
0
  6
BYLAYER
 10
135.990779983826
 20
236.298029305726
 30
0
 40
53.2275774948972
100
AcDbArc
 50
353.428440231652
 51
13.5075161822637
  0
ARC
  5
684
100
AcDbEntity
  8
\U+56FE\U+5C422
100
AcDbCircle
370
-1
 62
0
  6
BYLAYER
 10
161.845519315697
 20
233.829746710278
 30
0
 40
27.2649430604752
100
AcDbArc
 50
323.492045617648
 51
352.363249134124
  0
ARC
  5
685
100
AcDbEntity
  8
\U+56FE\U+5C422
100
AcDbCircle
370
-1
 62
0
  6
BYLAYER
 10
167.748720792843
 20
232.039140351845
 30
0
 40
21.5547023152557
100
AcDbArc
 50
273.797701245693
 51
317.973759354096
  0
ARC
  5
686
100
AcDbEntity
  8
\U+56FE\U+5C422
100
AcDbCircle
370
-1
 62
0
  6
BYLAYER
 10
176.547894429731
 20
212.772990192037
 30
0
 40
7.70470064353273
100
AcDbArc
 50
196.911249522071
 51
273.563355606763
  0
ARC
  5
687
100
AcDbEntity
  8
\U+56FE\U+5C422
100
AcDbCircle
370
-1
 62
0
  6
BYLAYER
 10
175.964722368078
 20
225.889609047519
 30
0
 40
20.8335113484878
100
AcDbArc
 50
272.922050725939
 51
0.789136353029693
  0
ARC
  5
688
100
AcDbEntity
  8
\U+56FE\U+5C422
100
AcDbCircle
370
-1
 62
0
  6
BYLAYER
 10
200.07016672694
 20
239.600477170749
 30
0
 40
13.8174004719867
100
AcDbArc
 50
256.293932912348
 51
301.877388899166
  0
ARC
  5
689
100
AcDbEntity
  8
\U+56FE\U+5C422
100
AcDbCircle
370
-1
 62
0
  6
BYLAYER
 10
199.48692896077
 20
239.316092696071
 30
0
 40
13.8989120459888
100
AcDbArc
 50
304.53913267321
 51
358.686435737712
  0
ARC
  5
68A
100
AcDbEntity
  8
\U+56FE\U+5C422
100
AcDbCircle
370
-1
 62
0
  6
BYLAYER
 10
178.919337092574
 20
240.099559479586
 30
0
 40
34.4804686877918
100
AcDbArc
 50
358.168365632984
 51
25.4847324095536
  0
ARC
  5
68B
100
AcDbEntity
  8
\U+56FE\U+5C422
100
AcDbCircle
370
-1
 62
0
  6
BYLAYER
 10
212.731551411132
 20
250.740244429293
 30
0
 40
4.98180945383799
100
AcDbArc
 50
26.9063610864482
 51
122.63608711144
  0
ARC
  5
68C
100
AcDbEntity
  8
\U+56FE\U+5C422
100
AcDbCircle
370
-1
 62
0
  6
BYLAYER
 10
226.793974166149
 20
255.673656805619
 30
0
 40
9.98596684097423
100
AcDbArc
 50
195.561587753211
 51
280.320438370893
  0
ARC
  5
68D
100
AcDbEntity
  8
\U+56FE\U+5C422
100
AcDbCircle
370
-1
 62
0
  6
BYLAYER
 10
224.512708483018
 20
274.311932720666
 30
0
 40
28.7522426542405
100
AcDbArc
 50
278.138359991797
 51
313.258794792848
  0
ARC
  5
68E
100
AcDbEntity
  8
\U+56FE\U+5C422
100
AcDbCircle
370
-1
 62
0
  6
BYLAYER
 10
217.406865866122
 20
284.981948252655
 30
0
 40
41.4475828295546
100
AcDbArc
 50
310.303138719771
 51
330.801892481254
  0
ARC
  5
68F
100
AcDbEntity
  8
\U+56FE\U+5C422
100
AcDbCircle
370
-1
 62
0
  6
BYLAYER
 10
233.270230795529
 20
275.679519027189
 30
0
 40
23.0649943608288
100
AcDbArc
 50
331.75038380791
 51
13.2149661220202
  0
ARC
  5
690
100
AcDbEntity
  8
\U+56FE\U+5C422
100
AcDbCircle
370
-1
 62
0
  6
BYLAYER
 10
241.052488369709
 20
277.462779879159
 30
0
 40
15.0812157434982
100
AcDbArc
 50
13.378426952748
 51
75.1083763599084
  0
ARC
  5
691
100
AcDbEntity
  8
\U+56FE\U+5C422
100
AcDbCircle
370
-1
 62
0
  6
BYLAYER
 10
243.145975069164
 20
286.521606826037
 30
0
 40
5.79665592681142
100
AcDbArc
 50
72.0935893772331
 51
225.055126699096
  0
ARC
  5
692
100
AcDbEntity
  8
\U+56FE\U+5C422
100
AcDbCircle
370
-1
 62
0
  6
BYLAYER
 10
279.036739976766
 20
327.685176257147
 30
0
 40
60.3978311955749
100
AcDbArc
 50
228.544493340487
 51
235.97055243415
  0
ARC
  5
693
100
AcDbEntity
  8
\U+56FE\U+5C422
100
AcDbCircle
370
-1
 62
0
  6
BYLAYER
 10
240.86275138099
 20
272.164171371624
 30
0
 40
7.00101539986659
100
AcDbArc
 50
320.895333500627
 51
51.3326461030599
  0
ARC
  5
694
100
AcDbEntity
  8
\U+56FE\U+5C422
100
AcDbCircle
370
-1
 62
0
  6
BYLAYER
 10
209.218174483254
 20
299.269449657717
 30
0
 40
48.6652610964159
100
AcDbArc
 50
305.334583018354
 51
319.630654064075
  0
ARC
  5
695
100
AcDbEntity
  8
\U+56FE\U+5C422
100
AcDbCircle
370
-1
 62
0
  6
BYLAYER
 10
230.145040288539
 20
272.106747755118
 30
0
 40
14.4674679506123
100
AcDbArc
 50
256.89643492849
 51
299.9312474336
  0
ARC
  5
696
100
AcDbEntity
  8
\U+56FE\U+5C422
100
AcDbCircle
370
-1
 62
0
  6
BYLAYER
 10
228.464392253162
 20
263.438670361361
 30
0
 40
5.65360653086359
100
AcDbArc
 50
148.700898534838
 51
253.567758038213
  0
ARC
  5
697
100
AcDbEntity
  8
\U+56FE\U+5C422
100
AcDbCircle
370
-1
 62
0
  6
BYLAYER
 10
239.502203336867
 20
255.673876902928
 30
0
 40
19.1401036985072
100
AcDbArc
 50
120.061861306738
 51
146.004101112325
  0
ARC
  5
698
100
AcDbEntity
  8
\U+56FE\U+5C422
100
AcDbCircle
370
-1
 62
0
  6
BYLAYER
 10
228.563943153286
 20
274.589340994675
 30
0
 40
2.71031573370654
100
AcDbArc
 50
299.881910296954
 51
102.589708203219
  0
ARC
  5
699
100
AcDbEntity
  8
\U+56FE\U+5C422
100
AcDbCircle
370
-1
 62
0
  6
BYLAYER
 10
235.825535514628
 20
244.168197302042
 30
0
 40
33.9858670836928
100
AcDbArc
 50
103.358758375521
 51
130.740110659442
  0
ARC
  5
69A
100
AcDbEntity
  8
\U+56FE\U+5C422
100
AcDbCircle
370
-1
 62
0
  6
BYLAYER
 10
205.372762846442
 20
282.345161313369
 30
0
 40
14.9284051850307
100
AcDbArc
 50
258.882991873762
 51
303.652350054735
  0
ARC
  5
69B
100
AcDbEntity
  8
\U+56FE\U+5C422
100
AcDbCircle
370
-1
 62
0
  6
BYLAYER
 10
204.288626644631
 20
276.85155806475
 30
0
 40
9.32885209759433
100
AcDbArc
 50
202.546570750487
 51
258.910957779185
  0
ARC
  5
69C
100
AcDbEntity
  8
\U+56FE\U+5C422
100
AcDbCircle
370
-1
 62
0
  6
BYLAYER
 10
194.998836423863
 20
290.388464396096
 30
0
 40
17.1271730969401
100
AcDbArc
 50
272.255188016261
 51
331.606525354045
  0
ARC
  5
69D
100
AcDbEntity
  8
\U+56FE\U+5C422
100
AcDbCircle
370
-1
 62
0
  6
BYLAYER
 10
206.732449230893
 20
284.077920866602
 30
0
 40
3.80437137192948
100
AcDbArc
 50
331.181628731168
 51
121.659851606523
  0
ARC
  5
69E
100
AcDbEntity
  8
\U+56FE\U+5C422
100
AcDbCircle
370
-1
 62
0
  6
BYLAYER
 10
193.968899429232
 20
302.71539207941
 30
0
 40
18.7898899609331
100
AcDbArc
 50
247.693421051926
 51
304.960145376641
  0
ARC
  5
69F
100
AcDbEntity
  8
\U+56FE\U+5C422
100
AcDbCircle
370
-1
 62
0
  6
BYLAYER
 10
132.163920428516
 20
138.399344310963
 30
0
 40
156.774474726035
100
AcDbArc
 50
69.5899226333651
 51
83.3634012897273
  0
ARC
  5
6A0
100
AcDbEntity
  8
\U+56FE\U+5C422
100
AcDbCircle
370
-1
 62
0
  6
BYLAYER
 10
136.874354346056
 20
143.603591512521
 30
0
 40
151.115726089147
100
AcDbArc
 50
84.909544401832
 51
101.626693728807
  0
ARC
  5
6A1
100
AcDbEntity
  8
\U+56FE\U+5C422
100
AcDbCircle
370
-1
 62
0
  6
BYLAYER
 10
121.461021400416
 20
212.99574007003
 30
0
 40
80.0488145539349
100
AcDbArc
 50
100.830615460442
 51
139.838438851597
  0
ARC
  5
6A2
100
AcDbEntity
  8
\U+56FE\U+5C422
100
AcDbCircle
370
-1
 62
0
  6
BYLAYER
 10
45.161518843771
 20
268.363636295299
 30
0
 40
15.579651769963
100
AcDbArc
 50
346.107067864083
 51
114.712444181828
  0
ARC
  5
6A3
100
AcDbEntity
  8
\U+56FE\U+5C422
100
AcDbCircle
370
-1
 62
0
  6
BYLAYER
 10
23.3551654040113
 20
263.150778067508
 30
0
 40
24.6760473560141
100
AcDbArc
 50
356.148891615024
 51
51.7018959956529
  0
ARC
  5
6A4
100
AcDbEntity
  8
\U+56FE\U+5C422
100
AcDbCircle
370
-1
 62
0
  6
BYLAYER
 10
22.4056894120894
 20
264.219234772837
 30
0
 40
25.7146812154798
100
AcDbArc
 50
326.486309702801
 51
353.915125079519
  0
ARC
  5
6A5
100
AcDbEntity
  8
\U+56FE\U+5C422
100
AcDbCircle
370
-1
 62
0
  6
BYLAYER
 10
94.2625982888842
 20
217.548872778405
 30
0
 40
59.9695519763797
100
AcDbArc
 50
147.215506318624
 51
169.81154509827
  0
ARC
  5
6A6
100
AcDbEntity
  8
\U+56FE\U+5C422
100
AcDbCircle
370
-1
 62
0
  6
BYLAYER
 10
84.5301306140379
 20
225.376485086966
 30
0
 40
49.3697839066374
100
AcDbArc
 50
176.771764253857
 51
230.248848845401
  0
ARC
  5
6A7
100
AcDbEntity
  8
\U+56FE\U+5C422
100
AcDbCircle
370
-1
 62
0
  6
BYLAYER
 10
97.5331496697712
 20
243.083404010016
 30
0
 40
71.3105380254676
100
AcDbArc
 50
231.314044565987
 51
258.222229421091
  0
ARC
  5
6A8
100
AcDbEntity
  8
\U+56FE\U+5C422
100
AcDbCircle
370
-1
 62
0
  6
BYLAYER
 10
90.4310311887414
 20
225.341899944399
 30
0
 40
52.59849107879
100
AcDbArc
 50
261.853422867323
 51
313.659594902297
  0
ARC
  5
6A9
100
AcDbEntity
  8
\U+56FE\U+5C422
100
AcDbCircle
370
-1
 62
0
  6
BYLAYER
 10
105.521044551996
 20
210.310802567984
 30
0
 40
31.3111068660017
100
AcDbArc
 50
312.671629582585
 51
12.588742803223
  0
ARC
  5
6AA
100
AcDbEntity
  8
\U+56FE\U+5C422
100
AcDbCircle
370
-1
 62
0
  6
BYLAYER
 10
109.883706795422
 20
210.557815034054
 30
0
 40
27.0088158432914
100
AcDbArc
 50
14.0946129407804
 51
73.1807721040631
  0
ARC
  5
6AB
100
AcDbEntity
  8
\U+56FE\U+5C422
100
AcDbCircle
370
-1
 62
0
  6
BYLAYER
 10
113.493925914935
 20
220.637645804445
 30
0
 40
16.32445347935
100
AcDbArc
 50
75.0734426236247
 51
117.469543862837
  0
ARC
  5
6AC
100
AcDbEntity
  8
\U+56FE\U+5C422
100
AcDbCircle
370
-1
 62
0
  6
BYLAYER
 10
111.183705865673
 20
222.933050721126
 30
0
 40
13.2592709192036
100
AcDbArc
 50
113.183514131122
 51
352.579779956486
  0
ARC
  5
6AD
100
AcDbEntity
  8
\U+56FE\U+5C422
100
AcDbCircle
370
-1
 62
0
  6
BYLAYER
 10
117.822070678944
 20
213.26120143516
 30
0
 40
10.28258730767
100
AcDbArc
 50
10.2535507421767
 51
50.7210645013053
  0
ARC
  5
6AE
100
AcDbEntity
  8
\U+56FE\U+5C422
100
AcDbCircle
370
-1
 62
0
  6
BYLAYER
 10
105.494851141329
 20
210.306984202019
 30
0
 40
22.9498712289046
100
AcDbArc
 50
311.625038007455
 51
12.0332278720675
  0
ARC
  5
6AF
100
AcDbEntity
  8
\U+56FE\U+5C422
100
AcDbCircle
370
-1
 62
0
  6
BYLAYER
 10
94.2730048101342
 20
218.993377740429
 30
0
 40
36.9899576769462
100
AcDbArc
 50
260.931509656891
 51
315.684303841921
  0
ARC
  5
6B0
100
AcDbEntity
  8
\U+56FE\U+5C422
100
AcDbCircle
370
-1
 62
0
  6
BYLAYER
 10
95.9522154517683
 20
234.69815013639
 30
0
 40
52.769425519761
100
AcDbArc
 50
242.871497092768
 51
261.818717978089
  0
ARC
  5
6B1
100
AcDbEntity
  8
\U+56FE\U+5C422
100
AcDbCircle
370
-1
 62
0
  6
BYLAYER
 10
70.5795003271112
 20
198.971469487157
 30
0
 40
11.3135309677128
100
AcDbArc
 50
276.651804439255
 51
1.2874309391674
  0
ARC
  5
6B2
100
AcDbEntity
  8
\U+56FE\U+5C422
100
AcDbCircle
370
-1
 62
0
  6
BYLAYER
 10
78.366439181818
 20
198.613171650662
 30
0
 40
3.57657112519695
100
AcDbArc
 50
9.86054771275478
 51
129.882819252484
  0
ARC
  5
6B3
100
AcDbEntity
  8
\U+56FE\U+5C422
100
AcDbCircle
370
-1
 62
0
  6
BYLAYER
 10
65.4192957149824
 20
220.988011168794
 30
0
 40
22.3350137542974
100
AcDbArc
 50
228.060742679162
 51
298.489575593836
  0
ARC
  5
6B4
100
AcDbEntity
  8
\U+56FE\U+5C422
100
AcDbCircle
370
-1
 62
0
  6
BYLAYER
 10
66.2216627144429
 20
222.409839455934
 30
0
 40
23.9315118432385
100
AcDbArc
 50
134.383423363645
 51
228.906926599732
  0
ARC
  5
6B5
100
AcDbEntity
  8
\U+56FE\U+5C422
100
AcDbCircle
370
-1
 62
0
  6
BYLAYER
 10
78.028353512851
 20
214.045500874811
 30
0
 40
38.2551678427018
100
AcDbArc
 50
76.5259546650974
 51
138.261685352214
  0
ARC
  5
6B6
100
AcDbEntity
  8
\U+56FE\U+5C422
100
AcDbCircle
370
-1
 62
0
  6
BYLAYER
 10
238.018484681144
 20
67.7257564409951
 30
0
 40
23.3297312349391
100
AcDbArc
 50
351.914109049925
 51
55.4549088234271
  0
ARC
  5
6B7
100
AcDbEntity
  8
\U+56FE\U+5C422
100
AcDbCircle
370
-1
 62
0
  6
BYLAYER
 10
238.745875213408
 20
90.8994811662575
 30
0
 40
34.645546645727
100
AcDbArc
 50
310.217691244335
 51
6.70746685285367
  0
ARC
  5
6B8
100
AcDbEntity
  8
\U+56FE\U+5C422
100
AcDbCircle
370
-1
 62
0
  6
BYLAYER
 10
198.614664122581
 20
82.6514458301043
 30
0
 40
75.5467653599467
100
AcDbArc
 50
9.36609483821149
 51
45.4337564881533
  0
ARC
  5
6B9
100
AcDbEntity
  8
\U+56FE\U+5C422
100
AcDbCircle
370
-1
 62
0
  6
BYLAYER
 10
251.029481350381
 20
111.208872989276
 30
0
 40
25.2721771915352
100
AcDbArc
 50
28.9322689302913
 51
88.6421371564675
  0
ARC
  5
6BA
100
AcDbEntity
  8
\U+56FE\U+5C422
100
AcDbCircle
370
-1
 62
0
  6
BYLAYER
 10
233.650862827732
 20
127.114097474616
 30
0
 40
39.6676207181546
100
AcDbArc
 50
354.678173545534
 51
61.3523766683653
  0
ARC
  5
6BB
100
AcDbEntity
  8
\U+56FE\U+5C422
100
AcDbCircle
370
-1
 62
0
  6
BYLAYER
 10
246.765938288786
 20
150.507451172184
 30
0
 40
12.8536906545159
100
AcDbArc
 50
62.6644109452995
 51
111.994195932518
  0
ARC
  5
6BC
100
AcDbEntity
  8
\U+56FE\U+5C422
100
AcDbCircle
370
-1
 62
0
  6
BYLAYER
 10
245.640592866594
 20
151.97619872203
 30
0
 40
11.0813687273836
100
AcDbArc
 50
109.4423492935
 51
151.406273718281
  0
ARC
  5
6BD
100
AcDbEntity
  8
\U+56FE\U+5C422
100
AcDbCircle
370
-1
 62
0
  6
BYLAYER
 10
239.338210777541
 20
155.393460838062
 30
0
 40
3.91219919258504
100
AcDbArc
 50
151.174640843097
 51
297.563928924087
  0
ARC
  5
6BE
100
AcDbEntity
  8
\U+56FE\U+5C422
100
AcDbCircle
370
-1
 62
0
  6
BYLAYER
 10
227.393231337165
 20
156.800768537533
 30
0
 40
14.5937793761656
100
AcDbArc
 50
203.062548980529
 51
340.483550327455
  0
ARC
  5
6BF
100
AcDbEntity
  8
\U+56FE\U+5C422
100
AcDbCircle
370
-1
 62
0
  6
BYLAYER
 10
230.77938541235
 20
157.456974111249
 30
0
 40
17.9808938083408
100
AcDbArc
 50
95.6960734064424
 51
200.759002371257
  0
ARC
  5
6C0
100
AcDbEntity
  8
\U+56FE\U+5C422
100
AcDbCircle
370
-1
 62
0
  6
BYLAYER
 10
232.252616526629
 20
129.683074393789
 30
0
 40
45.7820728481224
100
AcDbArc
 50
46.4293346489108
 51
94.0806296728267
  0
ARC
  5
6C1
100
AcDbEntity
  8
\U+56FE\U+5C422
100
AcDbCircle
370
-1
 62
0
  6
BYLAYER
 10
212.131263611506
 20
113.902283298991
 30
0
 40
71.1805727159924
100
AcDbArc
 50
2.42285283440148
 51
43.4484963487805
  0
ARC
  5
6C2
100
AcDbEntity
  8
\U+56FE\U+5C422
100
AcDbCircle
370
-1
 62
0
  6
BYLAYER
 10
226.79509919544
 20
139.030967867214
 30
0
 40
60.6319153210381
100
AcDbArc
 50
338.603646150706
 51
17.0309491573306
  0
ARC
  5
6C3
100
AcDbEntity
  8
\U+56FE\U+5C422
100
AcDbCircle
370
-1
 62
0
  6
BYLAYER
 10
246.798559488677
 20
146.058056358987
 30
0
 40
39.45689817585
100
AcDbArc
 50
15.7818181241872
 51
50.6415391370647
  0
ARC
  5
6C4
100
AcDbEntity
  8
\U+56FE\U+5C422
100
AcDbCircle
370
-1
 62
0
  6
BYLAYER
 10
236.82128269564
 20
133.715471587601
 30
0
 40
55.3275111347554
100
AcDbArc
 50
50.7584891930636
 51
77.5697835905408
  0
ARC
  5
6C5
100
AcDbEntity
  8
\U+56FE\U+5C422
100
AcDbCircle
370
-1
 62
0
  6
BYLAYER
 10
236.298029305684
 20
135.990779983829
 30
0
 40
53.2275774948981
100
AcDbArc
 50
76.4924838177173
 51
96.5715597683295
  0
ARC
  5
6C6
100
AcDbEntity
  8
\U+56FE\U+5C422
100
AcDbCircle
370
-1
 62
0
  6
BYLAYER
 10
233.829746710265
 20
161.8455193157
 30
0
 40
27.2649430604798
100
AcDbArc
 50
97.6367508658999
 51
126.507954382376
  0
ARC
  5
6C7
100
AcDbEntity
  8
\U+56FE\U+5C422
100
AcDbCircle
370
-1
 62
0
  6
BYLAYER
 10
232.039140351816
 20
167.748720792854
 30
0
 40
21.5547023152449
100
AcDbArc
 50
132.026240645914
 51
176.202298754317
  0
ARC
  5
6C8
100
AcDbEntity
  8
\U+56FE\U+5C422
100
AcDbCircle
370
-1
 62
0
  6
BYLAYER
 10
212.772990192023
 20
176.54789442974
 30
0
 40
7.70470064353675
100
AcDbArc
 50
176.436644393216
 51
253.088750477909
  0
ARC
  5
6C9
100
AcDbEntity
  8
\U+56FE\U+5C422
100
AcDbCircle
370
-1
 62
0
  6
BYLAYER
 10
225.889609047497
 20
175.964722368087
 30
0
 40
20.8335113484849
100
AcDbArc
 50
89.2108636469614
 51
177.077949274052
  0
ARC
  5
6CA
100
AcDbEntity
  8
\U+56FE\U+5C422
100
AcDbCircle
370
-1
 62
0
  6
BYLAYER
 10
239.600477170726
 20
200.070166726936
 30
0
 40
13.8174004719801
100
AcDbArc
 50
148.122611100797
 51
193.706067087616
  0
ARC
  5
6CB
100
AcDbEntity
  8
\U+56FE\U+5C422
100
AcDbCircle
370
-1
 62
0
  6
BYLAYER
 10
239.316092696068
 20
199.486928960782
 30
0
 40
13.8989120459892
100
AcDbArc
 50
91.3135642623495
 51
145.460867326852
  0
ARC
  5
6CC
100
AcDbEntity
  8
\U+56FE\U+5C422
100
AcDbCircle
370
-1
 62
0
  6
BYLAYER
 10
240.099559479546
 20
178.919337092567
 30
0
 40
34.4804686878099
100
AcDbArc
 50
64.5152675904092
 51
91.8316343669784
  0
ARC
  5
6CD
100
AcDbEntity
  8
\U+56FE\U+5C422
100
AcDbCircle
370
-1
 62
0
  6
BYLAYER
 10
250.740244429276
 20
212.731551411139
 30
0
 40
4.98180945384581
100
AcDbArc
 50
327.363912888534
 51
63.0936389135264
  0
ARC
  5
6CE
100
AcDbEntity
  8
\U+56FE\U+5C422
100
AcDbCircle
370
-1
 62
0
  6
BYLAYER
 10
255.673656805604
 20
226.793974166165
 30
0
 40
9.98596684097679
100
AcDbArc
 50
169.679561629131
 51
254.438412246812
  0
ARC
  5
6CF
100
AcDbEntity
  8
\U+56FE\U+5C422
100
AcDbCircle
370
-1
 62
0
  6
BYLAYER
 10
274.311932720632
 20
224.512708483014
 30
0
 40
28.7522426542267
100
AcDbArc
 50
136.741205207116
 51
171.861640008167
  0
ARC
  5
6D0
100
AcDbEntity
  8
\U+56FE\U+5C422
100
AcDbCircle
370
-1
 62
0
  6
BYLAYER
 10
284.98194825264
 20
217.406865866139
 30
0
 40
41.4475828295413
100
AcDbArc
 50
119.198107518762
 51
139.696861280245
  0
ARC
  5
6D1
100
AcDbEntity
  8
\U+56FE\U+5C422
100
AcDbCircle
370
-1
 62
0
  6
BYLAYER
 10
275.679519027187
 20
233.270230795534
 30
0
 40
23.0649943608314
100
AcDbArc
 50
76.7850338780228
 51
118.249616192132
  0
ARC
  5
6D2
100
AcDbEntity
  8
\U+56FE\U+5C422
100
AcDbCircle
370
-1
 62
0
  6
BYLAYER
 10
277.462779879141
 20
241.052488369722
 30
0
 40
15.0812157434983
100
AcDbArc
 50
14.8916236400915
 51
76.6215730472519
  0
ARC
  5
6D3
100
AcDbEntity
  8
\U+56FE\U+5C422
100
AcDbCircle
370
-1
 62
0
  6
BYLAYER
 10
286.521606826018
 20
243.145975069173
 30
0
 40
5.79665592681305
100
AcDbArc
 50
224.94487330093
 51
17.9064106227932
  0
ARC
  5
6D4
100
AcDbEntity
  8
\U+56FE\U+5C422
100
AcDbCircle
370
-1
 62
0
  6
BYLAYER
 10
327.685176257083
 20
279.036739976769
 30
0
 40
60.3978311955379
100
AcDbArc
 50
214.029447565876
 51
221.455506659539
  0
ARC
  5
6D5
100
AcDbEntity
  8
\U+56FE\U+5C422
100
AcDbCircle
370
-1
 62
0
  6
BYLAYER
 10
272.164171371603
 20
240.862751380987
 30
0
 40
7.00101539987089
100
AcDbArc
 50
38.667353896944
 51
129.104666499376
  0
ARC
  5
6D6
100
AcDbEntity
  8
\U+56FE\U+5C422
100
AcDbCircle
370
-1
 62
0
  6
BYLAYER
 10
299.269449657692
 20
209.218174483253
 30
0
 40
48.665261096416
100
AcDbArc
 50
130.369345935925
 51
144.665416981645
  0
ARC
  5
6D7
100
AcDbEntity
  8
\U+56FE\U+5C422
100
AcDbCircle
370
-1
 62
0
  6
BYLAYER
 10
272.106747755084
 20
230.145040288561
 30
0
 40
14.4674679505935
100
AcDbArc
 50
150.068752566456
 51
193.103565071566
  0
ARC
  5
6D8
100
AcDbEntity
  8
\U+56FE\U+5C422
100
AcDbCircle
370
-1
 62
0
  6
BYLAYER
 10
263.43867036135
 20
228.464392253166
 30
0
 40
5.65360653086273
100
AcDbArc
 50
196.432241961701
 51
301.299101465074
  0
ARC
  5
6D9
100
AcDbEntity
  8
\U+56FE\U+5C422
100
AcDbCircle
370
-1
 62
0
  6
BYLAYER
 10
255.673876902877
 20
239.502203336846
 30
0
 40
19.1401036985084
100
AcDbArc
 50
303.995898887791
 51
329.938138693378
  0
ARC
  5
6DA
100
AcDbEntity
  8
\U+56FE\U+5C422
100
AcDbCircle
370
-1
 62
0
  6
BYLAYER
 10
274.589340994647
 20
228.563943153298
 30
0
 40
2.71031573370938
100
AcDbArc
 50
347.410291796805
 51
150.118089703069
  0
ARC
  5
6DB
100
AcDbEntity
  8
\U+56FE\U+5C422
100
AcDbCircle
370
-1
 62
0
  6
BYLAYER
 10
244.168197302002
 20
235.825535514597
 30
0
 40
33.9858670836982
100
AcDbArc
 50
319.259889340636
 51
346.641241624557
  0
ARC
  5
6DC
100
AcDbEntity
  8
\U+56FE\U+5C422
100
AcDbCircle
370
-1
 62
0
  6
BYLAYER
 10
282.345161313364
 20
205.372762846424
 30
0
 40
14.9284051850417
100
AcDbArc
 50
146.34764994521
 51
191.117008126184
  0
ARC
  5
6DD
100
AcDbEntity
  8
\U+56FE\U+5C422
100
AcDbCircle
370
-1
 62
0
  6
BYLAYER
 10
276.851558064723
 20
204.288626644622
 30
0
 40
9.32885209758527
100
AcDbArc
 50
191.08904222081
 51
247.453429249507
  0
ARC
  5
6DE
100
AcDbEntity
  8
\U+56FE\U+5C422
100
AcDbCircle
370
-1
 62
0
  6
BYLAYER
 10
290.388464396083
 20
194.998836423855
 30
0
 40
17.127173096952
100
AcDbArc
 50
118.393474645931
 51
177.744811983714
  0
ARC
  5
6DF
100
AcDbEntity
  8
\U+56FE\U+5C422
100
AcDbCircle
370
-1
 62
0
  6
BYLAYER
 10
284.077920866589
 20
206.732449230896
 30
0
 40
3.80437137193174
100
AcDbArc
 50
328.340148393444
 51
118.818371268798
  0
ARC
  5
6E0
100
AcDbEntity
  8
\U+56FE\U+5C422
100
AcDbCircle
370
-1
 62
0
  6
BYLAYER
 10
302.715392079398
 20
193.968899429232
 30
0
 40
18.7898899609331
100
AcDbArc
 50
145.039854623359
 51
202.306578948074
  0
ARC
  5
6E1
100
AcDbEntity
  8
\U+56FE\U+5C422
100
AcDbCircle
370
-1
 62
0
  6
BYLAYER
 10
138.399344310998
 20
132.163920428547
 30
0
 40
156.77447472598
100
AcDbArc
 50
6.63659871026815
 51
20.4100773666303
  0
ARC
  5
6E2
100
AcDbEntity
  8
\U+56FE\U+5C422
100
AcDbCircle
370
-1
 62
0
  6
BYLAYER
 10
143.603591512527
 20
136.874354346051
 30
0
 40
151.115726089125
100
AcDbArc
 50
348.373306271201
 51
5.09045559817536
  0
ARC
  5
6E3
100
AcDbEntity
  8
\U+56FE\U+5C422
100
AcDbCircle
370
-1
 62
0
  6
BYLAYER
 10
212.995740070006
 20
121.46102140044
 30
0
 40
80.0488145539475
100
AcDbArc
 50
310.1615611484
 51
349.169384539555
  0
ARC
  5
6E4
100
AcDbEntity
  8
\U+56FE\U+5C422
100
AcDbCircle
370
-1
 62
0
  6
BYLAYER
 10
268.363636295282
 20
45.1615188437786
 30
0
 40
15.5796517699679
100
AcDbArc
 50
335.287555818174
 51
103.892932135919
  0
ARC
  5
6E5
100
AcDbEntity
  8
\U+56FE\U+5C422
100
AcDbCircle
370
-1
 62
0
  6
BYLAYER
 10
263.150778067499
 20
23.3551654040085
 30
0
 40
24.6760473560175
100
AcDbArc
 50
38.2981040043671
 51
93.8511083849964
  0
ARC
  5
6E6
100
AcDbEntity
  8
\U+56FE\U+5C422
100
AcDbCircle
370
-1
 62
0
  6
BYLAYER
 10
264.219234772794
 20
22.4056894120952
 30
0
 40
25.7146812154714
100
AcDbArc
 50
96.084874920427
 51
123.513690297145
  0
ARC
  5
6E7
100
AcDbEntity
  8
\U+56FE\U+5C422
100
AcDbCircle
370
-1
 62
0
  6
BYLAYER
 10
217.548872778374
 20
94.2625982888775
 30
0
 40
59.9695519763705
100
AcDbArc
 50
280.18845490175
 51
302.784493681396
  0
ARC
  5
6E8
100
AcDbEntity
  8
\U+56FE\U+5C422
100
AcDbCircle
370
-1
 62
0
  6
BYLAYER
 10
225.376485086954
 20
84.5301306140439
 30
0
 40
49.3697839066375
100
AcDbArc
 50
219.751151154599
 51
273.228235746143
  0
ARC
  5
6E9
100
AcDbEntity
  8
\U+56FE\U+5C422
100
AcDbCircle
370
-1
 62
0
  6
BYLAYER
 10
243.083404009998
 20
97.5331496698029
 30
0
 40
71.3105380254788
100
AcDbArc
 50
191.777770578928
 51
218.685955434033
  0
ARC
  5
6EA
100
AcDbEntity
  8
\U+56FE\U+5C422
100
AcDbCircle
370
-1
 62
0
  6
BYLAYER
 10
225.341899944384
 20
90.4310311887443
 30
0
 40
52.5984910787988
100
AcDbArc
 50
136.340405097698
 51
188.146577132672
  0
ARC
  5
6EB
100
AcDbEntity
  8
\U+56FE\U+5C422
100
AcDbCircle
370
-1
 62
0
  6
BYLAYER
 10
210.310802567963
 20
105.521044551999
 30
0
 40
31.3111068660057
100
AcDbArc
 50
77.411257196763
 51
137.328370417401
  0
ARC
  5
6EC
100
AcDbEntity
  8
\U+56FE\U+5C422
100
AcDbCircle
370
-1
 62
0
  6
BYLAYER
 10
210.55781503403
 20
109.883706795436
 30
0
 40
27.0088158432867
100
AcDbArc
 50
16.8192278959092
 51
75.9053870591919
  0
ARC
  5
6ED
100
AcDbEntity
  8
\U+56FE\U+5C422
100
AcDbCircle
370
-1
 62
0
  6
BYLAYER
 10
220.637645804423
 20
113.493925914927
 30
0
 40
16.3244534793492
100
AcDbArc
 50
332.530456137193
 51
14.9265573764047
  0
ARC
  5
6EE
100
AcDbEntity
  8
\U+56FE\U+5C422
100
AcDbCircle
370
-1
 62
0
  6
BYLAYER
 10
222.933050721106
 20
111.183705865676
 30
0
 40
13.2592709192064
100
AcDbArc
 50
97.4202200435049
 51
336.816485868869
  0
ARC
  5
6EF
100
AcDbEntity
  8
\U+56FE\U+5C422
100
AcDbCircle
370
-1
 62
0
  6
BYLAYER
 10
213.261201435147
 20
117.822070678938
 30
0
 40
10.282587307673
100
AcDbArc
 50
39.2789354987624
 51
79.7464492578908
  0
ARC
  5
6F0
100
AcDbEntity
  8
\U+56FE\U+5C422
100
AcDbCircle
370
-1
 62
0
  6
BYLAYER
 10
210.306984201998
 20
105.494851141334
 30
0
 40
22.9498712288989
100
AcDbArc
 50
77.9667721279369
 51
138.374961992549
  0
ARC
  5
6F1
100
AcDbEntity
  8
\U+56FE\U+5C422
100
AcDbCircle
370
-1
 62
0
  6
BYLAYER
 10
218.99337774041
 20
94.273004810134
 30
0
 40
36.9899576769463
100
AcDbArc
 50
134.315696158078
 51
189.068490343109
  0
ARC
  5
6F2
100
AcDbEntity
  8
\U+56FE\U+5C422
100
AcDbCircle
370
-1
 62
0
  6
BYLAYER
 10
234.698150136332
 20
95.9522154517563
 30
0
 40
52.7694255197201
100
AcDbArc
 50
188.181282021904
 51
207.128502907225
  0
ARC
  5
6F3
100
AcDbEntity
  8
\U+56FE\U+5C422
100
AcDbCircle
370
-1
 62
0
  6
BYLAYER
 10
198.971469487133
 20
70.5795003271171
 30
0
 40
11.3135309677133
100
AcDbArc
 50
88.7125690608006
 51
173.348195560713
  0
ARC
  5
6F4
100
AcDbEntity
  8
\U+56FE\U+5C422
100
AcDbCircle
370
-1
 62
0
  6
BYLAYER
 10
198.613171650648
 20
78.3664391818254
 30
0
 40
3.57657112519488
100
AcDbArc
 50
320.117180747588
 51
80.1394522873175
  0
ARC
  5
6F5
100
AcDbEntity
  8
\U+56FE\U+5C422
100
AcDbCircle
370
-1
 62
0
  6
BYLAYER
 10
220.988011168784
 20
65.4192957149799
 30
0
 40
22.3350137543066
100
AcDbArc
 50
151.510424406134
 51
221.939257320808
  0
ARC
  5
6F6
100
AcDbEntity
  8
\U+56FE\U+5C422
100
AcDbCircle
370
-1
 62
0
  6
BYLAYER
 10
222.409839455916
 20
66.2216627144485
 30
0
 40
23.9315118432469
100
AcDbArc
 50
221.093073400269
 51
315.616576636356
  0
ARC
  5
6F7
100
AcDbEntity
  8
\U+56FE\U+5C422
100
AcDbCircle
370
-1
 62
0
  6
BYLAYER
 10
214.045500874786
 20
78.0283535128519
 30
0
 40
38.2551678427114
100
AcDbArc
 50
311.738314647799
 51
13.4740453349165
  0
ARC
  5
6F8
100
AcDbEntity
  8
\U+56FE\U+5C422
100
AcDbCircle
370
-1
 62
0
  6
BYLAYER
 10
361.98151531885
 20
67.7257564410049
 30
0
 40
23.3297312349344
100
AcDbArc
 50
124.545091176599
 51
188.085890950101
  0
ARC
  5
6F9
100
AcDbEntity
  8
\U+56FE\U+5C422
100
AcDbCircle
370
-1
 62
0
  6
BYLAYER
 10
361.254124786589
 20
90.899481166263
 30
0
 40
34.6455466457293
100
AcDbArc
 50
173.292533147156
 51
229.782308755675
  0
ARC
  5
6FA
100
AcDbEntity
  8
\U+56FE\U+5C422
100
AcDbCircle
370
-1
 62
0
  6
BYLAYER
 10
401.385335877404
 20
82.6514458301325
 30
0
 40
75.5467653599331
100
AcDbArc
 50
134.566243511867
 51
170.633905161808
  0
ARC
  5
6FB
100
AcDbEntity
  8
\U+56FE\U+5C422
100
AcDbCircle
370
-1
 62
0
  6
BYLAYER
 10
348.970518649607
 20
111.208872989297
 30
0
 40
25.2721771915144
100
AcDbArc
 50
91.357862843561
 51
151.067731069737
  0
ARC
  5
6FC
100
AcDbEntity
  8
\U+56FE\U+5C422
100
AcDbCircle
370
-1
 62
0
  6
BYLAYER
 10
366.349137172256
 20
127.114097474635
 30
0
 40
39.6676207181443
100
AcDbArc
 50
118.647623331663
 51
185.321826454494
  0
ARC
  5
6FD
100
AcDbEntity
  8
\U+56FE\U+5C422
100
AcDbCircle
370
-1
 62
0
  6
BYLAYER
 10
353.23406171119
 20
150.507451172184
 30
0
 40
12.853690654516
100
AcDbArc
 50
68.0058040674822
 51
117.3355890547
  0
ARC
  5
6FE
100
AcDbEntity
  8
\U+56FE\U+5C422
100
AcDbCircle
370
-1
 62
0
  6
BYLAYER
 10
354.359407133388
 20
151.976198722014
 30
0
 40
11.0813687273964
100
AcDbArc
 50
28.5937262817756
 51
70.5576507065562
  0
ARC
  5
6FF
100
AcDbEntity
  8
\U+56FE\U+5C422
100
AcDbCircle
370
-1
 62
0
  6
BYLAYER
 10
360.661789222453
 20
155.39346083806
 30
0
 40
3.91219919258057
100
AcDbArc
 50
242.43607107598
 51
28.8253591569697
  0
ARC
  5
700
100
AcDbEntity
  8
\U+56FE\U+5C422
100
AcDbCircle
370
-1
 62
0
  6
BYLAYER
 10
372.606768662823
 20
156.800768537528
 30
0
 40
14.5937793761525
100
AcDbArc
 50
199.516449672544
 51
336.937451019469
  0
ARC
  5
701
100
AcDbEntity
  8
\U+56FE\U+5C422
100
AcDbCircle
370
-1
 62
0
  6
BYLAYER
 10
369.220614587638
 20
157.456974111258
 30
0
 40
17.9808938083327
100
AcDbArc
 50
339.240997628702
 51
84.3039265935158
  0
ARC
  5
702
100
AcDbEntity
  8
\U+56FE\U+5C422
100
AcDbCircle
370
-1
 62
0
  6
BYLAYER
 10
367.747383473368
 20
129.683074393782
 30
0
 40
45.7820728481296
100
AcDbArc
 50
85.9193703271701
 51
133.570665351086
  0
ARC
  5
703
100
AcDbEntity
  8
\U+56FE\U+5C422
100
AcDbCircle
370
-1
 62
0
  6
BYLAYER
 10
387.868736388488
 20
113.902283298991
 30
0
 40
71.1805727159922
100
AcDbArc
 50
136.55150365122
 51
177.577147165599
  0
ARC
  5
704
100
AcDbEntity
  8
\U+56FE\U+5C422
100
AcDbCircle
370
-1
 62
0
  6
BYLAYER
 10
373.204900804545
 20
139.03096786724
 30
0
 40
60.6319153210391
100
AcDbArc
 50
162.969050842696
 51
201.396353849321
  0
ARC
  5
705
100
AcDbEntity
  8
\U+56FE\U+5C422
100
AcDbCircle
370
-1
 62
0
  6
BYLAYER
 10
353.201440511305
 20
146.058056358967
 30
0
 40
39.4568981758612
100
AcDbArc
 50
129.358460862911
 51
164.218181875788
  0
ARC
  5
706
100
AcDbEntity
  8
\U+56FE\U+5C422
100
AcDbCircle
370
-1
 62
0
  6
BYLAYER
 10
363.178717304342
 20
133.715471587626
 30
0
 40
55.3275111347318
100
AcDbArc
 50
102.430216409471
 51
129.241510806948
  0
ARC
  5
707
100
AcDbEntity
  8
\U+56FE\U+5C422
100
AcDbCircle
370
-1
 62
0
  6
BYLAYER
 10
363.701970694294
 20
135.990779983812
 30
0
 40
53.2275774949155
100
AcDbArc
 50
83.4284402316694
 51
103.507516182281
  0
ARC
  5
708
100
AcDbEntity
  8
\U+56FE\U+5C422
100
AcDbCircle
370
-1
 62
0
  6
BYLAYER
 10
366.170253289713
 20
161.845519315712
 30
0
 40
27.2649430604683
100
AcDbArc
 50
53.4920456176144
 51
82.3632491340903
  0
ARC
  5
709
100
AcDbEntity
  8
\U+56FE\U+5C422
100
AcDbCircle
370
-1
 62
0
  6
BYLAYER
 10
367.960859648166
 20
167.748720792838
 30
0
 40
21.5547023152521
100
AcDbArc
 50
3.79770124572236
 51
47.9737593541252
  0
ARC
  5
70A
100
AcDbEntity
  8
\U+56FE\U+5C422
100
AcDbCircle
370
-1
 62
0
  6
BYLAYER
 10
387.227009807968
 20
176.547894429744
 30
0
 40
7.70470064353951
100
AcDbArc
 50
286.911249522062
 51
3.56335560675461
  0
ARC
  5
70B
100
AcDbEntity
  8
\U+56FE\U+5C422
100
AcDbCircle
370
-1
 62
0
  6
BYLAYER
 10
374.110390952494
 20
175.964722368084
 30
0
 40
20.8335113484881
100
AcDbArc
 50
2.9220507259563
 51
90.7891363530469
  0
ARC
  5
70C
100
AcDbEntity
  8
\U+56FE\U+5C422
100
AcDbCircle
370
-1
 62
0
  6
BYLAYER
 10
360.399522829265
 20
200.070166726944
 30
0
 40
13.8174004719788
100
AcDbArc
 50
346.293932912352
 51
31.8773888991706
  0
ARC
  5
70D
100
AcDbEntity
  8
\U+56FE\U+5C422
100
AcDbCircle
370
-1
 62
0
  6
BYLAYER
 10
360.683907303923
 20
199.486928960776
 30
0
 40
13.8989120459952
100
AcDbArc
 50
34.5391326731616
 51
88.6864357376635
  0
ARC
  5
70E
100
AcDbEntity
  8
\U+56FE\U+5C422
100
AcDbCircle
370
-1
 62
0
  6
BYLAYER
 10
359.900440520445
 20
178.91933709258
 30
0
 40
34.4804686877973
100
AcDbArc
 50
88.168365633026
 51
115.484732409595
  0
ARC
  5
70F
100
AcDbEntity
  8
\U+56FE\U+5C422
100
AcDbCircle
370
-1
 62
0
  6
BYLAYER
 10
349.259755570715
 20
212.731551411141
 30
0
 40
4.98180945384478
100
AcDbArc
 50
116.906361086519
 51
212.63608711151
  0
ARC
  5
710
100
AcDbEntity
  8
\U+56FE\U+5C422
100
AcDbCircle
370
-1
 62
0
  6
BYLAYER
 10
344.326343194387
 20
226.793974166168
 30
0
 40
9.98596684097916
100
AcDbArc
 50
285.561587753167
 51
10.3204383708478
  0
ARC
  5
711
100
AcDbEntity
  8
\U+56FE\U+5C422
100
AcDbCircle
370
-1
 62
0
  6
BYLAYER
 10
325.688067279365
 20
224.512708483024
 30
0
 40
28.7522426542223
100
AcDbArc
 50
8.1383599918147
 51
43.2587947928655
  0
ARC
  5
712
100
AcDbEntity
  8
\U+56FE\U+5C422
100
AcDbCircle
370
-1
 62
0
  6
BYLAYER
 10
315.018051747354
 20
217.406865866106
 30
0
 40
41.4475828295677
100
AcDbArc
 50
40.3031387197855
 51
60.8018924812683
  0
ARC
  5
713
100
AcDbEntity
  8
\U+56FE\U+5C422
100
AcDbCircle
370
-1
 62
0
  6
BYLAYER
 10
324.320480972801
 20
233.270230795534
 30
0
 40
23.0649943608315
100
AcDbArc
 50
61.7503838078678
 51
103.214966121977
  0
ARC
  5
714
100
AcDbEntity
  8
\U+56FE\U+5C422
100
AcDbCircle
370
-1
 62
0
  6
BYLAYER
 10
322.53722012085
 20
241.052488369727
 30
0
 40
15.0812157434939
100
AcDbArc
 50
103.378426952764
 51
165.108376359925
  0
ARC
  5
715
100
AcDbEntity
  8
\U+56FE\U+5C422
100
AcDbCircle
370
-1
 62
0
  6
BYLAYER
 10
313.478393173976
 20
243.145975069173
 30
0
 40
5.79665592681297
100
AcDbArc
 50
162.093589377206
 51
315.05512669907
  0
ARC
  5
716
100
AcDbEntity
  8
\U+56FE\U+5C422
100
AcDbCircle
370
-1
 62
0
  6
BYLAYER
 10
272.314823742905
 20
279.036739976675
 30
0
 40
60.3978311954804
100
AcDbArc
 50
318.544493340532
 51
325.970552434195
  0
ARC
  5
717
100
AcDbEntity
  8
\U+56FE\U+5C422
100
AcDbCircle
370
-1
 62
0
  6
BYLAYER
 10
327.835828628376
 20
240.86275138099
 30
0
 40
7.00101539986659
100
AcDbArc
 50
50.8953335006272
 51
141.33264610306
  0
ARC
  5
718
100
AcDbEntity
  8
\U+56FE\U+5C422
100
AcDbCircle
370
-1
 62
0
  6
BYLAYER
 10
300.730550342286
 20
209.218174483229
 30
0
 40
48.6652610964327
100
AcDbArc
 50
35.3345830183766
 51
49.6306540640967
  0
ARC
  5
719
100
AcDbEntity
  8
\U+56FE\U+5C422
100
AcDbCircle
370
-1
 62
0
  6
BYLAYER
 10
327.893252244903
 20
230.145040288546
 30
0
 40
14.4674679505959
100
AcDbArc
 50
346.896434928499
 51
29.9312474336093
  0
ARC
  5
71A
100
AcDbEntity
  8
\U+56FE\U+5C422
100
AcDbCircle
370
-1
 62
0
  6
BYLAYER
 10
336.561329638641
 20
228.464392253168
 30
0
 40
5.65360653086642
100
AcDbArc
 50
238.700898534911
 51
343.567758038285
  0
ARC
  5
71B
100
AcDbEntity
  8
\U+56FE\U+5C422
100
AcDbCircle
370
-1
 62
0
  6
BYLAYER
 10
344.326123097105
 20
239.502203336873
 30
0
 40
19.1401036985269
100
AcDbArc
 50
210.061861306682
 51
236.004101112269
  0
ARC
  5
71C
100
AcDbEntity
  8
\U+56FE\U+5C422
100
AcDbCircle
370
-1
 62
0
  6
BYLAYER
 10
325.410659005328
 20
228.563943153298
 30
0
 40
2.7103157337094
100
AcDbArc
 50
29.88191029693
 51
192.589708203195
  0
ARC
  5
71D
100
AcDbEntity
  8
\U+56FE\U+5C422
100
AcDbCircle
370
-1
 62
0
  6
BYLAYER
 10
355.831802697983
 20
235.825535514634
 30
0
 40
33.9858670837158
100
AcDbArc
 50
193.358758375501
 51
220.740110659422
  0
ARC
  5
71E
100
AcDbEntity
  8
\U+56FE\U+5C422
100
AcDbCircle
370
-1
 62
0
  6
BYLAYER
 10
317.65483868663
 20
205.372762846424
 30
0
 40
14.9284051850417
100
AcDbArc
 50
348.882991873816
 51
33.6523500547899
  0
ARC
  5
71F
100
AcDbEntity
  8
\U+56FE\U+5C422
100
AcDbCircle
370
-1
 62
0
  6
BYLAYER
 10
323.148441935265
 20
204.288626644633
 30
0
 40
9.32885209759342
100
AcDbArc
 50
292.546570750432
 51
348.910957779129
  0
ARC
  5
720
100
AcDbEntity
  8
\U+56FE\U+5C422
100
AcDbCircle
370
-1
 62
0
  6
BYLAYER
 10
309.611535603908
 20
194.998836423871
 30
0
 40
17.1271730969422
100
AcDbArc
 50
2.2551880162333
 51
61.6065253540168
  0
ARC
  5
721
100
AcDbEntity
  8
\U+56FE\U+5C422
100
AcDbCircle
370
-1
 62
0
  6
BYLAYER
 10
315.922079133408
 20
206.732449230895
 30
0
 40
3.80437137193394
100
AcDbArc
 50
61.181628731167
 51
211.659851606521
  0
ARC
  5
722
100
AcDbEntity
  8
\U+56FE\U+5C422
100
AcDbCircle
370
-1
 62
0
  6
BYLAYER
 10
297.284607920593
 20
193.968899429238
 30
0
 40
18.7898899609324
100
AcDbArc
 50
337.693421051907
 51
34.9601453766215
  0
ARC
  5
723
100
AcDbEntity
  8
\U+56FE\U+5C422
100
AcDbCircle
370
-1
 62
0
  6
BYLAYER
 10
461.600655688986
 20
132.163920428522
 30
0
 40
156.774474725986
100
AcDbArc
 50
159.589922633361
 51
173.363401289723
  0
ARC
  5
724
100
AcDbEntity
  8
\U+56FE\U+5C422
100
AcDbCircle
370
-1
 62
0
  6
BYLAYER
 10
456.396408487461
 20
136.874354346092
 30
0
 40
151.115726089127
100
AcDbArc
 50
174.909544401841
 51
191.626693728815
  0
ARC
  5
725
100
AcDbEntity
  8
\U+56FE\U+5C422
100
AcDbCircle
370
-1
 62
0
  6
BYLAYER
 10
387.004259929982
 20
121.461021400422
 30
0
 40
80.0488145539383
100
AcDbArc
 50
190.830615460433
 51
229.838438851588
  0
ARC
  5
726
100
AcDbEntity
  8
\U+56FE\U+5C422
100
AcDbCircle
370
-1
 62
0
  6
BYLAYER
 10
331.636363704706
 20
45.1615188437815
 30
0
 40
15.5796517699635
100
AcDbArc
 50
76.1070678641006
 51
204.712444181846
  0
ARC
  5
727
100
AcDbEntity
  8
\U+56FE\U+5C422
100
AcDbCircle
370
-1
 62
0
  6
BYLAYER
 10
336.849221932486
 20
23.3551654040261
 30
0
 40
24.6760473559994
100
AcDbArc
 50
86.1488916150221
 51
141.701895995652
  0
ARC
  5
728
100
AcDbEntity
  8
\U+56FE\U+5C422
100
AcDbCircle
370
-1
 62
0
  6
BYLAYER
 10
335.780765227191
 20
22.4056894120579
 30
0
 40
25.7146812155075
100
AcDbArc
 50
56.4863097028841
 51
83.915125079602
  0
ARC
  5
729
100
AcDbEntity
  8
\U+56FE\U+5C422
100
AcDbCircle
370
-1
 62
0
  6
BYLAYER
 10
382.451127221619
 20
94.2625982888779
 30
0
 40
59.9695519763709
100
AcDbArc
 50
237.215506318604
 51
259.81154509825
  0
ARC
  5
72A
100
AcDbEntity
  8
\U+56FE\U+5C422
100
AcDbCircle
370
-1
 62
0
  6
BYLAYER
 10
374.623514913043
 20
84.5301306140499
 30
0
 40
49.3697839066436
100
AcDbArc
 50
266.771764253854
 51
320.248848845398
  0
ARC
  5
72B
100
AcDbEntity
  8
\U+56FE\U+5C422
100
AcDbCircle
370
-1
 62
0
  6
BYLAYER
 10
356.916595989993
 20
97.5331496697644
 30
0
 40
71.3105380254619
100
AcDbArc
 50
321.314044565996
 51
348.222229421101
  0
ARC
  5
72C
100
AcDbEntity
  8
\U+56FE\U+5C422
100
AcDbCircle
370
-1
 62
0
  6
BYLAYER
 10
374.658100055604
 20
90.4310311887569
 30
0
 40
52.5984910787945
100
AcDbArc
 50
351.853422867314
 51
43.6595949022876
  0
ARC
  5
72D
100
AcDbEntity
  8
\U+56FE\U+5C422
100
AcDbCircle
370
-1
 62
0
  6
BYLAYER
 10
389.689197432031
 20
105.521044552
 30
0
 40
31.3111068660056
100
AcDbArc
 50
42.671629582599
 51
102.588742803237
  0
ARC
  5
72E
100
AcDbEntity
  8
\U+56FE\U+5C422
100
AcDbCircle
370
-1
 62
0
  6
BYLAYER
 10
389.442184965958
 20
109.883706795425
 30
0
 40
27.0088158432958
100
AcDbArc
 50
104.09461294079
 51
163.180772104073
  0
ARC
  5
72F
100
AcDbEntity
  8
\U+56FE\U+5C422
100
AcDbCircle
370
-1
 62
0
  6
BYLAYER
 10
379.362354195558
 20
113.493925914927
 30
0
 40
16.3244534793492
100
AcDbArc
 50
165.073442623596
 51
207.469543862808
  0
ARC
  5
730
100
AcDbEntity
  8
\U+56FE\U+5C422
100
AcDbCircle
370
-1
 62
0
  6
BYLAYER
 10
377.066949278882
 20
111.183705865672
 30
0
 40
13.2592709192107
100
AcDbArc
 50
203.183514131107
 51
82.5797799564708
  0
ARC
  5
731
100
AcDbEntity
  8
\U+56FE\U+5C422
100
AcDbCircle
370
-1
 62
0
  6
BYLAYER
 10
386.738798564841
 20
117.822070678955
 30
0
 40
10.2825873076578
100
AcDbArc
 50
100.253550742159
 51
140.721064501287
  0
ARC
  5
732
100
AcDbEntity
  8
\U+56FE\U+5C422
100
AcDbCircle
370
-1
 62
0
  6
BYLAYER
 10
389.693015797987
 20
105.494851141329
 30
0
 40
22.9498712289045
100
AcDbArc
 50
41.6250380074558
 51
102.033227872068
  0
ARC
  5
733
100
AcDbEntity
  8
\U+56FE\U+5C422
100
AcDbCircle
370
-1
 62
0
  6
BYLAYER
 10
381.006622259577
 20
94.2730048101339
 30
0
 40
36.9899576769463
100
AcDbArc
 50
350.931509656892
 51
45.6843038419217
  0
ARC
  5
734
100
AcDbEntity
  8
\U+56FE\U+5C422
100
AcDbCircle
370
-1
 62
0
  6
BYLAYER
 10
365.301849863656
 20
95.9522154517561
 30
0
 40
52.7694255197201
100
AcDbArc
 50
332.871497092775
 51
351.818717978096
  0
ARC
  5
735
100
AcDbEntity
  8
\U+56FE\U+5C422
100
AcDbCircle
370
-1
 62
0
  6
BYLAYER
 10
401.028530512858
 20
70.5795003271204
 30
0
 40
11.3135309677099
100
AcDbArc
 50
6.65180443927233
 51
91.2874309391844
  0
ARC
  5
736
100
AcDbEntity
  8
\U+56FE\U+5C422
100
AcDbCircle
370
-1
 62
0
  6
BYLAYER
 10
401.386828349349
 20
78.3664391818272
 30
0
 40
3.57657112519366
100
AcDbArc
 50
99.8605477127358
 51
219.882819252464
  0
ARC
  5
737
100
AcDbEntity
  8
\U+56FE\U+5C422
100
AcDbCircle
370
-1
 62
0
  6
BYLAYER
 10
379.011988831203
 20
65.4192957149972
 30
0
 40
22.3350137543091
100
AcDbArc
 50
318.060742679139
 51
28.4895755938119
  0
ARC
  5
738
100
AcDbEntity
  8
\U+56FE\U+5C422
100
AcDbCircle
370
-1
 62
0
  6
BYLAYER
 10
377.590160544069
 20
66.2216627144401
 30
0
 40
23.9315118432344
100
AcDbArc
 50
224.383423363645
 51
318.906926599732
  0
ARC
  5
739
100
AcDbEntity
  8
\U+56FE\U+5C422
100
AcDbCircle
370
-1
 62
0
  6
BYLAYER
 10
385.954499125205
 20
78.028353512857
 30
0
 40
38.2551678427131
100
AcDbArc
 50
166.525954665092
 51
228.261685352209
  0
ARC
  5
73A
100
AcDbEntity
  8
\U+56FE\U+5C422
100
AcDbCircle
370
-1
 62
0
  6
BYLAYER
 10
532.274243559008
 20
238.018484681146
 30
0
 40
23.3297312349444
100
AcDbArc
 50
81.9141090499189
 51
145.454908823421
  0
ARC
  5
73B
100
AcDbEntity
  8
\U+56FE\U+5C422
100
AcDbCircle
370
-1
 62
0
  6
BYLAYER
 10
509.100518833754
 20
238.745875213411
 30
0
 40
34.6455466457247
100
AcDbArc
 50
40.2176912443448
 51
96.7074668528636
  0
ARC
  5
73C
100
AcDbEntity
  8
\U+56FE\U+5C422
100
AcDbCircle
370
-1
 62
0
  6
BYLAYER
 10
517.34855416988
 20
198.614664122578
 30
0
 40
75.5467653599462
100
AcDbArc
 50
99.366094838195
 51
135.433756488137
  0
ARC
  5
73D
100
AcDbEntity
  8
\U+56FE\U+5C422
100
AcDbCircle
370
-1
 62
0
  6
BYLAYER
 10
488.791127010716
 20
251.029481350381
 30
0
 40
25.2721771915279
100
AcDbArc
 50
118.932268930265
 51
178.642137156442
  0
ARC
  5
73E
100
AcDbEntity
  8
\U+56FE\U+5C422
100
AcDbCircle
370
-1
 62
0
  6
BYLAYER
 10
472.885902525386
 20
233.650862827735
 30
0
 40
39.6676207181521
100
AcDbArc
 50
84.6781735455273
 51
151.352376668358
  0
ARC
  5
73F
100
AcDbEntity
  8
\U+56FE\U+5C422
100
AcDbCircle
370
-1
 62
0
  6
BYLAYER
 10
449.492548827809
 20
246.765938288798
 30
0
 40
12.8536906545015
100
AcDbArc
 50
152.664410945296
 51
201.994195932514
  0
ARC
  5
740
100
AcDbEntity
  8
\U+56FE\U+5C422
100
AcDbCircle
370
-1
 62
0
  6
BYLAYER
 10
448.023801277984
 20
245.640592866609
 30
0
 40
11.0813687273899
100
AcDbArc
 50
199.442349293473
 51
241.406273718254
  0
ARC
  5
741
100
AcDbEntity
  8
\U+56FE\U+5C422
100
AcDbCircle
370
-1
 62
0
  6
BYLAYER
 10
444.606539161943
 20
239.338210777546
 30
0
 40
3.91219919257827
100
AcDbArc
 50
241.174640843064
 51
27.5639289240524
  0
ARC
  5
742
100
AcDbEntity
  8
\U+56FE\U+5C422
100
AcDbCircle
370
-1
 62
0
  6
BYLAYER
 10
443.199231462467
 20
227.393231337172
 30
0
 40
14.593779376159
100
AcDbArc
 50
293.062548980518
 51
70.4835503274432
  0
ARC
  5
743
100
AcDbEntity
  8
\U+56FE\U+5C422
100
AcDbCircle
370
-1
 62
0
  6
BYLAYER
 10
442.543025888746
 20
230.779385412351
 30
0
 40
17.9808938083302
100
AcDbArc
 50
185.69607340645
 51
290.759002371265
  0
ARC
  5
744
100
AcDbEntity
  8
\U+56FE\U+5C422
100
AcDbCircle
370
-1
 62
0
  6
BYLAYER
 10
470.316925606221
 20
232.252616526639
 30
0
 40
45.782072848127
100
AcDbArc
 50
136.429334648923
 51
184.080629672839
  0
ARC
  5
745
100
AcDbEntity
  8
\U+56FE\U+5C422
100
AcDbCircle
370
-1
 62
0
  6
BYLAYER
 10
486.097716701012
 20
212.131263611503
 30
0
 40
71.1805727160005
100
AcDbArc
 50
92.4228528343985
 51
133.448496348778
  0
ARC
  5
746
100
AcDbEntity
  8
\U+56FE\U+5C422
100
AcDbCircle
370
-1
 62
0
  6
BYLAYER
 10
460.969032132783
 20
226.795099195449
 30
0
 40
60.6319153210384
100
AcDbArc
 50
68.6036461506968
 51
107.030949157322
  0
ARC
  5
747
100
AcDbEntity
  8
\U+56FE\U+5C422
100
AcDbCircle
370
-1
 62
0
  6
BYLAYER
 10
453.941943641032
 20
246.798559488696
 30
0
 40
39.456898175847
100
AcDbArc
 50
105.781818124208
 51
140.641539137085
  0
ARC
  5
748
100
AcDbEntity
  8
\U+56FE\U+5C422
100
AcDbCircle
370
-1
 62
0
  6
BYLAYER
 10
466.284528412396
 20
236.821282695636
 30
0
 40
55.3275111347494
100
AcDbArc
 50
140.758489193046
 51
167.569783590523
  0
ARC
  5
749
100
AcDbEntity
  8
\U+56FE\U+5C422
100
AcDbCircle
370
-1
 62
0
  6
BYLAYER
 10
464.009220016177
 20
236.298029305696
 30
0
 40
53.2275774948981
100
AcDbArc
 50
166.492483817717
 51
186.571559768329
  0
ARC
  5
74A
100
AcDbEntity
  8
\U+56FE\U+5C422
100
AcDbCircle
370
-1
 62
0
  6
BYLAYER
 10
438.154480684302
 20
233.829746710266
 30
0
 40
27.2649430604749
100
AcDbArc
 50
187.636750865876
 51
216.507954382352
  0
ARC
  5
74B
100
AcDbEntity
  8
\U+56FE\U+5C422
100
AcDbCircle
370
-1
 62
0
  6
BYLAYER
 10
432.251279207157
 20
232.039140351833
 30
0
 40
21.5547023152559
100
AcDbArc
 50
222.026240645904
 51
266.202298754307
  0
ARC
  5
74C
100
AcDbEntity
  8
\U+56FE\U+5C422
100
AcDbCircle
370
-1
 62
0
  6
BYLAYER
 10
423.452105570263
 20
212.772990192033
 30
0
 40
7.70470064354069
100
AcDbArc
 50
266.436644393195
 51
343.088750477888
  0
ARC
  5
74D
100
AcDbEntity
  8
\U+56FE\U+5C422
100
AcDbCircle
370
-1
 62
0
  6
BYLAYER
 10
424.035277631916
 20
225.8896090475
 30
0
 40
20.8335113484819
100
AcDbArc
 50
179.210863646953
 51
267.077949274043
  0
ARC
  5
74E
100
AcDbEntity
  8
\U+56FE\U+5C422
100
AcDbCircle
370
-1
 62
0
  6
BYLAYER
 10
399.92983327306
 20
239.600477170736
 30
0
 40
13.8174004719866
100
AcDbArc
 50
238.122611100835
 51
283.706067087653
  0
ARC
  5
74F
100
AcDbEntity
  8
\U+56FE\U+5C422
100
AcDbCircle
370
-1
 62
0
  6
BYLAYER
 10
400.513071039227
 20
239.316092696065
 30
0
 40
13.8989120459919
100
AcDbArc
 50
181.313564262312
 51
235.460867326814
  0
ARC
  5
750
100
AcDbEntity
  8
\U+56FE\U+5C422
100
AcDbCircle
370
-1
 62
0
  6
BYLAYER
 10
421.080662907426
 20
240.099559479549
 30
0
 40
34.4804686877974
100
AcDbArc
 50
154.515267590405
 51
181.831634366974
  0
ARC
  5
751
100
AcDbEntity
  8
\U+56FE\U+5C422
100
AcDbCircle
370
-1
 62
0
  6
BYLAYER
 10
387.268448588868
 20
250.740244429276
 30
0
 40
4.98180945384594
100
AcDbArc
 50
57.363912888534
 51
153.093638913526
  0
ARC
  5
752
100
AcDbEntity
  8
\U+56FE\U+5C422
100
AcDbCircle
370
-1
 62
0
  6
BYLAYER
 10
373.206025833844
 20
255.673656805607
 30
0
 40
9.9859668409744
100
AcDbArc
 50
259.679561629108
 51
344.438412246789
  0
ARC
  5
753
100
AcDbEntity
  8
\U+56FE\U+5C422
100
AcDbCircle
370
-1
 62
0
  6
BYLAYER
 10
375.487291516979
 20
274.311932720644
 30
0
 40
28.7522426542315
100
AcDbArc
 50
226.741205207143
 51
261.861640008194
  0
ARC
  5
754
100
AcDbEntity
  8
\U+56FE\U+5C422
100
AcDbCircle
370
-1
 62
0
  6
BYLAYER
 10
382.593134133881
 20
284.981948252626
 30
0
 40
41.4475828295435
100
AcDbArc
 50
209.198107518729
 51
229.696861280211
  0
ARC
  5
755
100
AcDbEntity
  8
\U+56FE\U+5C422
100
AcDbCircle
370
-1
 62
0
  6
BYLAYER
 10
366.729769204469
 20
275.679519027201
 30
0
 40
23.0649943608323
100
AcDbArc
 50
166.785033878044
 51
208.249616192153
  0
ARC
  5
756
100
AcDbEntity
  8
\U+56FE\U+5C422
100
AcDbCircle
370
-1
 62
0
  6
BYLAYER
 10
358.947511630285
 20
277.462779879137
 30
0
 40
15.0812157435066
100
AcDbArc
 50
104.89162364006
 51
166.62157304722
  0
ARC
  5
757
100
AcDbEntity
  8
\U+56FE\U+5C422
100
AcDbCircle
370
-1
 62
0
  6
BYLAYER
 10
356.854024930833
 20
286.521606826025
 30
0
 40
5.79665592680976
100
AcDbArc
 50
314.944873300877
 51
107.906410622741
  0
ARC
  5
758
100
AcDbEntity
  8
\U+56FE\U+5C422
100
AcDbCircle
370
-1
 62
0
  6
BYLAYER
 10
320.963260023234
 20
327.68517625704
 30
0
 40
60.3978311954999
100
AcDbArc
 50
304.029447565905
 51
311.455506659568
  0
ARC
  5
759
100
AcDbEntity
  8
\U+56FE\U+5C422
100
AcDbCircle
370
-1
 62
0
  6
BYLAYER
 10
359.137248619019
 20
272.164171371615
 30
0
 40
7.00101539986606
100
AcDbArc
 50
128.667353896974
 51
219.104666499407
  0
ARC
  5
75A
100
AcDbEntity
  8
\U+56FE\U+5C422
100
AcDbCircle
370
-1
 62
0
  6
BYLAYER
 10
390.781825516759
 20
299.269449657705
 30
0
 40
48.6652610964159
100
AcDbArc
 50
220.369345935925
 51
234.665416981645
  0
ARC
  5
75B
100
AcDbEntity
  8
\U+56FE\U+5C422
100
AcDbCircle
370
-1
 62
0
  6
BYLAYER
 10
369.854959711464
 20
272.106747755083
 30
0
 40
14.4674679505878
100
AcDbArc
 50
240.068752566385
 51
283.103565071495
  0
ARC
  5
75C
100
AcDbEntity
  8
\U+56FE\U+5C422
100
AcDbCircle
370
-1
 62
0
  6
BYLAYER
 10
371.535607746838
 20
263.438670361354
 30
0
 40
5.65360653086641
100
AcDbArc
 50
286.432241961714
 51
31.2991014650878
  0
ARC
  5
75D
100
AcDbEntity
  8
\U+56FE\U+5C422
100
AcDbCircle
370
-1
 62
0
  6
BYLAYER
 10
360.497796663133
 20
255.673876902889
 30
0
 40
19.1401036985273
100
AcDbArc
 50
33.9958988877316
 51
59.938138693318
  0
ARC
  5
75E
100
AcDbEntity
  8
\U+56FE\U+5C422
100
AcDbCircle
370
-1
 62
0
  6
BYLAYER
 10
371.436056846705
 20
274.589340994663
 30
0
 40
2.71031573370541
100
AcDbArc
 50
77.4102917968415
 51
240.118089703107
  0
ARC
  5
75F
100
AcDbEntity
  8
\U+56FE\U+5C422
100
AcDbCircle
370
-1
 62
0
  6
BYLAYER
 10
364.174464485366
 20
244.168197302005
 30
0
 40
33.9858670837157
100
AcDbArc
 50
49.2598893405774
 51
76.6412416244991
  0
ARC
  5
760
100
AcDbEntity
  8
\U+56FE\U+5C422
100
AcDbCircle
370
-1
 62
0
  6
BYLAYER
 10
394.627237153567
 20
282.345161313379
 30
0
 40
14.9284051850542
100
AcDbArc
 50
236.347649945282
 51
281.117008126256
  0
ARC
  5
761
100
AcDbEntity
  8
\U+56FE\U+5C422
100
AcDbCircle
370
-1
 62
0
  6
BYLAYER
 10
395.711373355382
 20
276.851558064726
 30
0
 40
9.32885209758431
100
AcDbArc
 50
281.089042220866
 51
337.453429249563
  0
ARC
  5
762
100
AcDbEntity
  8
\U+56FE\U+5C422
100
AcDbCircle
370
-1
 62
0
  6
BYLAYER
 10
405.001163576143
 20
290.388464396084
 30
0
 40
17.1271730969402
100
AcDbArc
 50
208.393474645955
 51
267.744811983739
  0
ARC
  5
763
100
AcDbEntity
  8
\U+56FE\U+5C422
100
AcDbCircle
370
-1
 62
0
  6
BYLAYER
 10
393.267550769116
 20
284.077920866589
 30
0
 40
3.8043713719317
100
AcDbArc
 50
58.340148393443
 51
208.818371268798
  0
ARC
  5
764
100
AcDbEntity
  8
\U+56FE\U+5C422
100
AcDbCircle
370
-1
 62
0
  6
BYLAYER
 10
406.031100570774
 20
302.715392079386
 30
0
 40
18.7898899609203
100
AcDbArc
 50
235.039854623355
 51
292.30657894807
  0
ARC
  5
765
100
AcDbEntity
  8
\U+56FE\U+5C422
100
AcDbCircle
370
-1
 62
0
  6
BYLAYER
 10
467.836079571481
 20
138.399344310976
 30
0
 40
156.77447472601
100
AcDbArc
 50
96.6365987102749
 51
110.410077366637
  0
ARC
  5
766
100
AcDbEntity
  8
\U+56FE\U+5C422
100
AcDbCircle
370
-1
 62
0
  6
BYLAYER
 10
463.125645653934
 20
143.60359151253
 30
0
 40
151.115726089126
100
AcDbArc
 50
78.3733062711924
 51
95.0904555981674
  0
ARC
  5
767
100
AcDbEntity
  8
\U+56FE\U+5C422
100
AcDbCircle
370
-1
 62
0
  6
BYLAYER
 10
478.538978599575
 20
212.995740070009
 30
0
 40
80.048814553943
100
AcDbArc
 50
40.1615611484062
 51
79.169384539561
  0
ARC
  5
768
100
AcDbEntity
  8
\U+56FE\U+5C422
100
AcDbCircle
370
-1
 62
0
  6
BYLAYER
 10
554.838481156223
 20
268.363636295286
 30
0
 40
15.579651769963
100
AcDbArc
 50
65.2875558181716
 51
193.892932135917
  0
ARC
  5
769
100
AcDbEntity
  8
\U+56FE\U+5C422
100
AcDbCircle
370
-1
 62
0
  6
BYLAYER
 10
576.644834595986
 20
263.150778067502
 30
0
 40
24.6760473560114
100
AcDbArc
 50
128.298104004361
 51
183.851108384991
  0
ARC
  5
76A
100
AcDbEntity
  8
\U+56FE\U+5C422
100
AcDbCircle
370
-1
 62
0
  6
BYLAYER
 10
577.594310587911
 20
264.219234772825
 30
0
 40
25.7146812154799
100
AcDbArc
 50
186.084874920481
 51
213.513690297198
  0
ARC
  5
76B
100
AcDbEntity
  8
\U+56FE\U+5C422
100
AcDbCircle
370
-1
 62
0
  6
BYLAYER
 10
505.737401711113
 20
217.548872778408
 30
0
 40
59.9695519763736
100
AcDbArc
 50
10.188454901717
 51
32.7844936813627
  0
ARC
  5
76C
100
AcDbEntity
  8
\U+56FE\U+5C422
100
AcDbCircle
370
-1
 62
0
  6
BYLAYER
 10
515.469869385959
 20
225.376485086948
 30
0
 40
49.3697839066346
100
AcDbArc
 50
309.751151154607
 51
3.22823574615007
  0
ARC
  5
76D
100
AcDbEntity
  8
\U+56FE\U+5C422
100
AcDbCircle
370
-1
 62
0
  6
BYLAYER
 10
502.466850330229
 20
243.083404010004
 30
0
 40
71.3105380254679
100
AcDbArc
 50
281.777770578909
 51
308.685955434013
  0
ARC
  5
76E
100
AcDbEntity
  8
\U+56FE\U+5C422
100
AcDbCircle
370
-1
 62
0
  6
BYLAYER
 10
509.568968811255
 20
225.341899944393
 30
0
 40
52.5984910787967
100
AcDbArc
 50
226.340405097705
 51
278.146577132679
  0
ARC
  5
76F
100
AcDbEntity
  8
\U+56FE\U+5C422
100
AcDbCircle
370
-1
 62
0
  6
BYLAYER
 10
494.478955447998
 20
210.310802567972
 30
0
 40
31.3111068660017
100
AcDbArc
 50
167.411257196777
 51
227.328370417415
  0
ARC
  5
770
100
AcDbEntity
  8
\U+56FE\U+5C422
100
AcDbCircle
370
-1
 62
0
  6
BYLAYER
 10
490.116293204575
 20
210.557815034036
 30
0
 40
27.0088158432958
100
AcDbArc
 50
106.819227895927
 51
165.90538705921
  0
ARC
  5
771
100
AcDbEntity
  8
\U+56FE\U+5C422
100
AcDbCircle
370
-1
 62
0
  6
BYLAYER
 10
486.506074085065
 20
220.637645804433
 30
0
 40
16.32445347935
100
AcDbArc
 50
62.5304561371627
 51
104.926557376374
  0
ARC
  5
772
100
AcDbEntity
  8
\U+56FE\U+5C422
100
AcDbCircle
370
-1
 62
0
  6
BYLAYER
 10
488.816294134324
 20
222.933050721112
 30
0
 40
13.2592709192064
100
AcDbArc
 50
187.420220043505
 51
66.816485868869
  0
ARC
  5
773
100
AcDbEntity
  8
\U+56FE\U+5C422
100
AcDbCircle
370
-1
 62
0
  6
BYLAYER
 10
482.177929321053
 20
213.261201435156
 30
0
 40
10.2825873076655
100
AcDbArc
 50
129.278935498735
 51
169.746449257864
  0
ARC
  5
774
100
AcDbEntity
  8
\U+56FE\U+5C422
100
AcDbCircle
370
-1
 62
0
  6
BYLAYER
 10
494.505148858671
 20
210.306984202007
 30
0
 40
22.9498712289046
100
AcDbArc
 50
167.966772127933
 51
228.374961992545
  0
ARC
  5
775
100
AcDbEntity
  8
\U+56FE\U+5C422
100
AcDbCircle
370
-1
 62
0
  6
BYLAYER
 10
505.726995189872
 20
218.993377740428
 30
0
 40
36.9899576769588
100
AcDbArc
 50
224.315696158085
 51
279.068490343115
  0
ARC
  5
776
100
AcDbEntity
  8
\U+56FE\U+5C422
100
AcDbCircle
370
-1
 62
0
  6
BYLAYER
 10
504.047784548231
 20
234.698150136305
 30
0
 40
52.7694255196909
100
AcDbArc
 50
278.181282021936
 51
297.128502907256
  0
ARC
  5
777
100
AcDbEntity
  8
\U+56FE\U+5C422
100
AcDbCircle
370
-1
 62
0
  6
BYLAYER
 10
529.420499672886
 20
198.971469487135
 30
0
 40
11.3135309677039
100
AcDbArc
 50
178.712569060782
 51
263.348195560694
  0
ARC
  5
778
100
AcDbEntity
  8
\U+56FE\U+5C422
100
AcDbCircle
370
-1
 62
0
  6
BYLAYER
 10
521.633560818182
 20
198.613171650653
 30
0
 40
3.57657112519027
100
AcDbArc
 50
50.117180747554
 51
170.139452287283
  0
ARC
  5
779
100
AcDbEntity
  8
\U+56FE\U+5C422
100
AcDbCircle
370
-1
 62
0
  6
BYLAYER
 10
534.580704285014
 20
220.988011168786
 30
0
 40
22.3350137543028
100
AcDbArc
 50
241.510424406163
 51
311.939257320836
  0
ARC
  5
77A
100
AcDbEntity
  8
\U+56FE\U+5C422
100
AcDbCircle
370
-1
 62
0
  6
BYLAYER
 10
533.77833728556
 20
222.409839455925
 30
0
 40
23.9315118432387
100
AcDbArc
 50
311.093073400259
 51
45.6165766363454
  0
ARC
  5
77B
100
AcDbEntity
  8
\U+56FE\U+5C422
100
AcDbCircle
370
-1
 62
0
  6
BYLAYER
 10
521.971646487146
 20
214.045500874784
 30
0
 40
38.2551678427189
100
AcDbArc
 50
41.7383146477936
 51
103.47404533491
  0
ARC
  5
77C
100
AcDbEntity
  8
\U+56FE\U+5C422
100
AcDbCircle
370
-1
 62
0
  6
BYLAYER
 10
532.274243559008
 20
361.981515318855
 30
0
 40
23.3297312349444
100
AcDbArc
 50
214.545091176579
 51
278.085890950081
  0
ARC
  5
77D
100
AcDbEntity
  8
\U+56FE\U+5C422
100
AcDbCircle
370
-1
 62
0
  6
BYLAYER
 10
509.100518833754
 20
361.254124786589
 30
0
 40
34.6455466457247
100
AcDbArc
 50
263.292533147136
 51
319.782308755655
  0
ARC
  5
77E
100
AcDbEntity
  8
\U+56FE\U+5C422
100
AcDbCircle
370
-1
 62
0
  6
BYLAYER
 10
517.34855416988
 20
401.385335877422
 30
0
 40
75.546765359946
100
AcDbArc
 50
224.566243511863
 51
260.633905161805
  0
ARC
  5
77F
100
AcDbEntity
  8
\U+56FE\U+5C422
100
AcDbCircle
370
-1
 62
0
  6
BYLAYER
 10
488.791127010716
 20
348.970518649619
 30
0
 40
25.272177191528
100
AcDbArc
 50
181.357862843558
 51
241.067731069735
  0
ARC
  5
780
100
AcDbEntity
  8
\U+56FE\U+5C422
100
AcDbCircle
370
-1
 62
0
  6
BYLAYER
 10
472.885902525386
 20
366.349137172265
 30
0
 40
39.6676207181521
100
AcDbArc
 50
208.647623331642
 51
275.321826454473
  0
ARC
  5
781
100
AcDbEntity
  8
\U+56FE\U+5C422
100
AcDbCircle
370
-1
 62
0
  6
BYLAYER
 10
449.492548827808
 20
353.234061711202
 30
0
 40
12.8536906545012
100
AcDbArc
 50
158.005804067486
 51
207.335589054704
  0
ARC
  5
782
100
AcDbEntity
  8
\U+56FE\U+5C422
100
AcDbCircle
370
-1
 62
0
  6
BYLAYER
 10
448.023801277984
 20
354.359407133391
 30
0
 40
11.0813687273903
100
AcDbArc
 50
118.593726281748
 51
160.557650706528
  0
ARC
  5
783
100
AcDbEntity
  8
\U+56FE\U+5C422
100
AcDbCircle
370
-1
 62
0
  6
BYLAYER
 10
444.606539161943
 20
360.661789222453
 30
0
 40
3.91219919257835
100
AcDbArc
 50
332.436071075947
 51
118.825359156936
  0
ARC
  5
784
100
AcDbEntity
  8
\U+56FE\U+5C422
100
AcDbCircle
370
-1
 62
0
  6
BYLAYER
 10
443.199231462476
 20
372.606768662831
 30
0
 40
14.5937793761593
100
AcDbArc
 50
289.516449672518
 51
66.9374510194435
  0
ARC
  5
785
100
AcDbEntity
  8
\U+56FE\U+5C422
100
AcDbCircle
370
-1
 62
0
  6
BYLAYER
 10
442.543025888756
 20
369.220614587642
 30
0
 40
17.98089380834
100
AcDbArc
 50
69.240997628716
 51
174.30392659353
  0
ARC
  5
786
100
AcDbEntity
  8
\U+56FE\U+5C422
100
AcDbCircle
370
-1
 62
0
  6
BYLAYER
 10
470.316925606221
 20
367.747383473361
 30
0
 40
45.782072848127
100
AcDbArc
 50
175.919370327161
 51
223.570665351077
  0
ARC
  5
787
100
AcDbEntity
  8
\U+56FE\U+5C422
100
AcDbCircle
370
-1
 62
0
  6
BYLAYER
 10
486.097716701012
 20
387.868736388496
 30
0
 40
71.1805727160005
100
AcDbArc
 50
226.551503651222
 51
267.577147165602
  0
ARC
  5
788
100
AcDbEntity
  8
\U+56FE\U+5C422
100
AcDbCircle
370
-1
 62
0
  6
BYLAYER
 10
460.969032132783
 20
373.204900804551
 30
0
 40
60.6319153210384
100
AcDbArc
 50
252.969050842678
 51
291.396353849303
  0
ARC
  5
789
100
AcDbEntity
  8
\U+56FE\U+5C422
100
AcDbCircle
370
-1
 62
0
  6
BYLAYER
 10
453.941943641033
 20
353.201440511304
 30
0
 40
39.4568981758472
100
AcDbArc
 50
219.358460862914
 51
254.218181875792
  0
ARC
  5
78A
100
AcDbEntity
  8
\U+56FE\U+5C422
100
AcDbCircle
370
-1
 62
0
  6
BYLAYER
 10
466.284528412396
 20
363.178717304364
 30
0
 40
55.3275111347492
100
AcDbArc
 50
192.430216409477
 51
219.241510806954
  0
ARC
  5
78B
100
AcDbEntity
  8
\U+56FE\U+5C422
100
AcDbCircle
370
-1
 62
0
  6
BYLAYER
 10
464.009220016177
 20
363.701970694304
 30
0
 40
53.2275774948976
100
AcDbArc
 50
173.428440231671
 51
193.507516182283
  0
ARC
  5
78C
100
AcDbEntity
  8
\U+56FE\U+5C422
100
AcDbCircle
370
-1
 62
0
  6
BYLAYER
 10
438.154480684303
 20
366.170253289734
 30
0
 40
27.2649430604753
100
AcDbArc
 50
143.492045617648
 51
172.363249134124
  0
ARC
  5
78D
100
AcDbEntity
  8
\U+56FE\U+5C422
100
AcDbCircle
370
-1
 62
0
  6
BYLAYER
 10
432.251279207157
 20
367.960859648167
 30
0
 40
21.5547023152559
100
AcDbArc
 50
93.7977012456933
 51
137.973759354096
  0
ARC
  5
78E
100
AcDbEntity
  8
\U+56FE\U+5C422
100
AcDbCircle
370
-1
 62
0
  6
BYLAYER
 10
423.452105570263
 20
387.227009807967
 30
0
 40
7.70470064354073
100
AcDbArc
 50
16.9112495221121
 51
93.5633556068051
  0
ARC
  5
78F
100
AcDbEntity
  8
\U+56FE\U+5C422
100
AcDbCircle
370
-1
 62
0
  6
BYLAYER
 10
424.035277631916
 20
374.1103909525
 30
0
 40
20.8335113484819
100
AcDbArc
 50
92.9220507259567
 51
180.789136353047
  0
ARC
  5
790
100
AcDbEntity
  8
\U+56FE\U+5C422
100
AcDbCircle
370
-1
 62
0
  6
BYLAYER
 10
399.929833273059
 20
360.399522829264
 30
0
 40
13.8174004719866
100
AcDbArc
 50
76.2939329123464
 51
121.877388899165
  0
ARC
  5
791
100
AcDbEntity
  8
\U+56FE\U+5C422
100
AcDbCircle
370
-1
 62
0
  6
BYLAYER
 10
400.513071039227
 20
360.683907303935
 30
0
 40
13.8989120459921
100
AcDbArc
 50
124.539132673186
 51
178.686435737688
  0
ARC
  5
792
100
AcDbEntity
  8
\U+56FE\U+5C422
100
AcDbCircle
370
-1
 62
0
  6
BYLAYER
 10
421.080662907426
 20
359.900440520451
 30
0
 40
34.4804686877972
100
AcDbArc
 50
178.168365633026
 51
205.484732409595
  0
ARC
  5
793
100
AcDbEntity
  8
\U+56FE\U+5C422
100
AcDbCircle
370
-1
 62
0
  6
BYLAYER
 10
387.268448588868
 20
349.259755570724
 30
0
 40
4.98180945384589
100
AcDbArc
 50
206.906361086474
 51
302.636087111466
  0
ARC
  5
794
100
AcDbEntity
  8
\U+56FE\U+5C422
100
AcDbCircle
370
-1
 62
0
  6
BYLAYER
 10
373.206025833844
 20
344.326343194393
 30
0
 40
9.98596684097438
100
AcDbArc
 50
15.5615877532104
 51
100.320438370892
  0
ARC
  5
795
100
AcDbEntity
  8
\U+56FE\U+5C422
100
AcDbCircle
370
-1
 62
0
  6
BYLAYER
 10
375.487291516979
 20
325.688067279356
 30
0
 40
28.7522426542315
100
AcDbArc
 50
98.1383599918063
 51
133.258794792857
  0
ARC
  5
796
100
AcDbEntity
  8
\U+56FE\U+5C422
100
AcDbCircle
370
-1
 62
0
  6
BYLAYER
 10
382.593134133881
 20
315.018051747374
 30
0
 40
41.4475828295435
100
AcDbArc
 50
130.303138719789
 51
150.801892481271
  0
ARC
  5
797
100
AcDbEntity
  8
\U+56FE\U+5C422
100
AcDbCircle
370
-1
 62
0
  6
BYLAYER
 10
366.729769204469
 20
324.320480972799
 30
0
 40
23.0649943608323
100
AcDbArc
 50
151.750383807847
 51
193.214966121957
  0
ARC
  5
798
100
AcDbEntity
  8
\U+56FE\U+5C422
100
AcDbCircle
370
-1
 62
0
  6
BYLAYER
 10
358.947511630285
 20
322.537220120863
 30
0
 40
15.0812157435066
100
AcDbArc
 50
193.37842695278
 51
255.10837635994
  0
ARC
  5
799
100
AcDbEntity
  8
\U+56FE\U+5C422
100
AcDbCircle
370
-1
 62
0
  6
BYLAYER
 10
356.854024930833
 20
313.478393173975
 30
0
 40
5.79665592680981
100
AcDbArc
 50
252.09358937726
 51
45.055126699123
  0
ARC
  5
79A
100
AcDbEntity
  8
\U+56FE\U+5C422
100
AcDbCircle
370
-1
 62
0
  6
BYLAYER
 10
320.963260023234
 20
272.31482374296
 30
0
 40
60.3978311954999
100
AcDbArc
 50
48.5444933404321
 51
55.9705524340951
  0
ARC
  5
79B
100
AcDbEntity
  8
\U+56FE\U+5C422
100
AcDbCircle
370
-1
 62
0
  6
BYLAYER
 10
359.137248619019
 20
327.835828628385
 30
0
 40
7.00101539986606
100
AcDbArc
 50
140.895333500593
 51
231.332646103026
  0
ARC
  5
79C
100
AcDbEntity
  8
\U+56FE\U+5C422
100
AcDbCircle
370
-1
 62
0
  6
BYLAYER
 10
390.78182551676
 20
300.730550342295
 30
0
 40
48.6652610964165
100
AcDbArc
 50
125.334583018355
 51
139.630654064076
  0
ARC
  5
79D
100
AcDbEntity
  8
\U+56FE\U+5C422
100
AcDbCircle
370
-1
 62
0
  6
BYLAYER
 10
369.854959711464
 20
327.893252244917
 30
0
 40
14.4674679505878
100
AcDbArc
 50
76.8964349285045
 51
119.931247433615
  0
ARC
  5
79E
100
AcDbEntity
  8
\U+56FE\U+5C422
100
AcDbCircle
370
-1
 62
0
  6
BYLAYER
 10
371.535607746838
 20
336.561329638646
 30
0
 40
5.65360653086641
100
AcDbArc
 50
328.700898534912
 51
73.5677580382855
  0
ARC
  5
79F
100
AcDbEntity
  8
\U+56FE\U+5C422
100
AcDbCircle
370
-1
 62
0
  6
BYLAYER
 10
360.497796663134
 20
344.326123097111
 30
0
 40
19.1401036985269
100
AcDbArc
 50
300.061861306681
 51
326.004101112267
  0
ARC
  5
7A0
100
AcDbEntity
  8
\U+56FE\U+5C422
100
AcDbCircle
370
-1
 62
0
  6
BYLAYER
 10
371.436056846705
 20
325.410659005337
 30
0
 40
2.71031573370541
100
AcDbArc
 50
119.881910296893
 51
282.589708203158
  0
ARC
  5
7A1
100
AcDbEntity
  8
\U+56FE\U+5C422
100
AcDbCircle
370
-1
 62
0
  6
BYLAYER
 10
364.174464485366
 20
355.831802697995
 30
0
 40
33.9858670837158
100
AcDbArc
 50
283.358758375501
 51
310.740110659423
  0
ARC
  5
7A2
100
AcDbEntity
  8
\U+56FE\U+5C422
100
AcDbCircle
370
-1
 62
0
  6
BYLAYER
 10
394.627237153567
 20
317.654838686621
 30
0
 40
14.9284051850541
100
AcDbArc
 50
78.8829918737429
 51
123.652350054717
  0
ARC
  5
7A3
100
AcDbEntity
  8
\U+56FE\U+5C422
100
AcDbCircle
370
-1
 62
0
  6
BYLAYER
 10
395.711373355382
 20
323.148441935274
 30
0
 40
9.32885209758431
100
AcDbArc
 50
22.5465707504367
 51
78.9109577791342
  0
ARC
  5
7A4
100
AcDbEntity
  8
\U+56FE\U+5C422
100
AcDbCircle
370
-1
 62
0
  6
BYLAYER
 10
405.001163576143
 20
309.611535603916
 30
0
 40
17.1271730969402
100
AcDbArc
 50
92.2551880162613
 51
151.606525354045
  0
ARC
  5
7A5
100
AcDbEntity
  8
\U+56FE\U+5C422
100
AcDbCircle
370
-1
 62
0
  6
BYLAYER
 10
393.267550769116
 20
315.922079133411
 30
0
 40
3.80437137193174
100
AcDbArc
 50
151.181628731202
 51
301.659851606556
  0
ARC
  5
7A6
100
AcDbEntity
  8
\U+56FE\U+5C422
100
AcDbCircle
370
-1
 62
0
  6
BYLAYER
 10
406.031100570774
 20
297.284607920614
 30
0
 40
18.7898899609203
100
AcDbArc
 50
67.6934210519307
 51
124.960145376645
  0
ARC
  5
7A7
100
AcDbEntity
  8
\U+56FE\U+5C422
100
AcDbCircle
370
-1
 62
0
  6
BYLAYER
 10
467.836079571481
 20
461.600655689024
 30
0
 40
156.77447472601
100
AcDbArc
 50
249.589922633363
 51
263.363401289725
  0
ARC
  5
7A8
100
AcDbEntity
  8
\U+56FE\U+5C422
100
AcDbCircle
370
-1
 62
0
  6
BYLAYER
 10
463.125645653934
 20
456.39640848747
 30
0
 40
151.115726089126
100
AcDbArc
 50
264.909544401833
 51
281.626693728808
  0
ARC
  5
7A9
100
AcDbEntity
  8
\U+56FE\U+5C422
100
AcDbCircle
370
-1
 62
0
  6
BYLAYER
 10
478.538978599575
 20
387.004259929991
 30
0
 40
80.048814553943
100
AcDbArc
 50
280.830615460439
 51
319.838438851594
  0
ARC
  5
7AA
100
AcDbEntity
  8
\U+56FE\U+5C422
100
AcDbCircle
370
-1
 62
0
  6
BYLAYER
 10
554.838481156223
 20
331.636363704714
 30
0
 40
15.579651769963
100
AcDbArc
 50
166.107067864083
 51
294.712444181828
  0
ARC
  5
7AB
100
AcDbEntity
  8
\U+56FE\U+5C422
100
AcDbCircle
370
-1
 62
0
  6
BYLAYER
 10
576.644834595986
 20
336.849221932498
 30
0
 40
24.6760473560114
100
AcDbArc
 50
176.148891615009
 51
231.701895995639
  0
ARC
  5
7AC
100
AcDbEntity
  8
\U+56FE\U+5C422
100
AcDbCircle
370
-1
 62
0
  6
BYLAYER
 10
577.59431058791
 20
335.780765227175
 30
0
 40
25.7146812154795
100
AcDbArc
 50
146.486309702801
 51
173.915125079519
  0
ARC
  5
7AD
100
AcDbEntity
  8
\U+56FE\U+5C422
100
AcDbCircle
370
-1
 62
0
  6
BYLAYER
 10
505.737401711113
 20
382.451127221592
 30
0
 40
59.9695519763738
100
AcDbArc
 50
327.215506318637
 51
349.811545098283
  0
ARC
  5
7AE
100
AcDbEntity
  8
\U+56FE\U+5C422
100
AcDbCircle
370
-1
 62
0
  6
BYLAYER
 10
515.469869385959
 20
374.623514913052
 30
0
 40
49.3697839066348
100
AcDbArc
 50
356.77176425385
 51
50.2488488453934
  0
ARC
  5
7AF
100
AcDbEntity
  8
\U+56FE\U+5C422
100
AcDbCircle
370
-1
 62
0
  6
BYLAYER
 10
502.466850330229
 20
356.916595989996
 30
0
 40
71.3105380254678
100
AcDbArc
 50
51.3140445659869
 51
78.2222294210914
  0
ARC
  5
7B0
100
AcDbEntity
  8
\U+56FE\U+5C422
100
AcDbCircle
370
-1
 62
0
  6
BYLAYER
 10
509.568968811255
 20
374.658100055607
 30
0
 40
52.5984910787967
100
AcDbArc
 50
81.8534228673207
 51
133.659594902295
  0
ARC
  5
7B1
100
AcDbEntity
  8
\U+56FE\U+5C422
100
AcDbCircle
370
-1
 62
0
  6
BYLAYER
 10
494.478955448001
 20
389.689197432034
 30
0
 40
31.3111068659997
100
AcDbArc
 50
132.671629582596
 51
192.588742803234
  0
ARC
  5
7B2
100
AcDbEntity
  8
\U+56FE\U+5C422
100
AcDbCircle
370
-1
 62
0
  6
BYLAYER
 10
490.116293204578
 20
389.442184965959
 30
0
 40
27.0088158432915
100
AcDbArc
 50
194.09461294078
 51
253.180772104063
  0
ARC
  5
7B3
100
AcDbEntity
  8
\U+56FE\U+5C422
100
AcDbCircle
370
-1
 62
0
  6
BYLAYER
 10
486.506074085065
 20
379.362354195567
 30
0
 40
16.32445347935
100
AcDbArc
 50
255.073442623625
 51
297.469543862837
  0
ARC
  5
7B4
100
AcDbEntity
  8
\U+56FE\U+5C422
100
AcDbCircle
370
-1
 62
0
  6
BYLAYER
 10
488.816294134324
 20
377.066949278888
 30
0
 40
13.2592709192064
100
AcDbArc
 50
293.183514131131
 51
172.579779956495
  0
ARC
  5
7B5
100
AcDbEntity
  8
\U+56FE\U+5C422
100
AcDbCircle
370
-1
 62
0
  6
BYLAYER
 10
482.177929321062
 20
386.73879856482
 30
0
 40
10.2825873076522
100
AcDbArc
 50
190.253550742008
 51
230.721064501136
  0
ARC
  5
7B6
100
AcDbEntity
  8
\U+56FE\U+5C422
100
AcDbCircle
370
-1
 62
0
  6
BYLAYER
 10
494.50514885868
 20
389.693015798009
 30
0
 40
22.9498712288989
100
AcDbArc
 50
131.625038007498
 51
192.03322787211
  0
ARC
  5
7B7
100
AcDbEntity
  8
\U+56FE\U+5C422
100
AcDbCircle
370
-1
 62
0
  6
BYLAYER
 10
505.726995189872
 20
381.006622259572
 30
0
 40
36.9899576769587
100
AcDbArc
 50
80.9315096568847
 51
135.684303841915
  0
ARC
  5
7B8
100
AcDbEntity
  8
\U+56FE\U+5C422
100
AcDbCircle
370
-1
 62
0
  6
BYLAYER
 10
504.047784548235
 20
365.301849863676
 30
0
 40
52.7694255197084
100
AcDbArc
 50
62.8714970927504
 51
81.8187179780708
  0
ARC
  5
7B9
100
AcDbEntity
  8
\U+56FE\U+5C422
100
AcDbCircle
370
-1
 62
0
  6
BYLAYER
 10
529.420499672889
 20
401.028530512861
 30
0
 40
11.3135309677068
100
AcDbArc
 50
96.6518044392897
 51
181.287430939202
  0
ARC
  5
7BA
100
AcDbEntity
  8
\U+56FE\U+5C422
100
AcDbCircle
370
-1
 62
0
  6
BYLAYER
 10
521.633560818182
 20
401.386828349347
 30
0
 40
3.57657112519027
100
AcDbArc
 50
189.860547712717
 51
309.882819252446
  0
ARC
  5
7BB
100
AcDbEntity
  8
\U+56FE\U+5C422
100
AcDbCircle
370
-1
 62
0
  6
BYLAYER
 10
534.580704285014
 20
379.011988831214
 30
0
 40
22.3350137543027
100
AcDbArc
 50
48.0607426791637
 51
118.489575593837
  0
ARC
  5
7BC
100
AcDbEntity
  8
\U+56FE\U+5C422
100
AcDbCircle
370
-1
 62
0
  6
BYLAYER
 10
533.77833728556
 20
377.590160544075
 30
0
 40
23.9315118432387
100
AcDbArc
 50
314.383423363655
 51
48.9069265997413
  0
ARC
  5
7BD
100
AcDbEntity
  8
\U+56FE\U+5C422
100
AcDbCircle
370
-1
 62
0
  6
BYLAYER
 10
521.971646487146
 20
385.954499125216
 30
0
 40
38.2551678427189
100
AcDbArc
 50
256.525954665089
 51
318.261685352206
  0
ENDSEC
  0
SECTION
  2
OBJECTS
  0
DICTIONARY
  5
C9E
100
AcDbDictionary
  3
ACAD_GROUP
350
C9F
  3
ACAD_MATERIAL
350
CA0
  3
ACAD_WIPEOUT_VARS
350
CA1
  3
ACAD_MLINESTYLE
350
CA2
  3
ACAD_IMAGE_VARS
350
CA3
  3
AcDbVariableDictionary
350
CA4
  3
ACAD_TABLESTYLE
350
CA5
  3
ACAD_LAYOUT
350
CA6
  0
DICTIONARY
  5
C9F
330
C9E
100
AcDbDictionary
  0
DICTIONARY
  5
CA0
330
C9E
100
AcDbDictionary
  0
WIPEOUTVARIABLES
  5
CA1
330
C9E
100
AcDbWipeoutVariables
 70
1
  0
DICTIONARY
  5
CA2
330
C9E
100
AcDbDictionary
  3
Standard
350
2E
  0
MLINESTYLE
  5
2E
330
CA2
100
AcDbMlineStyle
  2
Standard
 70
0
  3

 62
256
 51
90
 52
90
 71
2
 49
0.5
 62
256
  6
BYLAYER
 49
-0.5
 62
256
  6
BYLAYER
  0
DICTIONARY
  5
CA5
100
AcDbDictionary
281
1
  3
Standard
350
2F
  0
TABLESTYLE
  5
2F
330
CA5
100
AcDbTableStyle
  3
Standard
 70
0
 71
0
 40
0.06
 41
0.06
280
0
281
0
  7
Standard
140
0.18
170
2
 62
0
 63
7
283
0
274
-2
284
1
 64
0
275
-2
285
1
 65
0
276
-2
286
1
 66
0
277
-2
287
1
 67
0
278
-2
288
1
 68
0
279
-2
289
1
 69
0
  7
Standard
140
0.25
170
5
 62
0
 63
7
283
0
274
-2
284
1
 64
0
275
-2
285
1
 65
0
276
-2
286
1
 66
0
277
-2
287
1
 67
0
278
-2
288
1
 68
0
279
-2
289
1
 69
0
  7
Standard
140
0.18
170
5
 62
0
 63
7
283
0
274
-2
284
1
 64
0
275
-2
285
1
 65
0
276
-2
286
1
 66
0
277
-2
287
1
 67
0
278
-2
288
1
 68
0
279
-2
289
1
 69
0
  0
DICTIONARY
  5
CA6
100
AcDbDictionary
281
1
  3
Model
350
E
  0
LAYOUT
  5
E
102
{ACAD_REACTORS
330
CA6
102
}
330
CA6
100
AcDbPlotSettings
  1

  2
none_device
  4
ANSI_A_(8.50_x_11.00_Inches)
  6

 40
6.34999990463257
 41
19.0499992370606
 42
6.35000610351562
 43
19.0499877929688
 44
215.899993896484
 45
279.399993896484
 46
0
 47
0
 48
0
 49
0
 70
11952
 72
0
 73
1
 74
0
 75
0
 76
0
 77
2
 78
300
140
0
141
0
142
1
143
2.58489546470837
147
0.386862839775542
148
0
149
0
100
AcDbLayout
  1
Model
 70
1
 71
1
 10
35.2386899522654
 20
35.2386899522714
 11
564.761310047728
 21
564.761310047741
 12
0
 22
0
 32
0
 14
35.2386899522654
 24
35.2386899522714
 34
0
 15
564.761310047728
 25
564.761310047741
 35
0
146
0
 13
0
 23
0
 33
0
 16
1
 26
0
 36
0
 17
0
 27
1
 37
0
 76
0
330
2
  0
RASTERVARIABLES
  5
CA3
330
C9E
100
AcDbRasterVariables
 90
0
 70
1
 71
0
 72
0
  0
DICTIONARY
  5
CA4
100
AcDbDictionary
281
1
  3
XCLIPFRAME
350
CA7
  0
DICTIONARYVAR
  5
CA7
330
CA4
100
DictionaryVariables
280
0
  1
0
  0
DICTIONARY
  5
CA8
100
AcDbDictionary
280
1
  3
XINFO
360
CA9
  0
XRECORD
  5
CA9
102
{ACAD_REACTORS
330
CA8
102
}
330
CA8
100
AcDbXrecord
280
0
310
3C00000001000E00
311
27FAEEE24DD8449F
  0
ENDSEC
  0
EOF
