999
The file was created in CADSoftTools software
999
CADEditorX 14; 
  0
SECTION
  2
HEADER
  9
$ACADVER
  1
AC1018
  9
$DWGCODEPAGE
  3
ANSI_1252
  9
$CLAYER
  8
0
  9
$CELTYPE
  6
BYLAYER
  9
$CELTSCALE
 40
1
  9
$CELWEIGHT
370
-1
  9
$DIMALT
 70
0
  9
$DIMALTF
 40
0.03937
  9
$DIMPOST
  1

  9
$DIMAPOST
  1

  9
$DIMSCALE
 40
2.5
  9
$DIMASZ
 40
2.5
  9
$DIMCLRD
 70
0
  9
$DIMCLRE
 70
0
  9
$DIMCLRT
 70
0
  9
$DIMEXE
 40
1.25
  9
$DIMEXO
 40
0.625
  9
$DIMGAP
 40
0.625
  9
$DIMLFAC
 40
1
  9
$DIMDEC
 70
2
  9
$DIMTAD
 70
1
  9
$DIMCEN
 40
0.09
  9
$DIMTIH
 70
0
  9
$DIMTIX
 70
0
  9
$DIMTOH
 70
0
  9
$DIMSE1
 70
0
  9
$DIMSE2
 70
0
  9
$DIMSD1
 70
0
  9
$DIMSD2
 70
0
  9
$DIMLWD
 70
-2
  9
$DIMLWE
 70
-2
  9
$DIMSAH
 70
0
  9
$DIMBLK
  1

  9
$DIMBLK1
  1

  9
$DIMBLK2
  1

  9
$DIMLDRBLK
  1
_USERARROW
  9
$DIMSTYLE
  2
Standard
  9
$DIMTP
 40
0
  9
$DIMTM
 40
0
  9
$DIMTXT
 40
2.5
  9
$DIMLUNIT
 70
2
  9
$DIMDSEP
 70
44
  9
$DIMTXSTY
  7
STANDARD
  9
$TEXTSIZE
 40
2.5
  9
$TEXTSTYLE
  7
STANDARD
  9
$HANDSEED
  5
0000000000021A7E
  9
$FILLETRAD
 40
0
  9
$INSUNITS
 70
4
  9
$LIMMIN
 10
-4.17953
 20
-3.65494
  9
$LIMMAX
 10
10.3803
 20
12.4408
  9
$FILLMODE
 70
0
  9
$LTSCALE
 40
1
  9
$MEASUREMENT
 70
1
  9
$ATTMODE
 70
0
  9
$PDMODE
 70
34
  9
$PDSIZE
 40
0
  9
$TILEMODE
 70
1
  9
$UCSORG
 10
0
 20
0
 30
0
  9
$UCSXDIR
 10
1
 20
0
 30
0
  9
$UCSYDIR
 10
0
 20
1
 30
0
  9
$INSBASE
 10
0
 20
0
 30
0
  9
$XCLIPFRAME
290
0
  9
$DIMASSOC
280
1
  9
$TDCREATE
 40
2460268.52025736
  9
$TDINDWG
 40
0.000126493055555556
  9
$TDUPDATE
 40
2460268.52038385
  0
ENDSEC
  0
SECTION
  2
CLASSES
  0
CLASS
  1
IMAGE
  2
AcDbRasterImage
  3
ISM
 90
2175
 91
1
280
0
281
1
  0
CLASS
  1
IMAGEDEF
  2
AcDbRasterImageDef
  3
ISM
 90
0
 91
1
280
0
281
0
  0
CLASS
  1
WIPEOUT
  2
AcDbWipeout
  3
"WipeOut"
 90
2175
 91
1
280
0
281
1
  0
CLASS
  1
WIPEOUTVARIABLES
  2
AcDbWipeoutVariables
  3
"WipeOut"
 90
0
 91
1
280
0
281
0
  0
CLASS
  1
MPOLYGON
  2
AcDbMPolygon
  3
"AcMPolygonObj15"
 90
3071
 91
1
280
0
281
1
  0
ENDSEC
  0
SECTION
  2
TABLES
  0
TABLE
  2
APPID
  5
21A63
100
AcDbSymbolTable
  0
APPID
  5
12
100
AcDbSymbolTableRecord
100
AcDbRegAppTableRecord
  2
ACAD
 70
0
  0
APPID
  5
4B
100
AcDbSymbolTableRecord
100
AcDbRegAppTableRecord
  2
LibreCad
 70
0
  0
APPID
  5
20558
100
AcDbSymbolTableRecord
100
AcDbRegAppTableRecord
  2
CSTINVENTORY
 70
0
  0
APPID
  5
21A64
100
AcDbSymbolTableRecord
100
AcDbRegAppTableRecord
  2
AcDbAttr
 70
0
  0
APPID
  5
21A65
100
AcDbSymbolTableRecord
100
AcDbRegAppTableRecord
  2
PE_URL
 70
0
  0
ENDTAB
  0
TABLE
  2
BLOCK_RECORD
  5
21A66
100
AcDbSymbolTable
  0
BLOCK_RECORD
  5
1F
100
AcDbSymbolTableRecord
100
AcDbBlockTableRecord
  2
*MODEL_SPACE
  0
BLOCK_RECORD
  5
1E
100
AcDbSymbolTableRecord
100
AcDbBlockTableRecord
  2
*PAPER_SPACE
  0
BLOCK_RECORD
  5
20559
100
AcDbSymbolTableRecord
100
AcDbBlockTableRecord
  2
_CLOSEDFILLED
  0
BLOCK_RECORD
  5
20561
100
AcDbSymbolTableRecord
100
AcDbBlockTableRecord
  2
ABViewer_RedLine
  0
ENDTAB
  0
TABLE
  2
STYLE
  5
3
100
AcDbSymbolTable
  0
STYLE
  5
4A
100
AcDbSymbolTableRecord
100
AcDbTextStyleTableRecord
  2
Standard
 70
0
 40
0
 41
1
 50
0
 71
0
 42
1
  3
txt
  4

1001
ACAD
1000

1071
0
  0
ENDTAB
  0
TABLE
  2
LTYPE
  5
5
100
AcDbSymbolTable
  0
LTYPE
  5
16
100
AcDbSymbolTableRecord
100
AcDbLinetypeTableRecord
  2
CONTINUOUS
 70
0
  3

 72
65
 73
0
 40
0
  0
LTYPE
  5
14
100
AcDbSymbolTableRecord
100
AcDbLinetypeTableRecord
  2
BYBLOCK
 70
0
  3

 72
65
 73
0
 40
0
  0
LTYPE
  5
15
100
AcDbSymbolTableRecord
100
AcDbLinetypeTableRecord
  2
BYLAYER
 70
0
  3

 72
65
 73
0
 40
0
  0
LTYPE
  5
32
100
AcDbSymbolTableRecord
100
AcDbLinetypeTableRecord
  2
DOT
 70
0
  3
. 
 72
65
 73
2
 40
6.35
 49
0
 74
0
 49
-6.35
 74
0
  0
LTYPE
  5
33
100
AcDbSymbolTableRecord
100
AcDbLinetypeTableRecord
  2
DOTTINY
 70
0
  3
. 
 72
65
 73
2
 40
0.9525
 49
0
 74
0
 49
-0.9525
 74
0
  0
LTYPE
  5
34
100
AcDbSymbolTableRecord
100
AcDbLinetypeTableRecord
  2
DOT2
 70
0
  3
. 
 72
65
 73
2
 40
3.175
 49
0
 74
0
 49
-3.175
 74
0
  0
LTYPE
  5
35
100
AcDbSymbolTableRecord
100
AcDbLinetypeTableRecord
  2
DOTX2
 70
0
  3
. 
 72
65
 73
2
 40
12.7
 49
0
 74
0
 49
-12.7
 74
0
  0
LTYPE
  5
36
100
AcDbSymbolTableRecord
100
AcDbLinetypeTableRecord
  2
DASHED
 70
0
  3
_ 
 72
65
 73
2
 40
19.05
 49
12.7
 74
0
 49
-6.35
 74
0
  0
LTYPE
  5
37
100
AcDbSymbolTableRecord
100
AcDbLinetypeTableRecord
  2
DASHEDTINY
 70
0
  3
_ 
 72
65
 73
2
 40
2.8575
 49
1.905
 74
0
 49
-0.9525
 74
0
  0
LTYPE
  5
38
100
AcDbSymbolTableRecord
100
AcDbLinetypeTableRecord
  2
DASHED2
 70
0
  3
_ 
 72
65
 73
2
 40
9.525
 49
6.35
 74
0
 49
-3.175
 74
0
  0
LTYPE
  5
39
100
AcDbSymbolTableRecord
100
AcDbLinetypeTableRecord
  2
DASHEDX2
 70
0
  3
_ 
 72
65
 73
2
 40
38.1
 49
25.4
 74
0
 49
-12.7
 74
0
  0
LTYPE
  5
3A
100
AcDbSymbolTableRecord
100
AcDbLinetypeTableRecord
  2
DASHDOT
 70
0
  3
_ . 
 72
65
 73
4
 40
25.4
 49
12.7
 74
0
 49
-6.35
 74
0
 49
0
 74
0
 49
-6.35
 74
0
  0
LTYPE
  5
3B
100
AcDbSymbolTableRecord
100
AcDbLinetypeTableRecord
  2
DASHDOTTINY
 70
0
  3
_ . 
 72
65
 73
4
 40
3.81
 49
1.905
 74
0
 49
-0.9525
 74
0
 49
0
 74
0
 49
-0.9525
 74
0
  0
LTYPE
  5
3C
100
AcDbSymbolTableRecord
100
AcDbLinetypeTableRecord
  2
DASHDOT2
 70
0
  3
_ . 
 72
65
 73
4
 40
12.7
 49
6.35
 74
0
 49
-3.175
 74
0
 49
0
 74
0
 49
-3.175
 74
0
  0
LTYPE
  5
3D
100
AcDbSymbolTableRecord
100
AcDbLinetypeTableRecord
  2
DASHDOTX2
 70
0
  3
_ . 
 72
65
 73
4
 40
50.8
 49
25.4
 74
0
 49
-12.7
 74
0
 49
0
 74
0
 49
-12.7
 74
0
  0
LTYPE
  5
3E
100
AcDbSymbolTableRecord
100
AcDbLinetypeTableRecord
  2
DIVIDE
 70
0
  3
_ . . 
 72
65
 73
6
 40
31.75
 49
12.7
 74
0
 49
-6.35
 74
0
 49
0
 74
0
 49
-6.35
 74
0
 49
0
 74
0
 49
-6.35
 74
0
  0
LTYPE
  5
3F
100
AcDbSymbolTableRecord
100
AcDbLinetypeTableRecord
  2
DIVIDETINY
 70
0
  3
_ . . 
 72
65
 73
6
 40
4.7625
 49
1.905
 74
0
 49
-0.9525
 74
0
 49
0
 74
0
 49
-0.9525
 74
0
 49
0
 74
0
 49
-0.9525
 74
0
  0
LTYPE
  5
40
100
AcDbSymbolTableRecord
100
AcDbLinetypeTableRecord
  2
DIVIDE2
 70
0
  3
_ . . 
 72
65
 73
6
 40
15.875
 49
6.35
 74
0
 49
-3.175
 74
0
 49
0
 74
0
 49
-3.175
 74
0
 49
0
 74
0
 49
-3.175
 74
0
  0
LTYPE
  5
41
100
AcDbSymbolTableRecord
100
AcDbLinetypeTableRecord
  2
DIVIDEX2
 70
0
  3
_ . . 
 72
65
 73
6
 40
63.5
 49
25.4
 74
0
 49
-12.7
 74
0
 49
0
 74
0
 49
-12.7
 74
0
 49
0
 74
0
 49
-12.7
 74
0
  0
LTYPE
  5
42
100
AcDbSymbolTableRecord
100
AcDbLinetypeTableRecord
  2
BORDER
 70
0
  3
_ _ . 
 72
65
 73
6
 40
44.45
 49
12.7
 74
0
 49
-6.35
 74
0
 49
12.7
 74
0
 49
-6.35
 74
0
 49
0
 74
0
 49
-6.35
 74
0
  0
LTYPE
  5
43
100
AcDbSymbolTableRecord
100
AcDbLinetypeTableRecord
  2
BORDERTINY
 70
0
  3
_ _ . 
 72
65
 73
6
 40
6.6675
 49
1.905
 74
0
 49
-0.9525
 74
0
 49
1.905
 74
0
 49
-0.9525
 74
0
 49
0
 74
0
 49
-0.9525
 74
0
  0
LTYPE
  5
44
100
AcDbSymbolTableRecord
100
AcDbLinetypeTableRecord
  2
BORDER2
 70
0
  3
_ _ . 
 72
65
 73
6
 40
22.225
 49
6.35
 74
0
 49
-3.175
 74
0
 49
6.35
 74
0
 49
-3.175
 74
0
 49
0
 74
0
 49
-3.175
 74
0
  0
LTYPE
  5
45
100
AcDbSymbolTableRecord
100
AcDbLinetypeTableRecord
  2
BORDERX2
 70
0
  3
_ _ . 
 72
65
 73
6
 40
88.9
 49
25.4
 74
0
 49
-12.7
 74
0
 49
25.4
 74
0
 49
-12.7
 74
0
 49
0
 74
0
 49
-12.7
 74
0
  0
LTYPE
  5
46
100
AcDbSymbolTableRecord
100
AcDbLinetypeTableRecord
  2
CENTER
 70
0
  3
_ _ 
 72
65
 73
4
 40
50.8
 49
31.75
 74
0
 49
-6.35
 74
0
 49
6.35
 74
0
 49
-6.35
 74
0
  0
LTYPE
  5
47
100
AcDbSymbolTableRecord
100
AcDbLinetypeTableRecord
  2
CENTERTINY
 70
0
  3
_ _ 
 72
65
 73
4
 40
7.62
 49
4.7625
 74
0
 49
-0.9525
 74
0
 49
0.9525
 74
0
 49
-0.9525
 74
0
  0
LTYPE
  5
48
100
AcDbSymbolTableRecord
100
AcDbLinetypeTableRecord
  2
CENTER2
 70
0
  3
_ _ 
 72
65
 73
4
 40
28.575
 49
19.05
 74
0
 49
-3.175
 74
0
 49
3.175
 74
0
 49
-3.175
 74
0
  0
LTYPE
  5
49
100
AcDbSymbolTableRecord
100
AcDbLinetypeTableRecord
  2
CENTERX2
 70
0
  3
_ _ 
 72
65
 73
4
 40
101.6
 49
63.5
 74
0
 49
-12.7
 74
0
 49
12.7
 74
0
 49
-12.7
 74
0
  0
LTYPE
  5
20562
100
AcDbSymbolTableRecord
100
AcDbLinetypeTableRecord
  2
ISO dash
 70
0
  3
_ 
 72
65
 73
2
 40
1.5
 49
1.2
 74
0
 49
-0.3
 74
0
  0
LTYPE
  5
20563
100
AcDbSymbolTableRecord
100
AcDbLinetypeTableRecord
  2
ISO dot
 70
0
  3
. 
 72
65
 73
2
 40
0.3
 49
0
 74
0
 49
-0.3
 74
0
  0
LTYPE
  5
20564
100
AcDbSymbolTableRecord
100
AcDbLinetypeTableRecord
  2
ISO dash dot
 70
0
  3
_ . 
 72
65
 73
4
 40
1.8
 49
1.2
 74
0
 49
-0.3
 74
0
 49
0
 74
0
 49
-0.3
 74
0
  0
LTYPE
  5
20565
100
AcDbSymbolTableRecord
100
AcDbLinetypeTableRecord
  2
ISO dash double-dot
 70
0
  3
_ . . 
 72
65
 73
6
 40
2.1
 49
1.2
 74
0
 49
-0.3
 74
0
 49
0
 74
0
 49
-0.3
 74
0
 49
0
 74
0
 49
-0.3
 74
0
  0
LTYPE
  5
20566
100
AcDbSymbolTableRecord
100
AcDbLinetypeTableRecord
  2
ISO dash triple-dot
 70
0
  3
_ . . . 
 72
65
 73
8
 40
2.4
 49
1.2
 74
0
 49
-0.3
 74
0
 49
0
 74
0
 49
-0.3
 74
0
 49
0
 74
0
 49
-0.3
 74
0
 49
0
 74
0
 49
-0.3
 74
0
  0
LTYPE
  5
20567
100
AcDbSymbolTableRecord
100
AcDbLinetypeTableRecord
  2
ISO dash long gaps
 70
0
  3
_ 
 72
65
 73
2
 40
3
 49
1.2
 74
0
 49
-1.8
 74
0
  0
ENDTAB
  0
TABLE
  2
LAYER
  5
2
100
AcDbSymbolTable
  0
LAYER
  5
10
100
AcDbSymbolTableRecord
100
AcDbLayerTableRecord
  2
0
 70
0
 62
7
  6
CONTINUOUS
290
1
370
-3
390
0
  0
ENDTAB
  0
TABLE
  2
VPORT
  5
21A67
100
AcDbSymbolTable
  0
VPORT
  5
21A69
100
AcDbSymbolTableRecord
100
AcDbViewportTableRecord
  2
*ACTIVE
 70
0
 10
0
 20
0
 11
1
 21
1
 12
13.9610113401099
 22
7.31390762985443
 32
-6.2233204700668E-17
 13
0
 23
0
 14
1
 24
1
 15
1
 25
1
 16
0
 26
0
 36
1
 17
0
 27
0
 37
0
 40
22.1812921182868
 41
2.11522633744856
 42
50
 43
0
 44
0
 50
0
 51
0
 71
0
 72
100
 73
1
 74
1
 75
0
 76
0
 77
0
 78
0
  0
ENDTAB
  0
TABLE
  2
VIEW
  5
21A6A
100
AcDbSymbolTable
  0
ENDTAB
  0
TABLE
  2
UCS
  5
21A6B
100
AcDbSymbolTable
  0
ENDTAB
  0
TABLE
  2
DIMSTYLE
  5
A
100
AcDbSymbolTable
 70
1
100
AcDbDimStyleTable
 71
0
  0
DIMSTYLE
105
4C
100
AcDbSymbolTableRecord
100
AcDbDimStyleTableRecord
  2
Standard
 70
0
  3

 40
1
 41
2.5
 42
0.625
 44
1.25
 47
0
 48
0
 73
0
 74
1
 75
0
 76
0
 77
0
140
2.5
141
0.09
144
1
147
0.625
173
0
174
0
176
0
177
0
178
0
277
2
278
0
281
0
282
0
271
2
340
4A
371
-2
372
-2
  0
ENDTAB
  0
ENDSEC
  0
SECTION
  2
BLOCKS
  0
BLOCK
  5
21A6C
100
AcDbEntity
  8
0
100
AcDbBlockBegin
  2
*MODEL_SPACE
 70
0
 10
0
 20
0
  0
ENDBLK
  5
21A6D
100
AcDbEntity
  8
0
100
AcDbBlockEnd
  0
BLOCK
  5
21A6E
100
AcDbEntity
  8
0
100
AcDbBlockBegin
  2
*PAPER_SPACE
 70
0
 10
0
 20
0
  0
ENDBLK
  5
21A6F
100
AcDbEntity
  8
0
100
AcDbBlockEnd
  0
BLOCK
  5
2000E
100
AcDbEntity
  8
0
100
AcDbBlockBegin
  2
_CLOSEDFILLED
 70
0
 10
0
 20
0
 30
0
  3
_CLOSEDFILLED
  1

  0
SOLID
  5
2000C
100
AcDbEntity
  8
0
100
AcDbTrace
370
-2
 62
0
 10
-1
 20
0.166666666666667
 30
0
 11
0
 21
0
 31
0
 12
-1
 22
0.166666666666667
 32
0
 13
-1
 23
-0.166666666666667
 33
0
  0
LINE
  5
2000D
100
AcDbEntity
  8
0
100
AcDbLine
370
-2
 62
0
 10
-1
 20
0
 30
0
 11
-2
 21
0
 31
0
  0
ENDBLK
  5
21A70
100
AcDbEntity
  8
0
100
AcDbBlockEnd
  0
BLOCK
  5
20560
100
AcDbEntity
  8
0
100
AcDbBlockBegin
  2
ABViewer_RedLine
 70
0
 10
0
 20
0
 30
0
  3
ABViewer_RedLine
  1

  0
ENDBLK
  5
21A71
100
AcDbEntity
  8
0
100
AcDbBlockEnd
  0
ENDSEC
  0
SECTION
  2
ENTITIES
  0
LINE
  5
20ABB
100
AcDbEntity
  8
0
100
AcDbLine
370
-1
 62
142
  6
BYLAYER
 10
-3.98133
 20
3.64654
 30
0
 11
-4.00581
 21
3.74881
 31
0
  0
LINE
  5
20ABC
100
AcDbEntity
  8
0
100
AcDbLine
370
-1
 62
142
  6
BYLAYER
 10
-4.00581
 20
3.74881
 30
0
 11
-4.06743
 21
4.05826
 31
0
  0
LINE
  5
20ABD
100
AcDbEntity
  8
0
100
AcDbLine
370
-1
 62
142
  6
BYLAYER
 10
-4.06743
 20
4.05826
 30
0
 11
-4.12879
 21
4.46886
 31
0
  0
LINE
  5
20ABE
100
AcDbEntity
  8
0
100
AcDbLine
370
-1
 62
142
  6
BYLAYER
 10
-4.12879
 20
4.46886
 30
0
 11
-4.16601
 21
4.87761
 31
0
  0
LINE
  5
20ABF
100
AcDbEntity
  8
0
100
AcDbLine
370
-1
 62
142
  6
BYLAYER
 10
-4.16601
 20
4.87761
 30
0
 11
-4.17953
 21
5.28364
 31
0
  0
LINE
  5
20AC0
100
AcDbEntity
  8
0
100
AcDbLine
370
-1
 62
142
  6
BYLAYER
 10
-4.17953
 20
5.28364
 30
0
 11
-4.16982
 21
5.68631
 31
0
  0
LINE
  5
20AC1
100
AcDbEntity
  8
0
100
AcDbLine
370
-1
 62
142
  6
BYLAYER
 10
-4.16982
 20
5.68631
 30
0
 11
-4.13737
 21
6.08475
 31
0
  0
LINE
  5
20AC2
100
AcDbEntity
  8
0
100
AcDbLine
370
-1
 62
142
  6
BYLAYER
 10
-4.13737
 20
6.08475
 30
0
 11
-4.08268
 21
6.47819
 31
0
  0
LINE
  5
20AC3
100
AcDbEntity
  8
0
100
AcDbLine
370
-1
 62
142
  6
BYLAYER
 10
-4.08268
 20
6.47819
 30
0
 11
-4.00624
 21
6.86594
 31
0
  0
LINE
  5
20AC4
100
AcDbEntity
  8
0
100
AcDbLine
370
-1
 62
142
  6
BYLAYER
 10
-4.00624
 20
6.86594
 30
0
 11
-3.90853
 21
7.24713
 31
0
  0
LINE
  5
20AC5
100
AcDbEntity
  8
0
100
AcDbLine
370
-1
 62
142
  6
BYLAYER
 10
-3.90853
 20
7.24713
 30
0
 11
-3.78999
 21
7.62104
 31
0
  0
LINE
  5
20AC6
100
AcDbEntity
  8
0
100
AcDbLine
370
-1
 62
142
  6
BYLAYER
 10
-3.78999
 20
7.62104
 30
0
 11
-3.65115
 21
7.98693
 31
0
  0
LINE
  5
20AC7
100
AcDbEntity
  8
0
100
AcDbLine
370
-1
 62
142
  6
BYLAYER
 10
-3.65115
 20
7.98693
 30
0
 11
-3.49246
 21
8.34392
 31
0
  0
LINE
  5
20AC8
100
AcDbEntity
  8
0
100
AcDbLine
370
-1
 62
142
  6
BYLAYER
 10
-3.49246
 20
8.34392
 30
0
 11
-3.31446
 21
8.69135
 31
0
  0
LINE
  5
20AC9
100
AcDbEntity
  8
0
100
AcDbLine
370
-1
 62
142
  6
BYLAYER
 10
-3.31446
 20
8.69135
 30
0
 11
-3.11757
 21
9.02843
 31
0
  0
LINE
  5
20ACA
100
AcDbEntity
  8
0
100
AcDbLine
370
-1
 62
142
  6
BYLAYER
 10
-3.11757
 20
9.02843
 30
0
 11
-2.90229
 21
9.35433
 31
0
  0
LINE
  5
20ACB
100
AcDbEntity
  8
0
100
AcDbLine
370
-1
 62
142
  6
BYLAYER
 10
-2.90229
 20
9.35433
 30
0
 11
-2.66917
 21
9.66829
 31
0
  0
LINE
  5
20ACC
100
AcDbEntity
  8
0
100
AcDbLine
370
-1
 62
142
  6
BYLAYER
 10
-2.66917
 20
9.66829
 30
0
 11
-2.41857
 21
9.96957
 31
0
  0
LINE
  5
20ACD
100
AcDbEntity
  8
0
100
AcDbLine
370
-1
 62
142
  6
BYLAYER
 10
-2.41857
 20
9.96957
 30
0
 11
-2.1511
 21
10.2574
 31
0
  0
LINE
  5
20ACE
100
AcDbEntity
  8
0
100
AcDbLine
370
-1
 62
142
  6
BYLAYER
 10
-2.1511
 20
10.2574
 30
0
 11
-1.86714
 21
10.531
 31
0
  0
LINE
  5
20ACF
100
AcDbEntity
  8
0
100
AcDbLine
370
-1
 62
142
  6
BYLAYER
 10
-1.86714
 20
10.531
 30
0
 11
-1.56722
 21
10.7896
 31
0
  0
LINE
  5
20AD0
100
AcDbEntity
  8
0
100
AcDbLine
370
-1
 62
142
  6
BYLAYER
 10
-1.56722
 20
10.7896
 30
0
 11
-1.25184
 21
11.0324
 31
0
  0
LINE
  5
20AD1
100
AcDbEntity
  8
0
100
AcDbLine
370
-1
 62
142
  6
BYLAYER
 10
-1.25184
 20
11.0324
 30
0
 11
-0.921496
 21
11.2586
 31
0
  0
LINE
  5
20AD2
100
AcDbEntity
  8
0
100
AcDbLine
370
-1
 62
142
  6
BYLAYER
 10
-0.921496
 20
11.2586
 30
0
 11
-0.576606
 21
11.4676
 31
0
  0
LINE
  5
20AD3
100
AcDbEntity
  8
0
100
AcDbLine
370
-1
 62
142
  6
BYLAYER
 10
-0.576606
 20
11.4676
 30
0
 11
-0.217719
 21
11.6584
 31
0
  0
LINE
  5
20AD4
100
AcDbEntity
  8
0
100
AcDbLine
370
-1
 62
142
  6
BYLAYER
 10
-0.217719
 20
11.6584
 30
0
 11
0.154731
 21
11.8303
 31
0
  0
LINE
  5
20AD5
100
AcDbEntity
  8
0
100
AcDbLine
370
-1
 62
142
  6
BYLAYER
 10
0.154731
 20
11.8303
 30
0
 11
0.540201
 21
11.9826
 31
0
  0
LINE
  5
20AD6
100
AcDbEntity
  8
0
100
AcDbLine
370
-1
 62
142
  6
BYLAYER
 10
0.540201
 20
11.9826
 30
0
 11
0.938314
 21
12.1145
 31
0
  0
LINE
  5
20AD7
100
AcDbEntity
  8
0
100
AcDbLine
370
-1
 62
142
  6
BYLAYER
 10
0.938314
 20
12.1145
 30
0
 11
1.34847
 21
12.2253
 31
0
  0
LINE
  5
20AD8
100
AcDbEntity
  8
0
100
AcDbLine
370
-1
 62
142
  6
BYLAYER
 10
1.34847
 20
12.2253
 30
0
 11
1.77024
 21
12.314
 31
0
  0
LINE
  5
20AD9
100
AcDbEntity
  8
0
100
AcDbLine
370
-1
 62
142
  6
BYLAYER
 10
1.77024
 20
12.314
 30
0
 11
2.20313
 21
12.38
 31
0
  0
LINE
  5
20ADA
100
AcDbEntity
  8
0
100
AcDbLine
370
-1
 62
142
  6
BYLAYER
 10
2.20313
 20
12.38
 30
0
 11
2.64665
 21
12.4226
 31
0
  0
LINE
  5
20ADB
100
AcDbEntity
  8
0
100
AcDbLine
370
-1
 62
142
  6
BYLAYER
 10
2.64665
 20
12.4226
 30
0
 11
2.98687
 21
12.4394
 31
0
  0
LINE
  5
20ADC
100
AcDbEntity
  8
0
100
AcDbLine
370
-1
 62
142
  6
BYLAYER
 10
2.98687
 20
12.4394
 30
0
 11
3.10038
 21
12.4408
 31
0
  0
LINE
  5
20ADD
100
AcDbEntity
  8
0
100
AcDbLine
370
-1
 62
142
  6
BYLAYER
 10
3.10038
 20
12.4408
 30
0
 11
3.21382
 21
12.4394
 31
0
  0
LINE
  5
20ADE
100
AcDbEntity
  8
0
100
AcDbLine
370
-1
 62
142
  6
BYLAYER
 10
3.21382
 20
12.4394
 30
0
 11
3.55404
 21
12.4226
 31
0
  0
LINE
  5
20ADF
100
AcDbEntity
  8
0
100
AcDbLine
370
-1
 62
142
  6
BYLAYER
 10
3.55404
 20
12.4226
 30
0
 11
3.99756
 21
12.38
 31
0
  0
LINE
  5
20AE0
100
AcDbEntity
  8
0
100
AcDbLine
370
-1
 62
142
  6
BYLAYER
 10
3.99756
 20
12.38
 30
0
 11
4.43044
 21
12.314
 31
0
  0
LINE
  5
20AE1
100
AcDbEntity
  8
0
100
AcDbLine
370
-1
 62
142
  6
BYLAYER
 10
4.43044
 20
12.314
 30
0
 11
4.85226
 21
12.2253
 31
0
  0
LINE
  5
20AE2
100
AcDbEntity
  8
0
100
AcDbLine
370
-1
 62
142
  6
BYLAYER
 10
4.85226
 20
12.2253
 30
0
 11
5.26243
 21
12.1145
 31
0
  0
LINE
  5
20AE3
100
AcDbEntity
  8
0
100
AcDbLine
370
-1
 62
142
  6
BYLAYER
 10
5.26243
 20
12.1145
 30
0
 11
5.66049
 21
11.9826
 31
0
  0
LINE
  5
20AE4
100
AcDbEntity
  8
0
100
AcDbLine
370
-1
 62
142
  6
BYLAYER
 10
5.66049
 20
11.9826
 30
0
 11
6.04601
 21
11.8303
 31
0
  0
LINE
  5
20AE5
100
AcDbEntity
  8
0
100
AcDbLine
370
-1
 62
142
  6
BYLAYER
 10
6.04601
 20
11.8303
 30
0
 11
6.41846
 21
11.6584
 31
0
  0
LINE
  5
20AE6
100
AcDbEntity
  8
0
100
AcDbLine
370
-1
 62
142
  6
BYLAYER
 10
6.41846
 20
11.6584
 30
0
 11
6.77735
 21
11.4676
 31
0
  0
LINE
  5
20AE7
100
AcDbEntity
  8
0
100
AcDbLine
370
-1
 62
142
  6
BYLAYER
 10
6.77735
 20
11.4676
 30
0
 11
7.12224
 21
11.2586
 31
0
  0
LINE
  5
20AE8
100
AcDbEntity
  8
0
100
AcDbLine
370
-1
 62
142
  6
BYLAYER
 10
7.12224
 20
11.2586
 30
0
 11
7.45258
 21
11.0324
 31
0
  0
LINE
  5
20AE9
100
AcDbEntity
  8
0
100
AcDbLine
370
-1
 62
142
  6
BYLAYER
 10
7.45258
 20
11.0324
 30
0
 11
7.76796
 21
10.7896
 31
0
  0
LINE
  5
20AEA
100
AcDbEntity
  8
0
100
AcDbLine
370
-1
 62
142
  6
BYLAYER
 10
7.76796
 20
10.7896
 30
0
 11
8.06788
 21
10.531
 31
0
  0
LINE
  5
20AEB
100
AcDbEntity
  8
0
100
AcDbLine
370
-1
 62
142
  6
BYLAYER
 10
8.06788
 20
10.531
 30
0
 11
8.35183
 21
10.2574
 31
0
  0
LINE
  5
20AEC
100
AcDbEntity
  8
0
100
AcDbLine
370
-1
 62
142
  6
BYLAYER
 10
8.35183
 20
10.2574
 30
0
 11
8.61931
 21
9.96957
 31
0
  0
LINE
  5
20AED
100
AcDbEntity
  8
0
100
AcDbLine
370
-1
 62
142
  6
BYLAYER
 10
8.61931
 20
9.96957
 30
0
 11
8.8699
 21
9.66829
 31
0
  0
LINE
  5
20AEE
100
AcDbEntity
  8
0
100
AcDbLine
370
-1
 62
142
  6
BYLAYER
 10
8.8699
 20
9.66829
 30
0
 11
9.10303
 21
9.35433
 31
0
  0
LINE
  5
20AEF
100
AcDbEntity
  8
0
100
AcDbLine
370
-1
 62
142
  6
BYLAYER
 10
9.10303
 20
9.35433
 30
0
 11
9.31831
 21
9.02843
 31
0
  0
LINE
  5
20AF0
100
AcDbEntity
  8
0
100
AcDbLine
370
-1
 62
142
  6
BYLAYER
 10
9.31831
 20
9.02843
 30
0
 11
9.51519
 21
8.69135
 31
0
  0
LINE
  5
20AF1
100
AcDbEntity
  8
0
100
AcDbLine
370
-1
 62
142
  6
BYLAYER
 10
9.51519
 20
8.69135
 30
0
 11
9.69319
 21
8.34392
 31
0
  0
LINE
  5
20AF2
100
AcDbEntity
  8
0
100
AcDbLine
370
-1
 62
142
  6
BYLAYER
 10
9.69319
 20
8.34392
 30
0
 11
9.85189
 21
7.98693
 31
0
  0
LINE
  5
20AF3
100
AcDbEntity
  8
0
100
AcDbLine
370
-1
 62
142
  6
BYLAYER
 10
9.85189
 20
7.98693
 30
0
 11
9.99072
 21
7.62104
 31
0
  0
LINE
  5
20AF4
100
AcDbEntity
  8
0
100
AcDbLine
370
-1
 62
142
  6
BYLAYER
 10
9.99072
 20
7.62104
 30
0
 11
10.1093
 21
7.24713
 31
0
  0
LINE
  5
20AF5
100
AcDbEntity
  8
0
100
AcDbLine
370
-1
 62
142
  6
BYLAYER
 10
10.1093
 20
7.24713
 30
0
 11
10.207
 21
6.86594
 31
0
  0
LINE
  5
20AF6
100
AcDbEntity
  8
0
100
AcDbLine
370
-1
 62
142
  6
BYLAYER
 10
10.207
 20
6.86594
 30
0
 11
10.2834
 21
6.47819
 31
0
  0
LINE
  5
20AF7
100
AcDbEntity
  8
0
100
AcDbLine
370
-1
 62
142
  6
BYLAYER
 10
10.2834
 20
6.47819
 30
0
 11
10.3381
 21
6.08475
 31
0
  0
LINE
  5
20AF8
100
AcDbEntity
  8
0
100
AcDbLine
370
-1
 62
142
  6
BYLAYER
 10
10.3381
 20
6.08475
 30
0
 11
10.3706
 21
5.68631
 31
0
  0
LINE
  5
20AF9
100
AcDbEntity
  8
0
100
AcDbLine
370
-1
 62
142
  6
BYLAYER
 10
10.3706
 20
5.68631
 30
0
 11
10.3803
 21
5.28364
 31
0
  0
LINE
  5
20AFA
100
AcDbEntity
  8
0
100
AcDbLine
370
-1
 62
142
  6
BYLAYER
 10
10.3803
 20
5.28364
 30
0
 11
10.3668
 21
4.87761
 31
0
  0
LINE
  5
20AFB
100
AcDbEntity
  8
0
100
AcDbLine
370
-1
 62
142
  6
BYLAYER
 10
10.3668
 20
4.87761
 30
0
 11
10.3295
 21
4.46886
 31
0
  0
LINE
  5
20AFC
100
AcDbEntity
  8
0
100
AcDbLine
370
-1
 62
142
  6
BYLAYER
 10
10.3295
 20
4.46886
 30
0
 11
10.2682
 21
4.05826
 31
0
  0
LINE
  5
20AFD
100
AcDbEntity
  8
0
100
AcDbLine
370
-1
 62
142
  6
BYLAYER
 10
10.2682
 20
4.05826
 30
0
 11
10.2065
 21
3.74881
 31
0
  0
LINE
  5
20AFE
100
AcDbEntity
  8
0
100
AcDbLine
370
-1
 62
142
  6
BYLAYER
 10
10.2065
 20
3.74881
 30
0
 11
10.1821
 21
3.64654
 31
0
  0
LINE
  5
20AFF
100
AcDbEntity
  8
0
100
AcDbLine
370
-1
 62
142
  6
BYLAYER
 10
10.1821
 20
3.64654
 30
0
 11
8.93576
 21
3.64654
 31
0
  0
LINE
  5
20B00
100
AcDbEntity
  8
0
100
AcDbLine
370
-1
 62
142
  6
BYLAYER
 10
8.93576
 20
3.64654
 30
0
 11
8.95622
 21
3.72999
 31
0
  0
LINE
  5
20B01
100
AcDbEntity
  8
0
100
AcDbLine
370
-1
 62
142
  6
BYLAYER
 10
8.95622
 20
3.72999
 30
0
 11
9.00831
 21
3.98253
 31
0
  0
LINE
  5
20B02
100
AcDbEntity
  8
0
100
AcDbLine
370
-1
 62
142
  6
BYLAYER
 10
9.00831
 20
3.98253
 30
0
 11
9.06179
 21
4.31993
 31
0
  0
LINE
  5
20B03
100
AcDbEntity
  8
0
100
AcDbLine
370
-1
 62
142
  6
BYLAYER
 10
9.06179
 20
4.31993
 30
0
 11
9.09657
 21
4.65788
 31
0
  0
LINE
  5
20B04
100
AcDbEntity
  8
0
100
AcDbLine
370
-1
 62
142
  6
BYLAYER
 10
9.09657
 20
4.65788
 30
0
 11
9.11285
 21
4.99571
 31
0
  0
LINE
  5
20B05
100
AcDbEntity
  8
0
100
AcDbLine
370
-1
 62
142
  6
BYLAYER
 10
9.11285
 20
4.99571
 30
0
 11
9.11089
 21
5.33263
 31
0
  0
LINE
  5
20B06
100
AcDbEntity
  8
0
100
AcDbLine
370
-1
 62
142
  6
BYLAYER
 10
9.11089
 20
5.33263
 30
0
 11
9.09093
 21
5.66781
 31
0
  0
LINE
  5
20B07
100
AcDbEntity
  8
0
100
AcDbLine
370
-1
 62
142
  6
BYLAYER
 10
9.09093
 20
5.66781
 30
0
 11
9.05328
 21
6.00043
 31
0
  0
LINE
  5
20B08
100
AcDbEntity
  8
0
100
AcDbLine
370
-1
 62
142
  6
BYLAYER
 10
9.05328
 20
6.00043
 30
0
 11
8.9981
 21
6.32986
 31
0
  0
LINE
  5
20B09
100
AcDbEntity
  8
0
100
AcDbLine
370
-1
 62
142
  6
BYLAYER
 10
8.9981
 20
6.32986
 30
0
 11
8.92572
 21
6.65517
 31
0
  0
LINE
  5
20B0A
100
AcDbEntity
  8
0
100
AcDbLine
370
-1
 62
142
  6
BYLAYER
 10
8.92572
 20
6.65517
 30
0
 11
8.83643
 21
6.97564
 31
0
  0
LINE
  5
20B0B
100
AcDbEntity
  8
0
100
AcDbLine
370
-1
 62
142
  6
BYLAYER
 10
8.83643
 20
6.97564
 30
0
 11
8.73036
 21
7.29053
 31
0
  0
LINE
  5
20B0C
100
AcDbEntity
  8
0
100
AcDbLine
370
-1
 62
142
  6
BYLAYER
 10
8.73036
 20
7.29053
 30
0
 11
8.60792
 21
7.59896
 31
0
  0
LINE
  5
20B0D
100
AcDbEntity
  8
0
100
AcDbLine
370
-1
 62
142
  6
BYLAYER
 10
8.60792
 20
7.59896
 30
0
 11
8.46924
 21
7.90022
 31
0
  0
LINE
  5
20B0E
100
AcDbEntity
  8
0
100
AcDbLine
370
-1
 62
142
  6
BYLAYER
 10
8.46924
 20
7.90022
 30
0
 11
8.31461
 21
8.19358
 31
0
  0
LINE
  5
20B0F
100
AcDbEntity
  8
0
100
AcDbLine
370
-1
 62
142
  6
BYLAYER
 10
8.31461
 20
8.19358
 30
0
 11
8.14438
 21
8.47814
 31
0
  0
LINE
  5
20B10
100
AcDbEntity
  8
0
100
AcDbLine
370
-1
 62
142
  6
BYLAYER
 10
8.14438
 20
8.47814
 30
0
 11
7.95865
 21
8.75319
 31
0
  0
LINE
  5
20B11
100
AcDbEntity
  8
0
100
AcDbLine
370
-1
 62
142
  6
BYLAYER
 10
7.95865
 20
8.75319
 30
0
 11
7.75782
 21
9.01796
 31
0
  0
LINE
  5
20B12
100
AcDbEntity
  8
0
100
AcDbLine
370
-1
 62
142
  6
BYLAYER
 10
7.75782
 20
9.01796
 30
0
 11
7.54204
 21
9.2716
 31
0
  0
LINE
  5
20B13
100
AcDbEntity
  8
0
100
AcDbLine
370
-1
 62
142
  6
BYLAYER
 10
7.54204
 20
9.2716
 30
0
 11
7.31168
 21
9.5134
 31
0
  0
LINE
  5
20B14
100
AcDbEntity
  8
0
100
AcDbLine
370
-1
 62
142
  6
BYLAYER
 10
7.31168
 20
9.5134
 30
0
 11
7.06689
 21
9.74257
 31
0
  0
LINE
  5
20B15
100
AcDbEntity
  8
0
100
AcDbLine
370
-1
 62
142
  6
BYLAYER
 10
7.06689
 20
9.74257
 30
0
 11
6.80794
 21
9.95833
 31
0
  0
LINE
  5
20B16
100
AcDbEntity
  8
0
100
AcDbLine
370
-1
 62
142
  6
BYLAYER
 10
6.80794
 20
9.95833
 30
0
 11
6.53515
 21
10.1599
 31
0
  0
LINE
  5
20B17
100
AcDbEntity
  8
0
100
AcDbLine
370
-1
 62
142
  6
BYLAYER
 10
6.53515
 20
10.1599
 30
0
 11
6.24869
 21
10.3464
 31
0
  0
LINE
  5
20B18
100
AcDbEntity
  8
0
100
AcDbLine
370
-1
 62
142
  6
BYLAYER
 10
6.24869
 20
10.3464
 30
0
 11
5.94894
 21
10.5172
 31
0
  0
LINE
  5
20B19
100
AcDbEntity
  8
0
100
AcDbLine
370
-1
 62
142
  6
BYLAYER
 10
5.94894
 20
10.5172
 30
0
 11
5.63601
 21
10.6715
 31
0
  0
LINE
  5
20B1A
100
AcDbEntity
  8
0
100
AcDbLine
370
-1
 62
142
  6
BYLAYER
 10
5.63601
 20
10.6715
 30
0
 11
5.31028
 21
10.8084
 31
0
  0
LINE
  5
20B1B
100
AcDbEntity
  8
0
100
AcDbLine
370
-1
 62
142
  6
BYLAYER
 10
5.31028
 20
10.8084
 30
0
 11
4.97194
 21
10.9273
 31
0
  0
LINE
  5
20B1C
100
AcDbEntity
  8
0
100
AcDbLine
370
-1
 62
142
  6
BYLAYER
 10
4.97194
 20
10.9273
 30
0
 11
4.62125
 21
11.0272
 31
0
  0
LINE
  5
20B1D
100
AcDbEntity
  8
0
100
AcDbLine
370
-1
 62
142
  6
BYLAYER
 10
4.62125
 20
11.0272
 30
0
 11
4.25851
 21
11.1075
 31
0
  0
LINE
  5
20B1E
100
AcDbEntity
  8
0
100
AcDbLine
370
-1
 62
142
  6
BYLAYER
 10
4.25851
 20
11.1075
 30
0
 11
3.88396
 21
11.1673
 31
0
  0
LINE
  5
20B1F
100
AcDbEntity
  8
0
100
AcDbLine
370
-1
 62
142
  6
BYLAYER
 10
3.88396
 20
11.1673
 30
0
 11
3.49778
 21
11.2059
 31
0
  0
LINE
  5
20B20
100
AcDbEntity
  8
0
100
AcDbLine
370
-1
 62
142
  6
BYLAYER
 10
3.49778
 20
11.2059
 30
0
 11
3.19971
 21
11.2212
 31
0
  0
LINE
  5
20B21
100
AcDbEntity
  8
0
100
AcDbLine
370
-1
 62
142
  6
BYLAYER
 10
3.19971
 20
11.2212
 30
0
 11
3.10038
 21
11.2225
 31
0
  0
LINE
  5
20B22
100
AcDbEntity
  8
0
100
AcDbLine
370
-1
 62
142
  6
BYLAYER
 10
3.10038
 20
11.2225
 30
0
 11
3.00097
 21
11.2212
 31
0
  0
LINE
  5
20B23
100
AcDbEntity
  8
0
100
AcDbLine
370
-1
 62
142
  6
BYLAYER
 10
3.00097
 20
11.2212
 30
0
 11
2.7029
 21
11.2059
 31
0
  0
LINE
  5
20B24
100
AcDbEntity
  8
0
100
AcDbLine
370
-1
 62
142
  6
BYLAYER
 10
2.7029
 20
11.2059
 30
0
 11
2.31674
 21
11.1673
 31
0
  0
LINE
  5
20B25
100
AcDbEntity
  8
0
100
AcDbLine
370
-1
 62
142
  6
BYLAYER
 10
2.31674
 20
11.1673
 30
0
 11
1.94217
 21
11.1075
 31
0
  0
LINE
  5
20B26
100
AcDbEntity
  8
0
100
AcDbLine
370
-1
 62
142
  6
BYLAYER
 10
1.94217
 20
11.1075
 30
0
 11
1.57943
 21
11.0272
 31
0
  0
LINE
  5
20B27
100
AcDbEntity
  8
0
100
AcDbLine
370
-1
 62
142
  6
BYLAYER
 10
1.57943
 20
11.0272
 30
0
 11
1.22879
 21
10.9273
 31
0
  0
LINE
  5
20B28
100
AcDbEntity
  8
0
100
AcDbLine
370
-1
 62
142
  6
BYLAYER
 10
1.22879
 20
10.9273
 30
0
 11
0.890408
 21
10.8084
 31
0
  0
LINE
  5
20B29
100
AcDbEntity
  8
0
100
AcDbLine
370
-1
 62
142
  6
BYLAYER
 10
0.890408
 20
10.8084
 30
0
 11
0.564671
 21
10.6715
 31
0
  0
LINE
  5
20B2A
100
AcDbEntity
  8
0
100
AcDbLine
370
-1
 62
142
  6
BYLAYER
 10
0.564671
 20
10.6715
 30
0
 11
0.25179
 21
10.5172
 31
0
  0
LINE
  5
20B2B
100
AcDbEntity
  8
0
100
AcDbLine
370
-1
 62
142
  6
BYLAYER
 10
0.25179
 20
10.5172
 30
0
 11
-0.0480143
 21
10.3464
 31
0
  0
LINE
  5
20B2C
100
AcDbEntity
  8
0
100
AcDbLine
370
-1
 62
142
  6
BYLAYER
 10
-0.0480143
 20
10.3464
 30
0
 11
-0.334418
 21
10.1599
 31
0
  0
LINE
  5
20B2D
100
AcDbEntity
  8
0
100
AcDbLine
370
-1
 62
142
  6
BYLAYER
 10
-0.334418
 20
10.1599
 30
0
 11
-0.607206
 21
9.95833
 31
0
  0
LINE
  5
20B2E
100
AcDbEntity
  8
0
100
AcDbLine
370
-1
 62
142
  6
BYLAYER
 10
-0.607206
 20
9.95833
 30
0
 11
-0.866157
 21
9.74257
 31
0
  0
LINE
  5
20B2F
100
AcDbEntity
  8
0
100
AcDbLine
370
-1
 62
142
  6
BYLAYER
 10
-0.866157
 20
9.74257
 30
0
 11
-1.11095
 21
9.5134
 31
0
  0
LINE
  5
20B30
100
AcDbEntity
  8
0
100
AcDbLine
370
-1
 62
142
  6
BYLAYER
 10
-1.11095
 20
9.5134
 30
0
 11
-1.34136
 21
9.2716
 31
0
  0
LINE
  5
20B31
100
AcDbEntity
  8
0
100
AcDbLine
370
-1
 62
142
  6
BYLAYER
 10
-1.34136
 20
9.2716
 30
0
 11
-1.55707
 21
9.01796
 31
0
  0
LINE
  5
20B32
100
AcDbEntity
  8
0
100
AcDbLine
370
-1
 62
142
  6
BYLAYER
 10
-1.55707
 20
9.01796
 30
0
 11
-1.75792
 21
8.75319
 31
0
  0
LINE
  5
20B33
100
AcDbEntity
  8
0
100
AcDbLine
370
-1
 62
142
  6
BYLAYER
 10
-1.75792
 20
8.75319
 30
0
 11
-1.94362
 21
8.47814
 31
0
  0
LINE
  5
20B34
100
AcDbEntity
  8
0
100
AcDbLine
370
-1
 62
142
  6
BYLAYER
 10
-1.94362
 20
8.47814
 30
0
 11
-2.11388
 21
8.19358
 31
0
  0
LINE
  5
20B35
100
AcDbEntity
  8
0
100
AcDbLine
370
-1
 62
142
  6
BYLAYER
 10
-2.11388
 20
8.19358
 30
0
 11
-2.2685
 21
7.90022
 31
0
  0
LINE
  5
20B36
100
AcDbEntity
  8
0
100
AcDbLine
370
-1
 62
142
  6
BYLAYER
 10
-2.2685
 20
7.90022
 30
0
 11
-2.40717
 21
7.59896
 31
0
  0
LINE
  5
20B37
100
AcDbEntity
  8
0
100
AcDbLine
370
-1
 62
142
  6
BYLAYER
 10
-2.40717
 20
7.59896
 30
0
 11
-2.52962
 21
7.29053
 31
0
  0
LINE
  5
20B38
100
AcDbEntity
  8
0
100
AcDbLine
370
-1
 62
142
  6
BYLAYER
 10
-2.52962
 20
7.29053
 30
0
 11
-2.63569
 21
6.97564
 31
0
  0
LINE
  5
20B39
100
AcDbEntity
  8
0
100
AcDbLine
370
-1
 62
142
  6
BYLAYER
 10
-2.63569
 20
6.97564
 30
0
 11
-2.72499
 21
6.65517
 31
0
  0
LINE
  5
20B3A
100
AcDbEntity
  8
0
100
AcDbLine
370
-1
 62
142
  6
BYLAYER
 10
-2.72499
 20
6.65517
 30
0
 11
-2.79736
 21
6.32986
 31
0
  0
LINE
  5
20B3B
100
AcDbEntity
  8
0
100
AcDbLine
370
-1
 62
142
  6
BYLAYER
 10
-2.79736
 20
6.32986
 30
0
 11
-2.85254
 21
6.00043
 31
0
  0
LINE
  5
20B3C
100
AcDbEntity
  8
0
100
AcDbLine
370
-1
 62
142
  6
BYLAYER
 10
-2.85254
 20
6.00043
 30
0
 11
-2.89019
 21
5.66781
 31
0
  0
LINE
  5
20B3D
100
AcDbEntity
  8
0
100
AcDbLine
370
-1
 62
142
  6
BYLAYER
 10
-2.89019
 20
5.66781
 30
0
 11
-2.91015
 21
5.33263
 31
0
  0
LINE
  5
20B3E
100
AcDbEntity
  8
0
100
AcDbLine
370
-1
 62
142
  6
BYLAYER
 10
-2.91015
 20
5.33263
 30
0
 11
-2.91211
 21
4.99571
 31
0
  0
LINE
  5
20B3F
100
AcDbEntity
  8
0
100
AcDbLine
370
-1
 62
142
  6
BYLAYER
 10
-2.91211
 20
4.99571
 30
0
 11
-2.89583
 21
4.65788
 31
0
  0
LINE
  5
20B40
100
AcDbEntity
  8
0
100
AcDbLine
370
-1
 62
142
  6
BYLAYER
 10
-2.89583
 20
4.65788
 30
0
 11
-2.86106
 21
4.31993
 31
0
  0
LINE
  5
20B41
100
AcDbEntity
  8
0
100
AcDbLine
370
-1
 62
142
  6
BYLAYER
 10
-2.86106
 20
4.31993
 30
0
 11
-2.80757
 21
3.98253
 31
0
  0
LINE
  5
20B42
100
AcDbEntity
  8
0
100
AcDbLine
370
-1
 62
142
  6
BYLAYER
 10
-2.80757
 20
3.98253
 30
0
 11
-2.75543
 21
3.72999
 31
0
  0
LINE
  5
20B43
100
AcDbEntity
  8
0
100
AcDbLine
370
-1
 62
142
  6
BYLAYER
 10
-2.75543
 20
3.72999
 30
0
 11
-2.73497
 21
3.64654
 31
0
  0
LINE
  5
20B44
100
AcDbEntity
  8
0
100
AcDbLine
370
-1
 62
142
  6
BYLAYER
 10
-2.73497
 20
3.64654
 30
0
 11
-3.98133
 21
3.64654
 31
0
  0
LINE
  5
20B45
100
AcDbEntity
  8
0
100
AcDbLine
370
-1
 62
142
  6
BYLAYER
 10
3.08475
 20
5.63118
 30
0
 11
3.10374
 21
5.63118
 31
0
  0
LINE
  5
20B46
100
AcDbEntity
  8
0
100
AcDbLine
370
-1
 62
142
  6
BYLAYER
 10
3.10374
 20
5.63118
 30
0
 11
3.16081
 21
5.62354
 31
0
  0
LINE
  5
20B47
100
AcDbEntity
  8
0
100
AcDbLine
370
-1
 62
142
  6
BYLAYER
 10
3.16081
 20
5.62354
 30
0
 11
3.23172
 21
5.60157
 31
0
  0
LINE
  5
20B48
100
AcDbEntity
  8
0
100
AcDbLine
370
-1
 62
142
  6
BYLAYER
 10
3.23172
 20
5.60157
 30
0
 11
3.29585
 21
5.56674
 31
0
  0
LINE
  5
20B49
100
AcDbEntity
  8
0
100
AcDbLine
370
-1
 62
142
  6
BYLAYER
 10
3.29585
 20
5.56674
 30
0
 11
3.35172
 21
5.52061
 31
0
  0
LINE
  5
20B4A
100
AcDbEntity
  8
0
100
AcDbLine
370
-1
 62
142
  6
BYLAYER
 10
3.35172
 20
5.52061
 30
0
 11
3.39785
 21
5.46474
 31
0
  0
LINE
  5
20B4B
100
AcDbEntity
  8
0
100
AcDbLine
370
-1
 62
142
  6
BYLAYER
 10
3.39785
 20
5.46474
 30
0
 11
3.43267
 21
5.40061
 31
0
  0
LINE
  5
20B4C
100
AcDbEntity
  8
0
100
AcDbLine
370
-1
 62
142
  6
BYLAYER
 10
3.43267
 20
5.40061
 30
0
 11
3.45464
 21
5.32969
 31
0
  0
LINE
  5
20B4D
100
AcDbEntity
  8
0
100
AcDbLine
370
-1
 62
142
  6
BYLAYER
 10
3.45464
 20
5.32969
 30
0
 11
3.46235
 21
5.27263
 31
0
  0
LINE
  5
20B4E
100
AcDbEntity
  8
0
100
AcDbLine
370
-1
 62
142
  6
BYLAYER
 10
3.46235
 20
5.27263
 30
0
 11
3.46235
 21
5.25358
 31
0
  0
LINE
  5
20B4F
100
AcDbEntity
  8
0
100
AcDbLine
370
-1
 62
142
  6
BYLAYER
 10
3.46235
 20
5.25358
 30
0
 11
3.46235
 21
5.2346
 31
0
  0
LINE
  5
20B50
100
AcDbEntity
  8
0
100
AcDbLine
370
-1
 62
142
  6
BYLAYER
 10
3.46235
 20
5.2346
 30
0
 11
3.45464
 21
5.17751
 31
0
  0
LINE
  5
20B51
100
AcDbEntity
  8
0
100
AcDbLine
370
-1
 62
142
  6
BYLAYER
 10
3.45464
 20
5.17751
 30
0
 11
3.43267
 21
5.10661
 31
0
  0
LINE
  5
20B52
100
AcDbEntity
  8
0
100
AcDbLine
370
-1
 62
142
  6
BYLAYER
 10
3.43267
 20
5.10661
 30
0
 11
3.39785
 21
5.04249
 31
0
  0
LINE
  5
20B53
100
AcDbEntity
  8
0
100
AcDbLine
370
-1
 62
142
  6
BYLAYER
 10
3.39785
 20
5.04249
 30
0
 11
3.35172
 21
4.9866
 31
0
  0
LINE
  5
20B54
100
AcDbEntity
  8
0
100
AcDbLine
370
-1
 62
142
  6
BYLAYER
 10
3.35172
 20
4.9866
 30
0
 11
3.29585
 21
4.94049
 31
0
  0
LINE
  5
20B55
100
AcDbEntity
  8
0
100
AcDbLine
370
-1
 62
142
  6
BYLAYER
 10
3.29585
 20
4.94049
 30
0
 11
3.23172
 21
4.90565
 31
0
  0
LINE
  5
20B56
100
AcDbEntity
  8
0
100
AcDbLine
370
-1
 62
142
  6
BYLAYER
 10
3.23172
 20
4.90565
 30
0
 11
3.16081
 21
4.88368
 31
0
  0
LINE
  5
20B57
100
AcDbEntity
  8
0
100
AcDbLine
370
-1
 62
142
  6
BYLAYER
 10
3.16081
 20
4.88368
 30
0
 11
3.10374
 21
4.87597
 31
0
  0
LINE
  5
20B58
100
AcDbEntity
  8
0
100
AcDbLine
370
-1
 62
142
  6
BYLAYER
 10
3.10374
 20
4.87597
 30
0
 11
3.08475
 21
4.87597
 31
0
  0
LINE
  5
20B59
100
AcDbEntity
  8
0
100
AcDbLine
370
-1
 62
142
  6
BYLAYER
 10
3.08475
 20
4.87597
 30
0
 11
3.06569
 21
4.87597
 31
0
  0
LINE
  5
20B5A
100
AcDbEntity
  8
0
100
AcDbLine
370
-1
 62
142
  6
BYLAYER
 10
3.06569
 20
4.87597
 30
0
 11
3.00863
 21
4.88368
 31
0
  0
LINE
  5
20B5B
100
AcDbEntity
  8
0
100
AcDbLine
370
-1
 62
142
  6
BYLAYER
 10
3.00863
 20
4.88368
 30
0
 11
2.93772
 21
4.90565
 31
0
  0
LINE
  5
20B5C
100
AcDbEntity
  8
0
100
AcDbLine
370
-1
 62
142
  6
BYLAYER
 10
2.93772
 20
4.90565
 30
0
 11
2.87358
 21
4.94049
 31
0
  0
LINE
  5
20B5D
100
AcDbEntity
  8
0
100
AcDbLine
370
-1
 62
142
  6
BYLAYER
 10
2.87358
 20
4.94049
 30
0
 11
2.81771
 21
4.9866
 31
0
  0
LINE
  5
20B5E
100
AcDbEntity
  8
0
100
AcDbLine
370
-1
 62
142
  6
BYLAYER
 10
2.81771
 20
4.9866
 30
0
 11
2.7716
 21
5.04249
 31
0
  0
LINE
  5
20B5F
100
AcDbEntity
  8
0
100
AcDbLine
370
-1
 62
142
  6
BYLAYER
 10
2.7716
 20
5.04249
 30
0
 11
2.73676
 21
5.10661
 31
0
  0
LINE
  5
20B60
100
AcDbEntity
  8
0
100
AcDbLine
370
-1
 62
142
  6
BYLAYER
 10
2.73676
 20
5.10661
 30
0
 11
2.71479
 21
5.17751
 31
0
  0
LINE
  5
20B61
100
AcDbEntity
  8
0
100
AcDbLine
370
-1
 62
142
  6
BYLAYER
 10
2.71479
 20
5.17751
 30
0
 11
2.70714
 21
5.2346
 31
0
  0
LINE
  5
20B62
100
AcDbEntity
  8
0
100
AcDbLine
370
-1
 62
142
  6
BYLAYER
 10
2.70714
 20
5.2346
 30
0
 11
2.70714
 21
5.25358
 31
0
  0
LINE
  5
20B63
100
AcDbEntity
  8
0
100
AcDbLine
370
-1
 62
142
  6
BYLAYER
 10
2.70714
 20
5.25358
 30
0
 11
2.70714
 21
5.27263
 31
0
  0
LINE
  5
20B64
100
AcDbEntity
  8
0
100
AcDbLine
370
-1
 62
142
  6
BYLAYER
 10
2.70714
 20
5.27263
 30
0
 11
2.71479
 21
5.32969
 31
0
  0
LINE
  5
20B65
100
AcDbEntity
  8
0
100
AcDbLine
370
-1
 62
142
  6
BYLAYER
 10
2.71479
 20
5.32969
 30
0
 11
2.73676
 21
5.40061
 31
0
  0
LINE
  5
20B66
100
AcDbEntity
  8
0
100
AcDbLine
370
-1
 62
142
  6
BYLAYER
 10
2.73676
 20
5.40061
 30
0
 11
2.7716
 21
5.46474
 31
0
  0
LINE
  5
20B67
100
AcDbEntity
  8
0
100
AcDbLine
370
-1
 62
142
  6
BYLAYER
 10
2.7716
 20
5.46474
 30
0
 11
2.81771
 21
5.52061
 31
0
  0
LINE
  5
20B68
100
AcDbEntity
  8
0
100
AcDbLine
370
-1
 62
142
  6
BYLAYER
 10
2.81771
 20
5.52061
 30
0
 11
2.87358
 21
5.56674
 31
0
  0
LINE
  5
20B69
100
AcDbEntity
  8
0
100
AcDbLine
370
-1
 62
142
  6
BYLAYER
 10
2.87358
 20
5.56674
 30
0
 11
2.93772
 21
5.60157
 31
0
  0
LINE
  5
20B6A
100
AcDbEntity
  8
0
100
AcDbLine
370
-1
 62
142
  6
BYLAYER
 10
2.93772
 20
5.60157
 30
0
 11
3.00863
 21
5.62354
 31
0
  0
LINE
  5
20B6B
100
AcDbEntity
  8
0
100
AcDbLine
370
-1
 62
142
  6
BYLAYER
 10
3.00863
 20
5.62354
 30
0
 11
3.06569
 21
5.63118
 31
0
  0
LINE
  5
20B6C
100
AcDbEntity
  8
0
100
AcDbLine
370
-1
 62
142
  6
BYLAYER
 10
3.06569
 20
5.63118
 30
0
 11
3.08475
 21
5.63118
 31
0
  0
LINE
  5
20B6D
100
AcDbEntity
  8
0
100
AcDbLine
370
-1
 62
142
  6
BYLAYER
 10
-1.98497
 20
3.64654
 30
0
 11
-0.693306
 21
3.64654
 31
0
  0
LINE
  5
20B6E
100
AcDbEntity
  8
0
100
AcDbLine
370
-1
 62
142
  6
BYLAYER
 10
-0.693306
 20
3.64654
 30
0
 11
-0.713867
 21
3.70085
 31
0
  0
LINE
  5
20B6F
100
AcDbEntity
  8
0
100
AcDbLine
370
-1
 62
142
  6
BYLAYER
 10
-0.713867
 20
3.70085
 30
0
 11
-0.769476
 21
3.866
 31
0
  0
LINE
  5
20B70
100
AcDbEntity
  8
0
100
AcDbLine
370
-1
 62
142
  6
BYLAYER
 10
-0.769476
 20
3.866
 30
0
 11
-0.833496
 21
4.09017
 31
0
  0
LINE
  5
20B71
100
AcDbEntity
  8
0
100
AcDbLine
370
-1
 62
142
  6
BYLAYER
 10
-0.833496
 20
4.09017
 30
0
 11
-0.885417
 21
4.31831
 31
0
  0
LINE
  5
20B72
100
AcDbEntity
  8
0
100
AcDbLine
370
-1
 62
142
  6
BYLAYER
 10
-0.885417
 20
4.31831
 30
0
 11
-0.925185
 21
4.54964
 31
0
  0
LINE
  5
20B73
100
AcDbEntity
  8
0
100
AcDbLine
370
-1
 62
142
  6
BYLAYER
 10
-0.925185
 20
4.54964
 30
0
 11
-0.952746
 21
4.78342
 31
0
  0
LINE
  5
20B74
100
AcDbEntity
  8
0
100
AcDbLine
370
-1
 62
142
  6
BYLAYER
 10
-0.952746
 20
4.78342
 30
0
 11
-0.96799
 21
5.01899
 31
0
  0
LINE
  5
20B75
100
AcDbEntity
  8
0
100
AcDbLine
370
-1
 62
142
  6
BYLAYER
 10
-0.96799
 20
5.01899
 30
0
 11
-0.970975
 21
5.25549
 31
0
  0
LINE
  5
20B76
100
AcDbEntity
  8
0
100
AcDbLine
370
-1
 62
142
  6
BYLAYER
 10
-0.970975
 20
5.25549
 30
0
 11
-0.961589
 21
5.49219
 31
0
  0
LINE
  5
20B77
100
AcDbEntity
  8
0
100
AcDbLine
370
-1
 62
142
  6
BYLAYER
 10
-0.961589
 20
5.49219
 30
0
 11
-0.939779
 21
5.7284
 31
0
  0
LINE
  5
20B78
100
AcDbEntity
  8
0
100
AcDbLine
370
-1
 62
142
  6
BYLAYER
 10
-0.939779
 20
5.7284
 30
0
 11
-0.90549
 21
5.96332
 31
0
  0
LINE
  5
20B79
100
AcDbEntity
  8
0
100
AcDbLine
370
-1
 62
142
  6
BYLAYER
 10
-0.90549
 20
5.96332
 30
0
 11
-0.858669
 21
6.19629
 31
0
  0
LINE
  5
20B7A
100
AcDbEntity
  8
0
100
AcDbLine
370
-1
 62
142
  6
BYLAYER
 10
-0.858669
 20
6.19629
 30
0
 11
-0.799371
 21
6.42643
 31
0
  0
LINE
  5
20B7B
100
AcDbEntity
  8
0
100
AcDbLine
370
-1
 62
142
  6
BYLAYER
 10
-0.799371
 20
6.42643
 30
0
 11
-0.727376
 21
6.6531
 31
0
  0
LINE
  5
20B7C
100
AcDbEntity
  8
0
100
AcDbLine
370
-1
 62
142
  6
BYLAYER
 10
-0.727376
 20
6.6531
 30
0
 11
-0.642796
 21
6.87549
 31
0
  0
LINE
  5
20B7D
100
AcDbEntity
  8
0
100
AcDbLine
370
-1
 62
142
  6
BYLAYER
 10
-0.642796
 20
6.87549
 30
0
 11
-0.545464
 21
7.09293
 31
0
  0
LINE
  5
20B7E
100
AcDbEntity
  8
0
100
AcDbLine
370
-1
 62
142
  6
BYLAYER
 10
-0.545464
 20
7.09293
 30
0
 11
-0.435385
 21
7.30458
 31
0
  0
LINE
  5
20B7F
100
AcDbEntity
  8
0
100
AcDbLine
370
-1
 62
142
  6
BYLAYER
 10
-0.435385
 20
7.30458
 30
0
 11
-0.3125
 21
7.50971
 31
0
  0
LINE
  5
20B80
100
AcDbEntity
  8
0
100
AcDbLine
370
-1
 62
142
  6
BYLAYER
 10
-0.3125
 20
7.50971
 30
0
 11
-0.176758
 21
7.70762
 31
0
  0
LINE
  5
20B81
100
AcDbEntity
  8
0
100
AcDbLine
370
-1
 62
142
  6
BYLAYER
 10
-0.176758
 20
7.70762
 30
0
 11
-0.0281575
 21
7.89757
 31
0
  0
LINE
  5
20B82
100
AcDbEntity
  8
0
100
AcDbLine
370
-1
 62
142
  6
BYLAYER
 10
-0.0281575
 20
7.89757
 30
0
 11
0.133409
 21
8.07878
 31
0
  0
LINE
  5
20B83
100
AcDbEntity
  8
0
100
AcDbLine
370
-1
 62
142
  6
BYLAYER
 10
0.133409
 20
8.07878
 30
0
 11
0.307997
 21
8.25049
 31
0
  0
LINE
  5
20B84
100
AcDbEntity
  8
0
100
AcDbLine
370
-1
 62
142
  6
BYLAYER
 10
0.307997
 20
8.25049
 30
0
 11
0.49566
 21
8.41194
 31
0
  0
LINE
  5
20B85
100
AcDbEntity
  8
0
100
AcDbLine
370
-1
 62
142
  6
BYLAYER
 10
0.49566
 20
8.41194
 30
0
 11
0.696343
 21
8.56244
 31
0
  0
LINE
  5
20B86
100
AcDbEntity
  8
0
100
AcDbLine
370
-1
 62
142
  6
BYLAYER
 10
0.696343
 20
8.56244
 30
0
 11
0.910211
 21
8.70122
 31
0
  0
LINE
  5
20B87
100
AcDbEntity
  8
0
100
AcDbLine
370
-1
 62
142
  6
BYLAYER
 10
0.910211
 20
8.70122
 30
0
 11
1.13732
 21
8.82753
 31
0
  0
LINE
  5
20B88
100
AcDbEntity
  8
0
100
AcDbLine
370
-1
 62
142
  6
BYLAYER
 10
1.13732
 20
8.82753
 30
0
 11
1.3776
 21
8.9406
 31
0
  0
LINE
  5
20B89
100
AcDbEntity
  8
0
100
AcDbLine
370
-1
 62
142
  6
BYLAYER
 10
1.3776
 20
8.9406
 30
0
 11
1.63124
 21
9.03971
 31
0
  0
LINE
  5
20B8A
100
AcDbEntity
  8
0
100
AcDbLine
370
-1
 62
142
  6
BYLAYER
 10
1.63124
 20
9.03971
 30
0
 11
1.89817
 21
9.12414
 31
0
  0
LINE
  5
20B8B
100
AcDbEntity
  8
0
100
AcDbLine
370
-1
 62
142
  6
BYLAYER
 10
1.89817
 20
9.12414
 30
0
 11
2.1785
 21
9.19308
 31
0
  0
LINE
  5
20B8C
100
AcDbEntity
  8
0
100
AcDbLine
370
-1
 62
142
  6
BYLAYER
 10
2.1785
 20
9.19308
 30
0
 11
2.47228
 21
9.24582
 31
0
  0
LINE
  5
20B8D
100
AcDbEntity
  8
0
100
AcDbLine
370
-1
 62
142
  6
BYLAYER
 10
2.47228
 20
9.24582
 30
0
 11
2.77951
 21
9.28162
 31
0
  0
LINE
  5
20B8E
100
AcDbEntity
  8
0
100
AcDbLine
370
-1
 62
142
  6
BYLAYER
 10
2.77951
 20
9.28162
 30
0
 11
3.02007
 21
9.29753
 31
0
  0
LINE
  5
20B8F
100
AcDbEntity
  8
0
100
AcDbLine
370
-1
 62
142
  6
BYLAYER
 10
3.02007
 20
9.29753
 30
0
 11
3.10038
 21
9.29969
 31
0
  0
LINE
  5
20B90
100
AcDbEntity
  8
0
100
AcDbLine
370
-1
 62
142
  6
BYLAYER
 10
3.10038
 20
9.29969
 30
0
 11
3.23113
 21
9.29611
 31
0
  0
LINE
  5
20B91
100
AcDbEntity
  8
0
100
AcDbLine
370
-1
 62
142
  6
BYLAYER
 10
3.23113
 20
9.29611
 30
0
 11
3.62289
 21
9.26025
 31
0
  0
LINE
  5
20B92
100
AcDbEntity
  8
0
100
AcDbLine
370
-1
 62
142
  6
BYLAYER
 10
3.62289
 20
9.26025
 30
0
 11
4.10856
 21
9.17389
 31
0
  0
LINE
  5
20B93
100
AcDbEntity
  8
0
100
AcDbLine
370
-1
 62
142
  6
BYLAYER
 10
4.10856
 20
9.17389
 30
0
 11
4.55767
 21
9.04389
 31
0
  0
LINE
  5
20B94
100
AcDbEntity
  8
0
100
AcDbLine
370
-1
 62
142
  6
BYLAYER
 10
4.55767
 20
9.04389
 30
0
 11
4.97038
 21
8.87369
 31
0
  0
LINE
  5
20B95
100
AcDbEntity
  8
0
100
AcDbLine
370
-1
 62
142
  6
BYLAYER
 10
4.97038
 20
8.87369
 30
0
 11
5.34685
 21
8.66661
 31
0
  0
LINE
  5
20B96
100
AcDbEntity
  8
0
100
AcDbLine
370
-1
 62
142
  6
BYLAYER
 10
5.34685
 20
8.66661
 30
0
 11
5.68739
 21
8.42606
 31
0
  0
LINE
  5
20B97
100
AcDbEntity
  8
0
100
AcDbLine
370
-1
 62
142
  6
BYLAYER
 10
5.68739
 20
8.42606
 30
0
 11
5.99224
 21
8.15539
 31
0
  0
LINE
  5
20B98
100
AcDbEntity
  8
0
100
AcDbLine
370
-1
 62
142
  6
BYLAYER
 10
5.99224
 20
8.15539
 30
0
 11
6.26156
 21
7.85792
 31
0
  0
LINE
  5
20B99
100
AcDbEntity
  8
0
100
AcDbLine
370
-1
 62
142
  6
BYLAYER
 10
6.26156
 20
7.85792
 30
0
 11
6.49556
 21
7.53711
 31
0
  0
LINE
  5
20B9A
100
AcDbEntity
  8
0
100
AcDbLine
370
-1
 62
142
  6
BYLAYER
 10
6.49556
 20
7.53711
 30
0
 11
6.69444
 21
7.19624
 31
0
  0
LINE
  5
20B9B
100
AcDbEntity
  8
0
100
AcDbLine
370
-1
 62
142
  6
BYLAYER
 10
6.69444
 20
7.19624
 30
0
 11
6.85851
 21
6.83871
 31
0
  0
LINE
  5
20B9C
100
AcDbEntity
  8
0
100
AcDbLine
370
-1
 62
142
  6
BYLAYER
 10
6.85851
 20
6.83871
 30
0
 11
6.98796
 21
6.46783
 31
0
  0
LINE
  5
20B9D
100
AcDbEntity
  8
0
100
AcDbLine
370
-1
 62
142
  6
BYLAYER
 10
6.98796
 20
6.46783
 30
0
 11
7.08301
 21
6.08708
 31
0
  0
LINE
  5
20B9E
100
AcDbEntity
  8
0
100
AcDbLine
370
-1
 62
142
  6
BYLAYER
 10
7.08301
 20
6.08708
 30
0
 11
7.14382
 21
5.69971
 31
0
  0
LINE
  5
20B9F
100
AcDbEntity
  8
0
100
AcDbLine
370
-1
 62
142
  6
BYLAYER
 10
7.14382
 20
5.69971
 30
0
 11
7.17068
 21
5.30914
 31
0
  0
LINE
  5
20BA0
100
AcDbEntity
  8
0
100
AcDbLine
370
-1
 62
142
  6
BYLAYER
 10
7.17068
 20
5.30914
 30
0
 11
7.16971
 21
5.01611
 31
0
  0
LINE
  5
20BA1
100
AcDbEntity
  8
0
100
AcDbLine
370
-1
 62
142
  6
BYLAYER
 10
7.16971
 20
5.01611
 30
0
 11
7.16379
 21
4.91872
 31
0
  0
LINE
  5
20BA2
100
AcDbEntity
  8
0
100
AcDbLine
370
-1
 62
142
  6
BYLAYER
 10
7.16379
 20
4.91872
 30
0
 11
6.55371
 21
4.92275
 31
0
  0
LINE
  5
20BA3
100
AcDbEntity
  8
0
100
AcDbLine
370
-1
 62
142
  6
BYLAYER
 10
6.55371
 20
4.92275
 30
0
 11
6.56196
 21
5.00754
 31
0
  0
LINE
  5
20BA4
100
AcDbEntity
  8
0
100
AcDbLine
370
-1
 62
142
  6
BYLAYER
 10
6.56196
 20
5.00754
 30
0
 11
6.56967
 21
5.26346
 31
0
  0
LINE
  5
20BA5
100
AcDbEntity
  8
0
100
AcDbLine
370
-1
 62
142
  6
BYLAYER
 10
6.56967
 20
5.26346
 30
0
 11
6.55192
 21
5.60346
 31
0
  0
LINE
  5
20BA6
100
AcDbEntity
  8
0
100
AcDbLine
370
-1
 62
142
  6
BYLAYER
 10
6.55192
 20
5.60346
 30
0
 11
6.50097
 21
5.94006
 31
0
  0
LINE
  5
20BA7
100
AcDbEntity
  8
0
100
AcDbLine
370
-1
 62
142
  6
BYLAYER
 10
6.50097
 20
5.94006
 30
0
 11
6.41749
 21
6.27035
 31
0
  0
LINE
  5
20BA8
100
AcDbEntity
  8
0
100
AcDbLine
370
-1
 62
142
  6
BYLAYER
 10
6.41749
 20
6.27035
 30
0
 11
6.30203
 21
6.59153
 31
0
  0
LINE
  5
20BA9
100
AcDbEntity
  8
0
100
AcDbLine
370
-1
 62
142
  6
BYLAYER
 10
6.30203
 20
6.59153
 30
0
 11
6.15528
 21
6.90067
 31
0
  0
LINE
  5
20BAA
100
AcDbEntity
  8
0
100
AcDbLine
370
-1
 62
142
  6
BYLAYER
 10
6.15528
 20
6.90067
 30
0
 11
5.97781
 21
7.19493
 31
0
  0
LINE
  5
20BAB
100
AcDbEntity
  8
0
100
AcDbLine
370
-1
 62
142
  6
BYLAYER
 10
5.97781
 20
7.19493
 30
0
 11
5.77024
 21
7.47151
 31
0
  0
LINE
  5
20BAC
100
AcDbEntity
  8
0
100
AcDbLine
370
-1
 62
142
  6
BYLAYER
 10
5.77024
 20
7.47151
 30
0
 11
5.53321
 21
7.72754
 31
0
  0
LINE
  5
20BAD
100
AcDbEntity
  8
0
100
AcDbLine
370
-1
 62
142
  6
BYLAYER
 10
5.53321
 20
7.72754
 30
0
 11
5.26731
 21
7.96024
 31
0
  0
LINE
  5
20BAE
100
AcDbEntity
  8
0
100
AcDbLine
370
-1
 62
142
  6
BYLAYER
 10
5.26731
 20
7.96024
 30
0
 11
4.97319
 21
8.16667
 31
0
  0
LINE
  5
20BAF
100
AcDbEntity
  8
0
100
AcDbLine
370
-1
 62
142
  6
BYLAYER
 10
4.97319
 20
8.16667
 30
0
 11
4.65142
 21
8.34397
 31
0
  0
LINE
  5
20BB0
100
AcDbEntity
  8
0
100
AcDbLine
370
-1
 62
142
  6
BYLAYER
 10
4.65142
 20
8.34397
 30
0
 11
4.30263
 21
8.48936
 31
0
  0
LINE
  5
20BB1
100
AcDbEntity
  8
0
100
AcDbLine
370
-1
 62
142
  6
BYLAYER
 10
4.30263
 20
8.48936
 30
0
 11
3.92746
 21
8.59999
 31
0
  0
LINE
  5
20BB2
100
AcDbEntity
  8
0
100
AcDbLine
370
-1
 62
142
  6
BYLAYER
 10
3.92746
 20
8.59999
 30
0
 11
3.52647
 21
8.67296
 31
0
  0
LINE
  5
20BB3
100
AcDbEntity
  8
0
100
AcDbLine
370
-1
 62
142
  6
BYLAYER
 10
3.52647
 20
8.67296
 30
0
 11
3.20703
 21
8.70275
 31
0
  0
LINE
  5
20BB4
100
AcDbEntity
  8
0
100
AcDbLine
370
-1
 62
142
  6
BYLAYER
 10
3.20703
 20
8.70275
 30
0
 11
3.10038
 21
8.70546
 31
0
  0
LINE
  5
20BB5
100
AcDbEntity
  8
0
100
AcDbLine
370
-1
 62
142
  6
BYLAYER
 10
3.10038
 20
8.70546
 30
0
 11
3.03326
 21
8.70378
 31
0
  0
LINE
  5
20BB6
100
AcDbEntity
  8
0
100
AcDbLine
370
-1
 62
142
  6
BYLAYER
 10
3.03326
 20
8.70378
 30
0
 11
2.83219
 21
8.69021
 31
0
  0
LINE
  5
20BB7
100
AcDbEntity
  8
0
100
AcDbLine
370
-1
 62
142
  6
BYLAYER
 10
2.83219
 20
8.69021
 30
0
 11
2.57374
 21
8.65896
 31
0
  0
LINE
  5
20BB8
100
AcDbEntity
  8
0
100
AcDbLine
370
-1
 62
142
  6
BYLAYER
 10
2.57374
 20
8.65896
 30
0
 11
2.32503
 21
8.61236
 31
0
  0
LINE
  5
20BB9
100
AcDbEntity
  8
0
100
AcDbLine
370
-1
 62
142
  6
BYLAYER
 10
2.32503
 20
8.61236
 30
0
 11
2.08621
 21
8.55117
 31
0
  0
LINE
  5
20BBA
100
AcDbEntity
  8
0
100
AcDbLine
370
-1
 62
142
  6
BYLAYER
 10
2.08621
 20
8.55117
 30
0
 11
1.85753
 21
8.47597
 31
0
  0
LINE
  5
20BBB
100
AcDbEntity
  8
0
100
AcDbLine
370
-1
 62
142
  6
BYLAYER
 10
1.85753
 20
8.47597
 30
0
 11
1.63911
 21
8.38753
 31
0
  0
LINE
  5
20BBC
100
AcDbEntity
  8
0
100
AcDbLine
370
-1
 62
142
  6
BYLAYER
 10
1.63911
 20
8.38753
 30
0
 11
1.43104
 21
8.28646
 31
0
  0
LINE
  5
20BBD
100
AcDbEntity
  8
0
100
AcDbLine
370
-1
 62
142
  6
BYLAYER
 10
1.43104
 20
8.28646
 30
0
 11
1.23351
 21
8.17344
 31
0
  0
LINE
  5
20BBE
100
AcDbEntity
  8
0
100
AcDbLine
370
-1
 62
142
  6
BYLAYER
 10
1.23351
 20
8.17344
 30
0
 11
1.04666
 21
8.04921
 31
0
  0
LINE
  5
20BBF
100
AcDbEntity
  8
0
100
AcDbLine
370
-1
 62
142
  6
BYLAYER
 10
1.04666
 20
8.04921
 30
0
 11
0.87066
 21
7.91439
 31
0
  0
LINE
  5
20BC0
100
AcDbEntity
  8
0
100
AcDbLine
370
-1
 62
142
  6
BYLAYER
 10
0.87066
 20
7.91439
 30
0
 11
0.705621
 21
7.76969
 31
0
  0
LINE
  5
20BC1
100
AcDbEntity
  8
0
100
AcDbLine
370
-1
 62
142
  6
BYLAYER
 10
0.705621
 20
7.76969
 30
0
 11
0.551758
 21
7.61578
 31
0
  0
LINE
  5
20BC2
100
AcDbEntity
  8
0
100
AcDbLine
370
-1
 62
142
  6
BYLAYER
 10
0.551758
 20
7.61578
 30
0
 11
0.409179
 21
7.45329
 31
0
  0
LINE
  5
20BC3
100
AcDbEntity
  8
0
100
AcDbLine
370
-1
 62
142
  6
BYLAYER
 10
0.409179
 20
7.45329
 30
0
 11
0.277994
 21
7.28299
 31
0
  0
LINE
  5
20BC4
100
AcDbEntity
  8
0
100
AcDbLine
370
-1
 62
142
  6
BYLAYER
 10
0.277994
 20
7.28299
 30
0
 11
0.158421
 21
7.10547
 31
0
  0
LINE
  5
20BC5
100
AcDbEntity
  8
0
100
AcDbLine
370
-1
 62
142
  6
BYLAYER
 10
0.158421
 20
7.10547
 30
0
 11
0.0506185
 21
6.9215
 31
0
  0
LINE
  5
20BC6
100
AcDbEntity
  8
0
100
AcDbLine
370
-1
 62
142
  6
BYLAYER
 10
0.0506185
 20
6.9215
 30
0
 11
-0.0453017
 21
6.73167
 31
0
  0
LINE
  5
20BC7
100
AcDbEntity
  8
0
100
AcDbLine
370
-1
 62
142
  6
BYLAYER
 10
-0.0453017
 20
6.73167
 30
0
 11
-0.129232
 21
6.53668
 31
0
  0
LINE
  5
20BC8
100
AcDbEntity
  8
0
100
AcDbLine
370
-1
 62
142
  6
BYLAYER
 10
-0.129232
 20
6.53668
 30
0
 11
-0.200956
 21
6.33724
 31
0
  0
LINE
  5
20BC9
100
AcDbEntity
  8
0
100
AcDbLine
370
-1
 62
142
  6
BYLAYER
 10
-0.200956
 20
6.33724
 30
0
 11
-0.260308
 21
6.13406
 31
0
  0
LINE
  5
20BCA
100
AcDbEntity
  8
0
100
AcDbLine
370
-1
 62
142
  6
BYLAYER
 10
-0.260308
 20
6.13406
 30
0
 11
-0.307183
 21
5.92768
 31
0
  0
LINE
  5
20BCB
100
AcDbEntity
  8
0
100
AcDbLine
370
-1
 62
142
  6
BYLAYER
 10
-0.307183
 20
5.92768
 30
0
 11
-0.341471
 21
5.71892
 31
0
  0
LINE
  5
20BCC
100
AcDbEntity
  8
0
100
AcDbLine
370
-1
 62
142
  6
BYLAYER
 10
-0.341471
 20
5.71892
 30
0
 11
-0.362901
 21
5.5084
 31
0
  0
LINE
  5
20BCD
100
AcDbEntity
  8
0
100
AcDbLine
370
-1
 62
142
  6
BYLAYER
 10
-0.362901
 20
5.5084
 30
0
 11
-0.371419
 21
5.29682
 31
0
  0
LINE
  5
20BCE
100
AcDbEntity
  8
0
100
AcDbLine
370
-1
 62
142
  6
BYLAYER
 10
-0.371419
 20
5.29682
 30
0
 11
-0.366863
 21
5.08479
 31
0
  0
LINE
  5
20BCF
100
AcDbEntity
  8
0
100
AcDbLine
370
-1
 62
142
  6
BYLAYER
 10
-0.366863
 20
5.08479
 30
0
 11
-0.349013
 21
4.8731
 31
0
  0
LINE
  5
20BD0
100
AcDbEntity
  8
0
100
AcDbLine
370
-1
 62
142
  6
BYLAYER
 10
-0.349013
 20
4.8731
 30
0
 11
-0.317817
 21
4.66233
 31
0
  0
LINE
  5
20BD1
100
AcDbEntity
  8
0
100
AcDbLine
370
-1
 62
142
  6
BYLAYER
 10
-0.317817
 20
4.66233
 30
0
 11
-0.273113
 21
4.45318
 31
0
  0
LINE
  5
20BD2
100
AcDbEntity
  8
0
100
AcDbLine
370
-1
 62
142
  6
BYLAYER
 10
-0.273113
 20
4.45318
 30
0
 11
-0.214626
 21
4.24636
 31
0
  0
LINE
  5
20BD3
100
AcDbEntity
  8
0
100
AcDbLine
370
-1
 62
142
  6
BYLAYER
 10
-0.214626
 20
4.24636
 30
0
 11
-0.142361
 21
4.04254
 31
0
  0
LINE
  5
20BD4
100
AcDbEntity
  8
0
100
AcDbLine
370
-1
 62
142
  6
BYLAYER
 10
-0.142361
 20
4.04254
 30
0
 11
-0.0560981
 21
3.84239
 31
0
  0
LINE
  5
20BD5
100
AcDbEntity
  8
0
100
AcDbLine
370
-1
 62
142
  6
BYLAYER
 10
-0.0560981
 20
3.84239
 30
0
 11
0.0175782
 21
3.69461
 31
0
  0
LINE
  5
20BD6
100
AcDbEntity
  8
0
100
AcDbLine
370
-1
 62
142
  6
BYLAYER
 10
0.0175782
 20
3.69461
 30
0
 11
0.0443251
 21
3.64654
 31
0
  0
LINE
  5
20BD7
100
AcDbEntity
  8
0
100
AcDbLine
370
-1
 62
142
  6
BYLAYER
 10
0.0443251
 20
3.64654
 30
0
 11
1.57818
 21
3.64654
 31
0
  0
LINE
  5
20BD8
100
AcDbEntity
  8
0
100
AcDbLine
370
-1
 62
142
  6
BYLAYER
 10
1.57818
 20
3.64654
 30
0
 11
1.55117
 21
3.66764
 31
0
  0
LINE
  5
20BD9
100
AcDbEntity
  8
0
100
AcDbLine
370
-1
 62
142
  6
BYLAYER
 10
1.55117
 20
3.66764
 30
0
 11
1.47439
 21
3.73622
 31
0
  0
LINE
  5
20BDA
100
AcDbEntity
  8
0
100
AcDbLine
370
-1
 62
142
  6
BYLAYER
 10
1.47439
 20
3.73622
 30
0
 11
1.37826
 21
3.83658
 31
0
  0
LINE
  5
20BDB
100
AcDbEntity
  8
0
100
AcDbLine
370
-1
 62
142
  6
BYLAYER
 10
1.37826
 20
3.83658
 30
0
 11
1.28998
 21
3.94678
 31
0
  0
LINE
  5
20BDC
100
AcDbEntity
  8
0
100
AcDbLine
370
-1
 62
142
  6
BYLAYER
 10
1.28998
 20
3.94678
 30
0
 11
1.2098
 21
4.06592
 31
0
  0
LINE
  5
20BDD
100
AcDbEntity
  8
0
100
AcDbLine
370
-1
 62
142
  6
BYLAYER
 10
1.2098
 20
4.06592
 30
0
 11
1.13791
 21
4.19308
 31
0
  0
LINE
  5
20BDE
100
AcDbEntity
  8
0
100
AcDbLine
370
-1
 62
142
  6
BYLAYER
 10
1.13791
 20
4.19308
 30
0
 11
1.07449
 21
4.32742
 31
0
  0
LINE
  5
20BDF
100
AcDbEntity
  8
0
100
AcDbLine
370
-1
 62
142
  6
BYLAYER
 10
1.07449
 20
4.32742
 30
0
 11
1.0198
 21
4.46804
 31
0
  0
LINE
  5
20BE0
100
AcDbEntity
  8
0
100
AcDbLine
370
-1
 62
142
  6
BYLAYER
 10
1.0198
 20
4.46804
 30
0
 11
0.974012
 21
4.61404
 31
0
  0
LINE
  5
20BE1
100
AcDbEntity
  8
0
100
AcDbLine
370
-1
 62
142
  6
BYLAYER
 10
0.974012
 20
4.61404
 30
0
 11
0.937392
 21
4.7646
 31
0
  0
LINE
  5
20BE2
100
AcDbEntity
  8
0
100
AcDbLine
370
-1
 62
142
  6
BYLAYER
 10
0.937392
 20
4.7646
 30
0
 11
0.910101
 21
4.91878
 31
0
  0
LINE
  5
20BE3
100
AcDbEntity
  8
0
100
AcDbLine
370
-1
 62
142
  6
BYLAYER
 10
0.910101
 20
4.91878
 30
0
 11
0.892307
 21
5.07574
 31
0
  0
LINE
  5
20BE4
100
AcDbEntity
  8
0
100
AcDbLine
370
-1
 62
142
  6
BYLAYER
 10
0.892307
 20
5.07574
 30
0
 11
0.884332
 21
5.2346
 31
0
  0
LINE
  5
20BE5
100
AcDbEntity
  8
0
100
AcDbLine
370
-1
 62
142
  6
BYLAYER
 10
0.884332
 20
5.2346
 30
0
 11
0.886339
 21
5.39442
 31
0
  0
LINE
  5
20BE6
100
AcDbEntity
  8
0
100
AcDbLine
370
-1
 62
142
  6
BYLAYER
 10
0.886339
 20
5.39442
 30
0
 11
0.898492
 21
5.55436
 31
0
  0
LINE
  5
20BE7
100
AcDbEntity
  8
0
100
AcDbLine
370
-1
 62
142
  6
BYLAYER
 10
0.898492
 20
5.55436
 30
0
 11
0.921061
 21
5.71354
 31
0
  0
LINE
  5
20BE8
100
AcDbEntity
  8
0
100
AcDbLine
370
-1
 62
142
  6
BYLAYER
 10
0.921061
 20
5.71354
 30
0
 11
0.954264
 21
5.8711
 31
0
  0
LINE
  5
20BE9
100
AcDbEntity
  8
0
100
AcDbLine
370
-1
 62
142
  6
BYLAYER
 10
0.954264
 20
5.8711
 30
0
 11
0.998264
 21
6.0261
 31
0
  0
LINE
  5
20BEA
100
AcDbEntity
  8
0
100
AcDbLine
370
-1
 62
142
  6
BYLAYER
 10
0.998264
 20
6.0261
 30
0
 11
1.05328
 21
6.17768
 31
0
  0
LINE
  5
20BEB
100
AcDbEntity
  8
0
100
AcDbLine
370
-1
 62
142
  6
BYLAYER
 10
1.05328
 20
6.17768
 30
0
 11
1.11957
 21
6.32497
 31
0
  0
LINE
  5
20BEC
100
AcDbEntity
  8
0
100
AcDbLine
370
-1
 62
142
  6
BYLAYER
 10
1.11957
 20
6.32497
 30
0
 11
1.19732
 21
6.46712
 31
0
  0
LINE
  5
20BED
100
AcDbEntity
  8
0
100
AcDbLine
370
-1
 62
142
  6
BYLAYER
 10
1.19732
 20
6.46712
 30
0
 11
1.28668
 21
6.60325
 31
0
  0
LINE
  5
20BEE
100
AcDbEntity
  8
0
100
AcDbLine
370
-1
 62
142
  6
BYLAYER
 10
1.28668
 20
6.60325
 30
0
 11
1.38797
 21
6.73236
 31
0
  0
LINE
  5
20BEF
100
AcDbEntity
  8
0
100
AcDbLine
370
-1
 62
142
  6
BYLAYER
 10
1.38797
 20
6.73236
 30
0
 11
1.50131
 21
6.85368
 31
0
  0
LINE
  5
20BF0
100
AcDbEntity
  8
0
100
AcDbLine
370
-1
 62
142
  6
BYLAYER
 10
1.50131
 20
6.85368
 30
0
 11
1.62696
 21
6.96631
 31
0
  0
LINE
  5
20BF1
100
AcDbEntity
  8
0
100
AcDbLine
370
-1
 62
142
  6
BYLAYER
 10
1.62696
 20
6.96631
 30
0
 11
1.76514
 21
7.06939
 31
0
  0
LINE
  5
20BF2
100
AcDbEntity
  8
0
100
AcDbLine
370
-1
 62
142
  6
BYLAYER
 10
1.76514
 20
7.06939
 30
0
 11
1.91601
 21
7.16194
 31
0
  0
LINE
  5
20BF3
100
AcDbEntity
  8
0
100
AcDbLine
370
-1
 62
142
  6
BYLAYER
 10
1.91601
 20
7.16194
 30
0
 11
2.07986
 21
7.24322
 31
0
  0
LINE
  5
20BF4
100
AcDbEntity
  8
0
100
AcDbLine
370
-1
 62
142
  6
BYLAYER
 10
2.07986
 20
7.24322
 30
0
 11
2.25683
 21
7.31222
 31
0
  0
LINE
  5
20BF5
100
AcDbEntity
  8
0
100
AcDbLine
370
-1
 62
142
  6
BYLAYER
 10
2.25683
 20
7.31222
 30
0
 11
2.44715
 21
7.36817
 31
0
  0
LINE
  5
20BF6
100
AcDbEntity
  8
0
100
AcDbLine
370
-1
 62
142
  6
BYLAYER
 10
2.44715
 20
7.36817
 30
0
 11
2.65104
 21
7.41004
 31
0
  0
LINE
  5
20BF7
100
AcDbEntity
  8
0
100
AcDbLine
370
-1
 62
142
  6
BYLAYER
 10
2.65104
 20
7.41004
 30
0
 11
2.86871
 21
7.43713
 31
0
  0
LINE
  5
20BF8
100
AcDbEntity
  8
0
100
AcDbLine
370
-1
 62
142
  6
BYLAYER
 10
2.86871
 20
7.43713
 30
0
 11
3.04243
 21
7.44764
 31
0
  0
LINE
  5
20BF9
100
AcDbEntity
  8
0
100
AcDbLine
370
-1
 62
142
  6
BYLAYER
 10
3.04243
 20
7.44764
 30
0
 11
3.10038
 21
7.4484
 31
0
  0
LINE
  5
20BFA
100
AcDbEntity
  8
0
100
AcDbLine
370
-1
 62
142
  6
BYLAYER
 10
3.10038
 20
7.4484
 30
0
 11
3.17876
 21
7.44743
 31
0
  0
LINE
  5
20BFB
100
AcDbEntity
  8
0
100
AcDbLine
370
-1
 62
142
  6
BYLAYER
 10
3.17876
 20
7.44743
 30
0
 11
3.4139
 21
7.42888
 31
0
  0
LINE
  5
20BFC
100
AcDbEntity
  8
0
100
AcDbLine
370
-1
 62
142
  6
BYLAYER
 10
3.4139
 20
7.42888
 30
0
 11
3.70139
 21
7.38043
 31
0
  0
LINE
  5
20BFD
100
AcDbEntity
  8
0
100
AcDbLine
370
-1
 62
142
  6
BYLAYER
 10
3.70139
 20
7.38043
 30
0
 11
3.96338
 21
7.30518
 31
0
  0
LINE
  5
20BFE
100
AcDbEntity
  8
0
100
AcDbLine
370
-1
 62
142
  6
BYLAYER
 10
3.96338
 20
7.30518
 30
0
 11
4.20031
 21
7.20557
 31
0
  0
LINE
  5
20BFF
100
AcDbEntity
  8
0
100
AcDbLine
370
-1
 62
142
  6
BYLAYER
 10
4.20031
 20
7.20557
 30
0
 11
4.41282
 21
7.08382
 31
0
  0
LINE
  5
20C00
100
AcDbEntity
  8
0
100
AcDbLine
370
-1
 62
142
  6
BYLAYER
 10
4.41282
 20
7.08382
 30
0
 11
4.60146
 21
6.94211
 31
0
  0
LINE
  5
20C01
100
AcDbEntity
  8
0
100
AcDbLine
370
-1
 62
142
  6
BYLAYER
 10
4.60146
 20
6.94211
 30
0
 11
4.76671
 21
6.78282
 31
0
  0
LINE
  5
20C02
100
AcDbEntity
  8
0
100
AcDbLine
370
-1
 62
142
  6
BYLAYER
 10
4.76671
 20
6.78282
 30
0
 11
4.90913
 21
6.60818
 31
0
  0
LINE
  5
20C03
100
AcDbEntity
  8
0
100
AcDbLine
370
-1
 62
142
  6
BYLAYER
 10
4.90913
 20
6.60818
 30
0
 11
5.02929
 21
6.42051
 31
0
  0
LINE
  5
20C04
100
AcDbEntity
  8
0
100
AcDbLine
370
-1
 62
142
  6
BYLAYER
 10
5.02929
 20
6.42051
 30
0
 11
5.12771
 21
6.222
 31
0
  0
LINE
  5
20C05
100
AcDbEntity
  8
0
100
AcDbLine
370
-1
 62
142
  6
BYLAYER
 10
5.12771
 20
6.222
 30
0
 11
5.20492
 21
6.01492
 31
0
  0
LINE
  5
20C06
100
AcDbEntity
  8
0
100
AcDbLine
370
-1
 62
142
  6
BYLAYER
 10
5.20492
 20
6.01492
 30
0
 11
5.2615
 21
5.8016
 31
0
  0
LINE
  5
20C07
100
AcDbEntity
  8
0
100
AcDbLine
370
-1
 62
142
  6
BYLAYER
 10
5.2615
 20
5.8016
 30
0
 11
5.29801
 21
5.58431
 31
0
  0
LINE
  5
20C08
100
AcDbEntity
  8
0
100
AcDbLine
370
-1
 62
142
  6
BYLAYER
 10
5.29801
 20
5.58431
 30
0
 11
5.31494
 21
5.36524
 31
0
  0
LINE
  5
20C09
100
AcDbEntity
  8
0
100
AcDbLine
370
-1
 62
142
  6
BYLAYER
 10
5.31494
 20
5.36524
 30
0
 11
5.31282
 21
5.14675
 31
0
  0
LINE
  5
20C0A
100
AcDbEntity
  8
0
100
AcDbLine
370
-1
 62
142
  6
BYLAYER
 10
5.31282
 20
5.14675
 30
0
 11
5.29975
 21
4.98465
 31
0
  0
LINE
  5
20C0B
100
AcDbEntity
  8
0
100
AcDbLine
370
-1
 62
142
  6
BYLAYER
 10
5.29975
 20
4.98465
 30
0
 11
5.29232
 21
4.93104
 31
0
  0
LINE
  5
20C0C
100
AcDbEntity
  8
0
100
AcDbLine
370
-1
 62
142
  6
BYLAYER
 10
5.29232
 20
4.93104
 30
0
 11
4.70014
 21
4.93494
 31
0
  0
LINE
  5
20C0D
100
AcDbEntity
  8
0
100
AcDbLine
370
-1
 62
142
  6
BYLAYER
 10
4.70014
 20
4.93494
 30
0
 11
4.70893
 21
4.97661
 31
0
  0
LINE
  5
20C0E
100
AcDbEntity
  8
0
100
AcDbLine
370
-1
 62
142
  6
BYLAYER
 10
4.70893
 20
4.97661
 30
0
 11
4.72721
 21
5.10325
 31
0
  0
LINE
  5
20C0F
100
AcDbEntity
  8
0
100
AcDbLine
370
-1
 62
142
  6
BYLAYER
 10
4.72721
 20
5.10325
 30
0
 11
4.73779
 21
5.27294
 31
0
  0
LINE
  5
20C10
100
AcDbEntity
  8
0
100
AcDbLine
370
-1
 62
142
  6
BYLAYER
 10
4.73779
 20
5.27294
 30
0
 11
4.73182
 21
5.44239
 31
0
  0
LINE
  5
20C11
100
AcDbEntity
  8
0
100
AcDbLine
370
-1
 62
142
  6
BYLAYER
 10
4.73182
 20
5.44239
 30
0
 11
4.70915
 21
5.60997
 31
0
  0
LINE
  5
20C12
100
AcDbEntity
  8
0
100
AcDbLine
370
-1
 62
142
  6
BYLAYER
 10
4.70915
 20
5.60997
 30
0
 11
4.66965
 21
5.77399
 31
0
  0
LINE
  5
20C13
100
AcDbEntity
  8
0
100
AcDbLine
370
-1
 62
142
  6
BYLAYER
 10
4.66965
 20
5.77399
 30
0
 11
4.61333
 21
5.93278
 31
0
  0
LINE
  5
20C14
100
AcDbEntity
  8
0
100
AcDbLine
370
-1
 62
142
  6
BYLAYER
 10
4.61333
 20
5.93278
 30
0
 11
4.54004
 21
6.08475
 31
0
  0
LINE
  5
20C15
100
AcDbEntity
  8
0
100
AcDbLine
370
-1
 62
142
  6
BYLAYER
 10
4.54004
 20
6.08475
 30
0
 11
4.44965
 21
6.22819
 31
0
  0
LINE
  5
20C16
100
AcDbEntity
  8
0
100
AcDbLine
370
-1
 62
142
  6
BYLAYER
 10
4.44965
 20
6.22819
 30
0
 11
4.34207
 21
6.36143
 31
0
  0
LINE
  5
20C17
100
AcDbEntity
  8
0
100
AcDbLine
370
-1
 62
142
  6
BYLAYER
 10
4.34207
 20
6.36143
 30
0
 11
4.21724
 21
6.48286
 31
0
  0
LINE
  5
20C18
100
AcDbEntity
  8
0
100
AcDbLine
370
-1
 62
142
  6
BYLAYER
 10
4.21724
 20
6.48286
 30
0
 11
4.07503
 21
6.59082
 31
0
  0
LINE
  5
20C19
100
AcDbEntity
  8
0
100
AcDbLine
370
-1
 62
142
  6
BYLAYER
 10
4.07503
 20
6.59082
 30
0
 11
3.91542
 21
6.68365
 31
0
  0
LINE
  5
20C1A
100
AcDbEntity
  8
0
100
AcDbLine
370
-1
 62
142
  6
BYLAYER
 10
3.91542
 20
6.68365
 30
0
 11
3.73822
 21
6.75965
 31
0
  0
LINE
  5
20C1B
100
AcDbEntity
  8
0
100
AcDbLine
370
-1
 62
142
  6
BYLAYER
 10
3.73822
 20
6.75965
 30
0
 11
3.54335
 21
6.81722
 31
0
  0
LINE
  5
20C1C
100
AcDbEntity
  8
0
100
AcDbLine
370
-1
 62
142
  6
BYLAYER
 10
3.54335
 20
6.81722
 30
0
 11
3.33078
 21
6.85471
 31
0
  0
LINE
  5
20C1D
100
AcDbEntity
  8
0
100
AcDbLine
370
-1
 62
142
  6
BYLAYER
 10
3.33078
 20
6.85471
 30
0
 11
3.15799
 21
6.86942
 31
0
  0
LINE
  5
20C1E
100
AcDbEntity
  8
0
100
AcDbLine
370
-1
 62
142
  6
BYLAYER
 10
3.15799
 20
6.86942
 30
0
 11
3.10038
 21
6.87039
 31
0
  0
LINE
  5
20C1F
100
AcDbEntity
  8
0
100
AcDbLine
370
-1
 62
142
  6
BYLAYER
 10
3.10038
 20
6.87039
 30
0
 11
3.05117
 21
6.86951
 31
0
  0
LINE
  5
20C20
100
AcDbEntity
  8
0
100
AcDbLine
370
-1
 62
142
  6
BYLAYER
 10
3.05117
 20
6.86951
 30
0
 11
2.90369
 21
6.85851
 31
0
  0
LINE
  5
20C21
100
AcDbEntity
  8
0
100
AcDbLine
370
-1
 62
142
  6
BYLAYER
 10
2.90369
 20
6.85851
 30
0
 11
2.71994
 21
6.83078
 31
0
  0
LINE
  5
20C22
100
AcDbEntity
  8
0
100
AcDbLine
370
-1
 62
142
  6
BYLAYER
 10
2.71994
 20
6.83078
 30
0
 11
2.54893
 21
6.78825
 31
0
  0
LINE
  5
20C23
100
AcDbEntity
  8
0
100
AcDbLine
370
-1
 62
142
  6
BYLAYER
 10
2.54893
 20
6.78825
 30
0
 11
2.39068
 21
6.73188
 31
0
  0
LINE
  5
20C24
100
AcDbEntity
  8
0
100
AcDbLine
370
-1
 62
142
  6
BYLAYER
 10
2.39068
 20
6.73188
 30
0
 11
2.24511
 21
6.66271
 31
0
  0
LINE
  5
20C25
100
AcDbEntity
  8
0
100
AcDbLine
370
-1
 62
142
  6
BYLAYER
 10
2.24511
 20
6.66271
 30
0
 11
2.11214
 21
6.58171
 31
0
  0
LINE
  5
20C26
100
AcDbEntity
  8
0
100
AcDbLine
370
-1
 62
142
  6
BYLAYER
 10
2.11214
 20
6.58171
 30
0
 11
1.99175
 21
6.48996
 31
0
  0
LINE
  5
20C27
100
AcDbEntity
  8
0
100
AcDbLine
370
-1
 62
142
  6
BYLAYER
 10
1.99175
 20
6.48996
 30
0
 11
1.88385
 21
6.3884
 31
0
  0
LINE
  5
20C28
100
AcDbEntity
  8
0
100
AcDbLine
370
-1
 62
142
  6
BYLAYER
 10
1.88385
 20
6.3884
 30
0
 11
1.78836
 21
6.2781
 31
0
  0
LINE
  5
20C29
100
AcDbEntity
  8
0
100
AcDbLine
370
-1
 62
142
  6
BYLAYER
 10
1.78836
 20
6.2781
 30
0
 11
1.70529
 21
6.16
 31
0
  0
LINE
  5
20C2A
100
AcDbEntity
  8
0
100
AcDbLine
370
-1
 62
142
  6
BYLAYER
 10
1.70529
 20
6.16
 30
0
 11
1.6345
 21
6.03521
 31
0
  0
LINE
  5
20C2B
100
AcDbEntity
  8
0
100
AcDbLine
370
-1
 62
142
  6
BYLAYER
 10
1.6345
 20
6.03521
 30
0
 11
1.57601
 21
5.90468
 31
0
  0
LINE
  5
20C2C
100
AcDbEntity
  8
0
100
AcDbLine
370
-1
 62
142
  6
BYLAYER
 10
1.57601
 20
5.90468
 30
0
 11
1.52968
 21
5.76942
 31
0
  0
LINE
  5
20C2D
100
AcDbEntity
  8
0
100
AcDbLine
370
-1
 62
142
  6
BYLAYER
 10
1.52968
 20
5.76942
 30
0
 11
1.49556
 21
5.63043
 31
0
  0
LINE
  5
20C2E
100
AcDbEntity
  8
0
100
AcDbLine
370
-1
 62
142
  6
BYLAYER
 10
1.49556
 20
5.63043
 30
0
 11
1.47347
 21
5.48876
 31
0
  0
LINE
  5
20C2F
100
AcDbEntity
  8
0
100
AcDbLine
370
-1
 62
142
  6
BYLAYER
 10
1.47347
 20
5.48876
 30
0
 11
1.46343
 21
5.34538
 31
0
  0
LINE
  5
20C30
100
AcDbEntity
  8
0
100
AcDbLine
370
-1
 62
142
  6
BYLAYER
 10
1.46343
 20
5.34538
 30
0
 11
1.46539
 21
5.20133
 31
0
  0
LINE
  5
20C31
100
AcDbEntity
  8
0
100
AcDbLine
370
-1
 62
142
  6
BYLAYER
 10
1.46539
 20
5.20133
 30
0
 11
1.47922
 21
5.05761
 31
0
  0
LINE
  5
20C32
100
AcDbEntity
  8
0
100
AcDbLine
370
-1
 62
142
  6
BYLAYER
 10
1.47922
 20
5.05761
 30
0
 11
1.50489
 21
4.91525
 31
0
  0
LINE
  5
20C33
100
AcDbEntity
  8
0
100
AcDbLine
370
-1
 62
142
  6
BYLAYER
 10
1.50489
 20
4.91525
 30
0
 11
1.54238
 21
4.77522
 31
0
  0
LINE
  5
20C34
100
AcDbEntity
  8
0
100
AcDbLine
370
-1
 62
142
  6
BYLAYER
 10
1.54238
 20
4.77522
 30
0
 11
1.59158
 21
4.63857
 31
0
  0
LINE
  5
20C35
100
AcDbEntity
  8
0
100
AcDbLine
370
-1
 62
142
  6
BYLAYER
 10
1.59158
 20
4.63857
 30
0
 11
1.6525
 21
4.50629
 31
0
  0
LINE
  5
20C36
100
AcDbEntity
  8
0
100
AcDbLine
370
-1
 62
142
  6
BYLAYER
 10
1.6525
 20
4.50629
 30
0
 11
1.72499
 21
4.37939
 31
0
  0
LINE
  5
20C37
100
AcDbEntity
  8
0
100
AcDbLine
370
-1
 62
142
  6
BYLAYER
 10
1.72499
 20
4.37939
 30
0
 11
1.80908
 21
4.25896
 31
0
  0
LINE
  5
20C38
100
AcDbEntity
  8
0
100
AcDbLine
370
-1
 62
142
  6
BYLAYER
 10
1.80908
 20
4.25896
 30
0
 11
1.90462
 21
4.14583
 31
0
  0
LINE
  5
20C39
100
AcDbEntity
  8
0
100
AcDbLine
370
-1
 62
142
  6
BYLAYER
 10
1.90462
 20
4.14583
 30
0
 11
2.01167
 21
4.04118
 31
0
  0
LINE
  5
20C3A
100
AcDbEntity
  8
0
100
AcDbLine
370
-1
 62
142
  6
BYLAYER
 10
2.01167
 20
4.04118
 30
0
 11
2.13004
 21
3.9459
 31
0
  0
LINE
  5
20C3B
100
AcDbEntity
  8
0
100
AcDbLine
370
-1
 62
142
  6
BYLAYER
 10
2.13004
 20
3.9459
 30
0
 11
2.25976
 21
3.86111
 31
0
  0
LINE
  5
20C3C
100
AcDbEntity
  8
0
100
AcDbLine
370
-1
 62
142
  6
BYLAYER
 10
2.25976
 20
3.86111
 30
0
 11
2.40072
 21
3.78782
 31
0
  0
LINE
  5
20C3D
100
AcDbEntity
  8
0
100
AcDbLine
370
-1
 62
142
  6
BYLAYER
 10
2.40072
 20
3.78782
 30
0
 11
2.5529
 21
3.72689
 31
0
  0
LINE
  5
20C3E
100
AcDbEntity
  8
0
100
AcDbLine
370
-1
 62
142
  6
BYLAYER
 10
2.5529
 20
3.72689
 30
0
 11
2.71625
 21
3.67947
 31
0
  0
LINE
  5
20C3F
100
AcDbEntity
  8
0
100
AcDbLine
370
-1
 62
142
  6
BYLAYER
 10
2.71625
 20
3.67947
 30
0
 11
2.84679
 21
3.65272
 31
0
  0
LINE
  5
20C40
100
AcDbEntity
  8
0
100
AcDbLine
370
-1
 62
142
  6
BYLAYER
 10
2.84679
 20
3.65272
 30
0
 11
2.89068
 21
3.64654
 31
0
  0
LINE
  5
20C41
100
AcDbEntity
  8
0
100
AcDbLine
370
-1
 62
142
  6
BYLAYER
 10
2.89068
 20
3.64654
 30
0
 11
8.18576
 21
3.64654
 31
0
  0
LINE
  5
20C42
100
AcDbEntity
  8
0
100
AcDbLine
370
-1
 62
142
  6
BYLAYER
 10
8.18576
 20
3.64654
 30
0
 11
8.20785
 21
3.72319
 31
0
  0
LINE
  5
20C43
100
AcDbEntity
  8
0
100
AcDbLine
370
-1
 62
142
  6
BYLAYER
 10
8.20785
 20
3.72319
 30
0
 11
8.26568
 21
3.95562
 31
0
  0
LINE
  5
20C44
100
AcDbEntity
  8
0
100
AcDbLine
370
-1
 62
142
  6
BYLAYER
 10
8.26568
 20
3.95562
 30
0
 11
8.32781
 21
4.26514
 31
0
  0
LINE
  5
20C45
100
AcDbEntity
  8
0
100
AcDbLine
370
-1
 62
142
  6
BYLAYER
 10
8.32781
 20
4.26514
 30
0
 11
8.37235
 21
4.57438
 31
0
  0
LINE
  5
20C46
100
AcDbEntity
  8
0
100
AcDbLine
370
-1
 62
142
  6
BYLAYER
 10
8.37235
 20
4.57438
 30
0
 11
8.39947
 21
4.88282
 31
0
  0
LINE
  5
20C47
100
AcDbEntity
  8
0
100
AcDbLine
370
-1
 62
142
  6
BYLAYER
 10
8.39947
 20
4.88282
 30
0
 11
8.4095
 21
5.18967
 31
0
  0
LINE
  5
20C48
100
AcDbEntity
  8
0
100
AcDbLine
370
-1
 62
142
  6
BYLAYER
 10
8.4095
 20
5.18967
 30
0
 11
8.40267
 21
5.49442
 31
0
  0
LINE
  5
20C49
100
AcDbEntity
  8
0
100
AcDbLine
370
-1
 62
142
  6
BYLAYER
 10
8.40267
 20
5.49442
 30
0
 11
8.37918
 21
5.79628
 31
0
  0
LINE
  5
20C4A
100
AcDbEntity
  8
0
100
AcDbLine
370
-1
 62
142
  6
BYLAYER
 10
8.37918
 20
5.79628
 30
0
 11
8.33931
 21
6.09472
 31
0
  0
LINE
  5
20C4B
100
AcDbEntity
  8
0
100
AcDbLine
370
-1
 62
142
  6
BYLAYER
 10
8.33931
 20
6.09472
 30
0
 11
8.28326
 21
6.38911
 31
0
  0
LINE
  5
20C4C
100
AcDbEntity
  8
0
100
AcDbLine
370
-1
 62
142
  6
BYLAYER
 10
8.28326
 20
6.38911
 30
0
 11
8.21137
 21
6.67865
 31
0
  0
LINE
  5
20C4D
100
AcDbEntity
  8
0
100
AcDbLine
370
-1
 62
142
  6
BYLAYER
 10
8.21137
 20
6.67865
 30
0
 11
8.12381
 21
6.96283
 31
0
  0
LINE
  5
20C4E
100
AcDbEntity
  8
0
100
AcDbLine
370
-1
 62
142
  6
BYLAYER
 10
8.12381
 20
6.96283
 30
0
 11
8.02083
 21
7.241
 31
0
  0
LINE
  5
20C4F
100
AcDbEntity
  8
0
100
AcDbLine
370
-1
 62
142
  6
BYLAYER
 10
8.02083
 20
7.241
 30
0
 11
7.90267
 21
7.51243
 31
0
  0
LINE
  5
20C50
100
AcDbEntity
  8
0
100
AcDbLine
370
-1
 62
142
  6
BYLAYER
 10
7.90267
 20
7.51243
 30
0
 11
7.76958
 21
7.77658
 31
0
  0
LINE
  5
20C51
100
AcDbEntity
  8
0
100
AcDbLine
370
-1
 62
142
  6
BYLAYER
 10
7.76958
 20
7.77658
 30
0
 11
7.62185
 21
8.03267
 31
0
  0
LINE
  5
20C52
100
AcDbEntity
  8
0
100
AcDbLine
370
-1
 62
142
  6
BYLAYER
 10
7.62185
 20
8.03267
 30
0
 11
7.45964
 21
8.28017
 31
0
  0
LINE
  5
20C53
100
AcDbEntity
  8
0
100
AcDbLine
370
-1
 62
142
  6
BYLAYER
 10
7.45964
 20
8.28017
 30
0
 11
7.28326
 21
8.51839
 31
0
  0
LINE
  5
20C54
100
AcDbEntity
  8
0
100
AcDbLine
370
-1
 62
142
  6
BYLAYER
 10
7.28326
 20
8.51839
 30
0
 11
7.09293
 21
8.74669
 31
0
  0
LINE
  5
20C55
100
AcDbEntity
  8
0
100
AcDbLine
370
-1
 62
142
  6
BYLAYER
 10
7.09293
 20
8.74669
 30
0
 11
6.88889
 21
8.96442
 31
0
  0
LINE
  5
20C56
100
AcDbEntity
  8
0
100
AcDbLine
370
-1
 62
142
  6
BYLAYER
 10
6.88889
 20
8.96442
 30
0
 11
6.67139
 21
9.1709
 31
0
  0
LINE
  5
20C57
100
AcDbEntity
  8
0
100
AcDbLine
370
-1
 62
142
  6
BYLAYER
 10
6.67139
 20
9.1709
 30
0
 11
6.44069
 21
9.3655
 31
0
  0
LINE
  5
20C58
100
AcDbEntity
  8
0
100
AcDbLine
370
-1
 62
142
  6
BYLAYER
 10
6.44069
 20
9.3655
 30
0
 11
6.197
 21
9.54764
 31
0
  0
LINE
  5
20C59
100
AcDbEntity
  8
0
100
AcDbLine
370
-1
 62
142
  6
BYLAYER
 10
6.197
 20
9.54764
 30
0
 11
5.9406
 21
9.71658
 31
0
  0
LINE
  5
20C5A
100
AcDbEntity
  8
0
100
AcDbLine
370
-1
 62
142
  6
BYLAYER
 10
5.9406
 20
9.71658
 30
0
 11
5.67171
 21
9.87175
 31
0
  0
LINE
  5
20C5B
100
AcDbEntity
  8
0
100
AcDbLine
370
-1
 62
142
  6
BYLAYER
 10
5.67171
 20
9.87175
 30
0
 11
5.39057
 21
10.0124
 31
0
  0
LINE
  5
20C5C
100
AcDbEntity
  8
0
100
AcDbLine
370
-1
 62
142
  6
BYLAYER
 10
5.39057
 20
10.0124
 30
0
 11
5.09744
 21
10.138
 31
0
  0
LINE
  5
20C5D
100
AcDbEntity
  8
0
100
AcDbLine
370
-1
 62
142
  6
BYLAYER
 10
5.09744
 20
10.138
 30
0
 11
4.79254
 21
10.2478
 31
0
  0
LINE
  5
20C5E
100
AcDbEntity
  8
0
100
AcDbLine
370
-1
 62
142
  6
BYLAYER
 10
4.79254
 20
10.2478
 30
0
 11
4.47613
 21
10.3413
 31
0
  0
LINE
  5
20C5F
100
AcDbEntity
  8
0
100
AcDbLine
370
-1
 62
142
  6
BYLAYER
 10
4.47613
 20
10.3413
 30
0
 11
4.14849
 21
10.4177
 31
0
  0
LINE
  5
20C60
100
AcDbEntity
  8
0
100
AcDbLine
370
-1
 62
142
  6
BYLAYER
 10
4.14849
 20
10.4177
 30
0
 11
3.80979
 21
10.4765
 31
0
  0
LINE
  5
20C61
100
AcDbEntity
  8
0
100
AcDbLine
370
-1
 62
142
  6
BYLAYER
 10
3.80979
 20
10.4765
 30
0
 11
3.46035
 21
10.5168
 31
0
  0
LINE
  5
20C62
100
AcDbEntity
  8
0
100
AcDbLine
370
-1
 62
142
  6
BYLAYER
 10
3.46035
 20
10.5168
 30
0
 11
3.19043
 21
10.5353
 31
0
  0
LINE
  5
20C63
100
AcDbEntity
  8
0
100
AcDbLine
370
-1
 62
142
  6
BYLAYER
 10
3.19043
 20
10.5353
 30
0
 11
3.10038
 21
10.5382
 31
0
  0
LINE
  5
20C64
100
AcDbEntity
  8
0
100
AcDbLine
370
-1
 62
142
  6
BYLAYER
 10
3.10038
 20
10.5382
 30
0
 11
3.01025
 21
10.5353
 31
0
  0
LINE
  5
20C65
100
AcDbEntity
  8
0
100
AcDbLine
370
-1
 62
142
  6
BYLAYER
 10
3.01025
 20
10.5353
 30
0
 11
2.74035
 21
10.5168
 31
0
  0
LINE
  5
20C66
100
AcDbEntity
  8
0
100
AcDbLine
370
-1
 62
142
  6
BYLAYER
 10
2.74035
 20
10.5168
 30
0
 11
2.3909
 21
10.4765
 31
0
  0
LINE
  5
20C67
100
AcDbEntity
  8
0
100
AcDbLine
370
-1
 62
142
  6
BYLAYER
 10
2.3909
 20
10.4765
 30
0
 11
2.05225
 21
10.4177
 31
0
  0
LINE
  5
20C68
100
AcDbEntity
  8
0
100
AcDbLine
370
-1
 62
142
  6
BYLAYER
 10
2.05225
 20
10.4177
 30
0
 11
1.72456
 21
10.3413
 31
0
  0
LINE
  5
20C69
100
AcDbEntity
  8
0
100
AcDbLine
370
-1
 62
142
  6
BYLAYER
 10
1.72456
 20
10.3413
 30
0
 11
1.40815
 21
10.2478
 31
0
  0
LINE
  5
20C6A
100
AcDbEntity
  8
0
100
AcDbLine
370
-1
 62
142
  6
BYLAYER
 10
1.40815
 20
10.2478
 30
0
 11
1.1033
 21
10.138
 31
0
  0
LINE
  5
20C6B
100
AcDbEntity
  8
0
100
AcDbLine
370
-1
 62
142
  6
BYLAYER
 10
1.1033
 20
10.138
 30
0
 11
0.810167
 21
10.0124
 31
0
  0
LINE
  5
20C6C
100
AcDbEntity
  8
0
100
AcDbLine
370
-1
 62
142
  6
BYLAYER
 10
0.810167
 20
10.0124
 30
0
 11
0.529025
 21
9.87175
 31
0
  0
LINE
  5
20C6D
100
AcDbEntity
  8
0
100
AcDbLine
370
-1
 62
142
  6
BYLAYER
 10
0.529025
 20
9.87175
 30
0
 11
0.260146
 21
9.71658
 31
0
  0
LINE
  5
20C6E
100
AcDbEntity
  8
0
100
AcDbLine
370
-1
 62
142
  6
BYLAYER
 10
0.260146
 20
9.71658
 30
0
 11
0.00368924
 21
9.54764
 31
0
  0
LINE
  5
20C6F
100
AcDbEntity
  8
0
100
AcDbLine
370
-1
 62
142
  6
BYLAYER
 10
0.00368924
 20
9.54764
 30
0
 11
-0.239963
 21
9.3655
 31
0
  0
LINE
  5
20C70
100
AcDbEntity
  8
0
100
AcDbLine
370
-1
 62
142
  6
BYLAYER
 10
-0.239963
 20
9.3655
 30
0
 11
-0.470703
 21
9.1709
 31
0
  0
LINE
  5
20C71
100
AcDbEntity
  8
0
100
AcDbLine
370
-1
 62
142
  6
BYLAYER
 10
-0.470703
 20
9.1709
 30
0
 11
-0.688151
 21
8.96442
 31
0
  0
LINE
  5
20C72
100
AcDbEntity
  8
0
100
AcDbLine
370
-1
 62
142
  6
BYLAYER
 10
-0.688151
 20
8.96442
 30
0
 11
-0.892199
 21
8.74669
 31
0
  0
LINE
  5
20C73
100
AcDbEntity
  8
0
100
AcDbLine
370
-1
 62
142
  6
BYLAYER
 10
-0.892199
 20
8.74669
 30
0
 11
-1.08252
 21
8.51839
 31
0
  0
LINE
  5
20C74
100
AcDbEntity
  8
0
100
AcDbLine
370
-1
 62
142
  6
BYLAYER
 10
-1.08252
 20
8.51839
 30
0
 11
-1.2589
 21
8.28017
 31
0
  0
LINE
  5
20C75
100
AcDbEntity
  8
0
100
AcDbLine
370
-1
 62
142
  6
BYLAYER
 10
-1.2589
 20
8.28017
 30
0
 11
-1.42111
 21
8.03267
 31
0
  0
LINE
  5
20C76
100
AcDbEntity
  8
0
100
AcDbLine
370
-1
 62
142
  6
BYLAYER
 10
-1.42111
 20
8.03267
 30
0
 11
-1.56885
 21
7.77658
 31
0
  0
LINE
  5
20C77
100
AcDbEntity
  8
0
100
AcDbLine
370
-1
 62
142
  6
BYLAYER
 10
-1.56885
 20
7.77658
 30
0
 11
-1.70193
 21
7.51243
 31
0
  0
LINE
  5
20C78
100
AcDbEntity
  8
0
100
AcDbLine
370
-1
 62
142
  6
BYLAYER
 10
-1.70193
 20
7.51243
 30
0
 11
-1.8201
 21
7.241
 31
0
  0
LINE
  5
20C79
100
AcDbEntity
  8
0
100
AcDbLine
370
-1
 62
142
  6
BYLAYER
 10
-1.8201
 20
7.241
 30
0
 11
-1.92307
 21
6.96283
 31
0
  0
LINE
  5
20C7A
100
AcDbEntity
  8
0
100
AcDbLine
370
-1
 62
142
  6
BYLAYER
 10
-1.92307
 20
6.96283
 30
0
 11
-2.01064
 21
6.67865
 31
0
  0
LINE
  5
20C7B
100
AcDbEntity
  8
0
100
AcDbLine
370
-1
 62
142
  6
BYLAYER
 10
-2.01064
 20
6.67865
 30
0
 11
-2.08251
 21
6.38911
 31
0
  0
LINE
  5
20C7C
100
AcDbEntity
  8
0
100
AcDbLine
370
-1
 62
142
  6
BYLAYER
 10
-2.08251
 20
6.38911
 30
0
 11
-2.13857
 21
6.09472
 31
0
  0
LINE
  5
20C7D
100
AcDbEntity
  8
0
100
AcDbLine
370
-1
 62
142
  6
BYLAYER
 10
-2.13857
 20
6.09472
 30
0
 11
-2.17844
 21
5.79628
 31
0
  0
LINE
  5
20C7E
100
AcDbEntity
  8
0
100
AcDbLine
370
-1
 62
142
  6
BYLAYER
 10
-2.17844
 20
5.79628
 30
0
 11
-2.20193
 21
5.49442
 31
0
  0
LINE
  5
20C7F
100
AcDbEntity
  8
0
100
AcDbLine
370
-1
 62
142
  6
BYLAYER
 10
-2.20193
 20
5.49442
 30
0
 11
-2.20876
 21
5.18967
 31
0
  0
LINE
  5
20C80
100
AcDbEntity
  8
0
100
AcDbLine
370
-1
 62
142
  6
BYLAYER
 10
-2.20876
 20
5.18967
 30
0
 11
-2.19874
 21
4.88282
 31
0
  0
LINE
  5
20C81
100
AcDbEntity
  8
0
100
AcDbLine
370
-1
 62
142
  6
BYLAYER
 10
-2.19874
 20
4.88282
 30
0
 11
-2.1716
 21
4.57438
 31
0
  0
LINE
  5
20C82
100
AcDbEntity
  8
0
100
AcDbLine
370
-1
 62
142
  6
BYLAYER
 10
-2.1716
 20
4.57438
 30
0
 11
-2.12706
 21
4.26514
 31
0
  0
LINE
  5
20C83
100
AcDbEntity
  8
0
100
AcDbLine
370
-1
 62
142
  6
BYLAYER
 10
-2.12706
 20
4.26514
 30
0
 11
-2.06494
 21
3.95562
 31
0
  0
LINE
  5
20C84
100
AcDbEntity
  8
0
100
AcDbLine
370
-1
 62
142
  6
BYLAYER
 10
-2.06494
 20
3.95562
 30
0
 11
-2.00711
 21
3.72319
 31
0
  0
LINE
  5
20C85
100
AcDbEntity
  8
0
100
AcDbLine
370
-1
 62
142
  6
BYLAYER
 10
-2.00711
 20
3.72319
 30
0
 11
-1.98497
 21
3.64654
 31
0
  0
LINE
  5
20C86
100
AcDbEntity
  8
0
100
AcDbLine
370
-1
 62
0
  6
BYLAYER
 10
-3.98133
 20
3.64654
 30
0
 11
-4.00581
 21
3.74881
 31
0
  0
LINE
  5
20C87
100
AcDbEntity
  8
0
100
AcDbLine
370
-1
 62
0
  6
BYLAYER
 10
-4.00581
 20
3.74881
 30
0
 11
-4.06743
 21
4.05826
 31
0
  0
LINE
  5
20C88
100
AcDbEntity
  8
0
100
AcDbLine
370
-1
 62
0
  6
BYLAYER
 10
-4.06743
 20
4.05826
 30
0
 11
-4.12879
 21
4.46886
 31
0
  0
LINE
  5
20C89
100
AcDbEntity
  8
0
100
AcDbLine
370
-1
 62
0
  6
BYLAYER
 10
-4.12879
 20
4.46886
 30
0
 11
-4.16601
 21
4.87761
 31
0
  0
LINE
  5
20C8A
100
AcDbEntity
  8
0
100
AcDbLine
370
-1
 62
0
  6
BYLAYER
 10
-4.16601
 20
4.87761
 30
0
 11
-4.17953
 21
5.28364
 31
0
  0
LINE
  5
20C8B
100
AcDbEntity
  8
0
100
AcDbLine
370
-1
 62
0
  6
BYLAYER
 10
-4.17953
 20
5.28364
 30
0
 11
-4.16982
 21
5.68631
 31
0
  0
LINE
  5
20C8C
100
AcDbEntity
  8
0
100
AcDbLine
370
-1
 62
0
  6
BYLAYER
 10
-4.16982
 20
5.68631
 30
0
 11
-4.13737
 21
6.08475
 31
0
  0
LINE
  5
20C8D
100
AcDbEntity
  8
0
100
AcDbLine
370
-1
 62
0
  6
BYLAYER
 10
-4.13737
 20
6.08475
 30
0
 11
-4.08268
 21
6.47819
 31
0
  0
LINE
  5
20C8E
100
AcDbEntity
  8
0
100
AcDbLine
370
-1
 62
0
  6
BYLAYER
 10
-4.08268
 20
6.47819
 30
0
 11
-4.00624
 21
6.86594
 31
0
  0
LINE
  5
20C8F
100
AcDbEntity
  8
0
100
AcDbLine
370
-1
 62
0
  6
BYLAYER
 10
-4.00624
 20
6.86594
 30
0
 11
-3.90853
 21
7.24713
 31
0
  0
LINE
  5
20C90
100
AcDbEntity
  8
0
100
AcDbLine
370
-1
 62
0
  6
BYLAYER
 10
-3.90853
 20
7.24713
 30
0
 11
-3.78999
 21
7.62104
 31
0
  0
LINE
  5
20C91
100
AcDbEntity
  8
0
100
AcDbLine
370
-1
 62
0
  6
BYLAYER
 10
-3.78999
 20
7.62104
 30
0
 11
-3.65115
 21
7.98693
 31
0
  0
LINE
  5
20C92
100
AcDbEntity
  8
0
100
AcDbLine
370
-1
 62
0
  6
BYLAYER
 10
-3.65115
 20
7.98693
 30
0
 11
-3.49246
 21
8.34392
 31
0
  0
LINE
  5
20C93
100
AcDbEntity
  8
0
100
AcDbLine
370
-1
 62
0
  6
BYLAYER
 10
-3.49246
 20
8.34392
 30
0
 11
-3.31446
 21
8.69135
 31
0
  0
LINE
  5
20C94
100
AcDbEntity
  8
0
100
AcDbLine
370
-1
 62
0
  6
BYLAYER
 10
-3.31446
 20
8.69135
 30
0
 11
-3.11757
 21
9.02843
 31
0
  0
LINE
  5
20C95
100
AcDbEntity
  8
0
100
AcDbLine
370
-1
 62
0
  6
BYLAYER
 10
-3.11757
 20
9.02843
 30
0
 11
-2.90229
 21
9.35433
 31
0
  0
LINE
  5
20C96
100
AcDbEntity
  8
0
100
AcDbLine
370
-1
 62
0
  6
BYLAYER
 10
-2.90229
 20
9.35433
 30
0
 11
-2.66917
 21
9.66829
 31
0
  0
LINE
  5
20C97
100
AcDbEntity
  8
0
100
AcDbLine
370
-1
 62
0
  6
BYLAYER
 10
-2.66917
 20
9.66829
 30
0
 11
-2.41857
 21
9.96957
 31
0
  0
LINE
  5
20C98
100
AcDbEntity
  8
0
100
AcDbLine
370
-1
 62
0
  6
BYLAYER
 10
-2.41857
 20
9.96957
 30
0
 11
-2.1511
 21
10.2574
 31
0
  0
LINE
  5
20C99
100
AcDbEntity
  8
0
100
AcDbLine
370
-1
 62
0
  6
BYLAYER
 10
-2.1511
 20
10.2574
 30
0
 11
-1.86714
 21
10.531
 31
0
  0
LINE
  5
20C9A
100
AcDbEntity
  8
0
100
AcDbLine
370
-1
 62
0
  6
BYLAYER
 10
-1.86714
 20
10.531
 30
0
 11
-1.56722
 21
10.7896
 31
0
  0
LINE
  5
20C9B
100
AcDbEntity
  8
0
100
AcDbLine
370
-1
 62
0
  6
BYLAYER
 10
-1.56722
 20
10.7896
 30
0
 11
-1.25184
 21
11.0324
 31
0
  0
LINE
  5
20C9C
100
AcDbEntity
  8
0
100
AcDbLine
370
-1
 62
0
  6
BYLAYER
 10
-1.25184
 20
11.0324
 30
0
 11
-0.921496
 21
11.2586
 31
0
  0
LINE
  5
20C9D
100
AcDbEntity
  8
0
100
AcDbLine
370
-1
 62
0
  6
BYLAYER
 10
-0.921496
 20
11.2586
 30
0
 11
-0.576606
 21
11.4676
 31
0
  0
LINE
  5
20C9E
100
AcDbEntity
  8
0
100
AcDbLine
370
-1
 62
0
  6
BYLAYER
 10
-0.576606
 20
11.4676
 30
0
 11
-0.217719
 21
11.6584
 31
0
  0
LINE
  5
20C9F
100
AcDbEntity
  8
0
100
AcDbLine
370
-1
 62
0
  6
BYLAYER
 10
-0.217719
 20
11.6584
 30
0
 11
0.154731
 21
11.8303
 31
0
  0
LINE
  5
20CA0
100
AcDbEntity
  8
0
100
AcDbLine
370
-1
 62
0
  6
BYLAYER
 10
0.154731
 20
11.8303
 30
0
 11
0.540201
 21
11.9826
 31
0
  0
LINE
  5
20CA1
100
AcDbEntity
  8
0
100
AcDbLine
370
-1
 62
0
  6
BYLAYER
 10
0.540201
 20
11.9826
 30
0
 11
0.938314
 21
12.1145
 31
0
  0
LINE
  5
20CA2
100
AcDbEntity
  8
0
100
AcDbLine
370
-1
 62
0
  6
BYLAYER
 10
0.938314
 20
12.1145
 30
0
 11
1.34847
 21
12.2253
 31
0
  0
LINE
  5
20CA3
100
AcDbEntity
  8
0
100
AcDbLine
370
-1
 62
0
  6
BYLAYER
 10
1.34847
 20
12.2253
 30
0
 11
1.77024
 21
12.314
 31
0
  0
LINE
  5
20CA4
100
AcDbEntity
  8
0
100
AcDbLine
370
-1
 62
0
  6
BYLAYER
 10
1.77024
 20
12.314
 30
0
 11
2.20313
 21
12.38
 31
0
  0
LINE
  5
20CA5
100
AcDbEntity
  8
0
100
AcDbLine
370
-1
 62
0
  6
BYLAYER
 10
2.20313
 20
12.38
 30
0
 11
2.64665
 21
12.4226
 31
0
  0
LINE
  5
20CA6
100
AcDbEntity
  8
0
100
AcDbLine
370
-1
 62
0
  6
BYLAYER
 10
2.64665
 20
12.4226
 30
0
 11
2.98687
 21
12.4394
 31
0
  0
LINE
  5
20CA7
100
AcDbEntity
  8
0
100
AcDbLine
370
-1
 62
0
  6
BYLAYER
 10
2.98687
 20
12.4394
 30
0
 11
3.10038
 21
12.4408
 31
0
  0
LINE
  5
20CA8
100
AcDbEntity
  8
0
100
AcDbLine
370
-1
 62
0
  6
BYLAYER
 10
3.10038
 20
12.4408
 30
0
 11
3.21382
 21
12.4394
 31
0
  0
LINE
  5
20CA9
100
AcDbEntity
  8
0
100
AcDbLine
370
-1
 62
0
  6
BYLAYER
 10
3.21382
 20
12.4394
 30
0
 11
3.55404
 21
12.4226
 31
0
  0
LINE
  5
20CAA
100
AcDbEntity
  8
0
100
AcDbLine
370
-1
 62
0
  6
BYLAYER
 10
3.55404
 20
12.4226
 30
0
 11
3.99756
 21
12.38
 31
0
  0
LINE
  5
20CAB
100
AcDbEntity
  8
0
100
AcDbLine
370
-1
 62
0
  6
BYLAYER
 10
3.99756
 20
12.38
 30
0
 11
4.43044
 21
12.314
 31
0
  0
LINE
  5
20CAC
100
AcDbEntity
  8
0
100
AcDbLine
370
-1
 62
0
  6
BYLAYER
 10
4.43044
 20
12.314
 30
0
 11
4.85226
 21
12.2253
 31
0
  0
LINE
  5
20CAD
100
AcDbEntity
  8
0
100
AcDbLine
370
-1
 62
0
  6
BYLAYER
 10
4.85226
 20
12.2253
 30
0
 11
5.26243
 21
12.1145
 31
0
  0
LINE
  5
20CAE
100
AcDbEntity
  8
0
100
AcDbLine
370
-1
 62
0
  6
BYLAYER
 10
5.26243
 20
12.1145
 30
0
 11
5.66049
 21
11.9826
 31
0
  0
LINE
  5
20CAF
100
AcDbEntity
  8
0
100
AcDbLine
370
-1
 62
0
  6
BYLAYER
 10
5.66049
 20
11.9826
 30
0
 11
6.04601
 21
11.8303
 31
0
  0
LINE
  5
20CB0
100
AcDbEntity
  8
0
100
AcDbLine
370
-1
 62
0
  6
BYLAYER
 10
6.04601
 20
11.8303
 30
0
 11
6.41846
 21
11.6584
 31
0
  0
LINE
  5
20CB1
100
AcDbEntity
  8
0
100
AcDbLine
370
-1
 62
0
  6
BYLAYER
 10
6.41846
 20
11.6584
 30
0
 11
6.77735
 21
11.4676
 31
0
  0
LINE
  5
20CB2
100
AcDbEntity
  8
0
100
AcDbLine
370
-1
 62
0
  6
BYLAYER
 10
6.77735
 20
11.4676
 30
0
 11
7.12224
 21
11.2586
 31
0
  0
LINE
  5
20CB3
100
AcDbEntity
  8
0
100
AcDbLine
370
-1
 62
0
  6
BYLAYER
 10
7.12224
 20
11.2586
 30
0
 11
7.45258
 21
11.0324
 31
0
  0
LINE
  5
20CB4
100
AcDbEntity
  8
0
100
AcDbLine
370
-1
 62
0
  6
BYLAYER
 10
7.45258
 20
11.0324
 30
0
 11
7.76796
 21
10.7896
 31
0
  0
LINE
  5
20CB5
100
AcDbEntity
  8
0
100
AcDbLine
370
-1
 62
0
  6
BYLAYER
 10
7.76796
 20
10.7896
 30
0
 11
8.06788
 21
10.531
 31
0
  0
LINE
  5
20CB6
100
AcDbEntity
  8
0
100
AcDbLine
370
-1
 62
0
  6
BYLAYER
 10
8.06788
 20
10.531
 30
0
 11
8.35183
 21
10.2574
 31
0
  0
LINE
  5
20CB7
100
AcDbEntity
  8
0
100
AcDbLine
370
-1
 62
0
  6
BYLAYER
 10
8.35183
 20
10.2574
 30
0
 11
8.61931
 21
9.96957
 31
0
  0
LINE
  5
20CB8
100
AcDbEntity
  8
0
100
AcDbLine
370
-1
 62
0
  6
BYLAYER
 10
8.61931
 20
9.96957
 30
0
 11
8.8699
 21
9.66829
 31
0
  0
LINE
  5
20CB9
100
AcDbEntity
  8
0
100
AcDbLine
370
-1
 62
0
  6
BYLAYER
 10
8.8699
 20
9.66829
 30
0
 11
9.10303
 21
9.35433
 31
0
  0
LINE
  5
20CBA
100
AcDbEntity
  8
0
100
AcDbLine
370
-1
 62
0
  6
BYLAYER
 10
9.10303
 20
9.35433
 30
0
 11
9.31831
 21
9.02843
 31
0
  0
LINE
  5
20CBB
100
AcDbEntity
  8
0
100
AcDbLine
370
-1
 62
0
  6
BYLAYER
 10
9.31831
 20
9.02843
 30
0
 11
9.51519
 21
8.69135
 31
0
  0
LINE
  5
20CBC
100
AcDbEntity
  8
0
100
AcDbLine
370
-1
 62
0
  6
BYLAYER
 10
9.51519
 20
8.69135
 30
0
 11
9.69319
 21
8.34392
 31
0
  0
LINE
  5
20CBD
100
AcDbEntity
  8
0
100
AcDbLine
370
-1
 62
0
  6
BYLAYER
 10
9.69319
 20
8.34392
 30
0
 11
9.85189
 21
7.98693
 31
0
  0
LINE
  5
20CBE
100
AcDbEntity
  8
0
100
AcDbLine
370
-1
 62
0
  6
BYLAYER
 10
9.85189
 20
7.98693
 30
0
 11
9.99072
 21
7.62104
 31
0
  0
LINE
  5
20CBF
100
AcDbEntity
  8
0
100
AcDbLine
370
-1
 62
0
  6
BYLAYER
 10
9.99072
 20
7.62104
 30
0
 11
10.1093
 21
7.24713
 31
0
  0
LINE
  5
20CC0
100
AcDbEntity
  8
0
100
AcDbLine
370
-1
 62
0
  6
BYLAYER
 10
10.1093
 20
7.24713
 30
0
 11
10.207
 21
6.86594
 31
0
  0
LINE
  5
20CC1
100
AcDbEntity
  8
0
100
AcDbLine
370
-1
 62
0
  6
BYLAYER
 10
10.207
 20
6.86594
 30
0
 11
10.2834
 21
6.47819
 31
0
  0
LINE
  5
20CC2
100
AcDbEntity
  8
0
100
AcDbLine
370
-1
 62
0
  6
BYLAYER
 10
10.2834
 20
6.47819
 30
0
 11
10.3381
 21
6.08475
 31
0
  0
LINE
  5
20CC3
100
AcDbEntity
  8
0
100
AcDbLine
370
-1
 62
0
  6
BYLAYER
 10
10.3381
 20
6.08475
 30
0
 11
10.3706
 21
5.68631
 31
0
  0
LINE
  5
20CC4
100
AcDbEntity
  8
0
100
AcDbLine
370
-1
 62
0
  6
BYLAYER
 10
10.3706
 20
5.68631
 30
0
 11
10.3803
 21
5.28364
 31
0
  0
LINE
  5
20CC5
100
AcDbEntity
  8
0
100
AcDbLine
370
-1
 62
0
  6
BYLAYER
 10
10.3803
 20
5.28364
 30
0
 11
10.3668
 21
4.87761
 31
0
  0
LINE
  5
20CC6
100
AcDbEntity
  8
0
100
AcDbLine
370
-1
 62
0
  6
BYLAYER
 10
10.3668
 20
4.87761
 30
0
 11
10.3295
 21
4.46886
 31
0
  0
LINE
  5
20CC7
100
AcDbEntity
  8
0
100
AcDbLine
370
-1
 62
0
  6
BYLAYER
 10
10.3295
 20
4.46886
 30
0
 11
10.2682
 21
4.05826
 31
0
  0
LINE
  5
20CC8
100
AcDbEntity
  8
0
100
AcDbLine
370
-1
 62
0
  6
BYLAYER
 10
10.2682
 20
4.05826
 30
0
 11
10.2065
 21
3.74881
 31
0
  0
LINE
  5
20CC9
100
AcDbEntity
  8
0
100
AcDbLine
370
-1
 62
0
  6
BYLAYER
 10
10.2065
 20
3.74881
 30
0
 11
10.1821
 21
3.64654
 31
0
  0
LINE
  5
20CCA
100
AcDbEntity
  8
0
100
AcDbLine
370
-1
 62
0
  6
BYLAYER
 10
10.1821
 20
3.64654
 30
0
 11
8.93576
 21
3.64654
 31
0
  0
LINE
  5
20CCB
100
AcDbEntity
  8
0
100
AcDbLine
370
-1
 62
0
  6
BYLAYER
 10
8.93576
 20
3.64654
 30
0
 11
8.95622
 21
3.72999
 31
0
  0
LINE
  5
20CCC
100
AcDbEntity
  8
0
100
AcDbLine
370
-1
 62
0
  6
BYLAYER
 10
8.95622
 20
3.72999
 30
0
 11
9.00831
 21
3.98253
 31
0
  0
LINE
  5
20CCD
100
AcDbEntity
  8
0
100
AcDbLine
370
-1
 62
0
  6
BYLAYER
 10
9.00831
 20
3.98253
 30
0
 11
9.06179
 21
4.31993
 31
0
  0
LINE
  5
20CCE
100
AcDbEntity
  8
0
100
AcDbLine
370
-1
 62
0
  6
BYLAYER
 10
9.06179
 20
4.31993
 30
0
 11
9.09657
 21
4.65788
 31
0
  0
LINE
  5
20CCF
100
AcDbEntity
  8
0
100
AcDbLine
370
-1
 62
0
  6
BYLAYER
 10
9.09657
 20
4.65788
 30
0
 11
9.11285
 21
4.99571
 31
0
  0
LINE
  5
20CD0
100
AcDbEntity
  8
0
100
AcDbLine
370
-1
 62
0
  6
BYLAYER
 10
9.11285
 20
4.99571
 30
0
 11
9.11089
 21
5.33263
 31
0
  0
LINE
  5
20CD1
100
AcDbEntity
  8
0
100
AcDbLine
370
-1
 62
0
  6
BYLAYER
 10
9.11089
 20
5.33263
 30
0
 11
9.09093
 21
5.66781
 31
0
  0
LINE
  5
20CD2
100
AcDbEntity
  8
0
100
AcDbLine
370
-1
 62
0
  6
BYLAYER
 10
9.09093
 20
5.66781
 30
0
 11
9.05328
 21
6.00043
 31
0
  0
LINE
  5
20CD3
100
AcDbEntity
  8
0
100
AcDbLine
370
-1
 62
0
  6
BYLAYER
 10
9.05328
 20
6.00043
 30
0
 11
8.9981
 21
6.32986
 31
0
  0
LINE
  5
20CD4
100
AcDbEntity
  8
0
100
AcDbLine
370
-1
 62
0
  6
BYLAYER
 10
8.9981
 20
6.32986
 30
0
 11
8.92572
 21
6.65517
 31
0
  0
LINE
  5
20CD5
100
AcDbEntity
  8
0
100
AcDbLine
370
-1
 62
0
  6
BYLAYER
 10
8.92572
 20
6.65517
 30
0
 11
8.83643
 21
6.97564
 31
0
  0
LINE
  5
20CD6
100
AcDbEntity
  8
0
100
AcDbLine
370
-1
 62
0
  6
BYLAYER
 10
8.83643
 20
6.97564
 30
0
 11
8.73036
 21
7.29053
 31
0
  0
LINE
  5
20CD7
100
AcDbEntity
  8
0
100
AcDbLine
370
-1
 62
0
  6
BYLAYER
 10
8.73036
 20
7.29053
 30
0
 11
8.60792
 21
7.59896
 31
0
  0
LINE
  5
20CD8
100
AcDbEntity
  8
0
100
AcDbLine
370
-1
 62
0
  6
BYLAYER
 10
8.60792
 20
7.59896
 30
0
 11
8.46924
 21
7.90022
 31
0
  0
LINE
  5
20CD9
100
AcDbEntity
  8
0
100
AcDbLine
370
-1
 62
0
  6
BYLAYER
 10
8.46924
 20
7.90022
 30
0
 11
8.31461
 21
8.19358
 31
0
  0
LINE
  5
20CDA
100
AcDbEntity
  8
0
100
AcDbLine
370
-1
 62
0
  6
BYLAYER
 10
8.31461
 20
8.19358
 30
0
 11
8.14438
 21
8.47814
 31
0
  0
LINE
  5
20CDB
100
AcDbEntity
  8
0
100
AcDbLine
370
-1
 62
0
  6
BYLAYER
 10
8.14438
 20
8.47814
 30
0
 11
7.95865
 21
8.75319
 31
0
  0
LINE
  5
20CDC
100
AcDbEntity
  8
0
100
AcDbLine
370
-1
 62
0
  6
BYLAYER
 10
7.95865
 20
8.75319
 30
0
 11
7.75782
 21
9.01796
 31
0
  0
LINE
  5
20CDD
100
AcDbEntity
  8
0
100
AcDbLine
370
-1
 62
0
  6
BYLAYER
 10
7.75782
 20
9.01796
 30
0
 11
7.54204
 21
9.2716
 31
0
  0
LINE
  5
20CDE
100
AcDbEntity
  8
0
100
AcDbLine
370
-1
 62
0
  6
BYLAYER
 10
7.54204
 20
9.2716
 30
0
 11
7.31168
 21
9.5134
 31
0
  0
LINE
  5
20CDF
100
AcDbEntity
  8
0
100
AcDbLine
370
-1
 62
0
  6
BYLAYER
 10
7.31168
 20
9.5134
 30
0
 11
7.06689
 21
9.74257
 31
0
  0
LINE
  5
20CE0
100
AcDbEntity
  8
0
100
AcDbLine
370
-1
 62
0
  6
BYLAYER
 10
7.06689
 20
9.74257
 30
0
 11
6.80794
 21
9.95833
 31
0
  0
LINE
  5
20CE1
100
AcDbEntity
  8
0
100
AcDbLine
370
-1
 62
0
  6
BYLAYER
 10
6.80794
 20
9.95833
 30
0
 11
6.53515
 21
10.1599
 31
0
  0
LINE
  5
20CE2
100
AcDbEntity
  8
0
100
AcDbLine
370
-1
 62
0
  6
BYLAYER
 10
6.53515
 20
10.1599
 30
0
 11
6.24869
 21
10.3464
 31
0
  0
LINE
  5
20CE3
100
AcDbEntity
  8
0
100
AcDbLine
370
-1
 62
0
  6
BYLAYER
 10
6.24869
 20
10.3464
 30
0
 11
5.94894
 21
10.5172
 31
0
  0
LINE
  5
20CE4
100
AcDbEntity
  8
0
100
AcDbLine
370
-1
 62
0
  6
BYLAYER
 10
5.94894
 20
10.5172
 30
0
 11
5.63601
 21
10.6715
 31
0
  0
LINE
  5
20CE5
100
AcDbEntity
  8
0
100
AcDbLine
370
-1
 62
0
  6
BYLAYER
 10
5.63601
 20
10.6715
 30
0
 11
5.31028
 21
10.8084
 31
0
  0
LINE
  5
20CE6
100
AcDbEntity
  8
0
100
AcDbLine
370
-1
 62
0
  6
BYLAYER
 10
5.31028
 20
10.8084
 30
0
 11
4.97194
 21
10.9273
 31
0
  0
LINE
  5
20CE7
100
AcDbEntity
  8
0
100
AcDbLine
370
-1
 62
0
  6
BYLAYER
 10
4.97194
 20
10.9273
 30
0
 11
4.62125
 21
11.0272
 31
0
  0
LINE
  5
20CE8
100
AcDbEntity
  8
0
100
AcDbLine
370
-1
 62
0
  6
BYLAYER
 10
4.62125
 20
11.0272
 30
0
 11
4.25851
 21
11.1075
 31
0
  0
LINE
  5
20CE9
100
AcDbEntity
  8
0
100
AcDbLine
370
-1
 62
0
  6
BYLAYER
 10
4.25851
 20
11.1075
 30
0
 11
3.88396
 21
11.1673
 31
0
  0
LINE
  5
20CEA
100
AcDbEntity
  8
0
100
AcDbLine
370
-1
 62
0
  6
BYLAYER
 10
3.88396
 20
11.1673
 30
0
 11
3.49778
 21
11.2059
 31
0
  0
LINE
  5
20CEB
100
AcDbEntity
  8
0
100
AcDbLine
370
-1
 62
0
  6
BYLAYER
 10
3.49778
 20
11.2059
 30
0
 11
3.19971
 21
11.2212
 31
0
  0
LINE
  5
20CEC
100
AcDbEntity
  8
0
100
AcDbLine
370
-1
 62
0
  6
BYLAYER
 10
3.19971
 20
11.2212
 30
0
 11
3.10038
 21
11.2225
 31
0
  0
LINE
  5
20CED
100
AcDbEntity
  8
0
100
AcDbLine
370
-1
 62
0
  6
BYLAYER
 10
3.10038
 20
11.2225
 30
0
 11
3.00097
 21
11.2212
 31
0
  0
LINE
  5
20CEE
100
AcDbEntity
  8
0
100
AcDbLine
370
-1
 62
0
  6
BYLAYER
 10
3.00097
 20
11.2212
 30
0
 11
2.7029
 21
11.2059
 31
0
  0
LINE
  5
20CEF
100
AcDbEntity
  8
0
100
AcDbLine
370
-1
 62
0
  6
BYLAYER
 10
2.7029
 20
11.2059
 30
0
 11
2.31674
 21
11.1673
 31
0
  0
LINE
  5
20CF0
100
AcDbEntity
  8
0
100
AcDbLine
370
-1
 62
0
  6
BYLAYER
 10
2.31674
 20
11.1673
 30
0
 11
1.94217
 21
11.1075
 31
0
  0
LINE
  5
20CF1
100
AcDbEntity
  8
0
100
AcDbLine
370
-1
 62
0
  6
BYLAYER
 10
1.94217
 20
11.1075
 30
0
 11
1.57943
 21
11.0272
 31
0
  0
LINE
  5
20CF2
100
AcDbEntity
  8
0
100
AcDbLine
370
-1
 62
0
  6
BYLAYER
 10
1.57943
 20
11.0272
 30
0
 11
1.22879
 21
10.9273
 31
0
  0
LINE
  5
20CF3
100
AcDbEntity
  8
0
100
AcDbLine
370
-1
 62
0
  6
BYLAYER
 10
1.22879
 20
10.9273
 30
0
 11
0.890408
 21
10.8084
 31
0
  0
LINE
  5
20CF4
100
AcDbEntity
  8
0
100
AcDbLine
370
-1
 62
0
  6
BYLAYER
 10
0.890408
 20
10.8084
 30
0
 11
0.564671
 21
10.6715
 31
0
  0
LINE
  5
20CF5
100
AcDbEntity
  8
0
100
AcDbLine
370
-1
 62
0
  6
BYLAYER
 10
0.564671
 20
10.6715
 30
0
 11
0.25179
 21
10.5172
 31
0
  0
LINE
  5
20CF6
100
AcDbEntity
  8
0
100
AcDbLine
370
-1
 62
0
  6
BYLAYER
 10
0.25179
 20
10.5172
 30
0
 11
-0.0480143
 21
10.3464
 31
0
  0
LINE
  5
20CF7
100
AcDbEntity
  8
0
100
AcDbLine
370
-1
 62
0
  6
BYLAYER
 10
-0.0480143
 20
10.3464
 30
0
 11
-0.334418
 21
10.1599
 31
0
  0
LINE
  5
20CF8
100
AcDbEntity
  8
0
100
AcDbLine
370
-1
 62
0
  6
BYLAYER
 10
-0.334418
 20
10.1599
 30
0
 11
-0.607206
 21
9.95833
 31
0
  0
LINE
  5
20CF9
100
AcDbEntity
  8
0
100
AcDbLine
370
-1
 62
0
  6
BYLAYER
 10
-0.607206
 20
9.95833
 30
0
 11
-0.866157
 21
9.74257
 31
0
  0
LINE
  5
20CFA
100
AcDbEntity
  8
0
100
AcDbLine
370
-1
 62
0
  6
BYLAYER
 10
-0.866157
 20
9.74257
 30
0
 11
-1.11095
 21
9.5134
 31
0
  0
LINE
  5
20CFB
100
AcDbEntity
  8
0
100
AcDbLine
370
-1
 62
0
  6
BYLAYER
 10
-1.11095
 20
9.5134
 30
0
 11
-1.34136
 21
9.2716
 31
0
  0
LINE
  5
20CFC
100
AcDbEntity
  8
0
100
AcDbLine
370
-1
 62
0
  6
BYLAYER
 10
-1.34136
 20
9.2716
 30
0
 11
-1.55707
 21
9.01796
 31
0
  0
LINE
  5
20CFD
100
AcDbEntity
  8
0
100
AcDbLine
370
-1
 62
0
  6
BYLAYER
 10
-1.55707
 20
9.01796
 30
0
 11
-1.75792
 21
8.75319
 31
0
  0
LINE
  5
20CFE
100
AcDbEntity
  8
0
100
AcDbLine
370
-1
 62
0
  6
BYLAYER
 10
-1.75792
 20
8.75319
 30
0
 11
-1.94362
 21
8.47814
 31
0
  0
LINE
  5
20CFF
100
AcDbEntity
  8
0
100
AcDbLine
370
-1
 62
0
  6
BYLAYER
 10
-1.94362
 20
8.47814
 30
0
 11
-2.11388
 21
8.19358
 31
0
  0
LINE
  5
20D00
100
AcDbEntity
  8
0
100
AcDbLine
370
-1
 62
0
  6
BYLAYER
 10
-2.11388
 20
8.19358
 30
0
 11
-2.2685
 21
7.90022
 31
0
  0
LINE
  5
20D01
100
AcDbEntity
  8
0
100
AcDbLine
370
-1
 62
0
  6
BYLAYER
 10
-2.2685
 20
7.90022
 30
0
 11
-2.40717
 21
7.59896
 31
0
  0
LINE
  5
20D02
100
AcDbEntity
  8
0
100
AcDbLine
370
-1
 62
0
  6
BYLAYER
 10
-2.40717
 20
7.59896
 30
0
 11
-2.52962
 21
7.29053
 31
0
  0
LINE
  5
20D03
100
AcDbEntity
  8
0
100
AcDbLine
370
-1
 62
0
  6
BYLAYER
 10
-2.52962
 20
7.29053
 30
0
 11
-2.63569
 21
6.97564
 31
0
  0
LINE
  5
20D04
100
AcDbEntity
  8
0
100
AcDbLine
370
-1
 62
0
  6
BYLAYER
 10
-2.63569
 20
6.97564
 30
0
 11
-2.72499
 21
6.65517
 31
0
  0
LINE
  5
20D05
100
AcDbEntity
  8
0
100
AcDbLine
370
-1
 62
0
  6
BYLAYER
 10
-2.72499
 20
6.65517
 30
0
 11
-2.79736
 21
6.32986
 31
0
  0
LINE
  5
20D06
100
AcDbEntity
  8
0
100
AcDbLine
370
-1
 62
0
  6
BYLAYER
 10
-2.79736
 20
6.32986
 30
0
 11
-2.85254
 21
6.00043
 31
0
  0
LINE
  5
20D07
100
AcDbEntity
  8
0
100
AcDbLine
370
-1
 62
0
  6
BYLAYER
 10
-2.85254
 20
6.00043
 30
0
 11
-2.89019
 21
5.66781
 31
0
  0
LINE
  5
20D08
100
AcDbEntity
  8
0
100
AcDbLine
370
-1
 62
0
  6
BYLAYER
 10
-2.89019
 20
5.66781
 30
0
 11
-2.91015
 21
5.33263
 31
0
  0
LINE
  5
20D09
100
AcDbEntity
  8
0
100
AcDbLine
370
-1
 62
0
  6
BYLAYER
 10
-2.91015
 20
5.33263
 30
0
 11
-2.91211
 21
4.99571
 31
0
  0
LINE
  5
20D0A
100
AcDbEntity
  8
0
100
AcDbLine
370
-1
 62
0
  6
BYLAYER
 10
-2.91211
 20
4.99571
 30
0
 11
-2.89583
 21
4.65788
 31
0
  0
LINE
  5
20D0B
100
AcDbEntity
  8
0
100
AcDbLine
370
-1
 62
0
  6
BYLAYER
 10
-2.89583
 20
4.65788
 30
0
 11
-2.86106
 21
4.31993
 31
0
  0
LINE
  5
20D0C
100
AcDbEntity
  8
0
100
AcDbLine
370
-1
 62
0
  6
BYLAYER
 10
-2.86106
 20
4.31993
 30
0
 11
-2.80757
 21
3.98253
 31
0
  0
LINE
  5
20D0D
100
AcDbEntity
  8
0
100
AcDbLine
370
-1
 62
0
  6
BYLAYER
 10
-2.80757
 20
3.98253
 30
0
 11
-2.75543
 21
3.72999
 31
0
  0
LINE
  5
20D0E
100
AcDbEntity
  8
0
100
AcDbLine
370
-1
 62
0
  6
BYLAYER
 10
-2.75543
 20
3.72999
 30
0
 11
-2.73497
 21
3.64654
 31
0
  0
LINE
  5
20D0F
100
AcDbEntity
  8
0
100
AcDbLine
370
-1
 62
0
  6
BYLAYER
 10
-2.73497
 20
3.64654
 30
0
 11
-3.98133
 21
3.64654
 31
0
  0
LINE
  5
20D10
100
AcDbEntity
  8
0
100
AcDbLine
370
-1
 62
0
  6
BYLAYER
 10
3.08475
 20
5.63118
 30
0
 11
3.10374
 21
5.63118
 31
0
  0
LINE
  5
20D11
100
AcDbEntity
  8
0
100
AcDbLine
370
-1
 62
0
  6
BYLAYER
 10
3.10374
 20
5.63118
 30
0
 11
3.16081
 21
5.62354
 31
0
  0
LINE
  5
20D12
100
AcDbEntity
  8
0
100
AcDbLine
370
-1
 62
0
  6
BYLAYER
 10
3.16081
 20
5.62354
 30
0
 11
3.23172
 21
5.60157
 31
0
  0
LINE
  5
20D13
100
AcDbEntity
  8
0
100
AcDbLine
370
-1
 62
0
  6
BYLAYER
 10
3.23172
 20
5.60157
 30
0
 11
3.29585
 21
5.56674
 31
0
  0
LINE
  5
20D14
100
AcDbEntity
  8
0
100
AcDbLine
370
-1
 62
0
  6
BYLAYER
 10
3.29585
 20
5.56674
 30
0
 11
3.35172
 21
5.52061
 31
0
  0
LINE
  5
20D15
100
AcDbEntity
  8
0
100
AcDbLine
370
-1
 62
0
  6
BYLAYER
 10
3.35172
 20
5.52061
 30
0
 11
3.39785
 21
5.46474
 31
0
  0
LINE
  5
20D16
100
AcDbEntity
  8
0
100
AcDbLine
370
-1
 62
0
  6
BYLAYER
 10
3.39785
 20
5.46474
 30
0
 11
3.43267
 21
5.40061
 31
0
  0
LINE
  5
20D17
100
AcDbEntity
  8
0
100
AcDbLine
370
-1
 62
0
  6
BYLAYER
 10
3.43267
 20
5.40061
 30
0
 11
3.45464
 21
5.32969
 31
0
  0
LINE
  5
20D18
100
AcDbEntity
  8
0
100
AcDbLine
370
-1
 62
0
  6
BYLAYER
 10
3.45464
 20
5.32969
 30
0
 11
3.46235
 21
5.27263
 31
0
  0
LINE
  5
20D19
100
AcDbEntity
  8
0
100
AcDbLine
370
-1
 62
0
  6
BYLAYER
 10
3.46235
 20
5.27263
 30
0
 11
3.46235
 21
5.25358
 31
0
  0
LINE
  5
20D1A
100
AcDbEntity
  8
0
100
AcDbLine
370
-1
 62
0
  6
BYLAYER
 10
3.46235
 20
5.25358
 30
0
 11
3.46235
 21
5.2346
 31
0
  0
LINE
  5
20D1B
100
AcDbEntity
  8
0
100
AcDbLine
370
-1
 62
0
  6
BYLAYER
 10
3.46235
 20
5.2346
 30
0
 11
3.45464
 21
5.17751
 31
0
  0
LINE
  5
20D1C
100
AcDbEntity
  8
0
100
AcDbLine
370
-1
 62
0
  6
BYLAYER
 10
3.45464
 20
5.17751
 30
0
 11
3.43267
 21
5.10661
 31
0
  0
LINE
  5
20D1D
100
AcDbEntity
  8
0
100
AcDbLine
370
-1
 62
0
  6
BYLAYER
 10
3.43267
 20
5.10661
 30
0
 11
3.39785
 21
5.04249
 31
0
  0
LINE
  5
20D1E
100
AcDbEntity
  8
0
100
AcDbLine
370
-1
 62
0
  6
BYLAYER
 10
3.39785
 20
5.04249
 30
0
 11
3.35172
 21
4.9866
 31
0
  0
LINE
  5
20D1F
100
AcDbEntity
  8
0
100
AcDbLine
370
-1
 62
0
  6
BYLAYER
 10
3.35172
 20
4.9866
 30
0
 11
3.29585
 21
4.94049
 31
0
  0
LINE
  5
20D20
100
AcDbEntity
  8
0
100
AcDbLine
370
-1
 62
0
  6
BYLAYER
 10
3.29585
 20
4.94049
 30
0
 11
3.23172
 21
4.90565
 31
0
  0
LINE
  5
20D21
100
AcDbEntity
  8
0
100
AcDbLine
370
-1
 62
0
  6
BYLAYER
 10
3.23172
 20
4.90565
 30
0
 11
3.16081
 21
4.88368
 31
0
  0
LINE
  5
20D22
100
AcDbEntity
  8
0
100
AcDbLine
370
-1
 62
0
  6
BYLAYER
 10
3.16081
 20
4.88368
 30
0
 11
3.10374
 21
4.87597
 31
0
  0
LINE
  5
20D23
100
AcDbEntity
  8
0
100
AcDbLine
370
-1
 62
0
  6
BYLAYER
 10
3.10374
 20
4.87597
 30
0
 11
3.08475
 21
4.87597
 31
0
  0
LINE
  5
20D24
100
AcDbEntity
  8
0
100
AcDbLine
370
-1
 62
0
  6
BYLAYER
 10
3.08475
 20
4.87597
 30
0
 11
3.06569
 21
4.87597
 31
0
  0
LINE
  5
20D25
100
AcDbEntity
  8
0
100
AcDbLine
370
-1
 62
0
  6
BYLAYER
 10
3.06569
 20
4.87597
 30
0
 11
3.00863
 21
4.88368
 31
0
  0
LINE
  5
20D26
100
AcDbEntity
  8
0
100
AcDbLine
370
-1
 62
0
  6
BYLAYER
 10
3.00863
 20
4.88368
 30
0
 11
2.93772
 21
4.90565
 31
0
  0
LINE
  5
20D27
100
AcDbEntity
  8
0
100
AcDbLine
370
-1
 62
0
  6
BYLAYER
 10
2.93772
 20
4.90565
 30
0
 11
2.87358
 21
4.94049
 31
0
  0
LINE
  5
20D28
100
AcDbEntity
  8
0
100
AcDbLine
370
-1
 62
0
  6
BYLAYER
 10
2.87358
 20
4.94049
 30
0
 11
2.81771
 21
4.9866
 31
0
  0
LINE
  5
20D29
100
AcDbEntity
  8
0
100
AcDbLine
370
-1
 62
0
  6
BYLAYER
 10
2.81771
 20
4.9866
 30
0
 11
2.7716
 21
5.04249
 31
0
  0
LINE
  5
20D2A
100
AcDbEntity
  8
0
100
AcDbLine
370
-1
 62
0
  6
BYLAYER
 10
2.7716
 20
5.04249
 30
0
 11
2.73676
 21
5.10661
 31
0
  0
LINE
  5
20D2B
100
AcDbEntity
  8
0
100
AcDbLine
370
-1
 62
0
  6
BYLAYER
 10
2.73676
 20
5.10661
 30
0
 11
2.71479
 21
5.17751
 31
0
  0
LINE
  5
20D2C
100
AcDbEntity
  8
0
100
AcDbLine
370
-1
 62
0
  6
BYLAYER
 10
2.71479
 20
5.17751
 30
0
 11
2.70714
 21
5.2346
 31
0
  0
LINE
  5
20D2D
100
AcDbEntity
  8
0
100
AcDbLine
370
-1
 62
0
  6
BYLAYER
 10
2.70714
 20
5.2346
 30
0
 11
2.70714
 21
5.25358
 31
0
  0
LINE
  5
20D2E
100
AcDbEntity
  8
0
100
AcDbLine
370
-1
 62
0
  6
BYLAYER
 10
2.70714
 20
5.25358
 30
0
 11
2.70714
 21
5.27263
 31
0
  0
LINE
  5
20D2F
100
AcDbEntity
  8
0
100
AcDbLine
370
-1
 62
0
  6
BYLAYER
 10
2.70714
 20
5.27263
 30
0
 11
2.71479
 21
5.32969
 31
0
  0
LINE
  5
20D30
100
AcDbEntity
  8
0
100
AcDbLine
370
-1
 62
0
  6
BYLAYER
 10
2.71479
 20
5.32969
 30
0
 11
2.73676
 21
5.40061
 31
0
  0
LINE
  5
20D31
100
AcDbEntity
  8
0
100
AcDbLine
370
-1
 62
0
  6
BYLAYER
 10
2.73676
 20
5.40061
 30
0
 11
2.7716
 21
5.46474
 31
0
  0
LINE
  5
20D32
100
AcDbEntity
  8
0
100
AcDbLine
370
-1
 62
0
  6
BYLAYER
 10
2.7716
 20
5.46474
 30
0
 11
2.81771
 21
5.52061
 31
0
  0
LINE
  5
20D33
100
AcDbEntity
  8
0
100
AcDbLine
370
-1
 62
0
  6
BYLAYER
 10
2.81771
 20
5.52061
 30
0
 11
2.87358
 21
5.56674
 31
0
  0
LINE
  5
20D34
100
AcDbEntity
  8
0
100
AcDbLine
370
-1
 62
0
  6
BYLAYER
 10
2.87358
 20
5.56674
 30
0
 11
2.93772
 21
5.60157
 31
0
  0
LINE
  5
20D35
100
AcDbEntity
  8
0
100
AcDbLine
370
-1
 62
0
  6
BYLAYER
 10
2.93772
 20
5.60157
 30
0
 11
3.00863
 21
5.62354
 31
0
  0
LINE
  5
20D36
100
AcDbEntity
  8
0
100
AcDbLine
370
-1
 62
0
  6
BYLAYER
 10
3.00863
 20
5.62354
 30
0
 11
3.06569
 21
5.63118
 31
0
  0
LINE
  5
20D37
100
AcDbEntity
  8
0
100
AcDbLine
370
-1
 62
0
  6
BYLAYER
 10
3.06569
 20
5.63118
 30
0
 11
3.08475
 21
5.63118
 31
0
  0
LINE
  5
20D38
100
AcDbEntity
  8
0
100
AcDbLine
370
-1
 62
0
  6
BYLAYER
 10
-1.98497
 20
3.64654
 30
0
 11
-0.693306
 21
3.64654
 31
0
  0
LINE
  5
20D39
100
AcDbEntity
  8
0
100
AcDbLine
370
-1
 62
0
  6
BYLAYER
 10
-0.693306
 20
3.64654
 30
0
 11
-0.713867
 21
3.70085
 31
0
  0
LINE
  5
20D3A
100
AcDbEntity
  8
0
100
AcDbLine
370
-1
 62
0
  6
BYLAYER
 10
-0.713867
 20
3.70085
 30
0
 11
-0.769476
 21
3.866
 31
0
  0
LINE
  5
20D3B
100
AcDbEntity
  8
0
100
AcDbLine
370
-1
 62
0
  6
BYLAYER
 10
-0.769476
 20
3.866
 30
0
 11
-0.833496
 21
4.09017
 31
0
  0
LINE
  5
20D3C
100
AcDbEntity
  8
0
100
AcDbLine
370
-1
 62
0
  6
BYLAYER
 10
-0.833496
 20
4.09017
 30
0
 11
-0.885417
 21
4.31831
 31
0
  0
LINE
  5
20D3D
100
AcDbEntity
  8
0
100
AcDbLine
370
-1
 62
0
  6
BYLAYER
 10
-0.885417
 20
4.31831
 30
0
 11
-0.925185
 21
4.54964
 31
0
  0
LINE
  5
20D3E
100
AcDbEntity
  8
0
100
AcDbLine
370
-1
 62
0
  6
BYLAYER
 10
-0.925185
 20
4.54964
 30
0
 11
-0.952746
 21
4.78342
 31
0
  0
LINE
  5
20D3F
100
AcDbEntity
  8
0
100
AcDbLine
370
-1
 62
0
  6
BYLAYER
 10
-0.952746
 20
4.78342
 30
0
 11
-0.96799
 21
5.01899
 31
0
  0
LINE
  5
20D40
100
AcDbEntity
  8
0
100
AcDbLine
370
-1
 62
0
  6
BYLAYER
 10
-0.96799
 20
5.01899
 30
0
 11
-0.970975
 21
5.25549
 31
0
  0
LINE
  5
20D41
100
AcDbEntity
  8
0
100
AcDbLine
370
-1
 62
0
  6
BYLAYER
 10
-0.970975
 20
5.25549
 30
0
 11
-0.961589
 21
5.49219
 31
0
  0
LINE
  5
20D42
100
AcDbEntity
  8
0
100
AcDbLine
370
-1
 62
0
  6
BYLAYER
 10
-0.961589
 20
5.49219
 30
0
 11
-0.939779
 21
5.7284
 31
0
  0
LINE
  5
20D43
100
AcDbEntity
  8
0
100
AcDbLine
370
-1
 62
0
  6
BYLAYER
 10
-0.939779
 20
5.7284
 30
0
 11
-0.90549
 21
5.96332
 31
0
  0
LINE
  5
20D44
100
AcDbEntity
  8
0
100
AcDbLine
370
-1
 62
0
  6
BYLAYER
 10
-0.90549
 20
5.96332
 30
0
 11
-0.858669
 21
6.19629
 31
0
  0
LINE
  5
20D45
100
AcDbEntity
  8
0
100
AcDbLine
370
-1
 62
0
  6
BYLAYER
 10
-0.858669
 20
6.19629
 30
0
 11
-0.799371
 21
6.42643
 31
0
  0
LINE
  5
20D46
100
AcDbEntity
  8
0
100
AcDbLine
370
-1
 62
0
  6
BYLAYER
 10
-0.799371
 20
6.42643
 30
0
 11
-0.727376
 21
6.6531
 31
0
  0
LINE
  5
20D47
100
AcDbEntity
  8
0
100
AcDbLine
370
-1
 62
0
  6
BYLAYER
 10
-0.727376
 20
6.6531
 30
0
 11
-0.642796
 21
6.87549
 31
0
  0
LINE
  5
20D48
100
AcDbEntity
  8
0
100
AcDbLine
370
-1
 62
0
  6
BYLAYER
 10
-0.642796
 20
6.87549
 30
0
 11
-0.545464
 21
7.09293
 31
0
  0
LINE
  5
20D49
100
AcDbEntity
  8
0
100
AcDbLine
370
-1
 62
0
  6
BYLAYER
 10
-0.545464
 20
7.09293
 30
0
 11
-0.435385
 21
7.30458
 31
0
  0
LINE
  5
20D4A
100
AcDbEntity
  8
0
100
AcDbLine
370
-1
 62
0
  6
BYLAYER
 10
-0.435385
 20
7.30458
 30
0
 11
-0.3125
 21
7.50971
 31
0
  0
LINE
  5
20D4B
100
AcDbEntity
  8
0
100
AcDbLine
370
-1
 62
0
  6
BYLAYER
 10
-0.3125
 20
7.50971
 30
0
 11
-0.176758
 21
7.70762
 31
0
  0
LINE
  5
20D4C
100
AcDbEntity
  8
0
100
AcDbLine
370
-1
 62
0
  6
BYLAYER
 10
-0.176758
 20
7.70762
 30
0
 11
-0.0281575
 21
7.89757
 31
0
  0
LINE
  5
20D4D
100
AcDbEntity
  8
0
100
AcDbLine
370
-1
 62
0
  6
BYLAYER
 10
-0.0281575
 20
7.89757
 30
0
 11
0.133409
 21
8.07878
 31
0
  0
LINE
  5
20D4E
100
AcDbEntity
  8
0
100
AcDbLine
370
-1
 62
0
  6
BYLAYER
 10
0.133409
 20
8.07878
 30
0
 11
0.307997
 21
8.25049
 31
0
  0
LINE
  5
20D4F
100
AcDbEntity
  8
0
100
AcDbLine
370
-1
 62
0
  6
BYLAYER
 10
0.307997
 20
8.25049
 30
0
 11
0.49566
 21
8.41194
 31
0
  0
LINE
  5
20D50
100
AcDbEntity
  8
0
100
AcDbLine
370
-1
 62
0
  6
BYLAYER
 10
0.49566
 20
8.41194
 30
0
 11
0.696343
 21
8.56244
 31
0
  0
LINE
  5
20D51
100
AcDbEntity
  8
0
100
AcDbLine
370
-1
 62
0
  6
BYLAYER
 10
0.696343
 20
8.56244
 30
0
 11
0.910211
 21
8.70122
 31
0
  0
LINE
  5
20D52
100
AcDbEntity
  8
0
100
AcDbLine
370
-1
 62
0
  6
BYLAYER
 10
0.910211
 20
8.70122
 30
0
 11
1.13732
 21
8.82753
 31
0
  0
LINE
  5
20D53
100
AcDbEntity
  8
0
100
AcDbLine
370
-1
 62
0
  6
BYLAYER
 10
1.13732
 20
8.82753
 30
0
 11
1.3776
 21
8.9406
 31
0
  0
LINE
  5
20D54
100
AcDbEntity
  8
0
100
AcDbLine
370
-1
 62
0
  6
BYLAYER
 10
1.3776
 20
8.9406
 30
0
 11
1.63124
 21
9.03971
 31
0
  0
LINE
  5
20D55
100
AcDbEntity
  8
0
100
AcDbLine
370
-1
 62
0
  6
BYLAYER
 10
1.63124
 20
9.03971
 30
0
 11
1.89817
 21
9.12414
 31
0
  0
LINE
  5
20D56
100
AcDbEntity
  8
0
100
AcDbLine
370
-1
 62
0
  6
BYLAYER
 10
1.89817
 20
9.12414
 30
0
 11
2.1785
 21
9.19308
 31
0
  0
LINE
  5
20D57
100
AcDbEntity
  8
0
100
AcDbLine
370
-1
 62
0
  6
BYLAYER
 10
2.1785
 20
9.19308
 30
0
 11
2.47228
 21
9.24582
 31
0
  0
LINE
  5
20D58
100
AcDbEntity
  8
0
100
AcDbLine
370
-1
 62
0
  6
BYLAYER
 10
2.47228
 20
9.24582
 30
0
 11
2.77951
 21
9.28162
 31
0
  0
LINE
  5
20D59
100
AcDbEntity
  8
0
100
AcDbLine
370
-1
 62
0
  6
BYLAYER
 10
2.77951
 20
9.28162
 30
0
 11
3.02007
 21
9.29753
 31
0
  0
LINE
  5
20D5A
100
AcDbEntity
  8
0
100
AcDbLine
370
-1
 62
0
  6
BYLAYER
 10
3.02007
 20
9.29753
 30
0
 11
3.10038
 21
9.29969
 31
0
  0
LINE
  5
20D5B
100
AcDbEntity
  8
0
100
AcDbLine
370
-1
 62
0
  6
BYLAYER
 10
3.10038
 20
9.29969
 30
0
 11
3.23113
 21
9.29611
 31
0
  0
LINE
  5
20D5C
100
AcDbEntity
  8
0
100
AcDbLine
370
-1
 62
0
  6
BYLAYER
 10
3.23113
 20
9.29611
 30
0
 11
3.62289
 21
9.26025
 31
0
  0
LINE
  5
20D5D
100
AcDbEntity
  8
0
100
AcDbLine
370
-1
 62
0
  6
BYLAYER
 10
3.62289
 20
9.26025
 30
0
 11
4.10856
 21
9.17389
 31
0
  0
LINE
  5
20D5E
100
AcDbEntity
  8
0
100
AcDbLine
370
-1
 62
0
  6
BYLAYER
 10
4.10856
 20
9.17389
 30
0
 11
4.55767
 21
9.04389
 31
0
  0
LINE
  5
20D5F
100
AcDbEntity
  8
0
100
AcDbLine
370
-1
 62
0
  6
BYLAYER
 10
4.55767
 20
9.04389
 30
0
 11
4.97038
 21
8.87369
 31
0
  0
LINE
  5
20D60
100
AcDbEntity
  8
0
100
AcDbLine
370
-1
 62
0
  6
BYLAYER
 10
4.97038
 20
8.87369
 30
0
 11
5.34685
 21
8.66661
 31
0
  0
LINE
  5
20D61
100
AcDbEntity
  8
0
100
AcDbLine
370
-1
 62
0
  6
BYLAYER
 10
5.34685
 20
8.66661
 30
0
 11
5.68739
 21
8.42606
 31
0
  0
LINE
  5
20D62
100
AcDbEntity
  8
0
100
AcDbLine
370
-1
 62
0
  6
BYLAYER
 10
5.68739
 20
8.42606
 30
0
 11
5.99224
 21
8.15539
 31
0
  0
LINE
  5
20D63
100
AcDbEntity
  8
0
100
AcDbLine
370
-1
 62
0
  6
BYLAYER
 10
5.99224
 20
8.15539
 30
0
 11
6.26156
 21
7.85792
 31
0
  0
LINE
  5
20D64
100
AcDbEntity
  8
0
100
AcDbLine
370
-1
 62
0
  6
BYLAYER
 10
6.26156
 20
7.85792
 30
0
 11
6.49556
 21
7.53711
 31
0
  0
LINE
  5
20D65
100
AcDbEntity
  8
0
100
AcDbLine
370
-1
 62
0
  6
BYLAYER
 10
6.49556
 20
7.53711
 30
0
 11
6.69444
 21
7.19624
 31
0
  0
LINE
  5
20D66
100
AcDbEntity
  8
0
100
AcDbLine
370
-1
 62
0
  6
BYLAYER
 10
6.69444
 20
7.19624
 30
0
 11
6.85851
 21
6.83871
 31
0
  0
LINE
  5
20D67
100
AcDbEntity
  8
0
100
AcDbLine
370
-1
 62
0
  6
BYLAYER
 10
6.85851
 20
6.83871
 30
0
 11
6.98796
 21
6.46783
 31
0
  0
LINE
  5
20D68
100
AcDbEntity
  8
0
100
AcDbLine
370
-1
 62
0
  6
BYLAYER
 10
6.98796
 20
6.46783
 30
0
 11
7.08301
 21
6.08708
 31
0
  0
LINE
  5
20D69
100
AcDbEntity
  8
0
100
AcDbLine
370
-1
 62
0
  6
BYLAYER
 10
7.08301
 20
6.08708
 30
0
 11
7.14382
 21
5.69971
 31
0
  0
LINE
  5
20D6A
100
AcDbEntity
  8
0
100
AcDbLine
370
-1
 62
0
  6
BYLAYER
 10
7.14382
 20
5.69971
 30
0
 11
7.17068
 21
5.30914
 31
0
  0
LINE
  5
20D6B
100
AcDbEntity
  8
0
100
AcDbLine
370
-1
 62
0
  6
BYLAYER
 10
7.17068
 20
5.30914
 30
0
 11
7.16971
 21
5.01611
 31
0
  0
LINE
  5
20D6C
100
AcDbEntity
  8
0
100
AcDbLine
370
-1
 62
0
  6
BYLAYER
 10
7.16971
 20
5.01611
 30
0
 11
7.16379
 21
4.91872
 31
0
  0
LINE
  5
20D6D
100
AcDbEntity
  8
0
100
AcDbLine
370
-1
 62
0
  6
BYLAYER
 10
7.16379
 20
4.91872
 30
0
 11
6.55371
 21
4.92275
 31
0
  0
LINE
  5
20D6E
100
AcDbEntity
  8
0
100
AcDbLine
370
-1
 62
0
  6
BYLAYER
 10
6.55371
 20
4.92275
 30
0
 11
6.56196
 21
5.00754
 31
0
  0
LINE
  5
20D6F
100
AcDbEntity
  8
0
100
AcDbLine
370
-1
 62
0
  6
BYLAYER
 10
6.56196
 20
5.00754
 30
0
 11
6.56967
 21
5.26346
 31
0
  0
LINE
  5
20D70
100
AcDbEntity
  8
0
100
AcDbLine
370
-1
 62
0
  6
BYLAYER
 10
6.56967
 20
5.26346
 30
0
 11
6.55192
 21
5.60346
 31
0
  0
LINE
  5
20D71
100
AcDbEntity
  8
0
100
AcDbLine
370
-1
 62
0
  6
BYLAYER
 10
6.55192
 20
5.60346
 30
0
 11
6.50097
 21
5.94006
 31
0
  0
LINE
  5
20D72
100
AcDbEntity
  8
0
100
AcDbLine
370
-1
 62
0
  6
BYLAYER
 10
6.50097
 20
5.94006
 30
0
 11
6.41749
 21
6.27035
 31
0
  0
LINE
  5
20D73
100
AcDbEntity
  8
0
100
AcDbLine
370
-1
 62
0
  6
BYLAYER
 10
6.41749
 20
6.27035
 30
0
 11
6.30203
 21
6.59153
 31
0
  0
LINE
  5
20D74
100
AcDbEntity
  8
0
100
AcDbLine
370
-1
 62
0
  6
BYLAYER
 10
6.30203
 20
6.59153
 30
0
 11
6.15528
 21
6.90067
 31
0
  0
LINE
  5
20D75
100
AcDbEntity
  8
0
100
AcDbLine
370
-1
 62
0
  6
BYLAYER
 10
6.15528
 20
6.90067
 30
0
 11
5.97781
 21
7.19493
 31
0
  0
LINE
  5
20D76
100
AcDbEntity
  8
0
100
AcDbLine
370
-1
 62
0
  6
BYLAYER
 10
5.97781
 20
7.19493
 30
0
 11
5.77024
 21
7.47151
 31
0
  0
LINE
  5
20D77
100
AcDbEntity
  8
0
100
AcDbLine
370
-1
 62
0
  6
BYLAYER
 10
5.77024
 20
7.47151
 30
0
 11
5.53321
 21
7.72754
 31
0
  0
LINE
  5
20D78
100
AcDbEntity
  8
0
100
AcDbLine
370
-1
 62
0
  6
BYLAYER
 10
5.53321
 20
7.72754
 30
0
 11
5.26731
 21
7.96024
 31
0
  0
LINE
  5
20D79
100
AcDbEntity
  8
0
100
AcDbLine
370
-1
 62
0
  6
BYLAYER
 10
5.26731
 20
7.96024
 30
0
 11
4.97319
 21
8.16667
 31
0
  0
LINE
  5
20D7A
100
AcDbEntity
  8
0
100
AcDbLine
370
-1
 62
0
  6
BYLAYER
 10
4.97319
 20
8.16667
 30
0
 11
4.65142
 21
8.34397
 31
0
  0
LINE
  5
20D7B
100
AcDbEntity
  8
0
100
AcDbLine
370
-1
 62
0
  6
BYLAYER
 10
4.65142
 20
8.34397
 30
0
 11
4.30263
 21
8.48936
 31
0
  0
LINE
  5
20D7C
100
AcDbEntity
  8
0
100
AcDbLine
370
-1
 62
0
  6
BYLAYER
 10
4.30263
 20
8.48936
 30
0
 11
3.92746
 21
8.59999
 31
0
  0
LINE
  5
20D7D
100
AcDbEntity
  8
0
100
AcDbLine
370
-1
 62
0
  6
BYLAYER
 10
3.92746
 20
8.59999
 30
0
 11
3.52647
 21
8.67296
 31
0
  0
LINE
  5
20D7E
100
AcDbEntity
  8
0
100
AcDbLine
370
-1
 62
0
  6
BYLAYER
 10
3.52647
 20
8.67296
 30
0
 11
3.20703
 21
8.70275
 31
0
  0
LINE
  5
20D7F
100
AcDbEntity
  8
0
100
AcDbLine
370
-1
 62
0
  6
BYLAYER
 10
3.20703
 20
8.70275
 30
0
 11
3.10038
 21
8.70546
 31
0
  0
LINE
  5
20D80
100
AcDbEntity
  8
0
100
AcDbLine
370
-1
 62
0
  6
BYLAYER
 10
3.10038
 20
8.70546
 30
0
 11
3.03326
 21
8.70378
 31
0
  0
LINE
  5
20D81
100
AcDbEntity
  8
0
100
AcDbLine
370
-1
 62
0
  6
BYLAYER
 10
3.03326
 20
8.70378
 30
0
 11
2.83219
 21
8.69021
 31
0
  0
LINE
  5
20D82
100
AcDbEntity
  8
0
100
AcDbLine
370
-1
 62
0
  6
BYLAYER
 10
2.83219
 20
8.69021
 30
0
 11
2.57374
 21
8.65896
 31
0
  0
LINE
  5
20D83
100
AcDbEntity
  8
0
100
AcDbLine
370
-1
 62
0
  6
BYLAYER
 10
2.57374
 20
8.65896
 30
0
 11
2.32503
 21
8.61236
 31
0
  0
LINE
  5
20D84
100
AcDbEntity
  8
0
100
AcDbLine
370
-1
 62
0
  6
BYLAYER
 10
2.32503
 20
8.61236
 30
0
 11
2.08621
 21
8.55117
 31
0
  0
LINE
  5
20D85
100
AcDbEntity
  8
0
100
AcDbLine
370
-1
 62
0
  6
BYLAYER
 10
2.08621
 20
8.55117
 30
0
 11
1.85753
 21
8.47597
 31
0
  0
LINE
  5
20D86
100
AcDbEntity
  8
0
100
AcDbLine
370
-1
 62
0
  6
BYLAYER
 10
1.85753
 20
8.47597
 30
0
 11
1.63911
 21
8.38753
 31
0
  0
LINE
  5
20D87
100
AcDbEntity
  8
0
100
AcDbLine
370
-1
 62
0
  6
BYLAYER
 10
1.63911
 20
8.38753
 30
0
 11
1.43104
 21
8.28646
 31
0
  0
LINE
  5
20D88
100
AcDbEntity
  8
0
100
AcDbLine
370
-1
 62
0
  6
BYLAYER
 10
1.43104
 20
8.28646
 30
0
 11
1.23351
 21
8.17344
 31
0
  0
LINE
  5
20D89
100
AcDbEntity
  8
0
100
AcDbLine
370
-1
 62
0
  6
BYLAYER
 10
1.23351
 20
8.17344
 30
0
 11
1.04666
 21
8.04921
 31
0
  0
LINE
  5
20D8A
100
AcDbEntity
  8
0
100
AcDbLine
370
-1
 62
0
  6
BYLAYER
 10
1.04666
 20
8.04921
 30
0
 11
0.87066
 21
7.91439
 31
0
  0
LINE
  5
20D8B
100
AcDbEntity
  8
0
100
AcDbLine
370
-1
 62
0
  6
BYLAYER
 10
0.87066
 20
7.91439
 30
0
 11
0.705621
 21
7.76969
 31
0
  0
LINE
  5
20D8C
100
AcDbEntity
  8
0
100
AcDbLine
370
-1
 62
0
  6
BYLAYER
 10
0.705621
 20
7.76969
 30
0
 11
0.551758
 21
7.61578
 31
0
  0
LINE
  5
20D8D
100
AcDbEntity
  8
0
100
AcDbLine
370
-1
 62
0
  6
BYLAYER
 10
0.551758
 20
7.61578
 30
0
 11
0.409179
 21
7.45329
 31
0
  0
LINE
  5
20D8E
100
AcDbEntity
  8
0
100
AcDbLine
370
-1
 62
0
  6
BYLAYER
 10
0.409179
 20
7.45329
 30
0
 11
0.277994
 21
7.28299
 31
0
  0
LINE
  5
20D8F
100
AcDbEntity
  8
0
100
AcDbLine
370
-1
 62
0
  6
BYLAYER
 10
0.277994
 20
7.28299
 30
0
 11
0.158421
 21
7.10547
 31
0
  0
LINE
  5
20D90
100
AcDbEntity
  8
0
100
AcDbLine
370
-1
 62
0
  6
BYLAYER
 10
0.158421
 20
7.10547
 30
0
 11
0.0506185
 21
6.9215
 31
0
  0
LINE
  5
20D91
100
AcDbEntity
  8
0
100
AcDbLine
370
-1
 62
0
  6
BYLAYER
 10
0.0506185
 20
6.9215
 30
0
 11
-0.0453017
 21
6.73167
 31
0
  0
LINE
  5
20D92
100
AcDbEntity
  8
0
100
AcDbLine
370
-1
 62
0
  6
BYLAYER
 10
-0.0453017
 20
6.73167
 30
0
 11
-0.129232
 21
6.53668
 31
0
  0
LINE
  5
20D93
100
AcDbEntity
  8
0
100
AcDbLine
370
-1
 62
0
  6
BYLAYER
 10
-0.129232
 20
6.53668
 30
0
 11
-0.200956
 21
6.33724
 31
0
  0
LINE
  5
20D94
100
AcDbEntity
  8
0
100
AcDbLine
370
-1
 62
0
  6
BYLAYER
 10
-0.200956
 20
6.33724
 30
0
 11
-0.260308
 21
6.13406
 31
0
  0
LINE
  5
20D95
100
AcDbEntity
  8
0
100
AcDbLine
370
-1
 62
0
  6
BYLAYER
 10
-0.260308
 20
6.13406
 30
0
 11
-0.307183
 21
5.92768
 31
0
  0
LINE
  5
20D96
100
AcDbEntity
  8
0
100
AcDbLine
370
-1
 62
0
  6
BYLAYER
 10
-0.307183
 20
5.92768
 30
0
 11
-0.341471
 21
5.71892
 31
0
  0
LINE
  5
20D97
100
AcDbEntity
  8
0
100
AcDbLine
370
-1
 62
0
  6
BYLAYER
 10
-0.341471
 20
5.71892
 30
0
 11
-0.362901
 21
5.5084
 31
0
  0
LINE
  5
20D98
100
AcDbEntity
  8
0
100
AcDbLine
370
-1
 62
0
  6
BYLAYER
 10
-0.362901
 20
5.5084
 30
0
 11
-0.371419
 21
5.29682
 31
0
  0
LINE
  5
20D99
100
AcDbEntity
  8
0
100
AcDbLine
370
-1
 62
0
  6
BYLAYER
 10
-0.371419
 20
5.29682
 30
0
 11
-0.366863
 21
5.08479
 31
0
  0
LINE
  5
20D9A
100
AcDbEntity
  8
0
100
AcDbLine
370
-1
 62
0
  6
BYLAYER
 10
-0.366863
 20
5.08479
 30
0
 11
-0.349013
 21
4.8731
 31
0
  0
LINE
  5
20D9B
100
AcDbEntity
  8
0
100
AcDbLine
370
-1
 62
0
  6
BYLAYER
 10
-0.349013
 20
4.8731
 30
0
 11
-0.317817
 21
4.66233
 31
0
  0
LINE
  5
20D9C
100
AcDbEntity
  8
0
100
AcDbLine
370
-1
 62
0
  6
BYLAYER
 10
-0.317817
 20
4.66233
 30
0
 11
-0.273113
 21
4.45318
 31
0
  0
LINE
  5
20D9D
100
AcDbEntity
  8
0
100
AcDbLine
370
-1
 62
0
  6
BYLAYER
 10
-0.273113
 20
4.45318
 30
0
 11
-0.214626
 21
4.24636
 31
0
  0
LINE
  5
20D9E
100
AcDbEntity
  8
0
100
AcDbLine
370
-1
 62
0
  6
BYLAYER
 10
-0.214626
 20
4.24636
 30
0
 11
-0.142361
 21
4.04254
 31
0
  0
LINE
  5
20D9F
100
AcDbEntity
  8
0
100
AcDbLine
370
-1
 62
0
  6
BYLAYER
 10
-0.142361
 20
4.04254
 30
0
 11
-0.0560981
 21
3.84239
 31
0
  0
LINE
  5
20DA0
100
AcDbEntity
  8
0
100
AcDbLine
370
-1
 62
0
  6
BYLAYER
 10
-0.0560981
 20
3.84239
 30
0
 11
0.0175782
 21
3.69461
 31
0
  0
LINE
  5
20DA1
100
AcDbEntity
  8
0
100
AcDbLine
370
-1
 62
0
  6
BYLAYER
 10
0.0175782
 20
3.69461
 30
0
 11
0.0443251
 21
3.64654
 31
0
  0
LINE
  5
20DA2
100
AcDbEntity
  8
0
100
AcDbLine
370
-1
 62
0
  6
BYLAYER
 10
0.0443251
 20
3.64654
 30
0
 11
1.57818
 21
3.64654
 31
0
  0
LINE
  5
20DA3
100
AcDbEntity
  8
0
100
AcDbLine
370
-1
 62
0
  6
BYLAYER
 10
1.57818
 20
3.64654
 30
0
 11
1.55117
 21
3.66764
 31
0
  0
LINE
  5
20DA4
100
AcDbEntity
  8
0
100
AcDbLine
370
-1
 62
0
  6
BYLAYER
 10
1.55117
 20
3.66764
 30
0
 11
1.47439
 21
3.73622
 31
0
  0
LINE
  5
20DA5
100
AcDbEntity
  8
0
100
AcDbLine
370
-1
 62
0
  6
BYLAYER
 10
1.47439
 20
3.73622
 30
0
 11
1.37826
 21
3.83658
 31
0
  0
LINE
  5
20DA6
100
AcDbEntity
  8
0
100
AcDbLine
370
-1
 62
0
  6
BYLAYER
 10
1.37826
 20
3.83658
 30
0
 11
1.28998
 21
3.94678
 31
0
  0
LINE
  5
20DA7
100
AcDbEntity
  8
0
100
AcDbLine
370
-1
 62
0
  6
BYLAYER
 10
1.28998
 20
3.94678
 30
0
 11
1.2098
 21
4.06592
 31
0
  0
LINE
  5
20DA8
100
AcDbEntity
  8
0
100
AcDbLine
370
-1
 62
0
  6
BYLAYER
 10
1.2098
 20
4.06592
 30
0
 11
1.13791
 21
4.19308
 31
0
  0
LINE
  5
20DA9
100
AcDbEntity
  8
0
100
AcDbLine
370
-1
 62
0
  6
BYLAYER
 10
1.13791
 20
4.19308
 30
0
 11
1.07449
 21
4.32742
 31
0
  0
LINE
  5
20DAA
100
AcDbEntity
  8
0
100
AcDbLine
370
-1
 62
0
  6
BYLAYER
 10
1.07449
 20
4.32742
 30
0
 11
1.0198
 21
4.46804
 31
0
  0
LINE
  5
20DAB
100
AcDbEntity
  8
0
100
AcDbLine
370
-1
 62
0
  6
BYLAYER
 10
1.0198
 20
4.46804
 30
0
 11
0.974012
 21
4.61404
 31
0
  0
LINE
  5
20DAC
100
AcDbEntity
  8
0
100
AcDbLine
370
-1
 62
0
  6
BYLAYER
 10
0.974012
 20
4.61404
 30
0
 11
0.937392
 21
4.7646
 31
0
  0
LINE
  5
20DAD
100
AcDbEntity
  8
0
100
AcDbLine
370
-1
 62
0
  6
BYLAYER
 10
0.937392
 20
4.7646
 30
0
 11
0.910101
 21
4.91878
 31
0
  0
LINE
  5
20DAE
100
AcDbEntity
  8
0
100
AcDbLine
370
-1
 62
0
  6
BYLAYER
 10
0.910101
 20
4.91878
 30
0
 11
0.892307
 21
5.07574
 31
0
  0
LINE
  5
20DAF
100
AcDbEntity
  8
0
100
AcDbLine
370
-1
 62
0
  6
BYLAYER
 10
0.892307
 20
5.07574
 30
0
 11
0.884332
 21
5.2346
 31
0
  0
LINE
  5
20DB0
100
AcDbEntity
  8
0
100
AcDbLine
370
-1
 62
0
  6
BYLAYER
 10
0.884332
 20
5.2346
 30
0
 11
0.886339
 21
5.39442
 31
0
  0
LINE
  5
20DB1
100
AcDbEntity
  8
0
100
AcDbLine
370
-1
 62
0
  6
BYLAYER
 10
0.886339
 20
5.39442
 30
0
 11
0.898492
 21
5.55436
 31
0
  0
LINE
  5
20DB2
100
AcDbEntity
  8
0
100
AcDbLine
370
-1
 62
0
  6
BYLAYER
 10
0.898492
 20
5.55436
 30
0
 11
0.921061
 21
5.71354
 31
0
  0
LINE
  5
20DB3
100
AcDbEntity
  8
0
100
AcDbLine
370
-1
 62
0
  6
BYLAYER
 10
0.921061
 20
5.71354
 30
0
 11
0.954264
 21
5.8711
 31
0
  0
LINE
  5
20DB4
100
AcDbEntity
  8
0
100
AcDbLine
370
-1
 62
0
  6
BYLAYER
 10
0.954264
 20
5.8711
 30
0
 11
0.998264
 21
6.0261
 31
0
  0
LINE
  5
20DB5
100
AcDbEntity
  8
0
100
AcDbLine
370
-1
 62
0
  6
BYLAYER
 10
0.998264
 20
6.0261
 30
0
 11
1.05328
 21
6.17768
 31
0
  0
LINE
  5
20DB6
100
AcDbEntity
  8
0
100
AcDbLine
370
-1
 62
0
  6
BYLAYER
 10
1.05328
 20
6.17768
 30
0
 11
1.11957
 21
6.32497
 31
0
  0
LINE
  5
20DB7
100
AcDbEntity
  8
0
100
AcDbLine
370
-1
 62
0
  6
BYLAYER
 10
1.11957
 20
6.32497
 30
0
 11
1.19732
 21
6.46712
 31
0
  0
LINE
  5
20DB8
100
AcDbEntity
  8
0
100
AcDbLine
370
-1
 62
0
  6
BYLAYER
 10
1.19732
 20
6.46712
 30
0
 11
1.28668
 21
6.60325
 31
0
  0
LINE
  5
20DB9
100
AcDbEntity
  8
0
100
AcDbLine
370
-1
 62
0
  6
BYLAYER
 10
1.28668
 20
6.60325
 30
0
 11
1.38797
 21
6.73236
 31
0
  0
LINE
  5
20DBA
100
AcDbEntity
  8
0
100
AcDbLine
370
-1
 62
0
  6
BYLAYER
 10
1.38797
 20
6.73236
 30
0
 11
1.50131
 21
6.85368
 31
0
  0
LINE
  5
20DBB
100
AcDbEntity
  8
0
100
AcDbLine
370
-1
 62
0
  6
BYLAYER
 10
1.50131
 20
6.85368
 30
0
 11
1.62696
 21
6.96631
 31
0
  0
LINE
  5
20DBC
100
AcDbEntity
  8
0
100
AcDbLine
370
-1
 62
0
  6
BYLAYER
 10
1.62696
 20
6.96631
 30
0
 11
1.76514
 21
7.06939
 31
0
  0
LINE
  5
20DBD
100
AcDbEntity
  8
0
100
AcDbLine
370
-1
 62
0
  6
BYLAYER
 10
1.76514
 20
7.06939
 30
0
 11
1.91601
 21
7.16194
 31
0
  0
LINE
  5
20DBE
100
AcDbEntity
  8
0
100
AcDbLine
370
-1
 62
0
  6
BYLAYER
 10
1.91601
 20
7.16194
 30
0
 11
2.07986
 21
7.24322
 31
0
  0
LINE
  5
20DBF
100
AcDbEntity
  8
0
100
AcDbLine
370
-1
 62
0
  6
BYLAYER
 10
2.07986
 20
7.24322
 30
0
 11
2.25683
 21
7.31222
 31
0
  0
LINE
  5
20DC0
100
AcDbEntity
  8
0
100
AcDbLine
370
-1
 62
0
  6
BYLAYER
 10
2.25683
 20
7.31222
 30
0
 11
2.44715
 21
7.36817
 31
0
  0
LINE
  5
20DC1
100
AcDbEntity
  8
0
100
AcDbLine
370
-1
 62
0
  6
BYLAYER
 10
2.44715
 20
7.36817
 30
0
 11
2.65104
 21
7.41004
 31
0
  0
LINE
  5
20DC2
100
AcDbEntity
  8
0
100
AcDbLine
370
-1
 62
0
  6
BYLAYER
 10
2.65104
 20
7.41004
 30
0
 11
2.86871
 21
7.43713
 31
0
  0
LINE
  5
20DC3
100
AcDbEntity
  8
0
100
AcDbLine
370
-1
 62
0
  6
BYLAYER
 10
2.86871
 20
7.43713
 30
0
 11
3.04243
 21
7.44764
 31
0
  0
LINE
  5
20DC4
100
AcDbEntity
  8
0
100
AcDbLine
370
-1
 62
0
  6
BYLAYER
 10
3.04243
 20
7.44764
 30
0
 11
3.10038
 21
7.4484
 31
0
  0
LINE
  5
20DC5
100
AcDbEntity
  8
0
100
AcDbLine
370
-1
 62
0
  6
BYLAYER
 10
3.10038
 20
7.4484
 30
0
 11
3.17876
 21
7.44743
 31
0
  0
LINE
  5
20DC6
100
AcDbEntity
  8
0
100
AcDbLine
370
-1
 62
0
  6
BYLAYER
 10
3.17876
 20
7.44743
 30
0
 11
3.4139
 21
7.42888
 31
0
  0
LINE
  5
20DC7
100
AcDbEntity
  8
0
100
AcDbLine
370
-1
 62
0
  6
BYLAYER
 10
3.4139
 20
7.42888
 30
0
 11
3.70139
 21
7.38043
 31
0
  0
LINE
  5
20DC8
100
AcDbEntity
  8
0
100
AcDbLine
370
-1
 62
0
  6
BYLAYER
 10
3.70139
 20
7.38043
 30
0
 11
3.96338
 21
7.30518
 31
0
  0
LINE
  5
20DC9
100
AcDbEntity
  8
0
100
AcDbLine
370
-1
 62
0
  6
BYLAYER
 10
3.96338
 20
7.30518
 30
0
 11
4.20031
 21
7.20557
 31
0
  0
LINE
  5
20DCA
100
AcDbEntity
  8
0
100
AcDbLine
370
-1
 62
0
  6
BYLAYER
 10
4.20031
 20
7.20557
 30
0
 11
4.41282
 21
7.08382
 31
0
  0
LINE
  5
20DCB
100
AcDbEntity
  8
0
100
AcDbLine
370
-1
 62
0
  6
BYLAYER
 10
4.41282
 20
7.08382
 30
0
 11
4.60146
 21
6.94211
 31
0
  0
LINE
  5
20DCC
100
AcDbEntity
  8
0
100
AcDbLine
370
-1
 62
0
  6
BYLAYER
 10
4.60146
 20
6.94211
 30
0
 11
4.76671
 21
6.78282
 31
0
  0
LINE
  5
20DCD
100
AcDbEntity
  8
0
100
AcDbLine
370
-1
 62
0
  6
BYLAYER
 10
4.76671
 20
6.78282
 30
0
 11
4.90913
 21
6.60818
 31
0
  0
LINE
  5
20DCE
100
AcDbEntity
  8
0
100
AcDbLine
370
-1
 62
0
  6
BYLAYER
 10
4.90913
 20
6.60818
 30
0
 11
5.02929
 21
6.42051
 31
0
  0
LINE
  5
20DCF
100
AcDbEntity
  8
0
100
AcDbLine
370
-1
 62
0
  6
BYLAYER
 10
5.02929
 20
6.42051
 30
0
 11
5.12771
 21
6.222
 31
0
  0
LINE
  5
20DD0
100
AcDbEntity
  8
0
100
AcDbLine
370
-1
 62
0
  6
BYLAYER
 10
5.12771
 20
6.222
 30
0
 11
5.20492
 21
6.01492
 31
0
  0
LINE
  5
20DD1
100
AcDbEntity
  8
0
100
AcDbLine
370
-1
 62
0
  6
BYLAYER
 10
5.20492
 20
6.01492
 30
0
 11
5.2615
 21
5.8016
 31
0
  0
LINE
  5
20DD2
100
AcDbEntity
  8
0
100
AcDbLine
370
-1
 62
0
  6
BYLAYER
 10
5.2615
 20
5.8016
 30
0
 11
5.29801
 21
5.58431
 31
0
  0
LINE
  5
20DD3
100
AcDbEntity
  8
0
100
AcDbLine
370
-1
 62
0
  6
BYLAYER
 10
5.29801
 20
5.58431
 30
0
 11
5.31494
 21
5.36524
 31
0
  0
LINE
  5
20DD4
100
AcDbEntity
  8
0
100
AcDbLine
370
-1
 62
0
  6
BYLAYER
 10
5.31494
 20
5.36524
 30
0
 11
5.31282
 21
5.14675
 31
0
  0
LINE
  5
20DD5
100
AcDbEntity
  8
0
100
AcDbLine
370
-1
 62
0
  6
BYLAYER
 10
5.31282
 20
5.14675
 30
0
 11
5.29975
 21
4.98465
 31
0
  0
LINE
  5
20DD6
100
AcDbEntity
  8
0
100
AcDbLine
370
-1
 62
0
  6
BYLAYER
 10
5.29975
 20
4.98465
 30
0
 11
5.29232
 21
4.93104
 31
0
  0
LINE
  5
20DD7
100
AcDbEntity
  8
0
100
AcDbLine
370
-1
 62
0
  6
BYLAYER
 10
5.29232
 20
4.93104
 30
0
 11
4.70014
 21
4.93494
 31
0
  0
LINE
  5
20DD8
100
AcDbEntity
  8
0
100
AcDbLine
370
-1
 62
0
  6
BYLAYER
 10
4.70014
 20
4.93494
 30
0
 11
4.70893
 21
4.97661
 31
0
  0
LINE
  5
20DD9
100
AcDbEntity
  8
0
100
AcDbLine
370
-1
 62
0
  6
BYLAYER
 10
4.70893
 20
4.97661
 30
0
 11
4.72721
 21
5.10325
 31
0
  0
LINE
  5
20DDA
100
AcDbEntity
  8
0
100
AcDbLine
370
-1
 62
0
  6
BYLAYER
 10
4.72721
 20
5.10325
 30
0
 11
4.73779
 21
5.27294
 31
0
  0
LINE
  5
20DDB
100
AcDbEntity
  8
0
100
AcDbLine
370
-1
 62
0
  6
BYLAYER
 10
4.73779
 20
5.27294
 30
0
 11
4.73182
 21
5.44239
 31
0
  0
LINE
  5
20DDC
100
AcDbEntity
  8
0
100
AcDbLine
370
-1
 62
0
  6
BYLAYER
 10
4.73182
 20
5.44239
 30
0
 11
4.70915
 21
5.60997
 31
0
  0
LINE
  5
20DDD
100
AcDbEntity
  8
0
100
AcDbLine
370
-1
 62
0
  6
BYLAYER
 10
4.70915
 20
5.60997
 30
0
 11
4.66965
 21
5.77399
 31
0
  0
LINE
  5
20DDE
100
AcDbEntity
  8
0
100
AcDbLine
370
-1
 62
0
  6
BYLAYER
 10
4.66965
 20
5.77399
 30
0
 11
4.61333
 21
5.93278
 31
0
  0
LINE
  5
20DDF
100
AcDbEntity
  8
0
100
AcDbLine
370
-1
 62
0
  6
BYLAYER
 10
4.61333
 20
5.93278
 30
0
 11
4.54004
 21
6.08475
 31
0
  0
LINE
  5
20DE0
100
AcDbEntity
  8
0
100
AcDbLine
370
-1
 62
0
  6
BYLAYER
 10
4.54004
 20
6.08475
 30
0
 11
4.44965
 21
6.22819
 31
0
  0
LINE
  5
20DE1
100
AcDbEntity
  8
0
100
AcDbLine
370
-1
 62
0
  6
BYLAYER
 10
4.44965
 20
6.22819
 30
0
 11
4.34207
 21
6.36143
 31
0
  0
LINE
  5
20DE2
100
AcDbEntity
  8
0
100
AcDbLine
370
-1
 62
0
  6
BYLAYER
 10
4.34207
 20
6.36143
 30
0
 11
4.21724
 21
6.48286
 31
0
  0
LINE
  5
20DE3
100
AcDbEntity
  8
0
100
AcDbLine
370
-1
 62
0
  6
BYLAYER
 10
4.21724
 20
6.48286
 30
0
 11
4.07503
 21
6.59082
 31
0
  0
LINE
  5
20DE4
100
AcDbEntity
  8
0
100
AcDbLine
370
-1
 62
0
  6
BYLAYER
 10
4.07503
 20
6.59082
 30
0
 11
3.91542
 21
6.68365
 31
0
  0
LINE
  5
20DE5
100
AcDbEntity
  8
0
100
AcDbLine
370
-1
 62
0
  6
BYLAYER
 10
3.91542
 20
6.68365
 30
0
 11
3.73822
 21
6.75965
 31
0
  0
LINE
  5
20DE6
100
AcDbEntity
  8
0
100
AcDbLine
370
-1
 62
0
  6
BYLAYER
 10
3.73822
 20
6.75965
 30
0
 11
3.54335
 21
6.81722
 31
0
  0
LINE
  5
20DE7
100
AcDbEntity
  8
0
100
AcDbLine
370
-1
 62
0
  6
BYLAYER
 10
3.54335
 20
6.81722
 30
0
 11
3.33078
 21
6.85471
 31
0
  0
LINE
  5
20DE8
100
AcDbEntity
  8
0
100
AcDbLine
370
-1
 62
0
  6
BYLAYER
 10
3.33078
 20
6.85471
 30
0
 11
3.15799
 21
6.86942
 31
0
  0
LINE
  5
20DE9
100
AcDbEntity
  8
0
100
AcDbLine
370
-1
 62
0
  6
BYLAYER
 10
3.15799
 20
6.86942
 30
0
 11
3.10038
 21
6.87039
 31
0
  0
LINE
  5
20DEA
100
AcDbEntity
  8
0
100
AcDbLine
370
-1
 62
0
  6
BYLAYER
 10
3.10038
 20
6.87039
 30
0
 11
3.05117
 21
6.86951
 31
0
  0
LINE
  5
20DEB
100
AcDbEntity
  8
0
100
AcDbLine
370
-1
 62
0
  6
BYLAYER
 10
3.05117
 20
6.86951
 30
0
 11
2.90369
 21
6.85851
 31
0
  0
LINE
  5
20DEC
100
AcDbEntity
  8
0
100
AcDbLine
370
-1
 62
0
  6
BYLAYER
 10
2.90369
 20
6.85851
 30
0
 11
2.71994
 21
6.83078
 31
0
  0
LINE
  5
20DED
100
AcDbEntity
  8
0
100
AcDbLine
370
-1
 62
0
  6
BYLAYER
 10
2.71994
 20
6.83078
 30
0
 11
2.54893
 21
6.78825
 31
0
  0
LINE
  5
20DEE
100
AcDbEntity
  8
0
100
AcDbLine
370
-1
 62
0
  6
BYLAYER
 10
2.54893
 20
6.78825
 30
0
 11
2.39068
 21
6.73188
 31
0
  0
LINE
  5
20DEF
100
AcDbEntity
  8
0
100
AcDbLine
370
-1
 62
0
  6
BYLAYER
 10
2.39068
 20
6.73188
 30
0
 11
2.24511
 21
6.66271
 31
0
  0
LINE
  5
20DF0
100
AcDbEntity
  8
0
100
AcDbLine
370
-1
 62
0
  6
BYLAYER
 10
2.24511
 20
6.66271
 30
0
 11
2.11214
 21
6.58171
 31
0
  0
LINE
  5
20DF1
100
AcDbEntity
  8
0
100
AcDbLine
370
-1
 62
0
  6
BYLAYER
 10
2.11214
 20
6.58171
 30
0
 11
1.99175
 21
6.48996
 31
0
  0
LINE
  5
20DF2
100
AcDbEntity
  8
0
100
AcDbLine
370
-1
 62
0
  6
BYLAYER
 10
1.99175
 20
6.48996
 30
0
 11
1.88385
 21
6.3884
 31
0
  0
LINE
  5
20DF3
100
AcDbEntity
  8
0
100
AcDbLine
370
-1
 62
0
  6
BYLAYER
 10
1.88385
 20
6.3884
 30
0
 11
1.78836
 21
6.2781
 31
0
  0
LINE
  5
20DF4
100
AcDbEntity
  8
0
100
AcDbLine
370
-1
 62
0
  6
BYLAYER
 10
1.78836
 20
6.2781
 30
0
 11
1.70529
 21
6.16
 31
0
  0
LINE
  5
20DF5
100
AcDbEntity
  8
0
100
AcDbLine
370
-1
 62
0
  6
BYLAYER
 10
1.70529
 20
6.16
 30
0
 11
1.6345
 21
6.03521
 31
0
  0
LINE
  5
20DF6
100
AcDbEntity
  8
0
100
AcDbLine
370
-1
 62
0
  6
BYLAYER
 10
1.6345
 20
6.03521
 30
0
 11
1.57601
 21
5.90468
 31
0
  0
LINE
  5
20DF7
100
AcDbEntity
  8
0
100
AcDbLine
370
-1
 62
0
  6
BYLAYER
 10
1.57601
 20
5.90468
 30
0
 11
1.52968
 21
5.76942
 31
0
  0
LINE
  5
20DF8
100
AcDbEntity
  8
0
100
AcDbLine
370
-1
 62
0
  6
BYLAYER
 10
1.52968
 20
5.76942
 30
0
 11
1.49556
 21
5.63043
 31
0
  0
LINE
  5
20DF9
100
AcDbEntity
  8
0
100
AcDbLine
370
-1
 62
0
  6
BYLAYER
 10
1.49556
 20
5.63043
 30
0
 11
1.47347
 21
5.48876
 31
0
  0
LINE
  5
20DFA
100
AcDbEntity
  8
0
100
AcDbLine
370
-1
 62
0
  6
BYLAYER
 10
1.47347
 20
5.48876
 30
0
 11
1.46343
 21
5.34538
 31
0
  0
LINE
  5
20DFB
100
AcDbEntity
  8
0
100
AcDbLine
370
-1
 62
0
  6
BYLAYER
 10
1.46343
 20
5.34538
 30
0
 11
1.46539
 21
5.20133
 31
0
  0
LINE
  5
20DFC
100
AcDbEntity
  8
0
100
AcDbLine
370
-1
 62
0
  6
BYLAYER
 10
1.46539
 20
5.20133
 30
0
 11
1.47922
 21
5.05761
 31
0
  0
LINE
  5
20DFD
100
AcDbEntity
  8
0
100
AcDbLine
370
-1
 62
0
  6
BYLAYER
 10
1.47922
 20
5.05761
 30
0
 11
1.50489
 21
4.91525
 31
0
  0
LINE
  5
20DFE
100
AcDbEntity
  8
0
100
AcDbLine
370
-1
 62
0
  6
BYLAYER
 10
1.50489
 20
4.91525
 30
0
 11
1.54238
 21
4.77522
 31
0
  0
LINE
  5
20DFF
100
AcDbEntity
  8
0
100
AcDbLine
370
-1
 62
0
  6
BYLAYER
 10
1.54238
 20
4.77522
 30
0
 11
1.59158
 21
4.63857
 31
0
  0
LINE
  5
20E00
100
AcDbEntity
  8
0
100
AcDbLine
370
-1
 62
0
  6
BYLAYER
 10
1.59158
 20
4.63857
 30
0
 11
1.6525
 21
4.50629
 31
0
  0
LINE
  5
20E01
100
AcDbEntity
  8
0
100
AcDbLine
370
-1
 62
0
  6
BYLAYER
 10
1.6525
 20
4.50629
 30
0
 11
1.72499
 21
4.37939
 31
0
  0
LINE
  5
20E02
100
AcDbEntity
  8
0
100
AcDbLine
370
-1
 62
0
  6
BYLAYER
 10
1.72499
 20
4.37939
 30
0
 11
1.80908
 21
4.25896
 31
0
  0
LINE
  5
20E03
100
AcDbEntity
  8
0
100
AcDbLine
370
-1
 62
0
  6
BYLAYER
 10
1.80908
 20
4.25896
 30
0
 11
1.90462
 21
4.14583
 31
0
  0
LINE
  5
20E04
100
AcDbEntity
  8
0
100
AcDbLine
370
-1
 62
0
  6
BYLAYER
 10
1.90462
 20
4.14583
 30
0
 11
2.01167
 21
4.04118
 31
0
  0
LINE
  5
20E05
100
AcDbEntity
  8
0
100
AcDbLine
370
-1
 62
0
  6
BYLAYER
 10
2.01167
 20
4.04118
 30
0
 11
2.13004
 21
3.9459
 31
0
  0
LINE
  5
20E06
100
AcDbEntity
  8
0
100
AcDbLine
370
-1
 62
0
  6
BYLAYER
 10
2.13004
 20
3.9459
 30
0
 11
2.25976
 21
3.86111
 31
0
  0
LINE
  5
20E07
100
AcDbEntity
  8
0
100
AcDbLine
370
-1
 62
0
  6
BYLAYER
 10
2.25976
 20
3.86111
 30
0
 11
2.40072
 21
3.78782
 31
0
  0
LINE
  5
20E08
100
AcDbEntity
  8
0
100
AcDbLine
370
-1
 62
0
  6
BYLAYER
 10
2.40072
 20
3.78782
 30
0
 11
2.5529
 21
3.72689
 31
0
  0
LINE
  5
20E09
100
AcDbEntity
  8
0
100
AcDbLine
370
-1
 62
0
  6
BYLAYER
 10
2.5529
 20
3.72689
 30
0
 11
2.71625
 21
3.67947
 31
0
  0
LINE
  5
20E0A
100
AcDbEntity
  8
0
100
AcDbLine
370
-1
 62
0
  6
BYLAYER
 10
2.71625
 20
3.67947
 30
0
 11
2.84679
 21
3.65272
 31
0
  0
LINE
  5
20E0B
100
AcDbEntity
  8
0
100
AcDbLine
370
-1
 62
0
  6
BYLAYER
 10
2.84679
 20
3.65272
 30
0
 11
2.89068
 21
3.64654
 31
0
  0
LINE
  5
20E0C
100
AcDbEntity
  8
0
100
AcDbLine
370
-1
 62
0
  6
BYLAYER
 10
2.89068
 20
3.64654
 30
0
 11
8.18576
 21
3.64654
 31
0
  0
LINE
  5
20E0D
100
AcDbEntity
  8
0
100
AcDbLine
370
-1
 62
0
  6
BYLAYER
 10
8.18576
 20
3.64654
 30
0
 11
8.20785
 21
3.72319
 31
0
  0
LINE
  5
20E0E
100
AcDbEntity
  8
0
100
AcDbLine
370
-1
 62
0
  6
BYLAYER
 10
8.20785
 20
3.72319
 30
0
 11
8.26568
 21
3.95562
 31
0
  0
LINE
  5
20E0F
100
AcDbEntity
  8
0
100
AcDbLine
370
-1
 62
0
  6
BYLAYER
 10
8.26568
 20
3.95562
 30
0
 11
8.32781
 21
4.26514
 31
0
  0
LINE
  5
20E10
100
AcDbEntity
  8
0
100
AcDbLine
370
-1
 62
0
  6
BYLAYER
 10
8.32781
 20
4.26514
 30
0
 11
8.37235
 21
4.57438
 31
0
  0
LINE
  5
20E11
100
AcDbEntity
  8
0
100
AcDbLine
370
-1
 62
0
  6
BYLAYER
 10
8.37235
 20
4.57438
 30
0
 11
8.39947
 21
4.88282
 31
0
  0
LINE
  5
20E12
100
AcDbEntity
  8
0
100
AcDbLine
370
-1
 62
0
  6
BYLAYER
 10
8.39947
 20
4.88282
 30
0
 11
8.4095
 21
5.18967
 31
0
  0
LINE
  5
20E13
100
AcDbEntity
  8
0
100
AcDbLine
370
-1
 62
0
  6
BYLAYER
 10
8.4095
 20
5.18967
 30
0
 11
8.40267
 21
5.49442
 31
0
  0
LINE
  5
20E14
100
AcDbEntity
  8
0
100
AcDbLine
370
-1
 62
0
  6
BYLAYER
 10
8.40267
 20
5.49442
 30
0
 11
8.37918
 21
5.79628
 31
0
  0
LINE
  5
20E15
100
AcDbEntity
  8
0
100
AcDbLine
370
-1
 62
0
  6
BYLAYER
 10
8.37918
 20
5.79628
 30
0
 11
8.33931
 21
6.09472
 31
0
  0
LINE
  5
20E16
100
AcDbEntity
  8
0
100
AcDbLine
370
-1
 62
0
  6
BYLAYER
 10
8.33931
 20
6.09472
 30
0
 11
8.28326
 21
6.38911
 31
0
  0
LINE
  5
20E17
100
AcDbEntity
  8
0
100
AcDbLine
370
-1
 62
0
  6
BYLAYER
 10
8.28326
 20
6.38911
 30
0
 11
8.21137
 21
6.67865
 31
0
  0
LINE
  5
20E18
100
AcDbEntity
  8
0
100
AcDbLine
370
-1
 62
0
  6
BYLAYER
 10
8.21137
 20
6.67865
 30
0
 11
8.12381
 21
6.96283
 31
0
  0
LINE
  5
20E19
100
AcDbEntity
  8
0
100
AcDbLine
370
-1
 62
0
  6
BYLAYER
 10
8.12381
 20
6.96283
 30
0
 11
8.02083
 21
7.241
 31
0
  0
LINE
  5
20E1A
100
AcDbEntity
  8
0
100
AcDbLine
370
-1
 62
0
  6
BYLAYER
 10
8.02083
 20
7.241
 30
0
 11
7.90267
 21
7.51243
 31
0
  0
LINE
  5
20E1B
100
AcDbEntity
  8
0
100
AcDbLine
370
-1
 62
0
  6
BYLAYER
 10
7.90267
 20
7.51243
 30
0
 11
7.76958
 21
7.77658
 31
0
  0
LINE
  5
20E1C
100
AcDbEntity
  8
0
100
AcDbLine
370
-1
 62
0
  6
BYLAYER
 10
7.76958
 20
7.77658
 30
0
 11
7.62185
 21
8.03267
 31
0
  0
LINE
  5
20E1D
100
AcDbEntity
  8
0
100
AcDbLine
370
-1
 62
0
  6
BYLAYER
 10
7.62185
 20
8.03267
 30
0
 11
7.45964
 21
8.28017
 31
0
  0
LINE
  5
20E1E
100
AcDbEntity
  8
0
100
AcDbLine
370
-1
 62
0
  6
BYLAYER
 10
7.45964
 20
8.28017
 30
0
 11
7.28326
 21
8.51839
 31
0
  0
LINE
  5
20E1F
100
AcDbEntity
  8
0
100
AcDbLine
370
-1
 62
0
  6
BYLAYER
 10
7.28326
 20
8.51839
 30
0
 11
7.09293
 21
8.74669
 31
0
  0
LINE
  5
20E20
100
AcDbEntity
  8
0
100
AcDbLine
370
-1
 62
0
  6
BYLAYER
 10
7.09293
 20
8.74669
 30
0
 11
6.88889
 21
8.96442
 31
0
  0
LINE
  5
20E21
100
AcDbEntity
  8
0
100
AcDbLine
370
-1
 62
0
  6
BYLAYER
 10
6.88889
 20
8.96442
 30
0
 11
6.67139
 21
9.1709
 31
0
  0
LINE
  5
20E22
100
AcDbEntity
  8
0
100
AcDbLine
370
-1
 62
0
  6
BYLAYER
 10
6.67139
 20
9.1709
 30
0
 11
6.44069
 21
9.3655
 31
0
  0
LINE
  5
20E23
100
AcDbEntity
  8
0
100
AcDbLine
370
-1
 62
0
  6
BYLAYER
 10
6.44069
 20
9.3655
 30
0
 11
6.197
 21
9.54764
 31
0
  0
LINE
  5
20E24
100
AcDbEntity
  8
0
100
AcDbLine
370
-1
 62
0
  6
BYLAYER
 10
6.197
 20
9.54764
 30
0
 11
5.9406
 21
9.71658
 31
0
  0
LINE
  5
20E25
100
AcDbEntity
  8
0
100
AcDbLine
370
-1
 62
0
  6
BYLAYER
 10
5.9406
 20
9.71658
 30
0
 11
5.67171
 21
9.87175
 31
0
  0
LINE
  5
20E26
100
AcDbEntity
  8
0
100
AcDbLine
370
-1
 62
0
  6
BYLAYER
 10
5.67171
 20
9.87175
 30
0
 11
5.39057
 21
10.0124
 31
0
  0
LINE
  5
20E27
100
AcDbEntity
  8
0
100
AcDbLine
370
-1
 62
0
  6
BYLAYER
 10
5.39057
 20
10.0124
 30
0
 11
5.09744
 21
10.138
 31
0
  0
LINE
  5
20E28
100
AcDbEntity
  8
0
100
AcDbLine
370
-1
 62
0
  6
BYLAYER
 10
5.09744
 20
10.138
 30
0
 11
4.79254
 21
10.2478
 31
0
  0
LINE
  5
20E29
100
AcDbEntity
  8
0
100
AcDbLine
370
-1
 62
0
  6
BYLAYER
 10
4.79254
 20
10.2478
 30
0
 11
4.47613
 21
10.3413
 31
0
  0
LINE
  5
20E2A
100
AcDbEntity
  8
0
100
AcDbLine
370
-1
 62
0
  6
BYLAYER
 10
4.47613
 20
10.3413
 30
0
 11
4.14849
 21
10.4177
 31
0
  0
LINE
  5
20E2B
100
AcDbEntity
  8
0
100
AcDbLine
370
-1
 62
0
  6
BYLAYER
 10
4.14849
 20
10.4177
 30
0
 11
3.80979
 21
10.4765
 31
0
  0
LINE
  5
20E2C
100
AcDbEntity
  8
0
100
AcDbLine
370
-1
 62
0
  6
BYLAYER
 10
3.80979
 20
10.4765
 30
0
 11
3.46035
 21
10.5168
 31
0
  0
LINE
  5
20E2D
100
AcDbEntity
  8
0
100
AcDbLine
370
-1
 62
0
  6
BYLAYER
 10
3.46035
 20
10.5168
 30
0
 11
3.19043
 21
10.5353
 31
0
  0
LINE
  5
20E2E
100
AcDbEntity
  8
0
100
AcDbLine
370
-1
 62
0
  6
BYLAYER
 10
3.19043
 20
10.5353
 30
0
 11
3.10038
 21
10.5382
 31
0
  0
LINE
  5
20E2F
100
AcDbEntity
  8
0
100
AcDbLine
370
-1
 62
0
  6
BYLAYER
 10
3.10038
 20
10.5382
 30
0
 11
3.01025
 21
10.5353
 31
0
  0
LINE
  5
20E30
100
AcDbEntity
  8
0
100
AcDbLine
370
-1
 62
0
  6
BYLAYER
 10
3.01025
 20
10.5353
 30
0
 11
2.74035
 21
10.5168
 31
0
  0
LINE
  5
20E31
100
AcDbEntity
  8
0
100
AcDbLine
370
-1
 62
0
  6
BYLAYER
 10
2.74035
 20
10.5168
 30
0
 11
2.3909
 21
10.4765
 31
0
  0
LINE
  5
20E32
100
AcDbEntity
  8
0
100
AcDbLine
370
-1
 62
0
  6
BYLAYER
 10
2.3909
 20
10.4765
 30
0
 11
2.05225
 21
10.4177
 31
0
  0
LINE
  5
20E33
100
AcDbEntity
  8
0
100
AcDbLine
370
-1
 62
0
  6
BYLAYER
 10
2.05225
 20
10.4177
 30
0
 11
1.72456
 21
10.3413
 31
0
  0
LINE
  5
20E34
100
AcDbEntity
  8
0
100
AcDbLine
370
-1
 62
0
  6
BYLAYER
 10
1.72456
 20
10.3413
 30
0
 11
1.40815
 21
10.2478
 31
0
  0
LINE
  5
20E35
100
AcDbEntity
  8
0
100
AcDbLine
370
-1
 62
0
  6
BYLAYER
 10
1.40815
 20
10.2478
 30
0
 11
1.1033
 21
10.138
 31
0
  0
LINE
  5
20E36
100
AcDbEntity
  8
0
100
AcDbLine
370
-1
 62
0
  6
BYLAYER
 10
1.1033
 20
10.138
 30
0
 11
0.810167
 21
10.0124
 31
0
  0
LINE
  5
20E37
100
AcDbEntity
  8
0
100
AcDbLine
370
-1
 62
0
  6
BYLAYER
 10
0.810167
 20
10.0124
 30
0
 11
0.529025
 21
9.87175
 31
0
  0
LINE
  5
20E38
100
AcDbEntity
  8
0
100
AcDbLine
370
-1
 62
0
  6
BYLAYER
 10
0.529025
 20
9.87175
 30
0
 11
0.260146
 21
9.71658
 31
0
  0
LINE
  5
20E39
100
AcDbEntity
  8
0
100
AcDbLine
370
-1
 62
0
  6
BYLAYER
 10
0.260146
 20
9.71658
 30
0
 11
0.00368924
 21
9.54764
 31
0
  0
LINE
  5
20E3A
100
AcDbEntity
  8
0
100
AcDbLine
370
-1
 62
0
  6
BYLAYER
 10
0.00368924
 20
9.54764
 30
0
 11
-0.239963
 21
9.3655
 31
0
  0
LINE
  5
20E3B
100
AcDbEntity
  8
0
100
AcDbLine
370
-1
 62
0
  6
BYLAYER
 10
-0.239963
 20
9.3655
 30
0
 11
-0.470703
 21
9.1709
 31
0
  0
LINE
  5
20E3C
100
AcDbEntity
  8
0
100
AcDbLine
370
-1
 62
0
  6
BYLAYER
 10
-0.470703
 20
9.1709
 30
0
 11
-0.688151
 21
8.96442
 31
0
  0
LINE
  5
20E3D
100
AcDbEntity
  8
0
100
AcDbLine
370
-1
 62
0
  6
BYLAYER
 10
-0.688151
 20
8.96442
 30
0
 11
-0.892199
 21
8.74669
 31
0
  0
LINE
  5
20E3E
100
AcDbEntity
  8
0
100
AcDbLine
370
-1
 62
0
  6
BYLAYER
 10
-0.892199
 20
8.74669
 30
0
 11
-1.08252
 21
8.51839
 31
0
  0
LINE
  5
20E3F
100
AcDbEntity
  8
0
100
AcDbLine
370
-1
 62
0
  6
BYLAYER
 10
-1.08252
 20
8.51839
 30
0
 11
-1.2589
 21
8.28017
 31
0
  0
LINE
  5
20E40
100
AcDbEntity
  8
0
100
AcDbLine
370
-1
 62
0
  6
BYLAYER
 10
-1.2589
 20
8.28017
 30
0
 11
-1.42111
 21
8.03267
 31
0
  0
LINE
  5
20E41
100
AcDbEntity
  8
0
100
AcDbLine
370
-1
 62
0
  6
BYLAYER
 10
-1.42111
 20
8.03267
 30
0
 11
-1.56885
 21
7.77658
 31
0
  0
LINE
  5
20E42
100
AcDbEntity
  8
0
100
AcDbLine
370
-1
 62
0
  6
BYLAYER
 10
-1.56885
 20
7.77658
 30
0
 11
-1.70193
 21
7.51243
 31
0
  0
LINE
  5
20E43
100
AcDbEntity
  8
0
100
AcDbLine
370
-1
 62
0
  6
BYLAYER
 10
-1.70193
 20
7.51243
 30
0
 11
-1.8201
 21
7.241
 31
0
  0
LINE
  5
20E44
100
AcDbEntity
  8
0
100
AcDbLine
370
-1
 62
0
  6
BYLAYER
 10
-1.8201
 20
7.241
 30
0
 11
-1.92307
 21
6.96283
 31
0
  0
LINE
  5
20E45
100
AcDbEntity
  8
0
100
AcDbLine
370
-1
 62
0
  6
BYLAYER
 10
-1.92307
 20
6.96283
 30
0
 11
-2.01064
 21
6.67865
 31
0
  0
LINE
  5
20E46
100
AcDbEntity
  8
0
100
AcDbLine
370
-1
 62
0
  6
BYLAYER
 10
-2.01064
 20
6.67865
 30
0
 11
-2.08251
 21
6.38911
 31
0
  0
LINE
  5
20E47
100
AcDbEntity
  8
0
100
AcDbLine
370
-1
 62
0
  6
BYLAYER
 10
-2.08251
 20
6.38911
 30
0
 11
-2.13857
 21
6.09472
 31
0
  0
LINE
  5
20E48
100
AcDbEntity
  8
0
100
AcDbLine
370
-1
 62
0
  6
BYLAYER
 10
-2.13857
 20
6.09472
 30
0
 11
-2.17844
 21
5.79628
 31
0
  0
LINE
  5
20E49
100
AcDbEntity
  8
0
100
AcDbLine
370
-1
 62
0
  6
BYLAYER
 10
-2.17844
 20
5.79628
 30
0
 11
-2.20193
 21
5.49442
 31
0
  0
LINE
  5
20E4A
100
AcDbEntity
  8
0
100
AcDbLine
370
-1
 62
0
  6
BYLAYER
 10
-2.20193
 20
5.49442
 30
0
 11
-2.20876
 21
5.18967
 31
0
  0
LINE
  5
20E4B
100
AcDbEntity
  8
0
100
AcDbLine
370
-1
 62
0
  6
BYLAYER
 10
-2.20876
 20
5.18967
 30
0
 11
-2.19874
 21
4.88282
 31
0
  0
LINE
  5
20E4C
100
AcDbEntity
  8
0
100
AcDbLine
370
-1
 62
0
  6
BYLAYER
 10
-2.19874
 20
4.88282
 30
0
 11
-2.1716
 21
4.57438
 31
0
  0
LINE
  5
20E4D
100
AcDbEntity
  8
0
100
AcDbLine
370
-1
 62
0
  6
BYLAYER
 10
-2.1716
 20
4.57438
 30
0
 11
-2.12706
 21
4.26514
 31
0
  0
LINE
  5
20E4E
100
AcDbEntity
  8
0
100
AcDbLine
370
-1
 62
0
  6
BYLAYER
 10
-2.12706
 20
4.26514
 30
0
 11
-2.06494
 21
3.95562
 31
0
  0
LINE
  5
20E4F
100
AcDbEntity
  8
0
100
AcDbLine
370
-1
 62
0
  6
BYLAYER
 10
-2.06494
 20
3.95562
 30
0
 11
-2.00711
 21
3.72319
 31
0
  0
LINE
  5
20E50
100
AcDbEntity
  8
0
100
AcDbLine
370
-1
 62
0
  6
BYLAYER
 10
-2.00711
 20
3.72319
 30
0
 11
-1.98497
 21
3.64654
 31
0
  0
LINE
  5
20E51
100
AcDbEntity
  8
0
100
AcDbLine
370
-1
 62
142
  6
BYLAYER
 10
8.30078
 20
-0.455729
 30
0
 11
-1.87429
 21
-0.455729
 31
0
  0
LINE
  5
20E52
100
AcDbEntity
  8
0
100
AcDbLine
370
-1
 62
142
  6
BYLAYER
 10
-1.87429
 20
-0.455729
 30
0
 11
-1.89794
 21
-0.456272
 31
0
  0
LINE
  5
20E53
100
AcDbEntity
  8
0
100
AcDbLine
370
-1
 62
142
  6
BYLAYER
 10
-1.89794
 20
-0.456272
 30
0
 11
-1.96881
 21
-0.462403
 31
0
  0
LINE
  5
20E54
100
AcDbEntity
  8
0
100
AcDbLine
370
-1
 62
142
  6
BYLAYER
 10
-1.96881
 20
-0.462403
 30
0
 11
-2.04644
 21
-0.47781
 31
0
  0
LINE
  5
20E55
100
AcDbEntity
  8
0
100
AcDbLine
370
-1
 62
142
  6
BYLAYER
 10
-2.04644
 20
-0.47781
 30
0
 11
-2.10878
 21
-0.50255
 31
0
  0
LINE
  5
20E56
100
AcDbEntity
  8
0
100
AcDbLine
370
-1
 62
142
  6
BYLAYER
 10
-2.10878
 20
-0.50255
 30
0
 11
-2.15733
 21
-0.537164
 31
0
  0
LINE
  5
20E57
100
AcDbEntity
  8
0
100
AcDbLine
370
-1
 62
142
  6
BYLAYER
 10
-2.15733
 20
-0.537164
 30
0
 11
-2.19374
 21
-0.582249
 31
0
  0
LINE
  5
20E58
100
AcDbEntity
  8
0
100
AcDbLine
370
-1
 62
142
  6
BYLAYER
 10
-2.19374
 20
-0.582249
 30
0
 11
-2.2194
 21
-0.638292
 31
0
  0
LINE
  5
20E59
100
AcDbEntity
  8
0
100
AcDbLine
370
-1
 62
142
  6
BYLAYER
 10
-2.2194
 20
-0.638292
 30
0
 11
-2.23594
 21
-0.705892
 31
0
  0
LINE
  5
20E5A
100
AcDbEntity
  8
0
100
AcDbLine
370
-1
 62
142
  6
BYLAYER
 10
-2.23594
 20
-0.705892
 30
0
 11
-2.24354
 21
-0.765571
 31
0
  0
LINE
  5
20E5B
100
AcDbEntity
  8
0
100
AcDbLine
370
-1
 62
142
  6
BYLAYER
 10
-2.24354
 20
-0.765571
 30
0
 11
-2.24485
 21
-0.78559
 31
0
  0
LINE
  5
20E5C
100
AcDbEntity
  8
0
100
AcDbLine
370
-1
 62
142
  6
BYLAYER
 10
-2.24485
 20
-0.78559
 30
0
 11
-2.24485
 21
-2.40494
 31
0
  0
LINE
  5
20E5D
100
AcDbEntity
  8
0
100
AcDbLine
370
-1
 62
142
  6
BYLAYER
 10
-2.24485
 20
-2.40494
 30
0
 11
-3.51047
 21
-3.65494
 31
0
  0
LINE
  5
20E5E
100
AcDbEntity
  8
0
100
AcDbLine
370
-1
 62
142
  6
BYLAYER
 10
-3.51047
 20
-3.65494
 30
0
 11
-3.48844
 21
-0.57845
 31
0
  0
LINE
  5
20E5F
100
AcDbEntity
  8
0
100
AcDbLine
370
-1
 62
142
  6
BYLAYER
 10
-3.48844
 20
-0.57845
 30
0
 11
-3.48708
 21
-0.522732
 31
0
  0
LINE
  5
20E60
100
AcDbEntity
  8
0
100
AcDbLine
370
-1
 62
142
  6
BYLAYER
 10
-3.48708
 20
-0.522732
 30
0
 11
-3.45594
 21
-0.356392
 31
0
  0
LINE
  5
20E61
100
AcDbEntity
  8
0
100
AcDbLine
370
-1
 62
142
  6
BYLAYER
 10
-3.45594
 20
-0.356392
 30
0
 11
-3.37472
 21
-0.134223
 31
0
  0
LINE
  5
20E62
100
AcDbEntity
  8
0
100
AcDbLine
370
-1
 62
142
  6
BYLAYER
 10
-3.37472
 20
-0.134223
 30
0
 11
-3.25304
 21
0.0804036
 31
0
  0
LINE
  5
20E63
100
AcDbEntity
  8
0
100
AcDbLine
370
-1
 62
142
  6
BYLAYER
 10
-3.25304
 20
0.0804036
 30
0
 11
-3.09896
 21
0.279893
 31
0
  0
LINE
  5
20E64
100
AcDbEntity
  8
0
100
AcDbLine
370
-1
 62
142
  6
BYLAYER
 10
-3.09896
 20
0.279893
 30
0
 11
-2.92063
 21
0.456543
 31
0
  0
LINE
  5
20E65
100
AcDbEntity
  8
0
100
AcDbLine
370
-1
 62
142
  6
BYLAYER
 10
-2.92063
 20
0.456543
 30
0
 11
-2.72624
 21
0.602701
 31
0
  0
LINE
  5
20E66
100
AcDbEntity
  8
0
100
AcDbLine
370
-1
 62
142
  6
BYLAYER
 10
-2.72624
 20
0.602701
 30
0
 11
-2.52387
 21
0.710721
 31
0
  0
LINE
  5
20E67
100
AcDbEntity
  8
0
100
AcDbLine
370
-1
 62
142
  6
BYLAYER
 10
-2.52387
 20
0.710721
 30
0
 11
-2.37332
 21
0.763346
 31
0
  0
LINE
  5
20E68
100
AcDbEntity
  8
0
100
AcDbLine
370
-1
 62
142
  6
BYLAYER
 10
-2.37332
 20
0.763346
 30
0
 11
-2.32167
 21
0.77284
 31
0
  0
LINE
  5
20E69
100
AcDbEntity
  8
0
100
AcDbLine
370
-1
 62
142
  6
BYLAYER
 10
-2.32167
 20
0.77284
 30
0
 11
-2.33062
 21
0.814561
 31
0
  0
LINE
  5
20E6A
100
AcDbEntity
  8
0
100
AcDbLine
370
-1
 62
142
  6
BYLAYER
 10
-2.33062
 20
0.814561
 30
0
 11
-2.34933
 21
0.941407
 31
0
  0
LINE
  5
20E6B
100
AcDbEntity
  8
0
100
AcDbLine
370
-1
 62
142
  6
BYLAYER
 10
-2.34933
 20
0.941407
 30
0
 11
-2.3604
 21
1.11138
 31
0
  0
LINE
  5
20E6C
100
AcDbEntity
  8
0
100
AcDbLine
370
-1
 62
142
  6
BYLAYER
 10
-2.3604
 20
1.11138
 30
0
 11
-2.35482
 21
1.2812
 31
0
  0
LINE
  5
20E6D
100
AcDbEntity
  8
0
100
AcDbLine
370
-1
 62
142
  6
BYLAYER
 10
-2.35482
 20
1.2812
 30
0
 11
-2.33247
 21
1.44911
 31
0
  0
LINE
  5
20E6E
100
AcDbEntity
  8
0
100
AcDbLine
370
-1
 62
142
  6
BYLAYER
 10
-2.33247
 20
1.44911
 30
0
 11
-2.29329
 21
1.6135
 31
0
  0
LINE
  5
20E6F
100
AcDbEntity
  8
0
100
AcDbLine
370
-1
 62
142
  6
BYLAYER
 10
-2.29329
 20
1.6135
 30
0
 11
-2.23719
 21
1.77274
 31
0
  0
LINE
  5
20E70
100
AcDbEntity
  8
0
100
AcDbLine
370
-1
 62
142
  6
BYLAYER
 10
-2.23719
 20
1.77274
 30
0
 11
-2.16407
 21
1.92512
 31
0
  0
LINE
  5
20E71
100
AcDbEntity
  8
0
100
AcDbLine
370
-1
 62
142
  6
BYLAYER
 10
-2.16407
 20
1.92512
 30
0
 11
-2.07379
 21
2.06896
 31
0
  0
LINE
  5
20E72
100
AcDbEntity
  8
0
100
AcDbLine
370
-1
 62
142
  6
BYLAYER
 10
-2.07379
 20
2.06896
 30
0
 11
-1.96625
 21
2.20264
 31
0
  0
LINE
  5
20E73
100
AcDbEntity
  8
0
100
AcDbLine
370
-1
 62
142
  6
BYLAYER
 10
-1.96625
 20
2.20264
 30
0
 11
-1.84142
 21
2.32443
 31
0
  0
LINE
  5
20E74
100
AcDbEntity
  8
0
100
AcDbLine
370
-1
 62
142
  6
BYLAYER
 10
-1.84142
 20
2.32443
 30
0
 11
-1.69911
 21
2.43278
 31
0
  0
LINE
  5
20E75
100
AcDbEntity
  8
0
100
AcDbLine
370
-1
 62
142
  6
BYLAYER
 10
-1.69911
 20
2.43278
 30
0
 11
-1.53933
 21
2.52588
 31
0
  0
LINE
  5
20E76
100
AcDbEntity
  8
0
100
AcDbLine
370
-1
 62
142
  6
BYLAYER
 10
-1.53933
 20
2.52588
 30
0
 11
-1.36193
 21
2.60215
 31
0
  0
LINE
  5
20E77
100
AcDbEntity
  8
0
100
AcDbLine
370
-1
 62
142
  6
BYLAYER
 10
-1.36193
 20
2.60215
 30
0
 11
-1.16677
 21
2.65994
 31
0
  0
LINE
  5
20E78
100
AcDbEntity
  8
0
100
AcDbLine
370
-1
 62
142
  6
BYLAYER
 10
-1.16677
 20
2.65994
 30
0
 11
-0.953885
 21
2.69754
 31
0
  0
LINE
  5
20E79
100
AcDbEntity
  8
0
100
AcDbLine
370
-1
 62
142
  6
BYLAYER
 10
-0.953885
 20
2.69754
 30
0
 11
-0.780761
 21
2.71224
 31
0
  0
LINE
  5
20E7A
100
AcDbEntity
  8
0
100
AcDbLine
370
-1
 62
142
  6
BYLAYER
 10
-0.780761
 20
2.71224
 30
0
 11
-0.722982
 21
2.71326
 31
0
  0
LINE
  5
20E7B
100
AcDbEntity
  8
0
100
AcDbLine
370
-1
 62
142
  6
BYLAYER
 10
-0.722982
 20
2.71326
 30
0
 11
-0.665365
 21
2.71229
 31
0
  0
LINE
  5
20E7C
100
AcDbEntity
  8
0
100
AcDbLine
370
-1
 62
142
  6
BYLAYER
 10
-0.665365
 20
2.71229
 30
0
 11
-0.492567
 21
2.6976
 31
0
  0
LINE
  5
20E7D
100
AcDbEntity
  8
0
100
AcDbLine
370
-1
 62
142
  6
BYLAYER
 10
-0.492567
 20
2.6976
 30
0
 11
-0.280003
 21
2.66015
 31
0
  0
LINE
  5
20E7E
100
AcDbEntity
  8
0
100
AcDbLine
370
-1
 62
142
  6
BYLAYER
 10
-0.280003
 20
2.66015
 30
0
 11
-0.0851238
 21
2.6026
 31
0
  0
LINE
  5
20E7F
100
AcDbEntity
  8
0
100
AcDbLine
370
-1
 62
142
  6
BYLAYER
 10
-0.0851238
 20
2.6026
 30
0
 11
0.0920682
 21
2.52664
 31
0
  0
LINE
  5
20E80
100
AcDbEntity
  8
0
100
AcDbLine
370
-1
 62
142
  6
BYLAYER
 10
0.0920682
 20
2.52664
 30
0
 11
0.251736
 21
2.43392
 31
0
  0
LINE
  5
20E81
100
AcDbEntity
  8
0
100
AcDbLine
370
-1
 62
142
  6
BYLAYER
 10
0.251736
 20
2.43392
 30
0
 11
0.393935
 21
2.32607
 31
0
  0
LINE
  5
20E82
100
AcDbEntity
  8
0
100
AcDbLine
370
-1
 62
142
  6
BYLAYER
 10
0.393935
 20
2.32607
 30
0
 11
0.518826
 21
2.20481
 31
0
  0
LINE
  5
20E83
100
AcDbEntity
  8
0
100
AcDbLine
370
-1
 62
142
  6
BYLAYER
 10
0.518826
 20
2.20481
 30
0
 11
0.626411
 21
2.07183
 31
0
  0
LINE
  5
20E84
100
AcDbEntity
  8
0
100
AcDbLine
370
-1
 62
142
  6
BYLAYER
 10
0.626411
 20
2.07183
 30
0
 11
0.716906
 21
1.92871
 31
0
  0
LINE
  5
20E85
100
AcDbEntity
  8
0
100
AcDbLine
370
-1
 62
142
  6
BYLAYER
 10
0.716906
 20
1.92871
 30
0
 11
0.79031
 21
1.77718
 31
0
  0
LINE
  5
20E86
100
AcDbEntity
  8
0
100
AcDbLine
370
-1
 62
142
  6
BYLAYER
 10
0.79031
 20
1.77718
 30
0
 11
0.846733
 21
1.61882
 31
0
  0
LINE
  5
20E87
100
AcDbEntity
  8
0
100
AcDbLine
370
-1
 62
142
  6
BYLAYER
 10
0.846733
 20
1.61882
 30
0
 11
0.886339
 21
1.4554
 31
0
  0
LINE
  5
20E88
100
AcDbEntity
  8
0
100
AcDbLine
370
-1
 62
142
  6
BYLAYER
 10
0.886339
 20
1.4554
 30
0
 11
0.909125
 21
1.28852
 31
0
  0
LINE
  5
20E89
100
AcDbEntity
  8
0
100
AcDbLine
370
-1
 62
142
  6
BYLAYER
 10
0.909125
 20
1.28852
 30
0
 11
0.91531
 21
1.1199
 31
0
  0
LINE
  5
20E8A
100
AcDbEntity
  8
0
100
AcDbLine
370
-1
 62
142
  6
BYLAYER
 10
0.91531
 20
1.1199
 30
0
 11
0.904893
 21
0.951118
 31
0
  0
LINE
  5
20E8B
100
AcDbEntity
  8
0
100
AcDbLine
370
-1
 62
142
  6
BYLAYER
 10
0.904893
 20
0.951118
 30
0
 11
0.886774
 21
0.825304
 31
0
  0
LINE
  5
20E8C
100
AcDbEntity
  8
0
100
AcDbLine
370
-1
 62
142
  6
BYLAYER
 10
0.886774
 20
0.825304
 30
0
 11
0.878039
 21
0.783908
 31
0
  0
LINE
  5
20E8D
100
AcDbEntity
  8
0
100
AcDbLine
370
-1
 62
142
  6
BYLAYER
 10
0.878039
 20
0.783908
 30
0
 11
1.45285
 21
0.790147
 31
0
  0
LINE
  5
20E8E
100
AcDbEntity
  8
0
100
AcDbLine
370
-1
 62
142
  6
BYLAYER
 10
1.45285
 20
0.790147
 30
0
 11
1.46018
 21
0.826878
 31
0
  0
LINE
  5
20E8F
100
AcDbEntity
  8
0
100
AcDbLine
370
-1
 62
142
  6
BYLAYER
 10
1.46018
 20
0.826878
 30
0
 11
1.47889
 21
0.937771
 31
0
  0
LINE
  5
20E90
100
AcDbEntity
  8
0
100
AcDbLine
370
-1
 62
142
  6
BYLAYER
 10
1.47889
 20
0.937771
 30
0
 11
1.50299
 21
1.12972
 31
0
  0
LINE
  5
20E91
100
AcDbEntity
  8
0
100
AcDbLine
370
-1
 62
142
  6
BYLAYER
 10
1.50299
 20
1.12972
 30
0
 11
1.51844
 21
1.361
 31
0
  0
LINE
  5
20E92
100
AcDbEntity
  8
0
100
AcDbLine
370
-1
 62
142
  6
BYLAYER
 10
1.51844
 20
1.361
 30
0
 11
1.5185
 21
1.62674
 31
0
  0
LINE
  5
20E93
100
AcDbEntity
  8
0
100
AcDbLine
370
-1
 62
142
  6
BYLAYER
 10
1.5185
 20
1.62674
 30
0
 11
1.49642
 21
1.92199
 31
0
  0
LINE
  5
20E94
100
AcDbEntity
  8
0
100
AcDbLine
370
-1
 62
142
  6
BYLAYER
 10
1.49642
 20
1.92199
 30
0
 11
1.44547
 21
2.24169
 31
0
  0
LINE
  5
20E95
100
AcDbEntity
  8
0
100
AcDbLine
370
-1
 62
142
  6
BYLAYER
 10
1.44547
 20
2.24169
 30
0
 11
1.35889
 21
2.581
 31
0
  0
LINE
  5
20E96
100
AcDbEntity
  8
0
100
AcDbLine
370
-1
 62
142
  6
BYLAYER
 10
1.35889
 20
2.581
 30
0
 11
1.26666
 21
2.84831
 31
0
  0
LINE
  5
20E97
100
AcDbEntity
  8
0
100
AcDbLine
370
-1
 62
142
  6
BYLAYER
 10
1.26666
 20
2.84831
 30
0
 11
1.22998
 21
2.93485
 31
0
  0
LINE
  5
20E98
100
AcDbEntity
  8
0
100
AcDbLine
370
-1
 62
142
  6
BYLAYER
 10
1.22998
 20
2.93485
 30
0
 11
2.53065
 21
2.93485
 31
0
  0
LINE
  5
20E99
100
AcDbEntity
  8
0
100
AcDbLine
370
-1
 62
142
  6
BYLAYER
 10
2.53065
 20
2.93485
 30
0
 11
2.53435
 21
2.92524
 31
0
  0
LINE
  5
20E9A
100
AcDbEntity
  8
0
100
AcDbLine
370
-1
 62
142
  6
BYLAYER
 10
2.53435
 20
2.92524
 30
0
 11
2.5446
 21
2.89665
 31
0
  0
LINE
  5
20E9B
100
AcDbEntity
  8
0
100
AcDbLine
370
-1
 62
142
  6
BYLAYER
 10
2.5446
 20
2.89665
 30
0
 11
2.56028
 21
2.84956
 31
0
  0
LINE
  5
20E9C
100
AcDbEntity
  8
0
100
AcDbLine
370
-1
 62
142
  6
BYLAYER
 10
2.56028
 20
2.84956
 30
0
 11
2.58003
 21
2.78461
 31
0
  0
LINE
  5
20E9D
100
AcDbEntity
  8
0
100
AcDbLine
370
-1
 62
142
  6
BYLAYER
 10
2.58003
 20
2.78461
 30
0
 11
2.60265
 21
2.70221
 31
0
  0
LINE
  5
20E9E
100
AcDbEntity
  8
0
100
AcDbLine
370
-1
 62
142
  6
BYLAYER
 10
2.60265
 20
2.70221
 30
0
 11
2.62696
 21
2.60286
 31
0
  0
LINE
  5
20E9F
100
AcDbEntity
  8
0
100
AcDbLine
370
-1
 62
142
  6
BYLAYER
 10
2.62696
 20
2.60286
 30
0
 11
2.65164
 21
2.48708
 31
0
  0
LINE
  5
20EA0
100
AcDbEntity
  8
0
100
AcDbLine
370
-1
 62
142
  6
BYLAYER
 10
2.65164
 20
2.48708
 30
0
 11
2.67551
 21
2.35542
 31
0
  0
LINE
  5
20EA1
100
AcDbEntity
  8
0
100
AcDbLine
370
-1
 62
142
  6
BYLAYER
 10
2.67551
 20
2.35542
 30
0
 11
2.69737
 21
2.20839
 31
0
  0
LINE
  5
20EA2
100
AcDbEntity
  8
0
100
AcDbLine
370
-1
 62
142
  6
BYLAYER
 10
2.69737
 20
2.20839
 30
0
 11
2.71588
 21
2.04644
 31
0
  0
LINE
  5
20EA3
100
AcDbEntity
  8
0
100
AcDbLine
370
-1
 62
142
  6
BYLAYER
 10
2.71588
 20
2.04644
 30
0
 11
2.72993
 21
1.87011
 31
0
  0
LINE
  5
20EA4
100
AcDbEntity
  8
0
100
AcDbLine
370
-1
 62
142
  6
BYLAYER
 10
2.72993
 20
1.87011
 30
0
 11
2.73817
 21
1.6799
 31
0
  0
LINE
  5
20EA5
100
AcDbEntity
  8
0
100
AcDbLine
370
-1
 62
142
  6
BYLAYER
 10
2.73817
 20
1.6799
 30
0
 11
2.73942
 21
1.47629
 31
0
  0
LINE
  5
20EA6
100
AcDbEntity
  8
0
100
AcDbLine
370
-1
 62
142
  6
BYLAYER
 10
2.73942
 20
1.47629
 30
0
 11
2.73242
 21
1.25987
 31
0
  0
LINE
  5
20EA7
100
AcDbEntity
  8
0
100
AcDbLine
370
-1
 62
142
  6
BYLAYER
 10
2.73242
 20
1.25987
 30
0
 11
2.71604
 21
1.03109
 31
0
  0
LINE
  5
20EA8
100
AcDbEntity
  8
0
100
AcDbLine
370
-1
 62
142
  6
BYLAYER
 10
2.71604
 20
1.03109
 30
0
 11
2.69689
 21
0.850424
 31
0
  0
LINE
  5
20EA9
100
AcDbEntity
  8
0
100
AcDbLine
370
-1
 62
142
  6
BYLAYER
 10
2.69689
 20
0.850424
 30
0
 11
2.68892
 21
0.790419
 31
0
  0
LINE
  5
20EAA
100
AcDbEntity
  8
0
100
AcDbLine
370
-1
 62
142
  6
BYLAYER
 10
2.68892
 20
0.790419
 30
0
 11
3.33094
 21
0.790528
 31
0
  0
LINE
  5
20EAB
100
AcDbEntity
  8
0
100
AcDbLine
370
-1
 62
142
  6
BYLAYER
 10
3.33094
 20
0.790528
 30
0
 11
3.33832
 21
0.827419
 31
0
  0
LINE
  5
20EAC
100
AcDbEntity
  8
0
100
AcDbLine
370
-1
 62
142
  6
BYLAYER
 10
3.33832
 20
0.827419
 30
0
 11
3.35986
 21
0.93826
 31
0
  0
LINE
  5
20EAD
100
AcDbEntity
  8
0
100
AcDbLine
370
-1
 62
142
  6
BYLAYER
 10
3.35986
 20
0.93826
 30
0
 11
3.3916
 21
1.13021
 31
0
  0
LINE
  5
20EAE
100
AcDbEntity
  8
0
100
AcDbLine
370
-1
 62
142
  6
BYLAYER
 10
3.3916
 20
1.13021
 30
0
 11
3.41786
 21
1.36155
 31
0
  0
LINE
  5
20EAF
100
AcDbEntity
  8
0
100
AcDbLine
370
-1
 62
142
  6
BYLAYER
 10
3.41786
 20
1.36155
 30
0
 11
3.43028
 21
1.62722
 31
0
  0
LINE
  5
20EB0
100
AcDbEntity
  8
0
100
AcDbLine
370
-1
 62
142
  6
BYLAYER
 10
3.43028
 20
1.62722
 30
0
 11
3.42057
 21
1.92236
 31
0
  0
LINE
  5
20EB1
100
AcDbEntity
  8
0
100
AcDbLine
370
-1
 62
142
  6
BYLAYER
 10
3.42057
 20
1.92236
 30
0
 11
3.38043
 21
2.24197
 31
0
  0
LINE
  5
20EB2
100
AcDbEntity
  8
0
100
AcDbLine
370
-1
 62
142
  6
BYLAYER
 10
3.38043
 20
2.24197
 30
0
 11
3.30154
 21
2.58111
 31
0
  0
LINE
  5
20EB3
100
AcDbEntity
  8
0
100
AcDbLine
370
-1
 62
142
  6
BYLAYER
 10
3.30154
 20
2.58111
 30
0
 11
3.21208
 21
2.84858
 31
0
  0
LINE
  5
20EB4
100
AcDbEntity
  8
0
100
AcDbLine
370
-1
 62
142
  6
BYLAYER
 10
3.21208
 20
2.84858
 30
0
 11
3.17557
 21
2.93485
 31
0
  0
LINE
  5
20EB5
100
AcDbEntity
  8
0
100
AcDbLine
370
-1
 62
142
  6
BYLAYER
 10
3.17557
 20
2.93485
 30
0
 11
4.40869
 21
2.93485
 31
0
  0
LINE
  5
20EB6
100
AcDbEntity
  8
0
100
AcDbLine
370
-1
 62
142
  6
BYLAYER
 10
4.40869
 20
2.93485
 30
0
 11
4.41238
 21
2.92524
 31
0
  0
LINE
  5
20EB7
100
AcDbEntity
  8
0
100
AcDbLine
370
-1
 62
142
  6
BYLAYER
 10
4.41238
 20
2.92524
 30
0
 11
4.42264
 21
2.89665
 31
0
  0
LINE
  5
20EB8
100
AcDbEntity
  8
0
100
AcDbLine
370
-1
 62
142
  6
BYLAYER
 10
4.42264
 20
2.89665
 30
0
 11
4.43832
 21
2.84961
 31
0
  0
LINE
  5
20EB9
100
AcDbEntity
  8
0
100
AcDbLine
370
-1
 62
142
  6
BYLAYER
 10
4.43832
 20
2.84961
 30
0
 11
4.45806
 21
2.78461
 31
0
  0
LINE
  5
20EBA
100
AcDbEntity
  8
0
100
AcDbLine
370
-1
 62
142
  6
BYLAYER
 10
4.45806
 20
2.78461
 30
0
 11
4.48068
 21
2.70221
 31
0
  0
LINE
  5
20EBB
100
AcDbEntity
  8
0
100
AcDbLine
370
-1
 62
142
  6
BYLAYER
 10
4.48068
 20
2.70221
 30
0
 11
4.50499
 21
2.60292
 31
0
  0
LINE
  5
20EBC
100
AcDbEntity
  8
0
100
AcDbLine
370
-1
 62
142
  6
BYLAYER
 10
4.50499
 20
2.60292
 30
0
 11
4.52968
 21
2.48719
 31
0
  0
LINE
  5
20EBD
100
AcDbEntity
  8
0
100
AcDbLine
370
-1
 62
142
  6
BYLAYER
 10
4.52968
 20
2.48719
 30
0
 11
4.55354
 21
2.35553
 31
0
  0
LINE
  5
20EBE
100
AcDbEntity
  8
0
100
AcDbLine
370
-1
 62
142
  6
BYLAYER
 10
4.55354
 20
2.35553
 30
0
 11
4.57542
 21
2.2085
 31
0
  0
LINE
  5
20EBF
100
AcDbEntity
  8
0
100
AcDbLine
370
-1
 62
142
  6
BYLAYER
 10
4.57542
 20
2.2085
 30
0
 11
4.59392
 21
2.0466
 31
0
  0
LINE
  5
20EC0
100
AcDbEntity
  8
0
100
AcDbLine
370
-1
 62
142
  6
BYLAYER
 10
4.59392
 20
2.0466
 30
0
 11
4.60796
 21
1.87028
 31
0
  0
LINE
  5
20EC1
100
AcDbEntity
  8
0
100
AcDbLine
370
-1
 62
142
  6
BYLAYER
 10
4.60796
 20
1.87028
 30
0
 11
4.61621
 21
1.68013
 31
0
  0
LINE
  5
20EC2
100
AcDbEntity
  8
0
100
AcDbLine
370
-1
 62
142
  6
BYLAYER
 10
4.61621
 20
1.68013
 30
0
 11
4.61751
 21
1.47657
 31
0
  0
LINE
  5
20EC3
100
AcDbEntity
  8
0
100
AcDbLine
370
-1
 62
142
  6
BYLAYER
 10
4.61751
 20
1.47657
 30
0
 11
4.61051
 21
1.2602
 31
0
  0
LINE
  5
20EC4
100
AcDbEntity
  8
0
100
AcDbLine
370
-1
 62
142
  6
BYLAYER
 10
4.61051
 20
1.2602
 30
0
 11
4.59413
 21
1.03141
 31
0
  0
LINE
  5
20EC5
100
AcDbEntity
  8
0
100
AcDbLine
370
-1
 62
142
  6
BYLAYER
 10
4.59413
 20
1.03141
 30
0
 11
4.57503
 21
0.850803
 31
0
  0
LINE
  5
20EC6
100
AcDbEntity
  8
0
100
AcDbLine
370
-1
 62
142
  6
BYLAYER
 10
4.57503
 20
0.850803
 30
0
 11
4.56706
 21
0.790799
 31
0
  0
LINE
  5
20EC7
100
AcDbEntity
  8
0
100
AcDbLine
370
-1
 62
142
  6
BYLAYER
 10
4.56706
 20
0.790799
 30
0
 11
5.27593
 21
0.790961
 31
0
  0
LINE
  5
20EC8
100
AcDbEntity
  8
0
100
AcDbLine
370
-1
 62
142
  6
BYLAYER
 10
5.27593
 20
0.790961
 30
0
 11
5.28326
 21
0.827746
 31
0
  0
LINE
  5
20EC9
100
AcDbEntity
  8
0
100
AcDbLine
370
-1
 62
142
  6
BYLAYER
 10
5.28326
 20
0.827746
 30
0
 11
5.30197
 21
0.938747
 31
0
  0
LINE
  5
20ECA
100
AcDbEntity
  8
0
100
AcDbLine
370
-1
 62
142
  6
BYLAYER
 10
5.30197
 20
0.938747
 30
0
 11
5.32607
 21
1.13075
 31
0
  0
LINE
  5
20ECB
100
AcDbEntity
  8
0
100
AcDbLine
370
-1
 62
142
  6
BYLAYER
 10
5.32607
 20
1.13075
 30
0
 11
5.34153
 21
1.36203
 31
0
  0
LINE
  5
20ECC
100
AcDbEntity
  8
0
100
AcDbLine
370
-1
 62
142
  6
BYLAYER
 10
5.34153
 20
1.36203
 30
0
 11
5.34164
 21
1.62765
 31
0
  0
LINE
  5
20ECD
100
AcDbEntity
  8
0
100
AcDbLine
370
-1
 62
142
  6
BYLAYER
 10
5.34164
 20
1.62765
 30
0
 11
5.31956
 21
1.92275
 31
0
  0
LINE
  5
20ECE
100
AcDbEntity
  8
0
100
AcDbLine
370
-1
 62
142
  6
BYLAYER
 10
5.31956
 20
1.92275
 30
0
 11
5.26861
 21
2.24224
 31
0
  0
LINE
  5
20ECF
100
AcDbEntity
  8
0
100
AcDbLine
370
-1
 62
142
  6
BYLAYER
 10
5.26861
 20
2.24224
 30
0
 11
5.18213
 21
2.58128
 31
0
  0
LINE
  5
20ED0
100
AcDbEntity
  8
0
100
AcDbLine
370
-1
 62
142
  6
BYLAYER
 10
5.18213
 20
2.58128
 30
0
 11
5.08996
 21
2.84836
 31
0
  0
LINE
  5
20ED1
100
AcDbEntity
  8
0
100
AcDbLine
370
-1
 62
142
  6
BYLAYER
 10
5.08996
 20
2.84836
 30
0
 11
5.05333
 21
2.93485
 31
0
  0
LINE
  5
20ED2
100
AcDbEntity
  8
0
100
AcDbLine
370
-1
 62
142
  6
BYLAYER
 10
5.05333
 20
2.93485
 30
0
 11
6.35357
 21
2.93485
 31
0
  0
LINE
  5
20ED3
100
AcDbEntity
  8
0
100
AcDbLine
370
-1
 62
142
  6
BYLAYER
 10
6.35357
 20
2.93485
 30
0
 11
6.35726
 21
2.92524
 31
0
  0
LINE
  5
20ED4
100
AcDbEntity
  8
0
100
AcDbLine
370
-1
 62
142
  6
BYLAYER
 10
6.35726
 20
2.92524
 30
0
 11
6.36751
 21
2.89665
 31
0
  0
LINE
  5
20ED5
100
AcDbEntity
  8
0
100
AcDbLine
370
-1
 62
142
  6
BYLAYER
 10
6.36751
 20
2.89665
 30
0
 11
6.38314
 21
2.84961
 31
0
  0
LINE
  5
20ED6
100
AcDbEntity
  8
0
100
AcDbLine
370
-1
 62
142
  6
BYLAYER
 10
6.38314
 20
2.84961
 30
0
 11
6.40294
 21
2.78467
 31
0
  0
LINE
  5
20ED7
100
AcDbEntity
  8
0
100
AcDbLine
370
-1
 62
142
  6
BYLAYER
 10
6.40294
 20
2.78467
 30
0
 11
6.42557
 21
2.70226
 31
0
  0
LINE
  5
20ED8
100
AcDbEntity
  8
0
100
AcDbLine
370
-1
 62
142
  6
BYLAYER
 10
6.42557
 20
2.70226
 30
0
 11
6.44982
 21
2.60297
 31
0
  0
LINE
  5
20ED9
100
AcDbEntity
  8
0
100
AcDbLine
370
-1
 62
142
  6
BYLAYER
 10
6.44982
 20
2.60297
 30
0
 11
6.4745
 21
2.48725
 31
0
  0
LINE
  5
20EDA
100
AcDbEntity
  8
0
100
AcDbLine
370
-1
 62
142
  6
BYLAYER
 10
6.4745
 20
2.48725
 30
0
 11
6.49843
 21
2.35562
 31
0
  0
LINE
  5
20EDB
100
AcDbEntity
  8
0
100
AcDbLine
370
-1
 62
142
  6
BYLAYER
 10
6.49843
 20
2.35562
 30
0
 11
6.52024
 21
2.20865
 31
0
  0
LINE
  5
20EDC
100
AcDbEntity
  8
0
100
AcDbLine
370
-1
 62
142
  6
BYLAYER
 10
6.52024
 20
2.20865
 30
0
 11
6.53874
 21
2.04676
 31
0
  0
LINE
  5
20EDD
100
AcDbEntity
  8
0
100
AcDbLine
370
-1
 62
142
  6
BYLAYER
 10
6.53874
 20
2.04676
 30
0
 11
6.55279
 21
1.8705
 31
0
  0
LINE
  5
20EDE
100
AcDbEntity
  8
0
100
AcDbLine
370
-1
 62
142
  6
BYLAYER
 10
6.55279
 20
1.8705
 30
0
 11
6.56104
 21
1.68039
 31
0
  0
LINE
  5
20EDF
100
AcDbEntity
  8
0
100
AcDbLine
370
-1
 62
142
  6
BYLAYER
 10
6.56104
 20
1.68039
 30
0
 11
6.56233
 21
1.47689
 31
0
  0
LINE
  5
20EE0
100
AcDbEntity
  8
0
100
AcDbLine
370
-1
 62
142
  6
BYLAYER
 10
6.56233
 20
1.47689
 30
0
 11
6.55539
 21
1.26052
 31
0
  0
LINE
  5
20EE1
100
AcDbEntity
  8
0
100
AcDbLine
370
-1
 62
142
  6
BYLAYER
 10
6.55539
 20
1.26052
 30
0
 11
6.53901
 21
1.03179
 31
0
  0
LINE
  5
20EE2
100
AcDbEntity
  8
0
100
AcDbLine
370
-1
 62
142
  6
BYLAYER
 10
6.53901
 20
1.03179
 30
0
 11
6.51992
 21
0.851238
 31
0
  0
LINE
  5
20EE3
100
AcDbEntity
  8
0
100
AcDbLine
370
-1
 62
142
  6
BYLAYER
 10
6.51992
 20
0.851238
 30
0
 11
6.51193
 21
0.791233
 31
0
  0
LINE
  5
20EE4
100
AcDbEntity
  8
0
100
AcDbLine
370
-1
 62
142
  6
BYLAYER
 10
6.51193
 20
0.791233
 30
0
 11
7.27599
 21
0.791396
 31
0
  0
LINE
  5
20EE5
100
AcDbEntity
  8
0
100
AcDbLine
370
-1
 62
142
  6
BYLAYER
 10
7.27599
 20
0.791396
 30
0
 11
7.28331
 21
0.828125
 31
0
  0
LINE
  5
20EE6
100
AcDbEntity
  8
0
100
AcDbLine
370
-1
 62
142
  6
BYLAYER
 10
7.28331
 20
0.828125
 30
0
 11
7.29969
 21
0.939344
 31
0
  0
LINE
  5
20EE7
100
AcDbEntity
  8
0
100
AcDbLine
370
-1
 62
142
  6
BYLAYER
 10
7.29969
 20
0.939344
 30
0
 11
7.31765
 21
1.13146
 31
0
  0
LINE
  5
20EE8
100
AcDbEntity
  8
0
100
AcDbLine
370
-1
 62
142
  6
BYLAYER
 10
7.31765
 20
1.13146
 30
0
 11
7.32443
 21
1.3629
 31
0
  0
LINE
  5
20EE9
100
AcDbEntity
  8
0
100
AcDbLine
370
-1
 62
142
  6
BYLAYER
 10
7.32443
 20
1.3629
 30
0
 11
7.31456
 21
1.62864
 31
0
  0
LINE
  5
20EEA
100
AcDbEntity
  8
0
100
AcDbLine
370
-1
 62
142
  6
BYLAYER
 10
7.31456
 20
1.62864
 30
0
 11
7.28256
 21
1.92378
 31
0
  0
LINE
  5
20EEB
100
AcDbEntity
  8
0
100
AcDbLine
370
-1
 62
142
  6
BYLAYER
 10
7.28256
 20
1.92378
 30
0
 11
7.22293
 21
2.24333
 31
0
  0
LINE
  5
20EEC
100
AcDbEntity
  8
0
100
AcDbLine
370
-1
 62
142
  6
BYLAYER
 10
7.22293
 20
2.24333
 30
0
 11
7.13032
 21
2.58231
 31
0
  0
LINE
  5
20EED
100
AcDbEntity
  8
0
100
AcDbLine
370
-1
 62
142
  6
BYLAYER
 10
7.13032
 20
2.58231
 30
0
 11
7.03597
 21
2.84912
 31
0
  0
LINE
  5
20EEE
100
AcDbEntity
  8
0
100
AcDbLine
370
-1
 62
142
  6
BYLAYER
 10
7.03597
 20
2.84912
 30
0
 11
6.99924
 21
2.93576
 31
0
  0
LINE
  5
20EEF
100
AcDbEntity
  8
0
100
AcDbLine
370
-1
 62
142
  6
BYLAYER
 10
6.99924
 20
2.93576
 30
0
 11
8.35357
 21
2.93485
 31
0
  0
LINE
  5
20EF0
100
AcDbEntity
  8
0
100
AcDbLine
370
-1
 62
142
  6
BYLAYER
 10
8.35357
 20
2.93485
 30
0
 11
8.38439
 21
2.82226
 31
0
  0
LINE
  5
20EF1
100
AcDbEntity
  8
0
100
AcDbLine
370
-1
 62
142
  6
BYLAYER
 10
8.38439
 20
2.82226
 30
0
 11
8.45742
 21
2.47906
 31
0
  0
LINE
  5
20EF2
100
AcDbEntity
  8
0
100
AcDbLine
370
-1
 62
142
  6
BYLAYER
 10
8.45742
 20
2.47906
 30
0
 11
8.52317
 21
2.02171
 31
0
  0
LINE
  5
20EF3
100
AcDbEntity
  8
0
100
AcDbLine
370
-1
 62
142
  6
BYLAYER
 10
8.52317
 20
2.02171
 30
0
 11
8.5541
 21
1.56808
 31
0
  0
LINE
  5
20EF4
100
AcDbEntity
  8
0
100
AcDbLine
370
-1
 62
142
  6
BYLAYER
 10
8.5541
 20
1.56808
 30
0
 11
8.5535
 21
1.12359
 31
0
  0
LINE
  5
20EF5
100
AcDbEntity
  8
0
100
AcDbLine
370
-1
 62
142
  6
BYLAYER
 10
8.5535
 20
1.12359
 30
0
 11
8.52453
 21
0.693631
 31
0
  0
LINE
  5
20EF6
100
AcDbEntity
  8
0
100
AcDbLine
370
-1
 62
142
  6
BYLAYER
 10
8.52453
 20
0.693631
 30
0
 11
8.4706
 21
0.283529
 31
0
  0
LINE
  5
20EF7
100
AcDbEntity
  8
0
100
AcDbLine
370
-1
 62
142
  6
BYLAYER
 10
8.4706
 20
0.283529
 30
0
 11
8.39492
 21
-0.101346
 31
0
  0
LINE
  5
20EF8
100
AcDbEntity
  8
0
100
AcDbLine
370
-1
 62
142
  6
BYLAYER
 10
8.39492
 20
-0.101346
 30
0
 11
8.32736
 21
-0.368056
 31
0
  0
LINE
  5
20EF9
100
AcDbEntity
  8
0
100
AcDbLine
370
-1
 62
142
  6
BYLAYER
 10
8.32736
 20
-0.368056
 30
0
 11
8.30078
 21
-0.455729
 31
0
  0
LINE
  5
20EFA
100
AcDbEntity
  8
0
100
AcDbLine
370
-1
 62
142
  6
BYLAYER
 10
-0.732747
 20
1.51546
 30
0
 11
-0.713758
 21
1.51546
 31
0
  0
LINE
  5
20EFB
100
AcDbEntity
  8
0
100
AcDbLine
370
-1
 62
142
  6
BYLAYER
 10
-0.713758
 20
1.51546
 30
0
 11
-0.656685
 21
1.50782
 31
0
  0
LINE
  5
20EFC
100
AcDbEntity
  8
0
100
AcDbLine
370
-1
 62
142
  6
BYLAYER
 10
-0.656685
 20
1.50782
 30
0
 11
-0.585775
 21
1.48583
 31
0
  0
LINE
  5
20EFD
100
AcDbEntity
  8
0
100
AcDbLine
370
-1
 62
142
  6
BYLAYER
 10
-0.585775
 20
1.48583
 30
0
 11
-0.521647
 21
1.45101
 31
0
  0
LINE
  5
20EFE
100
AcDbEntity
  8
0
100
AcDbLine
370
-1
 62
142
  6
BYLAYER
 10
-0.521647
 20
1.45101
 30
0
 11
-0.465767
 21
1.40489
 31
0
  0
LINE
  5
20EFF
100
AcDbEntity
  8
0
100
AcDbLine
370
-1
 62
142
  6
BYLAYER
 10
-0.465767
 20
1.40489
 30
0
 11
-0.41965
 21
1.34901
 31
0
  0
LINE
  5
20F00
100
AcDbEntity
  8
0
100
AcDbLine
370
-1
 62
142
  6
BYLAYER
 10
-0.41965
 20
1.34901
 30
0
 11
-0.384819
 21
1.28488
 31
0
  0
LINE
  5
20F01
100
AcDbEntity
  8
0
100
AcDbLine
370
-1
 62
142
  6
BYLAYER
 10
-0.384819
 20
1.28488
 30
0
 11
-0.362847
 21
1.21398
 31
0
  0
LINE
  5
20F02
100
AcDbEntity
  8
0
100
AcDbLine
370
-1
 62
142
  6
BYLAYER
 10
-0.362847
 20
1.21398
 30
0
 11
-0.355143
 21
1.1569
 31
0
  0
LINE
  5
20F03
100
AcDbEntity
  8
0
100
AcDbLine
370
-1
 62
142
  6
BYLAYER
 10
-0.355143
 20
1.1569
 30
0
 11
-0.355143
 21
1.13786
 31
0
  0
LINE
  5
20F04
100
AcDbEntity
  8
0
100
AcDbLine
370
-1
 62
142
  6
BYLAYER
 10
-0.355143
 20
1.13786
 30
0
 11
-0.355143
 21
1.11887
 31
0
  0
LINE
  5
20F05
100
AcDbEntity
  8
0
100
AcDbLine
370
-1
 62
142
  6
BYLAYER
 10
-0.355143
 20
1.11887
 30
0
 11
-0.362847
 21
1.06179
 31
0
  0
LINE
  5
20F06
100
AcDbEntity
  8
0
100
AcDbLine
370
-1
 62
142
  6
BYLAYER
 10
-0.362847
 20
1.06179
 30
0
 11
-0.384819
 21
0.990886
 31
0
  0
LINE
  5
20F07
100
AcDbEntity
  8
0
100
AcDbLine
370
-1
 62
142
  6
BYLAYER
 10
-0.384819
 20
0.990886
 30
0
 11
-0.41965
 21
0.926758
 31
0
  0
LINE
  5
20F08
100
AcDbEntity
  8
0
100
AcDbLine
370
-1
 62
142
  6
BYLAYER
 10
-0.41965
 20
0.926758
 30
0
 11
-0.465767
 21
0.870876
 31
0
  0
LINE
  5
20F09
100
AcDbEntity
  8
0
100
AcDbLine
370
-1
 62
142
  6
BYLAYER
 10
-0.465767
 20
0.870876
 30
0
 11
-0.521647
 21
0.824761
 31
0
  0
LINE
  5
20F0A
100
AcDbEntity
  8
0
100
AcDbLine
370
-1
 62
142
  6
BYLAYER
 10
-0.521647
 20
0.824761
 30
0
 11
-0.585775
 21
0.789931
 31
0
  0
LINE
  5
20F0B
100
AcDbEntity
  8
0
100
AcDbLine
370
-1
 62
142
  6
BYLAYER
 10
-0.585775
 20
0.789931
 30
0
 11
-0.656685
 21
0.767958
 31
0
  0
LINE
  5
20F0C
100
AcDbEntity
  8
0
100
AcDbLine
370
-1
 62
142
  6
BYLAYER
 10
-0.656685
 20
0.767958
 30
0
 11
-0.713758
 21
0.760254
 31
0
  0
LINE
  5
20F0D
100
AcDbEntity
  8
0
100
AcDbLine
370
-1
 62
142
  6
BYLAYER
 10
-0.713758
 20
0.760254
 30
0
 11
-0.732747
 21
0.760254
 31
0
  0
LINE
  5
20F0E
100
AcDbEntity
  8
0
100
AcDbLine
370
-1
 62
142
  6
BYLAYER
 10
-0.732747
 20
0.760254
 30
0
 11
-0.75179
 21
0.760254
 31
0
  0
LINE
  5
20F0F
100
AcDbEntity
  8
0
100
AcDbLine
370
-1
 62
142
  6
BYLAYER
 10
-0.75179
 20
0.760254
 30
0
 11
-0.808865
 21
0.767958
 31
0
  0
LINE
  5
20F10
100
AcDbEntity
  8
0
100
AcDbLine
370
-1
 62
142
  6
BYLAYER
 10
-0.808865
 20
0.767958
 30
0
 11
-0.879775
 21
0.789931
 31
0
  0
LINE
  5
20F11
100
AcDbEntity
  8
0
100
AcDbLine
370
-1
 62
142
  6
BYLAYER
 10
-0.879775
 20
0.789931
 30
0
 11
-0.943901
 21
0.824761
 31
0
  0
LINE
  5
20F12
100
AcDbEntity
  8
0
100
AcDbLine
370
-1
 62
142
  6
BYLAYER
 10
-0.943901
 20
0.824761
 30
0
 11
-0.999783
 21
0.870876
 31
0
  0
LINE
  5
20F13
100
AcDbEntity
  8
0
100
AcDbLine
370
-1
 62
142
  6
BYLAYER
 10
-0.999783
 20
0.870876
 30
0
 11
-1.0459
 21
0.926758
 31
0
  0
LINE
  5
20F14
100
AcDbEntity
  8
0
100
AcDbLine
370
-1
 62
142
  6
BYLAYER
 10
-1.0459
 20
0.926758
 30
0
 11
-1.08073
 21
0.990886
 31
0
  0
LINE
  5
20F15
100
AcDbEntity
  8
0
100
AcDbLine
370
-1
 62
142
  6
BYLAYER
 10
-1.08073
 20
0.990886
 30
0
 11
-1.1027
 21
1.06179
 31
0
  0
LINE
  5
20F16
100
AcDbEntity
  8
0
100
AcDbLine
370
-1
 62
142
  6
BYLAYER
 10
-1.1027
 20
1.06179
 30
0
 11
-1.11035
 21
1.11887
 31
0
  0
LINE
  5
20F17
100
AcDbEntity
  8
0
100
AcDbLine
370
-1
 62
142
  6
BYLAYER
 10
-1.11035
 20
1.11887
 30
0
 11
-1.11035
 21
1.13786
 31
0
  0
LINE
  5
20F18
100
AcDbEntity
  8
0
100
AcDbLine
370
-1
 62
142
  6
BYLAYER
 10
-1.11035
 20
1.13786
 30
0
 11
-1.11035
 21
1.1569
 31
0
  0
LINE
  5
20F19
100
AcDbEntity
  8
0
100
AcDbLine
370
-1
 62
142
  6
BYLAYER
 10
-1.11035
 20
1.1569
 30
0
 11
-1.1027
 21
1.21398
 31
0
  0
LINE
  5
20F1A
100
AcDbEntity
  8
0
100
AcDbLine
370
-1
 62
142
  6
BYLAYER
 10
-1.1027
 20
1.21398
 30
0
 11
-1.08073
 21
1.28488
 31
0
  0
LINE
  5
20F1B
100
AcDbEntity
  8
0
100
AcDbLine
370
-1
 62
142
  6
BYLAYER
 10
-1.08073
 20
1.28488
 30
0
 11
-1.0459
 21
1.34901
 31
0
  0
LINE
  5
20F1C
100
AcDbEntity
  8
0
100
AcDbLine
370
-1
 62
142
  6
BYLAYER
 10
-1.0459
 20
1.34901
 30
0
 11
-0.999783
 21
1.40489
 31
0
  0
LINE
  5
20F1D
100
AcDbEntity
  8
0
100
AcDbLine
370
-1
 62
142
  6
BYLAYER
 10
-0.999783
 20
1.40489
 30
0
 11
-0.943901
 21
1.45101
 31
0
  0
LINE
  5
20F1E
100
AcDbEntity
  8
0
100
AcDbLine
370
-1
 62
142
  6
BYLAYER
 10
-0.943901
 20
1.45101
 30
0
 11
-0.879775
 21
1.48583
 31
0
  0
LINE
  5
20F1F
100
AcDbEntity
  8
0
100
AcDbLine
370
-1
 62
142
  6
BYLAYER
 10
-0.879775
 20
1.48583
 30
0
 11
-0.808865
 21
1.50782
 31
0
  0
LINE
  5
20F20
100
AcDbEntity
  8
0
100
AcDbLine
370
-1
 62
142
  6
BYLAYER
 10
-0.808865
 20
1.50782
 30
0
 11
-0.75179
 21
1.51546
 31
0
  0
LINE
  5
20F21
100
AcDbEntity
  8
0
100
AcDbLine
370
-1
 62
142
  6
BYLAYER
 10
-0.75179
 20
1.51546
 30
0
 11
-0.732747
 21
1.51546
 31
0
  0
LINE
  5
20F22
100
AcDbEntity
  8
0
100
AcDbLine
370
-1
 62
0
  6
BYLAYER
 10
8.30078
 20
-0.455729
 30
0
 11
-1.87429
 21
-0.455729
 31
0
  0
LINE
  5
20F23
100
AcDbEntity
  8
0
100
AcDbLine
370
-1
 62
0
  6
BYLAYER
 10
-1.87429
 20
-0.455729
 30
0
 11
-1.89794
 21
-0.456272
 31
0
  0
LINE
  5
20F24
100
AcDbEntity
  8
0
100
AcDbLine
370
-1
 62
0
  6
BYLAYER
 10
-1.89794
 20
-0.456272
 30
0
 11
-1.96881
 21
-0.462403
 31
0
  0
LINE
  5
20F25
100
AcDbEntity
  8
0
100
AcDbLine
370
-1
 62
0
  6
BYLAYER
 10
-1.96881
 20
-0.462403
 30
0
 11
-2.04644
 21
-0.47781
 31
0
  0
LINE
  5
20F26
100
AcDbEntity
  8
0
100
AcDbLine
370
-1
 62
0
  6
BYLAYER
 10
-2.04644
 20
-0.47781
 30
0
 11
-2.10878
 21
-0.50255
 31
0
  0
LINE
  5
20F27
100
AcDbEntity
  8
0
100
AcDbLine
370
-1
 62
0
  6
BYLAYER
 10
-2.10878
 20
-0.50255
 30
0
 11
-2.15733
 21
-0.537164
 31
0
  0
LINE
  5
20F28
100
AcDbEntity
  8
0
100
AcDbLine
370
-1
 62
0
  6
BYLAYER
 10
-2.15733
 20
-0.537164
 30
0
 11
-2.19374
 21
-0.582249
 31
0
  0
LINE
  5
20F29
100
AcDbEntity
  8
0
100
AcDbLine
370
-1
 62
0
  6
BYLAYER
 10
-2.19374
 20
-0.582249
 30
0
 11
-2.2194
 21
-0.638292
 31
0
  0
LINE
  5
20F2A
100
AcDbEntity
  8
0
100
AcDbLine
370
-1
 62
0
  6
BYLAYER
 10
-2.2194
 20
-0.638292
 30
0
 11
-2.23594
 21
-0.705892
 31
0
  0
LINE
  5
20F2B
100
AcDbEntity
  8
0
100
AcDbLine
370
-1
 62
0
  6
BYLAYER
 10
-2.23594
 20
-0.705892
 30
0
 11
-2.24354
 21
-0.765571
 31
0
  0
LINE
  5
20F2C
100
AcDbEntity
  8
0
100
AcDbLine
370
-1
 62
0
  6
BYLAYER
 10
-2.24354
 20
-0.765571
 30
0
 11
-2.24485
 21
-0.78559
 31
0
  0
LINE
  5
20F2D
100
AcDbEntity
  8
0
100
AcDbLine
370
-1
 62
0
  6
BYLAYER
 10
-2.24485
 20
-0.78559
 30
0
 11
-2.24485
 21
-2.40494
 31
0
  0
LINE
  5
20F2E
100
AcDbEntity
  8
0
100
AcDbLine
370
-1
 62
0
  6
BYLAYER
 10
-2.24485
 20
-2.40494
 30
0
 11
-3.51047
 21
-3.65494
 31
0
  0
LINE
  5
20F2F
100
AcDbEntity
  8
0
100
AcDbLine
370
-1
 62
0
  6
BYLAYER
 10
-3.51047
 20
-3.65494
 30
0
 11
-3.48844
 21
-0.57845
 31
0
  0
LINE
  5
20F30
100
AcDbEntity
  8
0
100
AcDbLine
370
-1
 62
0
  6
BYLAYER
 10
-3.48844
 20
-0.57845
 30
0
 11
-3.48708
 21
-0.522732
 31
0
  0
LINE
  5
20F31
100
AcDbEntity
  8
0
100
AcDbLine
370
-1
 62
0
  6
BYLAYER
 10
-3.48708
 20
-0.522732
 30
0
 11
-3.45594
 21
-0.356392
 31
0
  0
LINE
  5
20F32
100
AcDbEntity
  8
0
100
AcDbLine
370
-1
 62
0
  6
BYLAYER
 10
-3.45594
 20
-0.356392
 30
0
 11
-3.37472
 21
-0.134223
 31
0
  0
LINE
  5
20F33
100
AcDbEntity
  8
0
100
AcDbLine
370
-1
 62
0
  6
BYLAYER
 10
-3.37472
 20
-0.134223
 30
0
 11
-3.25304
 21
0.0804036
 31
0
  0
LINE
  5
20F34
100
AcDbEntity
  8
0
100
AcDbLine
370
-1
 62
0
  6
BYLAYER
 10
-3.25304
 20
0.0804036
 30
0
 11
-3.09896
 21
0.279893
 31
0
  0
LINE
  5
20F35
100
AcDbEntity
  8
0
100
AcDbLine
370
-1
 62
0
  6
BYLAYER
 10
-3.09896
 20
0.279893
 30
0
 11
-2.92063
 21
0.456543
 31
0
  0
LINE
  5
20F36
100
AcDbEntity
  8
0
100
AcDbLine
370
-1
 62
0
  6
BYLAYER
 10
-2.92063
 20
0.456543
 30
0
 11
-2.72624
 21
0.602701
 31
0
  0
LINE
  5
20F37
100
AcDbEntity
  8
0
100
AcDbLine
370
-1
 62
0
  6
BYLAYER
 10
-2.72624
 20
0.602701
 30
0
 11
-2.52387
 21
0.710721
 31
0
  0
LINE
  5
20F38
100
AcDbEntity
  8
0
100
AcDbLine
370
-1
 62
0
  6
BYLAYER
 10
-2.52387
 20
0.710721
 30
0
 11
-2.37332
 21
0.763346
 31
0
  0
LINE
  5
20F39
100
AcDbEntity
  8
0
100
AcDbLine
370
-1
 62
0
  6
BYLAYER
 10
-2.37332
 20
0.763346
 30
0
 11
-2.32167
 21
0.77284
 31
0
  0
LINE
  5
20F3A
100
AcDbEntity
  8
0
100
AcDbLine
370
-1
 62
0
  6
BYLAYER
 10
-2.32167
 20
0.77284
 30
0
 11
-2.33062
 21
0.814561
 31
0
  0
LINE
  5
20F3B
100
AcDbEntity
  8
0
100
AcDbLine
370
-1
 62
0
  6
BYLAYER
 10
-2.33062
 20
0.814561
 30
0
 11
-2.34933
 21
0.941407
 31
0
  0
LINE
  5
20F3C
100
AcDbEntity
  8
0
100
AcDbLine
370
-1
 62
0
  6
BYLAYER
 10
-2.34933
 20
0.941407
 30
0
 11
-2.3604
 21
1.11138
 31
0
  0
LINE
  5
20F3D
100
AcDbEntity
  8
0
100
AcDbLine
370
-1
 62
0
  6
BYLAYER
 10
-2.3604
 20
1.11138
 30
0
 11
-2.35482
 21
1.2812
 31
0
  0
LINE
  5
20F3E
100
AcDbEntity
  8
0
100
AcDbLine
370
-1
 62
0
  6
BYLAYER
 10
-2.35482
 20
1.2812
 30
0
 11
-2.33247
 21
1.44911
 31
0
  0
LINE
  5
20F3F
100
AcDbEntity
  8
0
100
AcDbLine
370
-1
 62
0
  6
BYLAYER
 10
-2.33247
 20
1.44911
 30
0
 11
-2.29329
 21
1.6135
 31
0
  0
LINE
  5
20F40
100
AcDbEntity
  8
0
100
AcDbLine
370
-1
 62
0
  6
BYLAYER
 10
-2.29329
 20
1.6135
 30
0
 11
-2.23719
 21
1.77274
 31
0
  0
LINE
  5
20F41
100
AcDbEntity
  8
0
100
AcDbLine
370
-1
 62
0
  6
BYLAYER
 10
-2.23719
 20
1.77274
 30
0
 11
-2.16407
 21
1.92512
 31
0
  0
LINE
  5
20F42
100
AcDbEntity
  8
0
100
AcDbLine
370
-1
 62
0
  6
BYLAYER
 10
-2.16407
 20
1.92512
 30
0
 11
-2.07379
 21
2.06896
 31
0
  0
LINE
  5
20F43
100
AcDbEntity
  8
0
100
AcDbLine
370
-1
 62
0
  6
BYLAYER
 10
-2.07379
 20
2.06896
 30
0
 11
-1.96625
 21
2.20264
 31
0
  0
LINE
  5
20F44
100
AcDbEntity
  8
0
100
AcDbLine
370
-1
 62
0
  6
BYLAYER
 10
-1.96625
 20
2.20264
 30
0
 11
-1.84142
 21
2.32443
 31
0
  0
LINE
  5
20F45
100
AcDbEntity
  8
0
100
AcDbLine
370
-1
 62
0
  6
BYLAYER
 10
-1.84142
 20
2.32443
 30
0
 11
-1.69911
 21
2.43278
 31
0
  0
LINE
  5
20F46
100
AcDbEntity
  8
0
100
AcDbLine
370
-1
 62
0
  6
BYLAYER
 10
-1.69911
 20
2.43278
 30
0
 11
-1.53933
 21
2.52588
 31
0
  0
LINE
  5
20F47
100
AcDbEntity
  8
0
100
AcDbLine
370
-1
 62
0
  6
BYLAYER
 10
-1.53933
 20
2.52588
 30
0
 11
-1.36193
 21
2.60215
 31
0
  0
LINE
  5
20F48
100
AcDbEntity
  8
0
100
AcDbLine
370
-1
 62
0
  6
BYLAYER
 10
-1.36193
 20
2.60215
 30
0
 11
-1.16677
 21
2.65994
 31
0
  0
LINE
  5
20F49
100
AcDbEntity
  8
0
100
AcDbLine
370
-1
 62
0
  6
BYLAYER
 10
-1.16677
 20
2.65994
 30
0
 11
-0.953885
 21
2.69754
 31
0
  0
LINE
  5
20F4A
100
AcDbEntity
  8
0
100
AcDbLine
370
-1
 62
0
  6
BYLAYER
 10
-0.953885
 20
2.69754
 30
0
 11
-0.780761
 21
2.71224
 31
0
  0
LINE
  5
20F4B
100
AcDbEntity
  8
0
100
AcDbLine
370
-1
 62
0
  6
BYLAYER
 10
-0.780761
 20
2.71224
 30
0
 11
-0.722982
 21
2.71326
 31
0
  0
LINE
  5
20F4C
100
AcDbEntity
  8
0
100
AcDbLine
370
-1
 62
0
  6
BYLAYER
 10
-0.722982
 20
2.71326
 30
0
 11
-0.665365
 21
2.71229
 31
0
  0
LINE
  5
20F4D
100
AcDbEntity
  8
0
100
AcDbLine
370
-1
 62
0
  6
BYLAYER
 10
-0.665365
 20
2.71229
 30
0
 11
-0.492567
 21
2.6976
 31
0
  0
LINE
  5
20F4E
100
AcDbEntity
  8
0
100
AcDbLine
370
-1
 62
0
  6
BYLAYER
 10
-0.492567
 20
2.6976
 30
0
 11
-0.280003
 21
2.66015
 31
0
  0
LINE
  5
20F4F
100
AcDbEntity
  8
0
100
AcDbLine
370
-1
 62
0
  6
BYLAYER
 10
-0.280003
 20
2.66015
 30
0
 11
-0.0851238
 21
2.6026
 31
0
  0
LINE
  5
20F50
100
AcDbEntity
  8
0
100
AcDbLine
370
-1
 62
0
  6
BYLAYER
 10
-0.0851238
 20
2.6026
 30
0
 11
0.0920682
 21
2.52664
 31
0
  0
LINE
  5
20F51
100
AcDbEntity
  8
0
100
AcDbLine
370
-1
 62
0
  6
BYLAYER
 10
0.0920682
 20
2.52664
 30
0
 11
0.251736
 21
2.43392
 31
0
  0
LINE
  5
20F52
100
AcDbEntity
  8
0
100
AcDbLine
370
-1
 62
0
  6
BYLAYER
 10
0.251736
 20
2.43392
 30
0
 11
0.393935
 21
2.32607
 31
0
  0
LINE
  5
20F53
100
AcDbEntity
  8
0
100
AcDbLine
370
-1
 62
0
  6
BYLAYER
 10
0.393935
 20
2.32607
 30
0
 11
0.518826
 21
2.20481
 31
0
  0
LINE
  5
20F54
100
AcDbEntity
  8
0
100
AcDbLine
370
-1
 62
0
  6
BYLAYER
 10
0.518826
 20
2.20481
 30
0
 11
0.626411
 21
2.07183
 31
0
  0
LINE
  5
20F55
100
AcDbEntity
  8
0
100
AcDbLine
370
-1
 62
0
  6
BYLAYER
 10
0.626411
 20
2.07183
 30
0
 11
0.716906
 21
1.92871
 31
0
  0
LINE
  5
20F56
100
AcDbEntity
  8
0
100
AcDbLine
370
-1
 62
0
  6
BYLAYER
 10
0.716906
 20
1.92871
 30
0
 11
0.79031
 21
1.77718
 31
0
  0
LINE
  5
20F57
100
AcDbEntity
  8
0
100
AcDbLine
370
-1
 62
0
  6
BYLAYER
 10
0.79031
 20
1.77718
 30
0
 11
0.846733
 21
1.61882
 31
0
  0
LINE
  5
20F58
100
AcDbEntity
  8
0
100
AcDbLine
370
-1
 62
0
  6
BYLAYER
 10
0.846733
 20
1.61882
 30
0
 11
0.886339
 21
1.4554
 31
0
  0
LINE
  5
20F59
100
AcDbEntity
  8
0
100
AcDbLine
370
-1
 62
0
  6
BYLAYER
 10
0.886339
 20
1.4554
 30
0
 11
0.909125
 21
1.28852
 31
0
  0
LINE
  5
20F5A
100
AcDbEntity
  8
0
100
AcDbLine
370
-1
 62
0
  6
BYLAYER
 10
0.909125
 20
1.28852
 30
0
 11
0.91531
 21
1.1199
 31
0
  0
LINE
  5
20F5B
100
AcDbEntity
  8
0
100
AcDbLine
370
-1
 62
0
  6
BYLAYER
 10
0.91531
 20
1.1199
 30
0
 11
0.904893
 21
0.951118
 31
0
  0
LINE
  5
20F5C
100
AcDbEntity
  8
0
100
AcDbLine
370
-1
 62
0
  6
BYLAYER
 10
0.904893
 20
0.951118
 30
0
 11
0.886774
 21
0.825304
 31
0
  0
LINE
  5
20F5D
100
AcDbEntity
  8
0
100
AcDbLine
370
-1
 62
0
  6
BYLAYER
 10
0.886774
 20
0.825304
 30
0
 11
0.878039
 21
0.783908
 31
0
  0
LINE
  5
20F5E
100
AcDbEntity
  8
0
100
AcDbLine
370
-1
 62
0
  6
BYLAYER
 10
0.878039
 20
0.783908
 30
0
 11
1.45285
 21
0.790147
 31
0
  0
LINE
  5
20F5F
100
AcDbEntity
  8
0
100
AcDbLine
370
-1
 62
0
  6
BYLAYER
 10
1.45285
 20
0.790147
 30
0
 11
1.46018
 21
0.826878
 31
0
  0
LINE
  5
20F60
100
AcDbEntity
  8
0
100
AcDbLine
370
-1
 62
0
  6
BYLAYER
 10
1.46018
 20
0.826878
 30
0
 11
1.47889
 21
0.937771
 31
0
  0
LINE
  5
20F61
100
AcDbEntity
  8
0
100
AcDbLine
370
-1
 62
0
  6
BYLAYER
 10
1.47889
 20
0.937771
 30
0
 11
1.50299
 21
1.12972
 31
0
  0
LINE
  5
20F62
100
AcDbEntity
  8
0
100
AcDbLine
370
-1
 62
0
  6
BYLAYER
 10
1.50299
 20
1.12972
 30
0
 11
1.51844
 21
1.361
 31
0
  0
LINE
  5
20F63
100
AcDbEntity
  8
0
100
AcDbLine
370
-1
 62
0
  6
BYLAYER
 10
1.51844
 20
1.361
 30
0
 11
1.5185
 21
1.62674
 31
0
  0
LINE
  5
20F64
100
AcDbEntity
  8
0
100
AcDbLine
370
-1
 62
0
  6
BYLAYER
 10
1.5185
 20
1.62674
 30
0
 11
1.49642
 21
1.92199
 31
0
  0
LINE
  5
20F65
100
AcDbEntity
  8
0
100
AcDbLine
370
-1
 62
0
  6
BYLAYER
 10
1.49642
 20
1.92199
 30
0
 11
1.44547
 21
2.24169
 31
0
  0
LINE
  5
20F66
100
AcDbEntity
  8
0
100
AcDbLine
370
-1
 62
0
  6
BYLAYER
 10
1.44547
 20
2.24169
 30
0
 11
1.35889
 21
2.581
 31
0
  0
LINE
  5
20F67
100
AcDbEntity
  8
0
100
AcDbLine
370
-1
 62
0
  6
BYLAYER
 10
1.35889
 20
2.581
 30
0
 11
1.26666
 21
2.84831
 31
0
  0
LINE
  5
20F68
100
AcDbEntity
  8
0
100
AcDbLine
370
-1
 62
0
  6
BYLAYER
 10
1.26666
 20
2.84831
 30
0
 11
1.22998
 21
2.93485
 31
0
  0
LINE
  5
20F69
100
AcDbEntity
  8
0
100
AcDbLine
370
-1
 62
0
  6
BYLAYER
 10
1.22998
 20
2.93485
 30
0
 11
2.53065
 21
2.93485
 31
0
  0
LINE
  5
20F6A
100
AcDbEntity
  8
0
100
AcDbLine
370
-1
 62
0
  6
BYLAYER
 10
2.53065
 20
2.93485
 30
0
 11
2.53435
 21
2.92524
 31
0
  0
LINE
  5
20F6B
100
AcDbEntity
  8
0
100
AcDbLine
370
-1
 62
0
  6
BYLAYER
 10
2.53435
 20
2.92524
 30
0
 11
2.5446
 21
2.89665
 31
0
  0
LINE
  5
20F6C
100
AcDbEntity
  8
0
100
AcDbLine
370
-1
 62
0
  6
BYLAYER
 10
2.5446
 20
2.89665
 30
0
 11
2.56028
 21
2.84956
 31
0
  0
LINE
  5
20F6D
100
AcDbEntity
  8
0
100
AcDbLine
370
-1
 62
0
  6
BYLAYER
 10
2.56028
 20
2.84956
 30
0
 11
2.58003
 21
2.78461
 31
0
  0
LINE
  5
20F6E
100
AcDbEntity
  8
0
100
AcDbLine
370
-1
 62
0
  6
BYLAYER
 10
2.58003
 20
2.78461
 30
0
 11
2.60265
 21
2.70221
 31
0
  0
LINE
  5
20F6F
100
AcDbEntity
  8
0
100
AcDbLine
370
-1
 62
0
  6
BYLAYER
 10
2.60265
 20
2.70221
 30
0
 11
2.62696
 21
2.60286
 31
0
  0
LINE
  5
20F70
100
AcDbEntity
  8
0
100
AcDbLine
370
-1
 62
0
  6
BYLAYER
 10
2.62696
 20
2.60286
 30
0
 11
2.65164
 21
2.48708
 31
0
  0
LINE
  5
20F71
100
AcDbEntity
  8
0
100
AcDbLine
370
-1
 62
0
  6
BYLAYER
 10
2.65164
 20
2.48708
 30
0
 11
2.67551
 21
2.35542
 31
0
  0
LINE
  5
20F72
100
AcDbEntity
  8
0
100
AcDbLine
370
-1
 62
0
  6
BYLAYER
 10
2.67551
 20
2.35542
 30
0
 11
2.69737
 21
2.20839
 31
0
  0
LINE
  5
20F73
100
AcDbEntity
  8
0
100
AcDbLine
370
-1
 62
0
  6
BYLAYER
 10
2.69737
 20
2.20839
 30
0
 11
2.71588
 21
2.04644
 31
0
  0
LINE
  5
20F74
100
AcDbEntity
  8
0
100
AcDbLine
370
-1
 62
0
  6
BYLAYER
 10
2.71588
 20
2.04644
 30
0
 11
2.72993
 21
1.87011
 31
0
  0
LINE
  5
20F75
100
AcDbEntity
  8
0
100
AcDbLine
370
-1
 62
0
  6
BYLAYER
 10
2.72993
 20
1.87011
 30
0
 11
2.73817
 21
1.6799
 31
0
  0
LINE
  5
20F76
100
AcDbEntity
  8
0
100
AcDbLine
370
-1
 62
0
  6
BYLAYER
 10
2.73817
 20
1.6799
 30
0
 11
2.73942
 21
1.47629
 31
0
  0
LINE
  5
20F77
100
AcDbEntity
  8
0
100
AcDbLine
370
-1
 62
0
  6
BYLAYER
 10
2.73942
 20
1.47629
 30
0
 11
2.73242
 21
1.25987
 31
0
  0
LINE
  5
20F78
100
AcDbEntity
  8
0
100
AcDbLine
370
-1
 62
0
  6
BYLAYER
 10
2.73242
 20
1.25987
 30
0
 11
2.71604
 21
1.03109
 31
0
  0
LINE
  5
20F79
100
AcDbEntity
  8
0
100
AcDbLine
370
-1
 62
0
  6
BYLAYER
 10
2.71604
 20
1.03109
 30
0
 11
2.69689
 21
0.850424
 31
0
  0
LINE
  5
20F7A
100
AcDbEntity
  8
0
100
AcDbLine
370
-1
 62
0
  6
BYLAYER
 10
2.69689
 20
0.850424
 30
0
 11
2.68892
 21
0.790419
 31
0
  0
LINE
  5
20F7B
100
AcDbEntity
  8
0
100
AcDbLine
370
-1
 62
0
  6
BYLAYER
 10
2.68892
 20
0.790419
 30
0
 11
3.33094
 21
0.790528
 31
0
  0
LINE
  5
20F7C
100
AcDbEntity
  8
0
100
AcDbLine
370
-1
 62
0
  6
BYLAYER
 10
3.33094
 20
0.790528
 30
0
 11
3.33832
 21
0.827419
 31
0
  0
LINE
  5
20F7D
100
AcDbEntity
  8
0
100
AcDbLine
370
-1
 62
0
  6
BYLAYER
 10
3.33832
 20
0.827419
 30
0
 11
3.35986
 21
0.93826
 31
0
  0
LINE
  5
20F7E
100
AcDbEntity
  8
0
100
AcDbLine
370
-1
 62
0
  6
BYLAYER
 10
3.35986
 20
0.93826
 30
0
 11
3.3916
 21
1.13021
 31
0
  0
LINE
  5
20F7F
100
AcDbEntity
  8
0
100
AcDbLine
370
-1
 62
0
  6
BYLAYER
 10
3.3916
 20
1.13021
 30
0
 11
3.41786
 21
1.36155
 31
0
  0
LINE
  5
20F80
100
AcDbEntity
  8
0
100
AcDbLine
370
-1
 62
0
  6
BYLAYER
 10
3.41786
 20
1.36155
 30
0
 11
3.43028
 21
1.62722
 31
0
  0
LINE
  5
20F81
100
AcDbEntity
  8
0
100
AcDbLine
370
-1
 62
0
  6
BYLAYER
 10
3.43028
 20
1.62722
 30
0
 11
3.42057
 21
1.92236
 31
0
  0
LINE
  5
20F82
100
AcDbEntity
  8
0
100
AcDbLine
370
-1
 62
0
  6
BYLAYER
 10
3.42057
 20
1.92236
 30
0
 11
3.38043
 21
2.24197
 31
0
  0
LINE
  5
20F83
100
AcDbEntity
  8
0
100
AcDbLine
370
-1
 62
0
  6
BYLAYER
 10
3.38043
 20
2.24197
 30
0
 11
3.30154
 21
2.58111
 31
0
  0
LINE
  5
20F84
100
AcDbEntity
  8
0
100
AcDbLine
370
-1
 62
0
  6
BYLAYER
 10
3.30154
 20
2.58111
 30
0
 11
3.21208
 21
2.84858
 31
0
  0
LINE
  5
20F85
100
AcDbEntity
  8
0
100
AcDbLine
370
-1
 62
0
  6
BYLAYER
 10
3.21208
 20
2.84858
 30
0
 11
3.17557
 21
2.93485
 31
0
  0
LINE
  5
20F86
100
AcDbEntity
  8
0
100
AcDbLine
370
-1
 62
0
  6
BYLAYER
 10
3.17557
 20
2.93485
 30
0
 11
4.40869
 21
2.93485
 31
0
  0
LINE
  5
20F87
100
AcDbEntity
  8
0
100
AcDbLine
370
-1
 62
0
  6
BYLAYER
 10
4.40869
 20
2.93485
 30
0
 11
4.41238
 21
2.92524
 31
0
  0
LINE
  5
20F88
100
AcDbEntity
  8
0
100
AcDbLine
370
-1
 62
0
  6
BYLAYER
 10
4.41238
 20
2.92524
 30
0
 11
4.42264
 21
2.89665
 31
0
  0
LINE
  5
20F89
100
AcDbEntity
  8
0
100
AcDbLine
370
-1
 62
0
  6
BYLAYER
 10
4.42264
 20
2.89665
 30
0
 11
4.43832
 21
2.84961
 31
0
  0
LINE
  5
20F8A
100
AcDbEntity
  8
0
100
AcDbLine
370
-1
 62
0
  6
BYLAYER
 10
4.43832
 20
2.84961
 30
0
 11
4.45806
 21
2.78461
 31
0
  0
LINE
  5
20F8B
100
AcDbEntity
  8
0
100
AcDbLine
370
-1
 62
0
  6
BYLAYER
 10
4.45806
 20
2.78461
 30
0
 11
4.48068
 21
2.70221
 31
0
  0
LINE
  5
20F8C
100
AcDbEntity
  8
0
100
AcDbLine
370
-1
 62
0
  6
BYLAYER
 10
4.48068
 20
2.70221
 30
0
 11
4.50499
 21
2.60292
 31
0
  0
LINE
  5
20F8D
100
AcDbEntity
  8
0
100
AcDbLine
370
-1
 62
0
  6
BYLAYER
 10
4.50499
 20
2.60292
 30
0
 11
4.52968
 21
2.48719
 31
0
  0
LINE
  5
20F8E
100
AcDbEntity
  8
0
100
AcDbLine
370
-1
 62
0
  6
BYLAYER
 10
4.52968
 20
2.48719
 30
0
 11
4.55354
 21
2.35553
 31
0
  0
LINE
  5
20F8F
100
AcDbEntity
  8
0
100
AcDbLine
370
-1
 62
0
  6
BYLAYER
 10
4.55354
 20
2.35553
 30
0
 11
4.57542
 21
2.2085
 31
0
  0
LINE
  5
20F90
100
AcDbEntity
  8
0
100
AcDbLine
370
-1
 62
0
  6
BYLAYER
 10
4.57542
 20
2.2085
 30
0
 11
4.59392
 21
2.0466
 31
0
  0
LINE
  5
20F91
100
AcDbEntity
  8
0
100
AcDbLine
370
-1
 62
0
  6
BYLAYER
 10
4.59392
 20
2.0466
 30
0
 11
4.60796
 21
1.87028
 31
0
  0
LINE
  5
20F92
100
AcDbEntity
  8
0
100
AcDbLine
370
-1
 62
0
  6
BYLAYER
 10
4.60796
 20
1.87028
 30
0
 11
4.61621
 21
1.68013
 31
0
  0
LINE
  5
20F93
100
AcDbEntity
  8
0
100
AcDbLine
370
-1
 62
0
  6
BYLAYER
 10
4.61621
 20
1.68013
 30
0
 11
4.61751
 21
1.47657
 31
0
  0
LINE
  5
20F94
100
AcDbEntity
  8
0
100
AcDbLine
370
-1
 62
0
  6
BYLAYER
 10
4.61751
 20
1.47657
 30
0
 11
4.61051
 21
1.2602
 31
0
  0
LINE
  5
20F95
100
AcDbEntity
  8
0
100
AcDbLine
370
-1
 62
0
  6
BYLAYER
 10
4.61051
 20
1.2602
 30
0
 11
4.59413
 21
1.03141
 31
0
  0
LINE
  5
20F96
100
AcDbEntity
  8
0
100
AcDbLine
370
-1
 62
0
  6
BYLAYER
 10
4.59413
 20
1.03141
 30
0
 11
4.57503
 21
0.850803
 31
0
  0
LINE
  5
20F97
100
AcDbEntity
  8
0
100
AcDbLine
370
-1
 62
0
  6
BYLAYER
 10
4.57503
 20
0.850803
 30
0
 11
4.56706
 21
0.790799
 31
0
  0
LINE
  5
20F98
100
AcDbEntity
  8
0
100
AcDbLine
370
-1
 62
0
  6
BYLAYER
 10
4.56706
 20
0.790799
 30
0
 11
5.27593
 21
0.790961
 31
0
  0
LINE
  5
20F99
100
AcDbEntity
  8
0
100
AcDbLine
370
-1
 62
0
  6
BYLAYER
 10
5.27593
 20
0.790961
 30
0
 11
5.28326
 21
0.827746
 31
0
  0
LINE
  5
20F9A
100
AcDbEntity
  8
0
100
AcDbLine
370
-1
 62
0
  6
BYLAYER
 10
5.28326
 20
0.827746
 30
0
 11
5.30197
 21
0.938747
 31
0
  0
LINE
  5
20F9B
100
AcDbEntity
  8
0
100
AcDbLine
370
-1
 62
0
  6
BYLAYER
 10
5.30197
 20
0.938747
 30
0
 11
5.32607
 21
1.13075
 31
0
  0
LINE
  5
20F9C
100
AcDbEntity
  8
0
100
AcDbLine
370
-1
 62
0
  6
BYLAYER
 10
5.32607
 20
1.13075
 30
0
 11
5.34153
 21
1.36203
 31
0
  0
LINE
  5
20F9D
100
AcDbEntity
  8
0
100
AcDbLine
370
-1
 62
0
  6
BYLAYER
 10
5.34153
 20
1.36203
 30
0
 11
5.34164
 21
1.62765
 31
0
  0
LINE
  5
20F9E
100
AcDbEntity
  8
0
100
AcDbLine
370
-1
 62
0
  6
BYLAYER
 10
5.34164
 20
1.62765
 30
0
 11
5.31956
 21
1.92275
 31
0
  0
LINE
  5
20F9F
100
AcDbEntity
  8
0
100
AcDbLine
370
-1
 62
0
  6
BYLAYER
 10
5.31956
 20
1.92275
 30
0
 11
5.26861
 21
2.24224
 31
0
  0
LINE
  5
20FA0
100
AcDbEntity
  8
0
100
AcDbLine
370
-1
 62
0
  6
BYLAYER
 10
5.26861
 20
2.24224
 30
0
 11
5.18213
 21
2.58128
 31
0
  0
LINE
  5
20FA1
100
AcDbEntity
  8
0
100
AcDbLine
370
-1
 62
0
  6
BYLAYER
 10
5.18213
 20
2.58128
 30
0
 11
5.08996
 21
2.84836
 31
0
  0
LINE
  5
20FA2
100
AcDbEntity
  8
0
100
AcDbLine
370
-1
 62
0
  6
BYLAYER
 10
5.08996
 20
2.84836
 30
0
 11
5.05333
 21
2.93485
 31
0
  0
LINE
  5
20FA3
100
AcDbEntity
  8
0
100
AcDbLine
370
-1
 62
0
  6
BYLAYER
 10
5.05333
 20
2.93485
 30
0
 11
6.35357
 21
2.93485
 31
0
  0
LINE
  5
20FA4
100
AcDbEntity
  8
0
100
AcDbLine
370
-1
 62
0
  6
BYLAYER
 10
6.35357
 20
2.93485
 30
0
 11
6.35726
 21
2.92524
 31
0
  0
LINE
  5
20FA5
100
AcDbEntity
  8
0
100
AcDbLine
370
-1
 62
0
  6
BYLAYER
 10
6.35726
 20
2.92524
 30
0
 11
6.36751
 21
2.89665
 31
0
  0
LINE
  5
20FA6
100
AcDbEntity
  8
0
100
AcDbLine
370
-1
 62
0
  6
BYLAYER
 10
6.36751
 20
2.89665
 30
0
 11
6.38314
 21
2.84961
 31
0
  0
LINE
  5
20FA7
100
AcDbEntity
  8
0
100
AcDbLine
370
-1
 62
0
  6
BYLAYER
 10
6.38314
 20
2.84961
 30
0
 11
6.40294
 21
2.78467
 31
0
  0
LINE
  5
20FA8
100
AcDbEntity
  8
0
100
AcDbLine
370
-1
 62
0
  6
BYLAYER
 10
6.40294
 20
2.78467
 30
0
 11
6.42557
 21
2.70226
 31
0
  0
LINE
  5
20FA9
100
AcDbEntity
  8
0
100
AcDbLine
370
-1
 62
0
  6
BYLAYER
 10
6.42557
 20
2.70226
 30
0
 11
6.44982
 21
2.60297
 31
0
  0
LINE
  5
20FAA
100
AcDbEntity
  8
0
100
AcDbLine
370
-1
 62
0
  6
BYLAYER
 10
6.44982
 20
2.60297
 30
0
 11
6.4745
 21
2.48725
 31
0
  0
LINE
  5
20FAB
100
AcDbEntity
  8
0
100
AcDbLine
370
-1
 62
0
  6
BYLAYER
 10
6.4745
 20
2.48725
 30
0
 11
6.49843
 21
2.35562
 31
0
  0
LINE
  5
20FAC
100
AcDbEntity
  8
0
100
AcDbLine
370
-1
 62
0
  6
BYLAYER
 10
6.49843
 20
2.35562
 30
0
 11
6.52024
 21
2.20865
 31
0
  0
LINE
  5
20FAD
100
AcDbEntity
  8
0
100
AcDbLine
370
-1
 62
0
  6
BYLAYER
 10
6.52024
 20
2.20865
 30
0
 11
6.53874
 21
2.04676
 31
0
  0
LINE
  5
20FAE
100
AcDbEntity
  8
0
100
AcDbLine
370
-1
 62
0
  6
BYLAYER
 10
6.53874
 20
2.04676
 30
0
 11
6.55279
 21
1.8705
 31
0
  0
LINE
  5
20FAF
100
AcDbEntity
  8
0
100
AcDbLine
370
-1
 62
0
  6
BYLAYER
 10
6.55279
 20
1.8705
 30
0
 11
6.56104
 21
1.68039
 31
0
  0
LINE
  5
20FB0
100
AcDbEntity
  8
0
100
AcDbLine
370
-1
 62
0
  6
BYLAYER
 10
6.56104
 20
1.68039
 30
0
 11
6.56233
 21
1.47689
 31
0
  0
LINE
  5
20FB1
100
AcDbEntity
  8
0
100
AcDbLine
370
-1
 62
0
  6
BYLAYER
 10
6.56233
 20
1.47689
 30
0
 11
6.55539
 21
1.26052
 31
0
  0
LINE
  5
20FB2
100
AcDbEntity
  8
0
100
AcDbLine
370
-1
 62
0
  6
BYLAYER
 10
6.55539
 20
1.26052
 30
0
 11
6.53901
 21
1.03179
 31
0
  0
LINE
  5
20FB3
100
AcDbEntity
  8
0
100
AcDbLine
370
-1
 62
0
  6
BYLAYER
 10
6.53901
 20
1.03179
 30
0
 11
6.51992
 21
0.851238
 31
0
  0
LINE
  5
20FB4
100
AcDbEntity
  8
0
100
AcDbLine
370
-1
 62
0
  6
BYLAYER
 10
6.51992
 20
0.851238
 30
0
 11
6.51193
 21
0.791233
 31
0
  0
LINE
  5
20FB5
100
AcDbEntity
  8
0
100
AcDbLine
370
-1
 62
0
  6
BYLAYER
 10
6.51193
 20
0.791233
 30
0
 11
7.27599
 21
0.791396
 31
0
  0
LINE
  5
20FB6
100
AcDbEntity
  8
0
100
AcDbLine
370
-1
 62
0
  6
BYLAYER
 10
7.27599
 20
0.791396
 30
0
 11
7.28331
 21
0.828125
 31
0
  0
LINE
  5
20FB7
100
AcDbEntity
  8
0
100
AcDbLine
370
-1
 62
0
  6
BYLAYER
 10
7.28331
 20
0.828125
 30
0
 11
7.29969
 21
0.939344
 31
0
  0
LINE
  5
20FB8
100
AcDbEntity
  8
0
100
AcDbLine
370
-1
 62
0
  6
BYLAYER
 10
7.29969
 20
0.939344
 30
0
 11
7.31765
 21
1.13146
 31
0
  0
LINE
  5
20FB9
100
AcDbEntity
  8
0
100
AcDbLine
370
-1
 62
0
  6
BYLAYER
 10
7.31765
 20
1.13146
 30
0
 11
7.32443
 21
1.3629
 31
0
  0
LINE
  5
20FBA
100
AcDbEntity
  8
0
100
AcDbLine
370
-1
 62
0
  6
BYLAYER
 10
7.32443
 20
1.3629
 30
0
 11
7.31456
 21
1.62864
 31
0
  0
LINE
  5
20FBB
100
AcDbEntity
  8
0
100
AcDbLine
370
-1
 62
0
  6
BYLAYER
 10
7.31456
 20
1.62864
 30
0
 11
7.28256
 21
1.92378
 31
0
  0
LINE
  5
20FBC
100
AcDbEntity
  8
0
100
AcDbLine
370
-1
 62
0
  6
BYLAYER
 10
7.28256
 20
1.92378
 30
0
 11
7.22293
 21
2.24333
 31
0
  0
LINE
  5
20FBD
100
AcDbEntity
  8
0
100
AcDbLine
370
-1
 62
0
  6
BYLAYER
 10
7.22293
 20
2.24333
 30
0
 11
7.13032
 21
2.58231
 31
0
  0
LINE
  5
20FBE
100
AcDbEntity
  8
0
100
AcDbLine
370
-1
 62
0
  6
BYLAYER
 10
7.13032
 20
2.58231
 30
0
 11
7.03597
 21
2.84912
 31
0
  0
LINE
  5
20FBF
100
AcDbEntity
  8
0
100
AcDbLine
370
-1
 62
0
  6
BYLAYER
 10
7.03597
 20
2.84912
 30
0
 11
6.99924
 21
2.93576
 31
0
  0
LINE
  5
20FC0
100
AcDbEntity
  8
0
100
AcDbLine
370
-1
 62
0
  6
BYLAYER
 10
6.99924
 20
2.93576
 30
0
 11
8.35357
 21
2.93485
 31
0
  0
LINE
  5
20FC1
100
AcDbEntity
  8
0
100
AcDbLine
370
-1
 62
0
  6
BYLAYER
 10
8.35357
 20
2.93485
 30
0
 11
8.38439
 21
2.82226
 31
0
  0
LINE
  5
20FC2
100
AcDbEntity
  8
0
100
AcDbLine
370
-1
 62
0
  6
BYLAYER
 10
8.38439
 20
2.82226
 30
0
 11
8.45742
 21
2.47906
 31
0
  0
LINE
  5
20FC3
100
AcDbEntity
  8
0
100
AcDbLine
370
-1
 62
0
  6
BYLAYER
 10
8.45742
 20
2.47906
 30
0
 11
8.52317
 21
2.02171
 31
0
  0
LINE
  5
20FC4
100
AcDbEntity
  8
0
100
AcDbLine
370
-1
 62
0
  6
BYLAYER
 10
8.52317
 20
2.02171
 30
0
 11
8.5541
 21
1.56808
 31
0
  0
LINE
  5
20FC5
100
AcDbEntity
  8
0
100
AcDbLine
370
-1
 62
0
  6
BYLAYER
 10
8.5541
 20
1.56808
 30
0
 11
8.5535
 21
1.12359
 31
0
  0
LINE
  5
20FC6
100
AcDbEntity
  8
0
100
AcDbLine
370
-1
 62
0
  6
BYLAYER
 10
8.5535
 20
1.12359
 30
0
 11
8.52453
 21
0.693631
 31
0
  0
LINE
  5
20FC7
100
AcDbEntity
  8
0
100
AcDbLine
370
-1
 62
0
  6
BYLAYER
 10
8.52453
 20
0.693631
 30
0
 11
8.4706
 21
0.283529
 31
0
  0
LINE
  5
20FC8
100
AcDbEntity
  8
0
100
AcDbLine
370
-1
 62
0
  6
BYLAYER
 10
8.4706
 20
0.283529
 30
0
 11
8.39492
 21
-0.101346
 31
0
  0
LINE
  5
20FC9
100
AcDbEntity
  8
0
100
AcDbLine
370
-1
 62
0
  6
BYLAYER
 10
8.39492
 20
-0.101346
 30
0
 11
8.32736
 21
-0.368056
 31
0
  0
LINE
  5
20FCA
100
AcDbEntity
  8
0
100
AcDbLine
370
-1
 62
0
  6
BYLAYER
 10
8.32736
 20
-0.368056
 30
0
 11
8.30078
 21
-0.455729
 31
0
  0
LINE
  5
20FCB
100
AcDbEntity
  8
0
100
AcDbLine
370
-1
 62
0
  6
BYLAYER
 10
-0.732747
 20
1.51546
 30
0
 11
-0.713758
 21
1.51546
 31
0
  0
LINE
  5
20FCC
100
AcDbEntity
  8
0
100
AcDbLine
370
-1
 62
0
  6
BYLAYER
 10
-0.713758
 20
1.51546
 30
0
 11
-0.656685
 21
1.50782
 31
0
  0
LINE
  5
20FCD
100
AcDbEntity
  8
0
100
AcDbLine
370
-1
 62
0
  6
BYLAYER
 10
-0.656685
 20
1.50782
 30
0
 11
-0.585775
 21
1.48583
 31
0
  0
LINE
  5
20FCE
100
AcDbEntity
  8
0
100
AcDbLine
370
-1
 62
0
  6
BYLAYER
 10
-0.585775
 20
1.48583
 30
0
 11
-0.521647
 21
1.45101
 31
0
  0
LINE
  5
20FCF
100
AcDbEntity
  8
0
100
AcDbLine
370
-1
 62
0
  6
BYLAYER
 10
-0.521647
 20
1.45101
 30
0
 11
-0.465767
 21
1.40489
 31
0
  0
LINE
  5
20FD0
100
AcDbEntity
  8
0
100
AcDbLine
370
-1
 62
0
  6
BYLAYER
 10
-0.465767
 20
1.40489
 30
0
 11
-0.41965
 21
1.34901
 31
0
  0
LINE
  5
20FD1
100
AcDbEntity
  8
0
100
AcDbLine
370
-1
 62
0
  6
BYLAYER
 10
-0.41965
 20
1.34901
 30
0
 11
-0.384819
 21
1.28488
 31
0
  0
LINE
  5
20FD2
100
AcDbEntity
  8
0
100
AcDbLine
370
-1
 62
0
  6
BYLAYER
 10
-0.384819
 20
1.28488
 30
0
 11
-0.362847
 21
1.21398
 31
0
  0
LINE
  5
20FD3
100
AcDbEntity
  8
0
100
AcDbLine
370
-1
 62
0
  6
BYLAYER
 10
-0.362847
 20
1.21398
 30
0
 11
-0.355143
 21
1.1569
 31
0
  0
LINE
  5
20FD4
100
AcDbEntity
  8
0
100
AcDbLine
370
-1
 62
0
  6
BYLAYER
 10
-0.355143
 20
1.1569
 30
0
 11
-0.355143
 21
1.13786
 31
0
  0
LINE
  5
20FD5
100
AcDbEntity
  8
0
100
AcDbLine
370
-1
 62
0
  6
BYLAYER
 10
-0.355143
 20
1.13786
 30
0
 11
-0.355143
 21
1.11887
 31
0
  0
LINE
  5
20FD6
100
AcDbEntity
  8
0
100
AcDbLine
370
-1
 62
0
  6
BYLAYER
 10
-0.355143
 20
1.11887
 30
0
 11
-0.362847
 21
1.06179
 31
0
  0
LINE
  5
20FD7
100
AcDbEntity
  8
0
100
AcDbLine
370
-1
 62
0
  6
BYLAYER
 10
-0.362847
 20
1.06179
 30
0
 11
-0.384819
 21
0.990886
 31
0
  0
LINE
  5
20FD8
100
AcDbEntity
  8
0
100
AcDbLine
370
-1
 62
0
  6
BYLAYER
 10
-0.384819
 20
0.990886
 30
0
 11
-0.41965
 21
0.926758
 31
0
  0
LINE
  5
20FD9
100
AcDbEntity
  8
0
100
AcDbLine
370
-1
 62
0
  6
BYLAYER
 10
-0.41965
 20
0.926758
 30
0
 11
-0.465767
 21
0.870876
 31
0
  0
LINE
  5
20FDA
100
AcDbEntity
  8
0
100
AcDbLine
370
-1
 62
0
  6
BYLAYER
 10
-0.465767
 20
0.870876
 30
0
 11
-0.521647
 21
0.824761
 31
0
  0
LINE
  5
20FDB
100
AcDbEntity
  8
0
100
AcDbLine
370
-1
 62
0
  6
BYLAYER
 10
-0.521647
 20
0.824761
 30
0
 11
-0.585775
 21
0.789931
 31
0
  0
LINE
  5
20FDC
100
AcDbEntity
  8
0
100
AcDbLine
370
-1
 62
0
  6
BYLAYER
 10
-0.585775
 20
0.789931
 30
0
 11
-0.656685
 21
0.767958
 31
0
  0
LINE
  5
20FDD
100
AcDbEntity
  8
0
100
AcDbLine
370
-1
 62
0
  6
BYLAYER
 10
-0.656685
 20
0.767958
 30
0
 11
-0.713758
 21
0.760254
 31
0
  0
LINE
  5
20FDE
100
AcDbEntity
  8
0
100
AcDbLine
370
-1
 62
0
  6
BYLAYER
 10
-0.713758
 20
0.760254
 30
0
 11
-0.732747
 21
0.760254
 31
0
  0
LINE
  5
20FDF
100
AcDbEntity
  8
0
100
AcDbLine
370
-1
 62
0
  6
BYLAYER
 10
-0.732747
 20
0.760254
 30
0
 11
-0.75179
 21
0.760254
 31
0
  0
LINE
  5
20FE0
100
AcDbEntity
  8
0
100
AcDbLine
370
-1
 62
0
  6
BYLAYER
 10
-0.75179
 20
0.760254
 30
0
 11
-0.808865
 21
0.767958
 31
0
  0
LINE
  5
20FE1
100
AcDbEntity
  8
0
100
AcDbLine
370
-1
 62
0
  6
BYLAYER
 10
-0.808865
 20
0.767958
 30
0
 11
-0.879775
 21
0.789931
 31
0
  0
LINE
  5
20FE2
100
AcDbEntity
  8
0
100
AcDbLine
370
-1
 62
0
  6
BYLAYER
 10
-0.879775
 20
0.789931
 30
0
 11
-0.943901
 21
0.824761
 31
0
  0
LINE
  5
20FE3
100
AcDbEntity
  8
0
100
AcDbLine
370
-1
 62
0
  6
BYLAYER
 10
-0.943901
 20
0.824761
 30
0
 11
-0.999783
 21
0.870876
 31
0
  0
LINE
  5
20FE4
100
AcDbEntity
  8
0
100
AcDbLine
370
-1
 62
0
  6
BYLAYER
 10
-0.999783
 20
0.870876
 30
0
 11
-1.0459
 21
0.926758
 31
0
  0
LINE
  5
20FE5
100
AcDbEntity
  8
0
100
AcDbLine
370
-1
 62
0
  6
BYLAYER
 10
-1.0459
 20
0.926758
 30
0
 11
-1.08073
 21
0.990886
 31
0
  0
LINE
  5
20FE6
100
AcDbEntity
  8
0
100
AcDbLine
370
-1
 62
0
  6
BYLAYER
 10
-1.08073
 20
0.990886
 30
0
 11
-1.1027
 21
1.06179
 31
0
  0
LINE
  5
20FE7
100
AcDbEntity
  8
0
100
AcDbLine
370
-1
 62
0
  6
BYLAYER
 10
-1.1027
 20
1.06179
 30
0
 11
-1.11035
 21
1.11887
 31
0
  0
LINE
  5
20FE8
100
AcDbEntity
  8
0
100
AcDbLine
370
-1
 62
0
  6
BYLAYER
 10
-1.11035
 20
1.11887
 30
0
 11
-1.11035
 21
1.13786
 31
0
  0
LINE
  5
20FE9
100
AcDbEntity
  8
0
100
AcDbLine
370
-1
 62
0
  6
BYLAYER
 10
-1.11035
 20
1.13786
 30
0
 11
-1.11035
 21
1.1569
 31
0
  0
LINE
  5
20FEA
100
AcDbEntity
  8
0
100
AcDbLine
370
-1
 62
0
  6
BYLAYER
 10
-1.11035
 20
1.1569
 30
0
 11
-1.1027
 21
1.21398
 31
0
  0
LINE
  5
20FEB
100
AcDbEntity
  8
0
100
AcDbLine
370
-1
 62
0
  6
BYLAYER
 10
-1.1027
 20
1.21398
 30
0
 11
-1.08073
 21
1.28488
 31
0
  0
LINE
  5
20FEC
100
AcDbEntity
  8
0
100
AcDbLine
370
-1
 62
0
  6
BYLAYER
 10
-1.08073
 20
1.28488
 30
0
 11
-1.0459
 21
1.34901
 31
0
  0
LINE
  5
20FED
100
AcDbEntity
  8
0
100
AcDbLine
370
-1
 62
0
  6
BYLAYER
 10
-1.0459
 20
1.34901
 30
0
 11
-0.999783
 21
1.40489
 31
0
  0
LINE
  5
20FEE
100
AcDbEntity
  8
0
100
AcDbLine
370
-1
 62
0
  6
BYLAYER
 10
-0.999783
 20
1.40489
 30
0
 11
-0.943901
 21
1.45101
 31
0
  0
LINE
  5
20FEF
100
AcDbEntity
  8
0
100
AcDbLine
370
-1
 62
0
  6
BYLAYER
 10
-0.943901
 20
1.45101
 30
0
 11
-0.879775
 21
1.48583
 31
0
  0
LINE
  5
20FF0
100
AcDbEntity
  8
0
100
AcDbLine
370
-1
 62
0
  6
BYLAYER
 10
-0.879775
 20
1.48583
 30
0
 11
-0.808865
 21
1.50782
 31
0
  0
LINE
  5
20FF1
100
AcDbEntity
  8
0
100
AcDbLine
370
-1
 62
0
  6
BYLAYER
 10
-0.808865
 20
1.50782
 30
0
 11
-0.75179
 21
1.51546
 31
0
  0
LINE
  5
20FF2
100
AcDbEntity
  8
0
100
AcDbLine
370
-1
 62
0
  6
BYLAYER
 10
-0.75179
 20
1.51546
 30
0
 11
-0.732747
 21
1.51546
 31
0
  0
ENDSEC
  0
SECTION
  2
OBJECTS
  0
DICTIONARY
  5
21A72
100
AcDbDictionary
  3
ACAD_GROUP
350
21A73
  3
ACAD_MATERIAL
350
21A74
  3
ACAD_WIPEOUT_VARS
350
21A75
  3
ACAD_MLINESTYLE
350
21A76
  3
ACAD_IMAGE_VARS
350
21A77
  3
AcDbVariableDictionary
350
21A78
  3
ACAD_LAYOUT
350
21A79
  0
DICTIONARY
  5
21A73
330
21A72
100
AcDbDictionary
  0
DICTIONARY
  5
21A74
330
21A72
100
AcDbDictionary
  0
WIPEOUTVARIABLES
  5
21A75
330
21A72
100
AcDbWipeoutVariables
 70
1
  0
DICTIONARY
  5
21A76
330
21A72
100
AcDbDictionary
  3
STANDARD
350
21A7A
  0
MLINESTYLE
  5
21A7A
100
AcDbMlineStyle
  2
STANDARD
 70
0
  3

 62
256
 51
90
 52
90
 71
2
 49
0.5
 62
256
  6
ByLayer
 49
-0.5
 62
256
  6
ByLayer
  0
DICTIONARY
  5
21A79
100
AcDbDictionary
281
1
  3
Model
350
20557
  0
LAYOUT
  5
20557
102
{ACAD_REACTORS
330
21A79
102
}
330
21A79
100
AcDbPlotSettings
  1

  2
none_device
  4

  6

 40
0
 41
0
 42
0
 43
0
 44
0
 45
0
 46
0
 47
0
 48
0
 49
0
 70
1712
 72
1
 73
0
 74
5
 75
16
 76
0
 77
0
 78
100
140
0
141
0
142
1
143
1
147
1
148
0
149
0
100
AcDbLayout
  1
Model
 70
1
 71
1
 10
-4.17953
 20
-3.65494
 11
10.3803
 21
12.4408
 12
0
 22
0
 32
0
 14
-4.17953
 24
-3.65494
 34
0
 15
10.3803
 25
12.4408
 35
0
146
0
 13
0
 23
0
 33
0
 16
1
 26
0
 36
0
 17
0
 27
1
 37
0
 76
0
330
1F
  0
RASTERVARIABLES
  5
21A77
330
21A72
100
AcDbRasterVariables
 90
0
 70
1
 71
0
 72
0
  0
DICTIONARY
  5
21A78
100
AcDbDictionary
281
1
  3
XCLIPFRAME
350
21A7B
  0
DICTIONARYVAR
  5
21A7B
330
21A78
100
DictionaryVariables
280
0
  1
0
  0
DICTIONARY
  5
21A7C
100
AcDbDictionary
280
1
  3
XINFO
360
21A7D
  0
XRECORD
  5
21A7D
102
{ACAD_REACTORS
330
21A7C
102
}
330
21A7C
100
AcDbXrecord
280
0
310
3C00000001000E00
311
5817B404784F8854
  0
ENDSEC
  0
EOF
